<svg xmlns="http://www.w3.org/2000/svg" width="431" height="431" viewBox="0 0 431 431">
<!-- Generated by apx-clsct -->
  <rect width="431" height="431" fill="none" />
  <path d="M 392.37 292.74 C 412.74 272.31, 397.34 263.84, 398.28 261.35 C 399.22 258.86, 399.20 269.60, 397.06 280.28 C 394.92 290.96, 403.04 301.16, 387.58 314.74 C 372.11 328.33, 358.36 338.76, 319.73 348.20 C 281.11 357.63, 241.24 359.91, 194.46 361.91 C 147.67 363.92, 114.80 358.13, 85.80 358.24 C 56.80 358.36, 40.04 357.18, 49.45 362.50 C 58.85 367.82, 83.43 384.64, 132.83 384.84 C 182.23 385.04, 244.54 381.92, 296.45 363.50 C 348.35 345.08, 372.00 313.16, 392.37 292.74 Z" fill="#000000" stroke="none" />
  <path d="M 130.62 101.55 C 80.13 126.57, 60.04 171.13, 42.81 200.75 C 25.59 230.36, 41.95 242.38, 44.48 249.63 C 47.01 256.88, 53.80 243.81, 55.45 236.98 C 57.10 230.16, 50.25 227.19, 52.75 215.50 C 55.24 203.82, 54.78 197.80, 67.93 178.56 C 81.07 159.32, 94.50 140.34, 118.47 119.31 C 142.45 98.28, 158.82 82.60, 187.79 73.42 C 216.76 64.23, 234.95 66.32, 263.32 73.38 C 291.68 80.44, 309.12 100.15, 329.62 108.70 C 350.12 117.26, 372.70 122.75, 365.83 116.14 C 358.96 109.53, 342.30 78.57, 295.26 75.65 C 248.22 72.73, 181.11 76.53, 130.62 101.55 Z" fill="#000000" stroke="none" />
  <path d="M 322.39 335.67 C 322.44 342.27, 322.70 349.59, 327.54 356.80 C 332.38 364.00, 337.48 368.76, 346.58 371.72 C 355.68 374.68, 364.04 373.45, 373.05 371.58 C 382.05 369.70, 387.13 365.58, 391.60 362.34 C 396.06 359.11, 395.25 356.82, 395.36 355.40 C 395.46 353.97, 394.48 353.74, 392.11 355.22 C 389.74 356.70, 388.41 359.50, 383.50 362.80 C 378.60 366.10, 374.05 369.81, 367.58 371.74 C 361.11 373.67, 356.59 374.00, 351.15 372.44 C 345.72 370.87, 343.07 368.20, 340.40 363.90 C 337.74 359.60, 338.26 356.13, 337.83 350.94 C 337.40 345.75, 338.98 342.62, 338.27 337.95 C 337.55 333.27, 336.46 330.39, 334.26 327.57 C 332.05 324.74, 329.62 322.20, 327.24 323.82 C 324.87 325.44, 322.33 329.08, 322.39 335.67 Z" fill="#C9BEB7" stroke="none" />
  <path d="M 406.91 303.43 C 406.45 303.53, 406.38 303.77, 406.02 304.11 C 405.67 304.46, 405.53 304.78, 405.15 305.14 C 404.77 305.50, 404.46 305.66, 404.11 305.91 C 403.77 306.16, 403.56 306.11, 403.44 306.39 C 403.31 306.67, 403.30 306.90, 403.48 307.33 C 403.66 307.77, 403.90 307.99, 404.32 308.57 C 404.74 309.15, 405.02 309.44, 405.58 310.22 C 406.14 311.00, 406.44 311.61, 407.14 312.47 C 407.84 313.34, 408.41 314.03, 409.10 314.54 C 409.79 315.06, 410.10 315.17, 410.58 315.02 C 411.07 314.88, 411.17 314.44, 411.52 313.81 C 411.87 313.18, 412.14 312.59, 412.32 311.86 C 412.50 311.14, 412.59 310.76, 412.41 310.19 C 412.22 309.63, 411.88 309.62, 411.39 309.04 C 410.91 308.47, 410.44 308.10, 410.00 307.30 C 409.56 306.49, 409.53 305.76, 409.20 305.02 C 408.87 304.28, 408.79 303.92, 408.34 303.60 C 407.88 303.28, 407.38 303.32, 406.91 303.43 Z" fill="#C9BEB7" stroke="none" />
  <path d="M 89.38 308.56 C 86.70 308.25, 85.50 310.74, 83.64 315.20 C 81.78 319.66, 81.00 324.36, 80.08 330.86 C 79.16 337.35, 80.03 341.72, 79.06 347.67 C 78.08 353.63, 77.82 356.60, 75.22 360.65 C 72.62 364.71, 69.08 365.87, 66.05 367.97 C 63.01 370.06, 59.73 370.35, 60.06 371.14 C 60.40 371.93, 62.84 372.70, 67.72 371.93 C 72.60 371.16, 78.34 370.87, 84.46 367.30 C 90.59 363.72, 94.83 360.55, 98.34 354.04 C 101.85 347.53, 102.28 342.19, 102.02 334.73 C 101.76 327.27, 99.57 321.98, 97.04 316.74 C 94.51 311.51, 92.06 308.86, 89.38 308.56 Z" fill="#C9BEB7" stroke="none" />
  <path d="M 341.86 288.35 C 341.54 288.10, 341.48 288.39, 341.37 288.80 C 341.26 289.22, 341.29 289.79, 341.30 290.42 C 341.31 291.05, 341.40 291.36, 341.41 291.95 C 341.42 292.53, 341.31 292.74, 341.36 293.35 C 341.41 293.96, 341.41 294.34, 341.68 295.00 C 341.95 295.66, 342.15 296.05, 342.70 296.64 C 343.25 297.23, 343.63 297.47, 344.44 297.94 C 345.25 298.41, 345.99 298.59, 346.73 298.99 C 347.48 299.39, 347.80 299.62, 348.17 299.93 C 348.54 300.24, 348.39 300.42, 348.58 300.53 C 348.77 300.63, 348.83 300.53, 349.12 300.44 C 349.40 300.36, 349.63 300.18, 350.01 300.08 C 350.40 299.99, 350.62 300.05, 351.04 299.96 C 351.47 299.88, 351.78 299.84, 352.12 299.67 C 352.46 299.51, 352.68 299.44, 352.73 299.14 C 352.77 298.85, 352.62 298.59, 352.35 298.20 C 352.08 297.80, 351.87 297.49, 351.38 297.16 C 350.90 296.83, 350.56 296.76, 349.94 296.55 C 349.32 296.33, 348.95 296.40, 348.29 296.08 C 347.63 295.76, 347.35 295.60, 346.65 294.94 C 345.95 294.29, 345.50 293.78, 344.76 292.80 C 344.03 291.82, 343.56 290.94, 342.98 290.05 C 342.40 289.16, 342.18 288.60, 341.86 288.35 Z" fill="#C9BEB7" stroke="none" />
  <path d="M 73.09 288.40 C 73.09 287.54, 72.91 286.98, 72.77 286.22 C 72.63 285.45, 72.63 285.13, 72.39 284.58 C 72.15 284.03, 72.03 283.73, 71.57 283.47 C 71.12 283.21, 70.81 283.01, 70.11 283.28 C 69.40 283.55, 69.00 284.15, 68.04 284.82 C 67.08 285.49, 66.36 286.13, 65.31 286.63 C 64.25 287.13, 63.60 287.20, 62.79 287.34 C 61.97 287.48, 61.69 287.47, 61.24 287.32 C 60.80 287.17, 60.78 286.97, 60.55 286.60 C 60.32 286.22, 60.37 285.79, 60.10 285.47 C 59.83 285.15, 59.58 285.00, 59.19 284.98 C 58.79 284.97, 58.47 285.12, 58.12 285.40 C 57.77 285.67, 57.56 285.89, 57.44 286.34 C 57.33 286.80, 57.30 287.18, 57.54 287.67 C 57.79 288.16, 58.10 288.32, 58.67 288.78 C 59.24 289.25, 59.76 289.53, 60.40 289.99 C 61.05 290.45, 61.32 290.75, 61.91 291.10 C 62.50 291.46, 62.56 291.52, 63.34 291.77 C 64.12 292.01, 64.63 292.22, 65.80 292.34 C 66.97 292.45, 68.03 292.46, 69.20 292.33 C 70.36 292.19, 70.92 292.01, 71.63 291.65 C 72.35 291.29, 72.50 291.17, 72.79 290.52 C 73.08 289.87, 73.10 289.26, 73.09 288.40 Z" fill="#C9BEB7" stroke="none" />
  <path d="M 104.13 295.40 C 108.68 303.89, 118.69 314.92, 136.28 325.98 C 153.88 337.05, 169.89 345.26, 192.12 350.72 C 214.36 356.17, 228.80 356.34, 247.46 353.26 C 266.11 350.17, 278.01 343.41, 285.41 335.28 C 292.82 327.15, 295.12 319.33, 284.48 312.60 C 273.83 305.87, 256.54 305.68, 232.18 301.63 C 207.82 297.59, 186.41 296.00, 162.68 292.38 C 138.94 288.76, 125.22 282.93, 113.51 283.54 C 101.80 284.14, 99.57 286.91, 104.13 295.40 Z" fill="#C9BEB7" stroke="none" />
  <path d="M 277.11 192.27 C 279.21 189.54, 274.81 187.51, 266.23 186.64 C 257.65 185.77, 247.71 187.80, 234.22 187.94 C 220.73 188.07, 211.04 188.22, 198.78 187.31 C 186.52 186.40, 179.48 183.80, 172.92 183.38 C 166.35 182.95, 164.09 183.09, 165.96 185.18 C 167.84 187.27, 172.07 190.63, 182.30 193.82 C 192.54 197.00, 202.43 199.82, 217.12 201.12 C 231.82 202.42, 243.77 202.09, 255.77 200.31 C 267.77 198.54, 275.02 195.01, 277.11 192.27 Z" fill="#C9BEB7" stroke="none" />
  <path d="M 272.68 149.76 C 273.70 144.03, 268.65 141.42, 265.27 140.37 C 261.89 139.31, 257.85 142.48, 255.79 144.48 C 253.72 146.48, 257.37 147.87, 254.95 150.37 C 252.52 152.86, 250.03 153.83, 243.64 156.97 C 237.26 160.10, 227.56 163.09, 223.02 166.06 C 218.48 169.02, 219.70 170.42, 220.93 171.79 C 222.15 173.17, 228.41 172.29, 229.15 172.93 C 229.89 173.58, 229.54 174.60, 224.64 175.03 C 219.74 175.47, 212.95 176.03, 204.64 175.13 C 196.34 174.23, 189.03 171.42, 183.12 170.53 C 177.22 169.63, 173.11 169.11, 175.12 170.66 C 177.14 172.20, 182.43 176.27, 193.22 178.24 C 204.01 180.21, 215.69 182.36, 229.08 180.52 C 242.47 178.68, 251.46 175.20, 260.18 169.05 C 268.90 162.90, 271.66 155.50, 272.68 149.76 Z" fill="#C9BEB7" stroke="none" />
  <path d="M 174.58 114.89 C 174.44 114.61, 174.25 114.65, 173.99 114.46 C 173.73 114.27, 173.56 114.18, 173.30 113.95 C 173.04 113.71, 172.98 113.53, 172.69 113.30 C 172.40 113.06, 172.28 112.93, 171.83 112.78 C 171.38 112.63, 171.04 112.43, 170.45 112.55 C 169.85 112.67, 169.42 112.79, 168.85 113.39 C 168.27 113.98, 168.03 114.64, 167.57 115.53 C 167.12 116.41, 166.91 117.01, 166.56 117.83 C 166.21 118.65, 166.06 119.01, 165.82 119.63 C 165.58 120.25, 165.45 120.48, 165.37 120.93 C 165.29 121.38, 165.28 121.59, 165.42 121.87 C 165.56 122.15, 165.74 122.28, 166.07 122.32 C 166.40 122.36, 166.59 122.30, 167.08 122.06 C 167.57 121.83, 167.78 121.59, 168.53 121.15 C 169.28 120.70, 169.88 120.31, 170.83 119.84 C 171.79 119.38, 172.60 119.19, 173.32 118.81 C 174.05 118.43, 174.21 118.32, 174.46 117.95 C 174.71 117.57, 174.52 117.37, 174.57 116.95 C 174.62 116.52, 174.70 116.24, 174.70 115.83 C 174.70 115.42, 174.72 115.16, 174.58 114.89 Z" fill="#C9BEB7" stroke="none" />
  <path d="M 101.90 208.39 C 98.06 210.13, 92.46 212.54, 87.73 218.13 C 83.00 223.72, 80.05 229.32, 78.24 236.33 C 76.42 243.34, 77.83 248.89, 78.65 253.18 C 79.47 257.46, 80.51 258.86, 82.34 257.77 C 84.16 256.69, 85.01 253.26, 87.76 247.75 C 90.52 242.24, 92.98 236.41, 96.12 230.20 C 99.26 223.99, 101.29 220.85, 103.45 216.69 C 105.60 212.53, 107.20 211.08, 106.89 209.42 C 106.58 207.76, 105.73 206.65, 101.90 208.39 Z" fill="#2E748E" stroke="none" />
  <path d="M 145.37 177.47 C 146.94 175.02, 145.67 173.87, 141.93 173.56 C 138.19 173.24, 132.83 174.74, 126.66 175.90 C 120.49 177.06, 116.96 178.36, 111.10 179.36 C 105.25 180.35, 104.27 180.58, 97.37 180.86 C 90.48 181.14, 85.13 180.23, 76.62 180.76 C 68.11 181.29, 61.68 180.95, 54.80 183.50 C 47.93 186.05, 44.90 189.21, 42.26 193.51 C 39.62 197.81, 40.18 201.47, 41.60 205.02 C 43.02 208.56, 45.32 210.04, 49.37 211.23 C 53.41 212.42, 54.85 212.30, 61.82 210.96 C 68.80 209.63, 73.97 207.89, 84.23 204.57 C 94.49 201.24, 103.14 198.09, 113.12 194.34 C 123.10 190.58, 127.67 189.17, 134.12 185.79 C 140.57 182.42, 143.81 179.92, 145.37 177.47 Z" fill="#2E748E" stroke="none" />
  <path d="M 329.93 154.51 C 326.20 152.74, 324.13 155.22, 321.43 161.80 C 318.73 168.39, 314.84 175.71, 316.43 187.42 C 318.03 199.14, 323.03 209.69, 329.41 220.37 C 335.78 231.05, 343.35 237.87, 348.32 240.82 C 353.28 243.78, 354.54 239.22, 354.23 235.13 C 353.92 231.05, 346.63 224.19, 346.77 220.41 C 346.92 216.62, 347.01 215.76, 354.98 216.23 C 362.94 216.69, 375.41 221.19, 386.59 222.71 C 397.77 224.23, 405.39 225.33, 410.86 223.84 C 416.34 222.35, 416.77 219.25, 413.98 215.26 C 411.18 211.28, 406.66 208.83, 396.88 203.93 C 387.09 199.03, 376.42 197.41, 365.05 190.76 C 353.69 184.11, 347.08 177.94, 340.05 170.69 C 333.03 163.44, 333.65 156.29, 329.93 154.51 Z" fill="#2E748E" stroke="none" />
  <path d="M 203.48 117.22 C 202.39 117.63, 202.12 118.12, 201.83 118.57 C 201.54 119.01, 201.85 119.13, 202.05 119.43 C 202.25 119.72, 202.45 119.78, 202.83 120.05 C 203.21 120.32, 203.38 120.45, 203.96 120.77 C 204.54 121.09, 205.00 121.25, 205.72 121.63 C 206.45 122.00, 206.78 122.47, 207.58 122.64 C 208.38 122.81, 208.74 122.88, 209.74 122.47 C 210.73 122.07, 211.57 121.31, 212.55 120.61 C 213.52 119.92, 214.08 119.50, 214.62 118.98 C 215.16 118.46, 215.37 118.36, 215.26 118.02 C 215.14 117.69, 214.88 117.55, 214.04 117.30 C 213.19 117.05, 212.38 116.94, 211.03 116.78 C 209.68 116.63, 208.80 116.44, 207.29 116.53 C 205.78 116.61, 204.58 116.81, 203.48 117.22 Z" fill="#2E748E" stroke="none" />
  <path d="M 296.95 68.57 C 296.08 69.18, 294.83 72.23, 292.69 76.98 C 290.56 81.74, 288.52 87.09, 286.28 92.35 C 284.05 97.61, 283.10 99.93, 281.52 103.26 C 279.95 106.60, 279.45 107.20, 278.42 109.03 C 277.40 110.86, 277.02 111.26, 276.41 112.41 C 275.81 113.55, 275.14 114.45, 275.39 114.74 C 275.64 115.04, 276.01 115.43, 277.65 113.89 C 279.29 112.35, 281.27 110.15, 283.58 107.06 C 285.88 103.96, 287.42 101.44, 289.18 98.42 C 290.93 95.39, 291.26 94.76, 292.35 91.93 C 293.44 89.10, 293.71 87.89, 294.64 84.28 C 295.57 80.68, 296.54 77.06, 297.00 73.91 C 297.46 70.77, 297.81 67.95, 296.95 68.57 Z" fill="#2E748E" stroke="none" />
  <path d="M 164.95 50.36 C 166.15 51.93, 168.37 53.89, 172.16 56.79 C 175.95 59.68, 179.43 62.68, 183.88 64.82 C 188.34 66.96, 191.14 67.39, 194.41 67.48 C 197.68 67.58, 199.02 65.98, 200.23 65.30 C 201.45 64.61, 200.98 64.21, 200.48 64.04 C 199.99 63.87, 198.93 64.44, 197.77 64.43 C 196.61 64.43, 195.85 64.37, 194.69 64.01 C 193.54 63.64, 193.24 63.44, 192.01 62.60 C 190.78 61.76, 190.19 61.04, 188.55 59.80 C 186.91 58.56, 185.52 57.51, 183.81 56.40 C 182.10 55.29, 181.31 54.97, 180.00 54.25 C 178.70 53.52, 178.77 53.44, 177.28 52.78 C 175.79 52.11, 174.78 51.67, 172.55 50.91 C 170.32 50.14, 167.65 49.06, 166.13 48.95 C 164.61 48.84, 163.74 48.80, 164.95 50.36 Z" fill="#2E748E" stroke="none" />
  <path d="M 414.46 300.40 C 413.69 300.03, 412.99 300.14, 412.08 300.21 C 411.18 300.28, 410.65 300.50, 409.95 300.75 C 409.24 301.00, 408.88 301.21, 408.56 301.45 C 408.25 301.69, 408.21 301.77, 408.38 301.95 C 408.55 302.13, 409.04 302.11, 409.41 302.37 C 409.78 302.63, 410.05 302.73, 410.24 303.24 C 410.43 303.74, 410.25 304.15, 410.35 304.90 C 410.45 305.65, 410.44 306.31, 410.72 306.98 C 411.00 307.65, 411.33 307.89, 411.76 308.23 C 412.20 308.57, 412.50 308.43, 412.89 308.69 C 413.27 308.95, 413.43 309.20, 413.69 309.53 C 413.95 309.85, 414.03 310.27, 414.18 310.32 C 414.34 310.37, 414.37 310.14, 414.46 309.77 C 414.54 309.39, 414.49 308.89, 414.60 308.45 C 414.71 308.00, 414.83 307.88, 415.00 307.55 C 415.18 307.22, 415.30 307.22, 415.46 306.80 C 415.61 306.39, 415.64 306.05, 415.78 305.47 C 415.91 304.88, 416.10 304.57, 416.13 303.89 C 416.16 303.21, 416.26 302.76, 415.92 302.06 C 415.59 301.36, 415.23 300.77, 414.46 300.40 Z" fill="#ECE1D6" stroke="none" />
  <path d="M 333.65 308.91 C 332.42 312.17, 332.03 315.17, 334.87 318.90 C 337.71 322.63, 341.08 324.90, 347.86 327.55 C 354.64 330.20, 361.21 329.88, 368.75 332.15 C 376.29 334.42, 380.11 336.14, 385.57 338.89 C 391.02 341.64, 392.34 345.22, 396.02 345.91 C 399.70 346.60, 401.76 345.79, 403.99 342.33 C 406.21 338.87, 407.14 334.04, 407.15 328.62 C 407.15 323.20, 405.72 319.90, 404.02 315.23 C 402.32 310.56, 400.87 308.09, 398.65 305.29 C 396.43 302.48, 395.55 301.95, 392.92 301.21 C 390.29 300.46, 388.80 301.89, 385.50 301.54 C 382.20 301.20, 379.81 300.81, 376.42 299.49 C 373.04 298.17, 371.60 295.92, 368.56 294.95 C 365.52 293.97, 364.59 293.84, 361.23 294.61 C 357.87 295.38, 355.81 297.22, 351.76 298.82 C 347.72 300.41, 344.62 300.57, 340.99 302.59 C 337.37 304.61, 334.87 305.64, 333.65 308.91 Z" fill="#ECE1D6" stroke="none" />
  <path d="M 75.96 300.41 C 72.56 297.26, 68.75 295.96, 64.24 293.60 C 59.72 291.24, 57.29 289.49, 53.37 288.60 C 49.45 287.70, 48.35 287.92, 44.66 289.11 C 40.96 290.31, 38.86 292.14, 34.91 294.58 C 30.96 297.01, 28.22 297.93, 24.91 301.29 C 21.61 304.65, 20.16 306.56, 18.39 311.38 C 16.63 316.20, 16.03 320.05, 16.09 325.40 C 16.14 330.75, 17.26 335.31, 18.67 338.13 C 20.08 340.95, 21.14 341.07, 23.13 339.49 C 25.12 337.90, 25.20 333.43, 28.61 330.19 C 32.03 326.95, 34.51 324.60, 40.22 323.29 C 45.93 321.98, 51.02 323.45, 57.17 323.64 C 63.32 323.83, 66.68 325.30, 70.95 324.24 C 75.23 323.17, 76.49 321.30, 78.54 318.32 C 80.60 315.33, 81.74 312.90, 81.23 309.32 C 80.71 305.74, 79.36 303.55, 75.96 300.41 Z" fill="#ECE1D6" stroke="none" />
  <path d="M 350.31 283.54 C 350.11 283.46, 350.13 283.65, 350.03 284.14 C 349.92 284.63, 350.05 285.28, 349.78 285.98 C 349.50 286.68, 349.32 287.35, 348.65 287.64 C 347.99 287.92, 347.36 287.69, 346.46 287.39 C 345.56 287.10, 344.78 286.23, 344.16 286.16 C 343.55 286.10, 343.26 286.20, 343.39 287.08 C 343.52 287.97, 344.01 289.28, 344.80 290.59 C 345.58 291.90, 346.40 292.99, 347.30 293.65 C 348.19 294.32, 348.62 294.22, 349.28 293.91 C 349.94 293.60, 350.03 292.78, 350.59 292.11 C 351.15 291.44, 351.48 290.88, 352.09 290.57 C 352.70 290.26, 353.27 290.68, 353.64 290.56 C 354.01 290.44, 354.18 290.68, 353.96 289.99 C 353.73 289.30, 353.11 288.20, 352.52 287.11 C 351.94 286.01, 351.47 285.23, 351.02 284.52 C 350.58 283.80, 350.51 283.61, 350.31 283.54 Z" fill="#ECE1D6" stroke="none" />
  <path d="M 379.10 283.79 C 378.80 284.09, 378.59 284.47, 378.56 285.08 C 378.52 285.69, 378.79 286.05, 378.94 286.84 C 379.09 287.62, 379.11 287.98, 379.31 289.01 C 379.50 290.05, 379.57 290.82, 379.90 291.99 C 380.24 293.17, 380.54 294.00, 380.98 294.90 C 381.42 295.80, 381.57 296.23, 382.10 296.50 C 382.63 296.77, 382.95 296.68, 383.62 296.25 C 384.30 295.82, 384.75 295.02, 385.49 294.33 C 386.23 293.64, 386.72 292.97, 387.33 292.80 C 387.93 292.63, 388.21 293.23, 388.51 293.46 C 388.81 293.69, 388.84 294.42, 388.81 293.95 C 388.77 293.48, 388.64 292.48, 388.34 291.11 C 388.03 289.74, 387.70 288.35, 387.29 287.08 C 386.88 285.82, 386.69 285.17, 386.29 284.79 C 385.89 284.41, 385.81 284.89, 385.29 285.18 C 384.76 285.47, 384.35 286.11, 383.65 286.22 C 382.95 286.34, 382.37 286.12, 381.77 285.75 C 381.17 285.39, 381.00 284.86, 380.66 284.41 C 380.32 283.97, 380.38 283.66, 380.07 283.54 C 379.76 283.41, 379.40 283.48, 379.10 283.79 Z" fill="#ECE1D6" stroke="none" />
  <path d="M 35.01 283.58 C 34.37 283.37, 33.68 283.37, 33.08 283.74 C 32.49 284.10, 32.42 284.80, 32.04 285.39 C 31.66 285.99, 31.54 286.50, 31.20 286.71 C 30.86 286.91, 30.65 286.63, 30.34 286.43 C 30.03 286.22, 29.97 285.87, 29.65 285.69 C 29.34 285.50, 29.11 285.54, 28.76 285.50 C 28.41 285.46, 28.15 285.28, 27.90 285.49 C 27.66 285.69, 27.64 285.78, 27.53 286.52 C 27.41 287.27, 27.32 287.99, 27.33 289.22 C 27.34 290.44, 27.29 291.51, 27.58 292.67 C 27.87 293.82, 28.29 294.40, 28.78 294.98 C 29.28 295.57, 29.83 295.51, 30.08 295.60 C 30.32 295.68, 30.18 295.57, 30.02 295.41 C 29.86 295.25, 29.41 295.16, 29.28 294.81 C 29.15 294.45, 29.06 294.06, 29.35 293.64 C 29.64 293.22, 30.03 293.13, 30.75 292.71 C 31.46 292.29, 32.08 292.28, 32.93 291.55 C 33.78 290.81, 34.36 290.03, 34.99 289.02 C 35.62 288.02, 35.80 287.37, 36.07 286.52 C 36.33 285.68, 36.53 285.39, 36.32 284.80 C 36.11 284.22, 35.66 283.80, 35.01 283.58 Z" fill="#ECE1D6" stroke="none" />
  <path d="M 66.40 274.87 C 65.96 274.52, 65.99 274.63, 65.97 275.13 C 65.94 275.63, 66.27 276.49, 66.27 277.38 C 66.27 278.27, 66.12 278.82, 65.96 279.57 C 65.81 280.33, 65.73 280.64, 65.49 281.15 C 65.25 281.65, 65.19 281.98, 64.78 282.10 C 64.37 282.22, 64.03 282.05, 63.44 281.74 C 62.86 281.43, 62.42 280.84, 61.85 280.56 C 61.28 280.29, 61.01 280.20, 60.59 280.36 C 60.18 280.53, 59.91 280.85, 59.79 281.39 C 59.66 281.92, 59.75 282.36, 59.97 283.05 C 60.18 283.74, 60.56 284.23, 60.87 284.82 C 61.18 285.42, 61.23 285.70, 61.49 286.03 C 61.75 286.36, 61.79 286.35, 62.18 286.46 C 62.56 286.58, 62.80 286.68, 63.43 286.61 C 64.05 286.54, 64.52 286.56, 65.30 286.11 C 66.08 285.65, 66.63 285.15, 67.34 284.34 C 68.05 283.53, 68.36 282.80, 68.87 282.06 C 69.37 281.33, 69.59 281.10, 69.86 280.67 C 70.14 280.24, 70.29 280.29, 70.26 279.90 C 70.23 279.52, 70.12 279.35, 69.70 278.75 C 69.29 278.15, 68.84 277.68, 68.17 276.90 C 67.51 276.13, 66.84 275.23, 66.40 274.87 Z" fill="#ECE1D6" stroke="none" />
  <path d="M 120.89 259.33 C 129.20 272.14, 141.30 279.73, 164.20 287.07 C 187.10 294.42, 208.10 296.23, 235.40 296.04 C 262.69 295.85, 282.22 293.04, 300.68 286.11 C 319.14 279.18, 323.74 272.91, 327.69 261.40 C 331.64 249.89, 326.33 239.62, 320.42 228.56 C 314.51 217.49, 309.48 211.57, 298.15 206.09 C 286.82 200.60, 280.70 202.35, 263.75 201.13 C 246.81 199.91, 234.16 199.80, 213.42 199.99 C 192.68 200.18, 178.20 197.50, 160.05 202.10 C 141.90 206.70, 130.50 211.56, 122.67 223.01 C 114.84 234.45, 112.59 246.51, 120.89 259.33 Z" fill="#ECE1D6" stroke="none" />
  <path d="M 150.36 145.52 C 153.47 151.11, 156.59 154.30, 166.06 156.75 C 175.53 159.20, 184.67 159.87, 197.70 157.78 C 210.73 155.69, 221.32 152.23, 231.21 146.30 C 241.10 140.36, 246.31 133.93, 247.13 128.09 C 247.95 122.25, 243.02 119.71, 235.31 117.10 C 227.60 114.49, 219.26 115.93, 208.60 115.03 C 197.93 114.14, 191.32 112.41, 181.96 112.62 C 172.61 112.83, 168.11 112.84, 161.82 116.07 C 155.53 119.30, 152.80 122.88, 150.51 128.77 C 148.22 134.66, 147.25 139.92, 150.36 145.52 Z" fill="#ECE1D6" stroke="none" />
  <path d="M 158.72 147.00 C 159.29 146.55, 160.20 146.38, 161.41 146.38 C 162.61 146.38, 163.54 146.73, 164.73 146.99 C 165.91 147.25, 166.43 147.43, 167.31 147.68 C 168.19 147.93, 168.49 148.05, 169.12 148.25 C 169.75 148.45, 169.95 148.53, 170.45 148.69 C 170.95 148.84, 171.07 148.89, 171.61 149.02 C 172.15 149.15, 172.43 149.14, 173.17 149.34 C 173.91 149.54, 174.33 149.75, 175.30 150.02 C 176.28 150.29, 176.60 150.43, 178.04 150.69 C 179.49 150.95, 180.45 151.02, 182.52 151.33 C 184.60 151.65, 186.66 151.72, 188.41 152.26 C 190.16 152.81, 191.09 153.33, 191.26 154.04 C 191.43 154.75, 190.48 155.37, 189.25 155.81 C 188.01 156.26, 186.59 156.27, 185.08 156.26 C 183.57 156.25, 182.93 155.97, 181.69 155.77 C 180.44 155.58, 180.04 155.47, 178.85 155.27 C 177.65 155.07, 176.98 154.96, 175.70 154.78 C 174.43 154.61, 173.62 154.62, 172.48 154.40 C 171.33 154.18, 170.82 154.01, 169.97 153.70 C 169.12 153.39, 168.92 153.13, 168.22 152.84 C 167.53 152.56, 167.19 152.50, 166.48 152.26 C 165.78 152.03, 165.46 151.94, 164.69 151.68 C 163.92 151.42, 163.52 151.30, 162.65 150.95 C 161.77 150.60, 161.16 150.38, 160.33 149.91 C 159.51 149.45, 158.85 149.21, 158.53 148.63 C 158.20 148.04, 158.14 147.45, 158.72 147.00 Z" fill="#ECE1D6" stroke="none" />
  <path d="M 177.01 109.37 C 177.77 109.68, 178.09 109.90, 178.39 110.36 C 178.69 110.81, 178.65 111.15, 178.51 111.67 C 178.37 112.18, 178.07 112.31, 177.69 112.93 C 177.30 113.56, 177.01 113.88, 176.58 114.79 C 176.15 115.71, 176.09 116.57, 175.53 117.50 C 174.97 118.42, 174.63 118.84, 173.79 119.42 C 172.95 120.00, 172.28 119.97, 171.32 120.38 C 170.36 120.79, 169.92 121.08, 168.98 121.47 C 168.04 121.87, 167.45 122.26, 166.63 122.38 C 165.81 122.49, 165.33 122.33, 164.89 122.05 C 164.46 121.77, 164.46 121.46, 164.45 120.98 C 164.43 120.49, 164.60 120.26, 164.83 119.63 C 165.05 119.00, 165.21 118.67, 165.56 117.82 C 165.91 116.97, 166.11 116.42, 166.58 115.40 C 167.05 114.38, 167.29 113.65, 167.90 112.72 C 168.51 111.80, 169.02 111.37, 169.64 110.78 C 170.26 110.19, 170.60 110.12, 170.99 109.78 C 171.38 109.44, 171.29 109.29, 171.61 109.07 C 171.93 108.84, 171.99 108.72, 172.59 108.66 C 173.18 108.61, 173.69 108.67, 174.57 108.81 C 175.46 108.95, 176.25 109.06, 177.01 109.37 Z" fill="#ECE1D6" stroke="none" />
  <path d="M 355.83 151.74 C 347.55 149.61, 342.02 152.73, 338.99 157.43 C 335.96 162.13, 335.65 168.90, 340.67 175.25 C 345.68 181.59, 354.91 186.77, 364.05 189.17 C 373.20 191.57, 383.10 191.46, 386.37 187.24 C 389.64 183.03, 386.53 175.19, 380.42 168.09 C 374.32 160.99, 364.12 153.87, 355.83 151.74 Z" fill="#6397AA" stroke="none" />
  <path d="M 117.52 133.18 C 109.36 132.57, 101.05 136.35, 91.23 141.44 C 81.40 146.53, 73.67 152.71, 68.38 158.61 C 63.09 164.52, 62.59 167.17, 64.78 170.94 C 66.97 174.72, 72.56 175.83, 79.33 177.51 C 86.11 179.18, 91.52 179.77, 98.65 179.33 C 105.79 178.88, 108.85 178.56, 115.02 175.30 C 121.19 172.04, 126.10 169.18, 129.50 163.01 C 132.89 156.85, 134.39 150.45, 131.99 144.48 C 129.59 138.51, 125.67 133.78, 117.52 133.18 Z" fill="#6397AA" stroke="none" />
  <path d="M 142.67 122.84 C 144.74 125.93, 148.21 121.11, 155.23 118.55 C 162.26 115.98, 167.81 112.03, 177.78 110.03 C 187.76 108.03, 193.41 109.33, 205.11 108.55 C 216.80 107.78, 224.40 108.69, 236.26 106.17 C 248.12 103.65, 257.05 101.47, 264.40 95.96 C 271.74 90.45, 273.97 83.87, 272.98 78.61 C 271.99 73.35, 265.82 72.04, 259.46 69.65 C 253.10 67.26, 249.28 67.61, 241.18 66.67 C 233.07 65.73, 229.11 65.12, 218.93 64.95 C 208.74 64.77, 201.52 63.55, 190.24 65.78 C 178.96 68.02, 171.58 68.67, 162.52 76.14 C 153.46 83.60, 148.90 93.75, 144.93 103.09 C 140.96 112.43, 140.61 119.75, 142.67 122.84 Z" fill="#6397AA" stroke="none" />
  <path d="M 387.59 341.82 C 386.43 339.66, 385.46 339.17, 383.13 337.56 C 380.80 335.94, 378.70 334.88, 375.93 333.76 C 373.15 332.63, 371.31 332.24, 369.25 331.93 C 367.19 331.63, 366.98 332.03, 365.62 332.24 C 364.26 332.45, 364.08 332.57, 362.46 332.99 C 360.85 333.40, 359.98 333.04, 357.56 334.30 C 355.13 335.56, 353.27 336.44, 350.35 339.28 C 347.42 342.12, 345.08 344.76, 342.93 348.52 C 340.78 352.27, 339.94 354.68, 339.58 358.06 C 339.21 361.43, 339.77 362.96, 341.11 365.38 C 342.45 367.80, 343.59 368.74, 346.29 370.16 C 348.99 371.58, 350.82 372.21, 354.63 372.47 C 358.43 372.73, 360.87 372.78, 365.30 371.45 C 369.74 370.12, 372.74 368.74, 376.81 365.83 C 380.88 362.92, 383.22 360.37, 385.64 356.88 C 388.07 353.38, 388.54 351.38, 388.93 348.37 C 389.32 345.36, 388.75 343.98, 387.59 341.82 Z" fill="#867A70" stroke="none" />
  <path d="M 31.38 326.82 C 29.34 328.04, 29.41 328.43, 28.87 330.33 C 28.32 332.24, 27.77 333.10, 28.65 336.34 C 29.52 339.57, 29.91 342.34, 33.23 346.53 C 36.55 350.72, 39.76 354.16, 45.26 357.28 C 50.76 360.40, 55.37 361.70, 60.73 362.13 C 66.09 362.56, 68.97 361.44, 72.07 359.43 C 75.16 357.41, 75.97 355.54, 76.22 352.06 C 76.48 348.58, 75.77 346.13, 73.32 342.04 C 70.88 337.95, 68.45 334.98, 64.02 331.60 C 59.58 328.22, 56.16 326.61, 51.17 325.14 C 46.17 323.67, 43.00 323.92, 39.04 324.26 C 35.08 324.59, 33.41 325.61, 31.38 326.82 Z" fill="#867A70" stroke="none" />
  <path d="M 308.43 358.73 C 308.75 356.36, 306.96 353.56, 303.17 352.72 C 299.39 351.89, 293.70 352.96, 289.50 354.55 C 285.30 356.14, 282.20 358.63, 282.17 360.67 C 282.14 362.71, 285.47 363.97, 289.36 364.75 C 293.24 365.52, 297.79 365.75, 301.60 364.54 C 305.42 363.34, 308.12 361.09, 308.43 358.73 Z" fill="#28596B" stroke="none" />
  <path d="M 113.53 338.64 C 112.21 339.93, 111.71 342.32, 112.84 345.21 C 113.96 348.09, 115.54 351.04, 119.17 353.07 C 122.81 355.09, 127.73 355.74, 131.01 355.34 C 134.29 354.94, 136.14 353.36, 135.59 351.05 C 135.05 348.75, 131.53 346.28, 128.30 343.82 C 125.07 341.36, 122.39 339.77, 119.44 338.74 C 116.48 337.70, 114.85 337.35, 113.53 338.64 Z" fill="#28596B" stroke="none" />
  <path d="M 378.20 243.19 C 377.06 239.00, 376.35 238.00, 375.33 237.15 C 374.32 236.30, 374.42 237.21, 373.14 238.91 C 371.85 240.62, 371.12 242.38, 368.92 245.68 C 366.71 248.98, 364.77 252.03, 362.11 255.41 C 359.46 258.79, 357.65 260.50, 355.64 262.56 C 353.62 264.62, 353.09 264.76, 352.04 265.69 C 350.99 266.63, 351.05 266.86, 350.38 267.24 C 349.70 267.61, 349.37 267.48, 348.66 267.56 C 347.95 267.64, 347.25 267.30, 346.83 267.64 C 346.41 267.98, 345.87 267.81, 346.55 269.26 C 347.24 270.72, 347.71 272.51, 350.25 274.91 C 352.79 277.31, 355.17 280.06, 359.25 281.28 C 363.33 282.50, 366.69 282.79, 370.66 281.01 C 374.63 279.22, 377.03 276.95, 379.10 272.36 C 381.16 267.77, 381.18 263.91, 381.00 258.08 C 380.82 252.24, 379.33 247.37, 378.20 243.19 Z" fill="#28596B" stroke="none" />
  <path d="M 71.53 245.77 C 70.24 245.77, 69.20 247.95, 68.74 251.72 C 68.28 255.48, 68.35 259.68, 69.22 264.60 C 70.09 269.52, 71.45 272.48, 73.11 276.31 C 74.76 280.15, 76.04 282.39, 77.49 283.79 C 78.93 285.18, 79.52 284.98, 80.34 283.28 C 81.16 281.57, 81.25 278.38, 81.58 275.27 C 81.91 272.16, 82.04 269.85, 82.01 267.71 C 81.97 265.56, 81.87 265.41, 81.41 264.54 C 80.95 263.68, 80.47 264.32, 79.72 263.38 C 78.97 262.44, 78.56 262.16, 77.65 259.83 C 76.75 257.49, 76.42 254.52, 75.19 251.71 C 73.97 248.90, 72.83 245.77, 71.53 245.77 Z" fill="#28596B" stroke="none" />
  <path d="M 298.29 98.26 C 296.46 92.89, 294.04 94.24, 291.29 98.51 C 288.53 102.78, 286.17 110.49, 284.51 119.62 C 282.85 128.75, 282.85 135.30, 283.00 144.15 C 283.15 153.01, 282.81 158.63, 285.27 163.90 C 287.72 169.17, 289.98 171.36, 295.29 170.49 C 300.60 169.61, 306.85 165.92, 311.82 159.52 C 316.80 153.13, 319.73 144.62, 320.16 138.53 C 320.58 132.44, 316.93 129.02, 313.96 129.08 C 310.99 129.15, 307.97 135.75, 305.31 138.86 C 302.65 141.98, 301.64 147.36, 300.67 144.66 C 299.70 141.96, 300.93 134.66, 300.46 125.38 C 299.98 116.10, 300.13 103.63, 298.29 98.26 Z" fill="#28596B" stroke="none" />
</svg>