<svg xmlns="http://www.w3.org/2000/svg" width="431" height="431" viewBox="0 0 431 431">
<!-- Generated by apx-clsct -->
  <rect width="431" height="431" fill="none" />
  <path d="M 345.00 131.00 C 333.80 128.00, 340.80 148.00, 336.00 157.00 C 331.20 166.00, 314.60 168.20, 321.00 176.00 C 327.40 183.80, 350.00 191.40, 368.00 196.00 C 386.00 200.60, 406.20 203.80, 411.00 199.00 C 415.80 194.20, 405.20 185.60, 392.00 172.00 C 378.80 158.40, 356.20 134.00, 345.00 131.00 Z" fill="#5F96A9" stroke="none" />
  <path d="M 147.00 166.00 C 156.80 160.20, 137.00 160.40, 133.00 151.00 C 129.00 141.60, 132.00 123.80, 127.00 119.00 C 122.00 114.20, 111.80 124.60, 108.00 127.00 C 104.20 129.40, 105.80 130.00, 108.00 131.00 C 110.20 132.00, 120.40 124.40, 119.00 132.00 C 117.60 139.60, 108.00 161.80, 101.00 169.00 C 94.00 176.20, 87.80 169.80, 84.00 168.00 C 80.20 166.20, 86.20 160.00, 82.00 160.00 C 77.80 160.00, 66.40 168.80, 63.00 168.00 C 59.60 167.20, 66.60 155.40, 65.00 156.00 C 63.40 156.60, 51.20 166.20, 55.00 171.00 C 58.80 175.80, 65.60 181.00, 84.00 180.00 C 102.40 179.00, 137.20 171.80, 147.00 166.00 Z" fill="#5F96A9" stroke="none" />
  <path d="M 150.00 110.00 C 157.20 113.80, 174.80 95.20, 184.00 96.00 C 193.20 96.80, 190.00 110.20, 196.00 114.00 C 202.00 117.80, 205.60 118.80, 214.00 115.00 C 222.40 111.20, 226.60 95.00, 238.00 95.00 C 249.40 95.00, 259.20 122.80, 271.00 115.00 C 282.80 107.20, 296.00 67.60, 297.00 56.00 C 298.00 44.40, 286.00 52.60, 276.00 57.00 C 266.00 61.40, 253.80 74.80, 247.00 78.00 C 240.20 81.20, 241.60 75.20, 242.00 73.00 C 242.40 70.80, 252.80 69.60, 249.00 67.00 C 245.20 64.40, 235.80 59.00, 223.00 60.00 C 210.20 61.00, 197.80 74.40, 185.00 72.00 C 172.20 69.60, 166.40 47.00, 159.00 48.00 C 151.60 49.00, 149.80 64.60, 148.00 77.00 C 146.20 89.40, 142.80 106.20, 150.00 110.00 Z" fill="#5F96A9" stroke="none" />
  <path d="M 212.00 71.00 C 212.80 72.20, 213.60 73.20, 214.00 75.00 C 214.40 76.80, 215.00 78.00, 214.00 80.00 C 213.00 82.00, 211.20 83.40, 209.00 85.00 C 206.80 86.60, 206.40 87.40, 203.00 88.00 C 199.60 88.60, 194.80 88.80, 192.00 88.00 C 189.20 87.20, 189.60 85.80, 189.00 84.00 C 188.40 82.20, 188.60 80.20, 189.00 79.00 C 189.40 77.80, 190.60 78.60, 191.00 78.00 C 191.40 77.40, 190.60 76.80, 191.00 76.00 C 191.40 75.20, 191.40 74.80, 193.00 74.00 C 194.60 73.20, 197.00 73.00, 199.00 72.00 C 201.00 71.00, 200.80 69.60, 203.00 69.00 C 205.20 68.40, 208.20 68.60, 210.00 69.00 C 211.80 69.40, 211.20 69.80, 212.00 71.00 Z" fill="#5F96A9" stroke="none" />
  <path d="M 430.00 228.00 C 420.00 188.60, 387.60 220.40, 380.00 233.00 C 372.40 245.60, 383.60 278.60, 392.00 291.00 C 400.40 303.40, 423.40 277.20, 422.00 295.00 C 420.60 312.80, 438.00 367.40, 385.00 380.00 C 332.00 392.60, 222.40 358.40, 157.00 358.00 C 91.60 357.60, 89.40 388.60, 58.00 378.00 C 26.60 367.40, 11.60 294.60, 0.00 305.00 C -11.60 315.40, -86.00 405.00, 0.00 430.00 C 86.00 455.00, 344.00 470.40, 430.00 430.00 C 516.00 389.60, 440.00 267.40, 430.00 228.00 Z" fill="#000000" stroke="none" />
  <path d="M 0.00 0.00 C -86.00 59.80, -11.20 243.00, 0.00 299.00 C 11.20 355.00, 41.40 296.60, 56.00 280.00 C 70.60 263.40, 75.40 226.20, 73.00 216.00 C 70.60 205.80, 53.20 231.40, 44.00 229.00 C 34.80 226.60, 9.00 228.00, 27.00 204.00 C 45.00 180.00, 107.80 141.60, 134.00 109.00 C 160.20 76.40, 125.00 52.80, 158.00 41.00 C 191.00 29.20, 270.00 37.60, 299.00 50.00 C 328.00 62.40, 276.80 69.40, 303.00 103.00 C 329.20 136.60, 404.60 238.60, 430.00 218.00 C 455.40 197.40, 516.00 43.60, 430.00 0.00 C 344.00 -43.60, 86.00 -59.80, 0.00 0.00 Z" fill="#000000" stroke="none" />
  <path d="M 332.00 319.00 C 332.60 322.80, 339.60 329.40, 342.00 331.00 C 344.40 332.60, 342.60 327.00, 344.00 327.00 C 345.40 327.00, 346.60 331.80, 349.00 331.00 C 351.40 330.20, 354.20 323.80, 356.00 323.00 C 357.80 322.20, 351.80 325.80, 358.00 327.00 C 364.20 328.20, 379.40 324.60, 387.00 329.00 C 394.60 333.40, 392.00 345.60, 396.00 349.00 C 400.00 352.40, 404.20 348.60, 407.00 346.00 C 409.80 343.40, 411.60 342.40, 410.00 336.00 C 408.40 329.60, 402.60 319.60, 399.00 314.00 C 395.40 308.40, 394.80 309.20, 392.00 308.00 C 389.20 306.80, 386.60 307.20, 385.00 308.00 C 383.40 308.80, 384.60 312.20, 384.00 312.00 C 383.40 311.80, 383.60 307.00, 382.00 307.00 C 380.40 307.00, 377.20 312.40, 376.00 312.00 C 374.80 311.60, 377.80 307.00, 376.00 305.00 C 374.20 303.00, 368.60 303.80, 367.00 302.00 C 365.40 300.20, 369.20 297.20, 368.00 296.00 C 366.80 294.80, 362.00 295.00, 361.00 296.00 C 360.00 297.00, 365.40 299.20, 363.00 301.00 C 360.60 302.80, 352.40 302.80, 349.00 305.00 C 345.60 307.20, 348.00 310.60, 346.00 312.00 C 344.00 313.40, 341.80 310.60, 339.00 312.00 C 336.20 313.40, 331.40 315.20, 332.00 319.00 Z" fill="#EDE1D5" stroke="none" />
  <path d="M 360.00 307.00 C 361.20 306.80, 362.40 308.20, 363.00 309.00 C 363.60 309.80, 362.80 310.60, 363.00 311.00 C 363.20 311.40, 363.60 310.80, 364.00 311.00 C 364.40 311.20, 364.80 311.60, 365.00 312.00 C 365.20 312.40, 365.20 312.60, 365.00 313.00 C 364.80 313.40, 364.40 313.20, 364.00 314.00 C 363.60 314.80, 363.80 315.80, 363.00 317.00 C 362.20 318.20, 360.60 319.20, 360.00 320.00 C 359.40 320.80, 360.60 320.40, 360.00 321.00 C 359.40 321.60, 357.80 322.80, 357.00 323.00 C 356.20 323.20, 356.20 323.40, 356.00 322.00 C 355.80 320.60, 355.80 317.40, 356.00 316.00 C 356.20 314.60, 356.80 316.20, 357.00 315.00 C 357.20 313.80, 356.40 311.60, 357.00 310.00 C 357.60 308.40, 358.80 307.20, 360.00 307.00 Z" fill="#EDE1D5" stroke="none" />
  <path d="M 48.00 296.00 C 47.40 297.00, 47.40 300.60, 48.00 302.00 C 48.60 303.40, 49.60 301.80, 51.00 303.00 C 52.40 304.20, 53.60 307.00, 55.00 308.00 C 56.40 309.00, 57.00 308.40, 58.00 308.00 C 59.00 307.60, 59.60 306.80, 60.00 306.00 C 60.40 305.20, 60.60 304.60, 60.00 304.00 C 59.40 303.40, 57.40 303.40, 57.00 303.00 C 56.60 302.60, 57.20 302.20, 58.00 302.00 C 58.80 301.80, 60.20 301.80, 61.00 302.00 C 61.80 302.20, 61.00 303.80, 62.00 303.00 C 63.00 302.20, 65.60 299.00, 66.00 298.00 C 66.40 297.00, 64.60 298.40, 64.00 298.00 C 63.40 297.60, 63.40 296.00, 63.00 296.00 C 62.60 296.00, 62.40 297.60, 62.00 298.00 C 61.60 298.40, 61.40 298.40, 61.00 298.00 C 60.60 297.60, 60.60 296.20, 60.00 296.00 C 59.40 295.80, 59.60 297.20, 58.00 297.00 C 56.40 296.80, 53.40 295.00, 52.00 295.00 C 50.60 295.00, 51.80 296.80, 51.00 297.00 C 50.20 297.20, 48.60 295.00, 48.00 296.00 Z" fill="#EDE1D5" stroke="none" />
  <path d="M 276.00 256.00 C 275.80 255.80, 275.20 255.80, 275.00 256.00 C 274.80 256.20, 275.20 256.60, 275.00 257.00 C 274.80 257.40, 274.20 257.40, 274.00 258.00 C 273.80 258.60, 274.20 259.40, 274.00 260.00 C 273.80 260.60, 273.20 260.40, 273.00 261.00 C 272.80 261.60, 273.20 262.40, 273.00 263.00 C 272.80 263.60, 272.20 263.00, 272.00 264.00 C 271.80 265.00, 271.60 266.80, 272.00 268.00 C 272.40 269.20, 273.60 269.40, 274.00 270.00 C 274.40 270.60, 273.60 270.80, 274.00 271.00 C 274.40 271.20, 275.60 271.40, 276.00 271.00 C 276.40 270.60, 275.80 269.60, 276.00 269.00 C 276.20 268.40, 276.80 268.80, 277.00 268.00 C 277.20 267.20, 276.80 265.80, 277.00 265.00 C 277.20 264.20, 277.80 264.80, 278.00 264.00 C 278.20 263.20, 278.20 261.80, 278.00 261.00 C 277.80 260.20, 277.20 260.60, 277.00 260.00 C 276.80 259.40, 277.20 258.60, 277.00 258.00 C 276.80 257.40, 276.20 257.40, 276.00 257.00 C 275.80 256.60, 276.20 256.20, 276.00 256.00 Z" fill="#EDE1D5" stroke="none" />
  <path d="M 248.00 244.00 C 246.80 243.60, 245.00 243.80, 244.00 244.00 C 243.00 244.20, 243.20 244.60, 243.00 245.00 C 242.80 245.40, 243.20 245.60, 243.00 246.00 C 242.80 246.40, 242.00 246.60, 242.00 247.00 C 242.00 247.40, 243.20 247.40, 243.00 248.00 C 242.80 248.60, 241.60 249.60, 241.00 250.00 C 240.40 250.40, 240.20 249.00, 240.00 250.00 C 239.80 251.00, 239.20 254.00, 240.00 255.00 C 240.80 256.00, 242.80 255.40, 244.00 255.00 C 245.20 254.60, 245.40 253.40, 246.00 253.00 C 246.60 252.60, 246.80 254.00, 247.00 253.00 C 247.20 252.00, 246.80 249.20, 247.00 248.00 C 247.20 246.80, 247.40 247.20, 248.00 247.00 C 248.60 246.80, 249.60 247.20, 250.00 247.00 C 250.40 246.80, 250.40 246.60, 250.00 246.00 C 249.60 245.40, 249.20 244.40, 248.00 244.00 Z" fill="#EDE1D5" stroke="none" />
  <path d="M 296.00 240.00 C 295.60 240.40, 296.40 241.00, 296.00 242.00 C 295.60 243.00, 294.40 244.00, 294.00 245.00 C 293.60 246.00, 294.20 246.40, 294.00 247.00 C 293.80 247.60, 293.40 247.80, 293.00 248.00 C 292.60 248.20, 292.00 247.80, 292.00 248.00 C 292.00 248.20, 292.60 248.20, 293.00 249.00 C 293.40 249.80, 293.40 251.00, 294.00 252.00 C 294.60 253.00, 295.60 253.40, 296.00 254.00 C 296.40 254.60, 295.60 254.80, 296.00 255.00 C 296.40 255.20, 297.60 258.00, 298.00 255.00 C 298.40 252.00, 298.40 243.00, 298.00 240.00 C 297.60 237.00, 296.40 239.60, 296.00 240.00 Z" fill="#EDE1D5" stroke="none" />
  <path d="M 287.00 237.00 C 286.60 236.00, 285.40 236.60, 285.00 237.00 C 284.60 237.40, 285.40 238.40, 285.00 239.00 C 284.60 239.60, 283.40 238.40, 283.00 240.00 C 282.60 241.60, 283.20 245.40, 283.00 247.00 C 282.80 248.60, 282.20 246.40, 282.00 248.00 C 281.80 249.60, 281.00 253.60, 282.00 255.00 C 283.00 256.40, 286.00 255.80, 287.00 255.00 C 288.00 254.20, 286.60 252.20, 287.00 251.00 C 287.40 249.80, 288.60 250.20, 289.00 249.00 C 289.40 247.80, 289.40 246.40, 289.00 245.00 C 288.60 243.60, 287.40 243.60, 287.00 242.00 C 286.60 240.40, 287.40 238.00, 287.00 237.00 Z" fill="#EDE1D5" stroke="none" />
  <path d="M 186.00 229.00 C 185.60 228.60, 184.40 228.60, 184.00 229.00 C 183.60 229.40, 184.80 229.40, 184.00 231.00 C 183.20 232.60, 181.40 236.20, 180.00 237.00 C 178.60 237.80, 177.80 236.00, 177.00 235.00 C 176.20 234.00, 176.20 232.20, 176.00 232.00 C 175.80 231.80, 176.80 233.00, 176.00 234.00 C 175.20 235.00, 173.00 234.40, 172.00 237.00 C 171.00 239.60, 171.80 244.80, 171.00 247.00 C 170.20 249.20, 168.60 247.20, 168.00 248.00 C 167.40 248.80, 166.60 250.80, 168.00 251.00 C 169.40 251.20, 172.80 250.80, 175.00 249.00 C 177.20 247.20, 177.60 243.00, 179.00 242.00 C 180.40 241.00, 181.20 243.00, 182.00 244.00 C 182.80 245.00, 181.80 247.60, 183.00 247.00 C 184.20 246.40, 187.00 244.00, 188.00 241.00 C 189.00 238.00, 188.40 234.00, 188.00 232.00 C 187.60 230.00, 186.40 231.60, 186.00 231.00 C 185.60 230.40, 186.40 229.40, 186.00 229.00 Z" fill="#EDE1D5" stroke="none" />
  <path d="M 306.00 208.00 C 305.20 206.60, 304.00 207.00, 303.00 207.00 C 302.00 207.00, 301.40 207.40, 301.00 208.00 C 300.60 208.60, 302.00 208.40, 301.00 210.00 C 300.00 211.60, 297.00 214.20, 296.00 216.00 C 295.00 217.80, 296.60 217.80, 296.00 219.00 C 295.40 220.20, 293.00 221.00, 293.00 222.00 C 293.00 223.00, 295.40 222.20, 296.00 224.00 C 296.60 225.80, 294.60 229.60, 296.00 231.00 C 297.40 232.40, 301.60 231.80, 303.00 231.00 C 304.40 230.20, 302.40 228.00, 303.00 227.00 C 303.60 226.00, 305.20 226.80, 306.00 226.00 C 306.80 225.20, 306.00 223.60, 307.00 223.00 C 308.00 222.40, 310.20 223.40, 311.00 223.00 C 311.80 222.60, 310.20 222.00, 311.00 221.00 C 311.80 220.00, 314.20 219.00, 315.00 218.00 C 315.80 217.00, 315.40 216.40, 315.00 216.00 C 314.60 215.60, 313.80 216.40, 313.00 216.00 C 312.20 215.60, 311.40 214.80, 311.00 214.00 C 310.60 213.20, 311.40 211.60, 311.00 212.00 C 310.60 212.40, 309.80 215.60, 309.00 216.00 C 308.20 216.40, 307.60 215.60, 307.00 214.00 C 306.40 212.40, 306.80 209.40, 306.00 208.00 Z" fill="#EDE1D5" stroke="none" />
  <path d="M 121.00 206.00 C 119.00 206.80, 117.20 213.00, 117.00 216.00 C 116.80 219.00, 120.20 219.80, 120.00 221.00 C 119.80 222.20, 115.60 221.40, 116.00 222.00 C 116.40 222.60, 121.80 219.00, 122.00 224.00 C 122.20 229.00, 117.00 242.40, 117.00 247.00 C 117.00 251.60, 118.40 250.60, 122.00 247.00 C 125.60 243.40, 132.80 228.60, 135.00 229.00 C 137.20 229.40, 131.60 244.40, 133.00 249.00 C 134.40 253.60, 140.00 249.20, 142.00 252.00 C 144.00 254.80, 141.20 261.80, 143.00 263.00 C 144.80 264.20, 149.40 263.40, 151.00 258.00 C 152.60 252.60, 151.80 241.00, 151.00 236.00 C 150.20 231.00, 147.00 237.80, 147.00 233.00 C 147.00 228.20, 151.20 217.80, 151.00 212.00 C 150.80 206.20, 148.20 205.60, 146.00 204.00 C 143.80 202.40, 142.60 199.40, 140.00 204.00 C 137.40 208.60, 136.20 223.20, 133.00 227.00 C 129.80 230.80, 125.20 226.00, 124.00 223.00 C 122.80 220.00, 127.60 215.40, 127.00 212.00 C 126.40 208.60, 123.00 205.20, 121.00 206.00 Z" fill="#EDE1D5" stroke="none" />
  <path d="M 88.00 263.00 C 108.60 272.60, 166.60 298.60, 216.00 301.00 C 265.40 303.40, 316.60 279.20, 335.00 275.00 C 353.40 270.80, 309.60 287.60, 308.00 280.00 C 306.40 272.40, 333.60 234.00, 327.00 237.00 C 320.40 240.00, 292.60 289.40, 275.00 295.00 C 257.40 300.60, 247.00 264.20, 239.00 265.00 C 231.00 265.80, 244.40 292.60, 235.00 299.00 C 225.60 305.40, 194.40 301.00, 192.00 297.00 C 189.60 293.00, 220.00 289.00, 223.00 279.00 C 226.00 269.00, 203.80 260.40, 207.00 247.00 C 210.20 233.60, 226.80 218.40, 239.00 212.00 C 251.20 205.60, 263.20 208.80, 268.00 215.00 C 272.80 221.20, 256.00 246.00, 263.00 243.00 C 270.00 240.00, 311.40 206.20, 303.00 200.00 C 294.60 193.80, 250.20 214.00, 221.00 212.00 C 191.80 210.00, 164.40 188.40, 157.00 190.00 C 149.60 191.60, 172.20 215.00, 184.00 220.00 C 195.80 225.00, 217.60 200.60, 216.00 215.00 C 214.40 229.40, 196.40 279.80, 176.00 292.00 C 155.60 304.20, 126.60 283.80, 114.00 276.00 C 101.40 268.20, 118.20 255.60, 113.00 253.00 C 107.80 250.40, 67.40 253.40, 88.00 263.00 Z" fill="#EDE1D5" stroke="none" />
  <path d="M 264.00 120.00 C 263.00 119.60, 260.20 120.20, 259.00 120.00 C 257.80 119.80, 258.20 118.80, 258.00 119.00 C 257.80 119.20, 257.60 120.20, 258.00 121.00 C 258.40 121.80, 259.80 122.40, 260.00 123.00 C 260.20 123.60, 259.80 123.80, 259.00 124.00 C 258.20 124.20, 256.60 123.40, 256.00 124.00 C 255.40 124.60, 256.40 125.80, 256.00 127.00 C 255.60 128.20, 254.20 129.20, 254.00 130.00 C 253.80 130.80, 255.00 130.60, 255.00 131.00 C 255.00 131.40, 254.20 131.60, 254.00 132.00 C 253.80 132.40, 253.80 132.80, 254.00 133.00 C 254.20 133.20, 254.80 133.20, 255.00 133.00 C 255.20 132.80, 253.40 133.80, 255.00 132.00 C 256.60 130.20, 261.40 125.80, 263.00 124.00 C 264.60 122.20, 262.80 123.40, 263.00 123.00 C 263.20 122.60, 263.80 122.60, 264.00 122.00 C 264.20 121.40, 265.00 120.40, 264.00 120.00 Z" fill="#EDE1D5" stroke="none" />
  <path d="M 248.00 139.00 C 250.20 137.60, 231.00 150.00, 226.00 150.00 C 221.00 150.00, 220.60 142.00, 223.00 139.00 C 225.40 136.00, 235.60 138.00, 238.00 135.00 C 240.40 132.00, 236.40 125.40, 235.00 124.00 C 233.60 122.60, 233.00 129.40, 231.00 128.00 C 229.00 126.60, 226.60 117.00, 225.00 117.00 C 223.40 117.00, 224.40 126.80, 223.00 128.00 C 221.60 129.20, 218.60 123.20, 218.00 123.00 C 217.40 122.80, 221.80 125.40, 220.00 127.00 C 218.20 128.60, 212.60 130.80, 209.00 131.00 C 205.40 131.20, 203.40 127.00, 202.00 128.00 C 200.60 129.00, 203.60 135.60, 202.00 136.00 C 200.40 136.40, 197.00 130.20, 194.00 130.00 C 191.00 129.80, 188.20 131.80, 187.00 135.00 C 185.80 138.20, 185.60 145.20, 188.00 146.00 C 190.40 146.80, 196.00 138.00, 199.00 139.00 C 202.00 140.00, 200.60 151.80, 203.00 151.00 C 205.40 150.20, 207.60 136.80, 211.00 135.00 C 214.40 133.20, 218.80 138.40, 220.00 142.00 C 221.20 145.60, 223.60 149.40, 217.00 153.00 C 210.40 156.60, 187.40 159.20, 187.00 160.00 C 186.60 160.80, 202.80 161.20, 215.00 157.00 C 227.20 152.80, 245.80 140.40, 248.00 139.00 Z" fill="#EDE1D5" stroke="none" />
  <path d="M 72.00 235.00 C 71.00 233.20, 72.40 236.40, 72.00 237.00 C 71.60 237.60, 70.00 236.20, 70.00 238.00 C 70.00 239.80, 72.20 244.20, 72.00 246.00 C 71.80 247.80, 69.60 244.00, 69.00 247.00 C 68.40 250.00, 68.80 258.40, 69.00 261.00 C 69.20 263.60, 69.40 259.80, 70.00 260.00 C 70.60 260.20, 71.80 261.20, 72.00 262.00 C 72.20 262.80, 70.40 263.00, 71.00 264.00 C 71.60 265.00, 74.00 266.60, 75.00 267.00 C 76.00 267.40, 75.00 265.20, 76.00 266.00 C 77.00 266.80, 78.80 270.60, 80.00 271.00 C 81.20 271.40, 82.00 268.80, 82.00 268.00 C 82.00 267.20, 80.00 267.60, 80.00 267.00 C 80.00 266.40, 81.60 268.40, 82.00 265.00 C 82.40 261.60, 82.40 252.60, 82.00 250.00 C 81.60 247.40, 80.60 251.80, 80.00 252.00 C 79.40 252.20, 79.20 252.20, 79.00 251.00 C 78.80 249.80, 79.40 247.00, 79.00 246.00 C 78.60 245.00, 78.40 248.20, 77.00 246.00 C 75.60 243.80, 73.00 236.80, 72.00 235.00 Z" fill="#225F75" stroke="none" />
  <path d="M 375.00 234.00 C 374.40 232.80, 373.20 232.00, 373.00 233.00 C 372.80 234.00, 374.40 237.60, 374.00 239.00 C 373.60 240.40, 373.00 236.80, 371.00 240.00 C 369.00 243.20, 367.20 250.40, 364.00 255.00 C 360.80 259.60, 357.60 261.20, 355.00 263.00 C 352.40 264.80, 352.00 263.20, 351.00 264.00 C 350.00 264.80, 350.80 266.80, 350.00 267.00 C 349.20 267.20, 347.60 264.20, 347.00 265.00 C 346.40 265.80, 346.60 269.60, 347.00 271.00 C 347.40 272.40, 348.40 272.20, 349.00 272.00 C 349.60 271.80, 349.60 270.00, 350.00 270.00 C 350.40 270.00, 349.40 272.40, 351.00 272.00 C 352.60 271.60, 355.80 268.80, 358.00 268.00 C 360.20 267.20, 360.20 269.00, 362.00 268.00 C 363.80 267.00, 365.60 266.40, 367.00 263.00 C 368.40 259.60, 367.20 255.80, 369.00 251.00 C 370.80 246.20, 374.80 242.40, 376.00 239.00 C 377.20 235.60, 375.60 235.20, 375.00 234.00 Z" fill="#225F75" stroke="none" />
  <path d="M 300.00 67.00 C 296.20 69.80, 278.40 102.20, 276.00 119.00 C 273.60 135.80, 285.20 147.20, 288.00 151.00 C 290.80 154.80, 288.80 139.40, 290.00 138.00 C 291.20 136.60, 295.60 137.20, 294.00 144.00 C 292.40 150.80, 283.00 165.20, 282.00 172.00 C 281.00 178.80, 282.00 178.40, 289.00 178.00 C 296.00 177.60, 307.00 179.60, 317.00 170.00 C 327.00 160.40, 341.00 141.60, 339.00 130.00 C 337.00 118.40, 312.40 109.20, 307.00 112.00 C 301.60 114.80, 313.60 133.60, 312.00 144.00 C 310.40 154.40, 303.80 159.60, 299.00 164.00 C 294.20 168.40, 287.00 170.40, 288.00 166.00 C 289.00 161.60, 301.00 152.40, 304.00 142.00 C 307.00 131.60, 304.80 121.40, 303.00 114.00 C 301.20 106.60, 295.60 114.40, 295.00 105.00 C 294.40 95.60, 303.80 64.20, 300.00 67.00 Z" fill="#225F75" stroke="none" />
  <path d="M 114.00 200.00 C 112.40 200.40, 113.80 202.40, 107.00 205.00 C 100.20 207.60, 86.00 210.60, 80.00 213.00 C 74.00 215.40, 78.40 212.80, 77.00 217.00 C 75.60 221.20, 72.40 228.20, 73.00 234.00 C 73.60 239.80, 78.60 242.60, 80.00 246.00 C 81.40 249.40, 79.40 250.20, 80.00 251.00 C 80.60 251.80, 82.40 248.60, 83.00 250.00 C 83.60 251.40, 81.60 261.00, 83.00 258.00 C 84.40 255.00, 85.40 244.20, 90.00 235.00 C 94.60 225.80, 103.20 216.80, 106.00 212.00 C 108.80 207.20, 102.20 212.80, 104.00 211.00 C 105.80 209.20, 113.00 205.20, 115.00 203.00 C 117.00 200.80, 115.60 199.60, 114.00 200.00 Z" fill="#29728E" stroke="none" />
  <path d="M 156.00 174.00 C 170.40 166.20, 159.00 169.00, 149.00 171.00 C 139.00 173.00, 122.40 181.60, 106.00 184.00 C 89.60 186.40, 78.40 184.80, 67.00 183.00 C 55.60 181.20, 54.80 173.20, 49.00 175.00 C 43.20 176.80, 40.60 185.60, 38.00 192.00 C 35.40 198.40, 34.00 202.60, 36.00 207.00 C 38.00 211.40, 39.80 213.40, 48.00 214.00 C 56.20 214.60, 55.40 218.00, 77.00 210.00 C 98.60 202.00, 141.60 181.80, 156.00 174.00 Z" fill="#29728E" stroke="none" />
  <path d="M 340.00 128.00 C 342.40 125.20, 334.60 153.00, 325.00 163.00 C 315.40 173.00, 291.80 168.80, 292.00 178.00 C 292.20 187.20, 314.40 191.40, 326.00 209.00 C 337.60 226.60, 340.80 261.60, 350.00 266.00 C 359.20 270.40, 376.00 241.40, 372.00 231.00 C 368.00 220.60, 339.20 220.40, 330.00 214.00 C 320.80 207.60, 319.20 197.20, 326.00 199.00 C 332.80 200.80, 348.00 216.20, 364.00 223.00 C 380.00 229.80, 394.60 234.40, 406.00 233.00 C 417.40 231.60, 419.00 221.60, 421.00 216.00 C 423.00 210.40, 428.20 208.20, 416.00 205.00 C 403.80 201.80, 380.60 205.60, 360.00 200.00 C 339.40 194.40, 317.00 191.40, 313.00 177.00 C 309.00 162.60, 337.60 130.80, 340.00 128.00 Z" fill="#29728E" stroke="none" />
  <path d="M 299.00 61.00 C 297.40 65.20, 293.60 83.60, 291.00 92.00 C 288.40 100.40, 289.20 97.80, 286.00 103.00 C 282.80 108.20, 276.00 116.00, 275.00 118.00 C 274.00 120.00, 278.00 117.00, 281.00 113.00 C 284.00 109.00, 286.40 106.40, 290.00 98.00 C 293.60 89.60, 297.20 78.40, 299.00 71.00 C 300.80 63.60, 300.60 56.80, 299.00 61.00 Z" fill="#29728E" stroke="none" />
  <path d="M 165.00 48.00 C 169.00 52.40, 181.40 65.40, 187.00 70.00 C 192.60 74.60, 191.00 71.60, 193.00 71.00 C 195.00 70.40, 195.80 67.60, 197.00 67.00 C 198.20 66.40, 198.20 68.60, 199.00 68.00 C 199.80 67.40, 201.20 64.20, 201.00 64.00 C 200.80 63.80, 199.40 67.00, 198.00 67.00 C 196.60 67.00, 195.00 64.40, 194.00 64.00 C 193.00 63.60, 195.20 66.60, 193.00 65.00 C 190.80 63.40, 185.60 57.80, 183.00 56.00 C 180.40 54.20, 181.00 56.60, 180.00 56.00 C 179.00 55.40, 178.60 53.20, 178.00 53.00 C 177.40 52.80, 177.60 55.20, 177.00 55.00 C 176.40 54.80, 175.80 52.40, 175.00 52.00 C 174.20 51.60, 173.60 53.20, 173.00 53.00 C 172.40 52.80, 172.40 51.20, 172.00 51.00 C 171.60 50.80, 172.00 52.60, 171.00 52.00 C 170.00 51.40, 168.20 48.80, 167.00 48.00 C 165.80 47.20, 161.00 43.60, 165.00 48.00 Z" fill="#29728E" stroke="none" />
  <path d="M 350.00 338.00 C 350.80 339.40, 348.80 341.40, 355.00 344.00 C 361.20 346.60, 374.20 349.80, 381.00 351.00 C 387.80 352.20, 387.20 349.60, 389.00 350.00 C 390.80 350.40, 390.00 353.40, 390.00 353.00 C 390.00 352.60, 390.00 348.80, 389.00 348.00 C 388.00 347.20, 387.80 349.40, 385.00 349.00 C 382.20 348.60, 378.20 346.60, 375.00 346.00 C 371.80 345.40, 370.60 346.40, 369.00 346.00 C 367.40 345.60, 368.20 344.40, 367.00 344.00 C 365.80 343.60, 366.00 345.00, 363.00 344.00 C 360.00 343.00, 354.40 340.40, 352.00 339.00 C 349.60 337.60, 351.40 337.20, 351.00 337.00 C 350.60 336.80, 349.20 336.60, 350.00 338.00 Z" fill="#87807A" stroke="none" />
  <path d="M 70.00 336.00 C 69.80 335.00, 68.60 334.00, 68.00 334.00 C 67.40 334.00, 67.40 335.80, 67.00 336.00 C 66.60 336.20, 69.20 333.80, 66.00 335.00 C 62.80 336.20, 58.40 339.80, 51.00 342.00 C 43.60 344.20, 33.00 345.20, 29.00 346.00 C 25.00 346.80, 30.40 345.60, 31.00 346.00 C 31.60 346.40, 30.60 347.60, 32.00 348.00 C 33.40 348.40, 32.40 349.00, 38.00 348.00 C 43.60 347.00, 55.20 344.40, 60.00 343.00 C 64.80 341.60, 60.20 341.80, 62.00 341.00 C 63.80 340.20, 67.40 340.00, 69.00 339.00 C 70.60 338.00, 70.20 337.00, 70.00 336.00 Z" fill="#87807A" stroke="none" />
  <path d="M 331.00 374.00 C 331.80 374.40, 335.40 375.80, 337.00 377.00 C 338.60 378.20, 338.20 380.00, 339.00 380.00 C 339.80 380.00, 339.60 376.60, 341.00 377.00 C 342.40 377.40, 344.00 381.60, 346.00 382.00 C 348.00 382.40, 349.20 379.20, 351.00 379.00 C 352.80 378.80, 354.60 380.40, 355.00 381.00 C 355.40 381.60, 351.60 381.60, 353.00 382.00 C 354.40 382.40, 360.20 383.20, 362.00 383.00 C 363.80 382.80, 361.00 381.40, 362.00 381.00 C 363.00 380.60, 366.40 381.40, 367.00 381.00 C 367.60 380.60, 368.40 379.40, 365.00 379.00 C 361.60 378.60, 353.60 379.60, 350.00 379.00 C 346.40 378.40, 348.20 376.40, 347.00 376.00 C 345.80 375.60, 345.00 377.40, 344.00 377.00 C 343.00 376.60, 342.60 374.20, 342.00 374.00 C 341.40 373.80, 342.00 376.60, 341.00 376.00 C 340.00 375.40, 338.60 372.00, 337.00 371.00 C 335.40 370.00, 333.40 370.60, 333.00 371.00 C 332.60 371.40, 335.00 372.20, 335.00 373.00 C 335.00 373.80, 333.80 374.80, 333.00 375.00 C 332.20 375.20, 330.20 373.60, 331.00 374.00 Z" fill="#CFC4BA" stroke="none" />
  <path d="M 324.00 315.00 C 323.20 314.80, 322.60 316.20, 323.00 317.00 C 323.40 317.80, 326.20 318.60, 326.00 319.00 C 325.80 319.40, 323.40 318.00, 322.00 319.00 C 320.60 320.00, 319.60 320.60, 319.00 324.00 C 318.40 327.40, 319.40 333.00, 319.00 336.00 C 318.60 339.00, 317.80 339.00, 317.00 339.00 C 316.20 339.00, 315.00 333.80, 315.00 336.00 C 315.00 338.20, 316.40 347.80, 317.00 350.00 C 317.60 352.20, 317.20 347.20, 318.00 347.00 C 318.80 346.80, 318.60 350.20, 321.00 349.00 C 323.40 347.80, 327.00 342.60, 330.00 341.00 C 333.00 339.40, 334.20 341.40, 336.00 341.00 C 337.80 340.60, 338.40 340.00, 339.00 339.00 C 339.60 338.00, 340.80 338.40, 339.00 336.00 C 337.20 333.60, 332.60 330.40, 330.00 327.00 C 327.40 323.60, 326.60 320.80, 326.00 319.00 C 325.40 317.20, 327.40 318.80, 327.00 318.00 C 326.60 317.20, 324.80 315.20, 324.00 315.00 Z" fill="#CFC4BA" stroke="none" />
  <path d="M 87.00 303.00 C 85.20 307.80, 80.00 329.00, 79.00 338.00 C 78.00 347.00, 80.60 346.60, 82.00 348.00 C 83.40 349.40, 84.00 344.40, 86.00 345.00 C 88.00 345.60, 92.60 346.80, 92.00 351.00 C 91.40 355.20, 88.40 361.60, 83.00 366.00 C 77.60 370.40, 62.40 372.80, 65.00 373.00 C 67.60 373.20, 90.00 369.20, 96.00 367.00 C 102.00 364.80, 93.80 363.20, 95.00 362.00 C 96.20 360.80, 100.00 364.00, 102.00 361.00 C 104.00 358.00, 106.60 350.00, 105.00 347.00 C 103.40 344.00, 95.20 349.00, 94.00 346.00 C 92.80 343.00, 96.80 335.60, 99.00 332.00 C 101.20 328.40, 104.80 330.40, 105.00 328.00 C 105.20 325.60, 102.40 321.60, 100.00 320.00 C 97.60 318.40, 95.40 321.20, 93.00 320.00 C 90.60 318.80, 89.20 317.40, 88.00 314.00 C 86.80 310.60, 88.80 298.20, 87.00 303.00 Z" fill="#CFC4BA" stroke="none" />
  <path d="M 86.00 270.00 C 79.60 268.40, 82.40 277.00, 86.00 282.00 C 89.60 287.00, 85.00 288.00, 104.00 295.00 C 123.00 302.00, 150.40 312.00, 181.00 317.00 C 211.60 322.00, 226.00 324.40, 257.00 320.00 C 288.00 315.60, 320.60 301.40, 336.00 295.00 C 351.40 288.60, 347.00 285.60, 334.00 288.00 C 321.00 290.40, 297.00 302.80, 271.00 307.00 C 245.00 311.20, 234.60 312.40, 204.00 309.00 C 173.40 305.60, 141.60 297.80, 118.00 290.00 C 94.40 282.20, 92.40 271.60, 86.00 270.00 Z" fill="#CFC4BA" stroke="none" />
  <path d="M 156.00 183.00 C 147.40 180.60, 159.20 188.40, 172.00 193.00 C 184.80 197.60, 200.40 204.00, 220.00 206.00 C 239.60 208.00, 254.20 205.80, 270.00 203.00 C 285.80 200.20, 294.20 194.60, 299.00 192.00 C 303.80 189.40, 299.20 188.20, 294.00 190.00 C 288.80 191.80, 288.80 198.00, 273.00 201.00 C 257.20 204.00, 238.40 208.60, 215.00 205.00 C 191.60 201.40, 164.60 185.40, 156.00 183.00 Z" fill="#CFC4BA" stroke="none" />
  <path d="M 282.00 136.00 C 279.80 128.60, 279.60 121.80, 271.00 125.00 C 262.40 128.20, 240.20 148.40, 239.00 152.00 C 237.80 155.60, 260.20 141.60, 265.00 143.00 C 269.80 144.40, 277.60 153.60, 263.00 159.00 C 248.40 164.40, 200.20 166.40, 192.00 170.00 C 183.80 173.60, 213.40 178.00, 222.00 177.00 C 230.60 176.00, 232.20 164.00, 235.00 165.00 C 237.80 166.00, 245.40 178.40, 236.00 182.00 C 226.60 185.60, 198.20 186.00, 188.00 183.00 C 177.80 180.00, 190.80 169.80, 185.00 167.00 C 179.20 164.20, 157.20 165.20, 159.00 169.00 C 160.80 172.80, 178.00 182.20, 194.00 186.00 C 210.00 189.80, 221.40 192.80, 239.00 188.00 C 256.60 183.20, 273.40 172.40, 282.00 162.00 C 290.60 151.60, 284.20 143.40, 282.00 136.00 Z" fill="#CFC4BA" stroke="none" />
  <path d="M 129.00 116.00 C 126.20 116.40, 113.40 121.40, 102.00 128.00 C 90.60 134.60, 79.80 141.20, 72.00 149.00 C 64.20 156.80, 61.00 165.00, 63.00 167.00 C 65.00 169.00, 77.80 159.00, 82.00 159.00 C 86.20 159.00, 80.80 165.80, 84.00 167.00 C 87.20 168.20, 94.60 164.80, 98.00 165.00 C 101.40 165.20, 98.60 169.80, 101.00 168.00 C 103.40 166.20, 108.00 161.60, 110.00 156.00 C 112.00 150.40, 109.40 144.80, 111.00 140.00 C 112.60 135.20, 118.60 133.60, 118.00 132.00 C 117.40 130.40, 110.20 133.00, 108.00 132.00 C 105.80 131.00, 106.40 128.60, 107.00 127.00 C 107.60 125.40, 109.20 124.20, 111.00 124.00 C 112.80 123.80, 112.40 127.60, 116.00 126.00 C 119.60 124.40, 131.80 115.60, 129.00 116.00 Z" fill="#75A2B3" stroke="none" />
  <path d="M 144.00 96.00 C 143.00 96.60, 141.40 99.60, 141.00 101.00 C 140.60 102.40, 143.00 100.80, 142.00 103.00 C 141.00 105.20, 137.20 108.60, 136.00 112.00 C 134.80 115.40, 136.40 118.00, 136.00 120.00 C 135.60 122.00, 134.20 118.20, 134.00 122.00 C 133.80 125.80, 134.40 136.20, 135.00 139.00 C 135.60 141.80, 136.00 135.20, 137.00 136.00 C 138.00 136.80, 139.60 143.00, 140.00 143.00 C 140.40 143.00, 138.80 137.60, 139.00 136.00 C 139.20 134.40, 140.80 136.20, 141.00 135.00 C 141.20 133.80, 139.60 131.60, 140.00 130.00 C 140.40 128.40, 142.60 128.00, 143.00 127.00 C 143.40 126.00, 141.20 127.00, 142.00 125.00 C 142.80 123.00, 144.60 119.80, 147.00 117.00 C 149.40 114.20, 153.20 112.00, 154.00 111.00 C 154.80 110.00, 152.00 112.20, 151.00 112.00 C 150.00 111.80, 150.00 112.60, 149.00 110.00 C 148.00 107.40, 146.20 101.60, 146.00 99.00 C 145.80 96.40, 148.00 97.20, 148.00 97.00 C 148.00 96.80, 146.80 98.20, 146.00 98.00 C 145.20 97.80, 145.00 95.40, 144.00 96.00 Z" fill="#75A2B3" stroke="none" />
  <path d="M 210.00 70.00 C 208.00 69.00, 204.80 69.60, 203.00 70.00 C 201.20 70.40, 203.00 71.00, 201.00 72.00 C 199.00 73.00, 194.80 73.80, 193.00 75.00 C 191.20 76.20, 192.60 77.20, 192.00 78.00 C 191.40 78.80, 190.40 77.80, 190.00 79.00 C 189.60 80.20, 189.60 82.40, 190.00 84.00 C 190.40 85.60, 189.40 86.40, 192.00 87.00 C 194.60 87.60, 199.60 87.60, 203.00 87.00 C 206.40 86.40, 207.00 85.40, 209.00 84.00 C 211.00 82.60, 212.20 81.80, 213.00 80.00 C 213.80 78.20, 213.60 77.00, 213.00 75.00 C 212.40 73.00, 212.00 71.00, 210.00 70.00 Z" fill="#75A2B3" stroke="none" />
  <path d="M 90.00 348.00 C 89.40 347.80, 88.60 348.20, 88.00 348.00 C 87.40 347.80, 87.40 347.00, 87.00 347.00 C 86.60 347.00, 86.40 348.00, 86.00 348.00 C 85.60 348.00, 85.20 347.00, 85.00 347.00 C 84.80 347.00, 85.40 347.60, 85.00 348.00 C 84.60 348.40, 83.20 348.60, 83.00 349.00 C 82.80 349.40, 84.00 349.40, 84.00 350.00 C 84.00 350.60, 83.00 351.40, 83.00 352.00 C 83.00 352.60, 83.80 352.40, 84.00 353.00 C 84.20 353.60, 84.40 354.40, 84.00 355.00 C 83.60 355.60, 82.40 355.20, 82.00 356.00 C 81.60 356.80, 81.80 358.20, 82.00 359.00 C 82.20 359.80, 83.60 359.00, 83.00 360.00 C 82.40 361.00, 79.60 362.80, 79.00 364.00 C 78.40 365.20, 79.60 365.80, 80.00 366.00 C 80.40 366.20, 80.40 365.20, 81.00 365.00 C 81.60 364.80, 82.20 365.40, 83.00 365.00 C 83.80 364.60, 84.20 364.40, 85.00 363.00 C 85.80 361.60, 86.40 358.80, 87.00 358.00 C 87.60 357.20, 87.80 359.20, 88.00 359.00 C 88.20 358.80, 87.40 358.60, 88.00 357.00 C 88.60 355.40, 90.40 352.60, 91.00 351.00 C 91.60 349.40, 91.20 349.60, 91.00 349.00 C 90.80 348.40, 90.60 348.20, 90.00 348.00 Z" fill="#C4B9B3" stroke="none" />
  <path d="M 337.00 341.00 C 335.40 340.80, 332.80 340.40, 330.00 342.00 C 327.20 343.60, 325.00 347.40, 323.00 349.00 C 321.00 350.60, 320.80 350.20, 320.00 350.00 C 319.20 349.80, 319.40 348.00, 319.00 348.00 C 318.60 348.00, 317.80 347.40, 318.00 350.00 C 318.20 352.60, 319.40 359.20, 320.00 361.00 C 320.60 362.80, 319.80 359.40, 321.00 359.00 C 322.20 358.60, 324.80 357.80, 326.00 359.00 C 327.20 360.20, 326.40 363.40, 327.00 365.00 C 327.60 366.60, 328.80 366.20, 329.00 367.00 C 329.20 367.80, 327.60 368.20, 328.00 369.00 C 328.40 369.80, 330.80 371.00, 331.00 371.00 C 331.20 371.00, 328.80 369.80, 329.00 369.00 C 329.20 368.20, 331.80 368.80, 332.00 367.00 C 332.20 365.20, 330.00 362.00, 330.00 360.00 C 330.00 358.00, 331.40 357.20, 332.00 357.00 C 332.60 356.80, 333.00 359.40, 333.00 359.00 C 333.00 358.60, 331.80 356.40, 332.00 355.00 C 332.20 353.60, 334.00 352.80, 334.00 352.00 C 334.00 351.20, 331.80 351.40, 332.00 351.00 C 332.20 350.60, 334.40 351.00, 335.00 350.00 C 335.60 349.00, 334.40 347.40, 335.00 346.00 C 335.60 344.60, 337.60 344.00, 338.00 343.00 C 338.40 342.00, 338.60 341.20, 337.00 341.00 Z" fill="#C4B9B3" stroke="none" />
  <path d="M 102.00 330.00 C 100.80 331.20, 98.80 334.40, 98.00 336.00 C 97.20 337.60, 98.60 336.40, 98.00 338.00 C 97.40 339.60, 95.60 342.40, 95.00 344.00 C 94.40 345.60, 94.80 345.40, 95.00 346.00 C 95.20 346.60, 94.40 346.80, 96.00 347.00 C 97.60 347.20, 101.40 346.80, 103.00 347.00 C 104.60 347.20, 103.60 348.20, 104.00 348.00 C 104.40 347.80, 104.60 346.20, 105.00 346.00 C 105.40 345.80, 105.60 347.00, 106.00 347.00 C 106.40 347.00, 107.00 346.60, 107.00 346.00 C 107.00 345.40, 106.00 344.60, 106.00 344.00 C 106.00 343.40, 107.00 343.40, 107.00 343.00 C 107.00 342.60, 106.20 343.20, 106.00 342.00 C 105.80 340.80, 106.40 338.40, 106.00 337.00 C 105.60 335.60, 104.20 335.80, 104.00 335.00 C 103.80 334.20, 105.20 333.60, 105.00 333.00 C 104.80 332.40, 103.20 332.60, 103.00 332.00 C 102.80 331.40, 104.20 330.40, 104.00 330.00 C 103.80 329.60, 103.20 328.80, 102.00 330.00 Z" fill="#C4B9B3" stroke="none" />
  <path d="M 92.00 306.00 C 91.60 305.60, 92.20 306.60, 92.00 307.00 C 91.80 307.40, 91.40 308.00, 91.00 308.00 C 90.60 308.00, 90.20 307.00, 90.00 307.00 C 89.80 307.00, 90.20 307.60, 90.00 308.00 C 89.80 308.40, 89.40 309.00, 89.00 309.00 C 88.60 309.00, 88.20 308.00, 88.00 308.00 C 87.80 308.00, 87.60 308.40, 88.00 309.00 C 88.40 309.60, 89.80 310.40, 90.00 311.00 C 90.20 311.60, 89.20 311.40, 89.00 312.00 C 88.80 312.60, 88.20 312.80, 89.00 314.00 C 89.80 315.20, 92.20 317.00, 93.00 318.00 C 93.80 319.00, 92.60 318.80, 93.00 319.00 C 93.40 319.20, 94.60 319.20, 95.00 319.00 C 95.40 318.80, 94.80 318.40, 95.00 318.00 C 95.20 317.60, 95.80 317.60, 96.00 317.00 C 96.20 316.40, 95.60 315.80, 96.00 315.00 C 96.40 314.20, 97.80 313.40, 98.00 313.00 C 98.20 312.60, 97.40 313.20, 97.00 313.00 C 96.60 312.80, 96.40 312.80, 96.00 312.00 C 95.60 311.20, 95.40 309.60, 95.00 309.00 C 94.60 308.40, 94.60 309.60, 94.00 309.00 C 93.40 308.40, 92.40 306.40, 92.00 306.00 Z" fill="#C4B9B3" stroke="none" />
  <path d="M 86.00 283.00 C 81.40 286.80, 91.40 311.80, 113.00 328.00 C 134.60 344.20, 164.80 357.40, 194.00 364.00 C 223.20 370.60, 238.60 364.80, 259.00 361.00 C 279.40 357.20, 281.60 357.20, 296.00 345.00 C 310.40 332.80, 338.80 304.80, 331.00 300.00 C 323.20 295.20, 296.00 319.20, 257.00 321.00 C 218.00 322.80, 170.20 316.60, 136.00 309.00 C 101.80 301.40, 90.60 279.20, 86.00 283.00 Z" fill="#C4B9B3" stroke="none" />
  <path d="M 158.00 179.00 C 158.40 180.20, 160.80 182.40, 162.00 183.00 C 163.20 183.60, 163.00 181.40, 164.00 182.00 C 165.00 182.60, 165.00 184.60, 167.00 186.00 C 169.00 187.40, 171.40 188.40, 174.00 189.00 C 176.60 189.60, 178.60 188.80, 180.00 189.00 C 181.40 189.20, 181.40 189.60, 181.00 190.00 C 180.60 190.40, 178.00 190.80, 178.00 191.00 C 178.00 191.20, 178.20 189.80, 181.00 191.00 C 183.80 192.20, 188.80 195.80, 192.00 197.00 C 195.20 198.20, 195.60 197.40, 197.00 197.00 C 198.40 196.60, 199.20 196.00, 199.00 195.00 C 198.80 194.00, 199.00 193.00, 196.00 192.00 C 193.00 191.00, 187.40 191.00, 184.00 190.00 C 180.60 189.00, 180.60 187.40, 179.00 187.00 C 177.40 186.60, 178.00 189.00, 176.00 188.00 C 174.00 187.00, 171.20 183.20, 169.00 182.00 C 166.80 180.80, 166.20 182.80, 165.00 182.00 C 163.80 181.20, 164.00 179.00, 163.00 178.00 C 162.00 177.00, 161.00 176.80, 160.00 177.00 C 159.00 177.20, 157.60 177.80, 158.00 179.00 Z" fill="#C4B9B3" stroke="none" />
  <path d="M 296.00 189.00 C 295.40 184.40, 281.00 177.40, 276.00 176.00 C 271.00 174.60, 276.20 179.00, 271.00 182.00 C 265.80 185.00, 258.40 188.80, 250.00 191.00 C 241.60 193.20, 232.60 192.40, 229.00 193.00 C 225.40 193.60, 231.80 193.40, 232.00 194.00 C 232.20 194.60, 236.20 196.20, 230.00 196.00 C 223.80 195.80, 206.80 192.40, 201.00 193.00 C 195.20 193.60, 198.20 196.80, 201.00 199.00 C 203.80 201.20, 199.40 204.00, 215.00 204.00 C 230.60 204.00, 262.80 202.00, 279.00 199.00 C 295.20 196.00, 296.60 193.60, 296.00 189.00 Z" fill="#C4B9B3" stroke="none" />
  <path d="M 352.00 335.00 C 350.00 336.20, 349.80 336.40, 352.00 338.00 C 354.20 339.60, 356.40 341.00, 363.00 343.00 C 369.60 345.00, 379.80 347.20, 385.00 348.00 C 390.20 348.80, 388.00 346.80, 389.00 347.00 C 390.00 347.20, 390.20 349.80, 390.00 349.00 C 389.80 348.20, 388.20 344.40, 388.00 343.00 C 387.80 341.60, 389.20 342.40, 389.00 342.00 C 388.80 341.60, 387.20 341.40, 387.00 341.00 C 386.80 340.60, 388.40 340.20, 388.00 340.00 C 387.60 339.80, 385.60 340.40, 385.00 340.00 C 384.40 339.60, 386.60 339.60, 385.00 338.00 C 383.40 336.40, 379.00 333.00, 377.00 332.00 C 375.00 331.00, 376.80 333.20, 375.00 333.00 C 373.20 332.80, 370.40 330.80, 368.00 331.00 C 365.60 331.20, 364.20 333.80, 363.00 334.00 C 361.80 334.20, 364.20 331.80, 362.00 332.00 C 359.80 332.20, 354.00 333.80, 352.00 335.00 Z" fill="#A19182" stroke="none" />
  <path d="M 27.00 340.00 C 27.00 342.40, 28.60 339.00, 29.00 340.00 C 29.40 341.00, 28.60 344.40, 29.00 345.00 C 29.40 345.60, 29.20 343.20, 31.00 343.00 C 32.80 342.80, 32.80 344.80, 38.00 344.00 C 43.20 343.20, 51.20 341.20, 57.00 339.00 C 62.80 336.80, 65.60 334.80, 67.00 333.00 C 68.40 331.20, 64.20 330.80, 64.00 330.00 C 63.80 329.20, 66.80 329.40, 66.00 329.00 C 65.20 328.60, 62.40 329.20, 60.00 328.00 C 57.60 326.80, 59.20 324.00, 54.00 323.00 C 48.80 322.00, 37.60 322.60, 34.00 323.00 C 30.40 323.40, 36.40 324.60, 36.00 325.00 C 35.60 325.40, 33.40 324.40, 32.00 325.00 C 30.60 325.60, 30.00 325.00, 29.00 328.00 C 28.00 331.00, 27.00 337.60, 27.00 340.00 Z" fill="#A19182" stroke="none" />
  <path d="M 152.00 170.00 C 160.40 166.80, 152.00 166.20, 148.00 167.00 C 144.00 167.80, 144.80 171.20, 132.00 174.00 C 119.20 176.80, 97.40 180.20, 84.00 181.00 C 70.60 181.80, 71.00 180.00, 65.00 178.00 C 59.00 176.00, 56.80 171.80, 54.00 171.00 C 51.20 170.20, 48.40 171.80, 51.00 174.00 C 53.60 176.20, 56.00 180.20, 67.00 182.00 C 78.00 183.80, 89.00 185.40, 106.00 183.00 C 123.00 180.60, 143.60 173.20, 152.00 170.00 Z" fill="#46849A" stroke="none" />
  <path d="M 341.00 128.00 C 338.60 132.60, 337.40 146.20, 332.00 156.00 C 326.60 165.80, 308.40 168.40, 314.00 177.00 C 319.60 185.60, 339.40 193.60, 360.00 199.00 C 380.60 204.40, 406.60 204.20, 417.00 204.00 C 427.40 203.80, 421.80 199.40, 412.00 198.00 C 402.20 196.60, 385.60 200.60, 368.00 197.00 C 350.40 193.40, 333.60 184.40, 324.00 180.00 C 314.40 175.60, 317.80 179.60, 320.00 175.00 C 322.20 170.40, 330.20 165.40, 335.00 157.00 C 339.80 148.60, 342.80 138.80, 344.00 133.00 C 345.20 127.20, 343.40 123.40, 341.00 128.00 Z" fill="#46849A" stroke="none" />
  <path d="M 197.00 113.00 C 196.60 112.80, 196.40 113.20, 197.00 114.00 C 197.60 114.80, 199.40 116.00, 200.00 117.00 C 200.60 118.00, 199.20 118.80, 200.00 119.00 C 200.80 119.20, 202.80 117.80, 204.00 118.00 C 205.20 118.20, 205.40 120.00, 206.00 120.00 C 206.60 120.00, 206.20 118.40, 207.00 118.00 C 207.80 117.60, 209.20 117.60, 210.00 118.00 C 210.80 118.40, 210.60 119.80, 211.00 120.00 C 211.40 120.20, 211.20 119.00, 212.00 119.00 C 212.80 119.00, 214.20 120.00, 215.00 120.00 C 215.80 120.00, 216.00 119.40, 216.00 119.00 C 216.00 118.60, 214.80 118.40, 215.00 118.00 C 215.20 117.60, 216.80 117.60, 217.00 117.00 C 217.20 116.40, 216.60 115.20, 216.00 115.00 C 215.40 114.80, 215.40 115.80, 214.00 116.00 C 212.60 116.20, 210.20 116.20, 209.00 116.00 C 207.80 115.80, 210.00 115.20, 208.00 115.00 C 206.00 114.80, 201.20 115.40, 199.00 115.00 C 196.80 114.60, 197.40 113.20, 197.00 113.00 Z" fill="#46849A" stroke="none" />
  <path d="M 298.00 56.00 C 296.40 58.80, 291.40 77.80, 288.00 87.00 C 284.60 96.20, 284.20 96.60, 281.00 102.00 C 277.80 107.40, 273.80 110.60, 272.00 114.00 C 270.20 117.40, 270.60 119.40, 272.00 119.00 C 273.40 118.60, 275.40 117.40, 279.00 112.00 C 282.60 106.60, 286.60 99.80, 290.00 92.00 C 293.40 84.20, 294.40 80.20, 296.00 73.00 C 297.60 65.80, 299.60 53.20, 298.00 56.00 Z" fill="#46849A" stroke="none" />
  <path d="M 169.00 54.00 C 170.60 56.40, 179.20 66.40, 183.00 70.00 C 186.80 73.60, 184.80 72.00, 188.00 72.00 C 191.20 72.00, 195.60 71.80, 199.00 70.00 C 202.40 68.20, 205.20 64.40, 205.00 63.00 C 204.80 61.60, 198.60 62.80, 198.00 63.00 C 197.40 63.20, 201.60 63.00, 202.00 64.00 C 202.40 65.00, 201.20 66.60, 200.00 68.00 C 198.80 69.40, 198.00 70.20, 196.00 71.00 C 194.00 71.80, 192.40 72.40, 190.00 72.00 C 187.60 71.60, 187.00 71.80, 184.00 69.00 C 181.00 66.20, 178.00 61.00, 175.00 58.00 C 172.00 55.00, 167.40 51.60, 169.00 54.00 Z" fill="#46849A" stroke="none" />
  <path d="M 340.00 367.00 C 340.40 370.60, 341.60 365.60, 342.00 366.00 C 342.40 366.40, 340.60 367.60, 342.00 369.00 C 343.40 370.40, 347.20 372.60, 349.00 373.00 C 350.80 373.40, 348.40 370.80, 351.00 371.00 C 353.60 371.20, 359.60 373.80, 362.00 374.00 C 364.40 374.20, 361.20 372.40, 363.00 372.00 C 364.80 371.60, 367.00 373.40, 371.00 372.00 C 375.00 370.60, 379.20 368.60, 383.00 365.00 C 386.80 361.40, 388.80 356.80, 390.00 354.00 C 391.20 351.20, 393.00 351.80, 389.00 351.00 C 385.00 350.20, 378.20 352.20, 370.00 350.00 C 361.80 347.80, 354.00 340.40, 348.00 340.00 C 342.00 339.60, 341.60 342.60, 340.00 348.00 C 338.40 353.40, 339.60 363.40, 340.00 367.00 Z" fill="#7C6E63" stroke="none" />
  <path d="M 79.00 352.00 C 79.80 347.80, 78.60 346.20, 77.00 343.00 C 75.40 339.80, 72.60 336.60, 71.00 336.00 C 69.40 335.40, 71.20 338.40, 69.00 340.00 C 66.80 341.60, 67.40 342.20, 60.00 344.00 C 52.60 345.80, 37.60 347.40, 32.00 349.00 C 26.40 350.60, 29.40 349.20, 32.00 352.00 C 34.60 354.80, 42.00 361.00, 45.00 363.00 C 48.00 365.00, 46.60 361.80, 47.00 362.00 C 47.40 362.20, 45.60 363.60, 47.00 364.00 C 48.40 364.40, 52.40 364.40, 54.00 364.00 C 55.60 363.60, 54.20 361.40, 55.00 362.00 C 55.80 362.60, 54.40 366.60, 58.00 367.00 C 61.60 367.40, 68.80 367.00, 73.00 364.00 C 77.20 361.00, 78.20 356.20, 79.00 352.00 Z" fill="#7C6E63" stroke="none" />
  <path d="M 319.00 215.00 C 310.40 209.20, 299.00 234.00, 296.00 232.00 C 293.00 230.00, 305.00 210.80, 304.00 205.00 C 303.00 199.20, 300.60 195.20, 291.00 203.00 C 281.40 210.80, 260.80 241.60, 256.00 244.00 C 251.20 246.40, 270.40 221.20, 267.00 215.00 C 263.60 208.80, 250.80 206.60, 239.00 213.00 C 227.20 219.40, 211.00 233.80, 208.00 247.00 C 205.00 260.20, 227.20 269.20, 224.00 279.00 C 220.80 288.80, 189.80 292.20, 192.00 296.00 C 194.20 299.80, 225.60 304.40, 235.00 298.00 C 244.40 291.60, 237.20 268.60, 239.00 264.00 C 240.80 259.40, 237.60 272.80, 244.00 275.00 C 250.40 277.20, 264.80 271.20, 271.00 275.00 C 277.20 278.80, 270.20 292.60, 275.00 294.00 C 279.80 295.40, 287.80 292.80, 295.00 282.00 C 302.20 271.20, 304.60 249.20, 311.00 240.00 C 317.40 230.80, 322.80 234.60, 327.00 236.00 C 331.20 237.40, 333.60 244.60, 332.00 247.00 C 330.40 249.40, 323.60 241.40, 319.00 248.00 C 314.40 254.60, 306.60 274.60, 309.00 280.00 C 311.40 285.40, 325.00 278.80, 331.00 275.00 C 337.00 271.20, 341.40 273.00, 339.00 261.00 C 336.60 249.00, 327.60 220.80, 319.00 215.00 Z" fill="#F0E5D9" stroke="none" />
  <path d="M 275.00 255.00 C 275.60 254.40, 275.60 254.80, 276.00 255.00 C 276.40 255.20, 276.80 255.60, 277.00 256.00 C 277.20 256.40, 276.80 256.60, 277.00 257.00 C 277.20 257.40, 277.80 257.40, 278.00 258.00 C 278.20 258.60, 277.80 259.40, 278.00 260.00 C 278.20 260.60, 278.80 260.20, 279.00 261.00 C 279.20 261.80, 279.20 263.20, 279.00 264.00 C 278.80 264.80, 278.20 264.20, 278.00 265.00 C 277.80 265.80, 278.20 267.20, 278.00 268.00 C 277.80 268.80, 277.20 268.40, 277.00 269.00 C 276.80 269.60, 277.20 270.40, 277.00 271.00 C 276.80 271.60, 276.60 271.80, 276.00 272.00 C 275.40 272.20, 275.00 272.80, 274.00 272.00 C 273.00 271.20, 271.60 269.60, 271.00 268.00 C 270.40 266.40, 270.80 265.00, 271.00 264.00 C 271.20 263.00, 271.60 264.20, 272.00 263.00 C 272.40 261.80, 272.40 259.60, 273.00 258.00 C 273.60 256.40, 274.40 255.60, 275.00 255.00 Z" fill="#F0E5D9" stroke="none" />
  <path d="M 248.00 243.00 C 249.40 243.60, 250.40 245.20, 251.00 246.00 C 251.60 246.80, 251.20 246.60, 251.00 247.00 C 250.80 247.40, 250.60 247.80, 250.00 248.00 C 249.40 248.20, 248.40 247.00, 248.00 248.00 C 247.60 249.00, 248.80 251.40, 248.00 253.00 C 247.20 254.60, 245.60 255.40, 244.00 256.00 C 242.40 256.60, 241.00 256.20, 240.00 256.00 C 239.00 255.80, 239.20 256.20, 239.00 255.00 C 238.80 253.80, 238.40 251.40, 239.00 250.00 C 239.60 248.60, 241.60 248.60, 242.00 248.00 C 242.40 247.40, 241.00 247.40, 241.00 247.00 C 241.00 246.60, 241.80 246.40, 242.00 246.00 C 242.20 245.60, 241.60 245.60, 242.00 245.00 C 242.40 244.40, 242.80 243.40, 244.00 243.00 C 245.20 242.60, 246.60 242.40, 248.00 243.00 Z" fill="#F0E5D9" stroke="none" />
  <path d="M 296.00 239.00 C 296.60 238.80, 297.40 238.80, 298.00 239.00 C 298.60 239.20, 298.80 236.80, 299.00 240.00 C 299.20 243.20, 299.20 251.80, 299.00 255.00 C 298.80 258.20, 298.60 255.80, 298.00 256.00 C 297.40 256.20, 296.60 256.20, 296.00 256.00 C 295.40 255.80, 295.20 255.40, 295.00 255.00 C 294.80 254.60, 295.40 254.60, 295.00 254.00 C 294.60 253.40, 293.40 252.60, 293.00 252.00 C 292.60 251.40, 293.40 251.80, 293.00 251.00 C 292.60 250.20, 291.20 248.80, 291.00 248.00 C 290.80 247.20, 291.60 247.20, 292.00 247.00 C 292.40 246.80, 292.80 247.40, 293.00 247.00 C 293.20 246.60, 292.80 245.60, 293.00 245.00 C 293.20 244.40, 293.80 244.40, 294.00 244.00 C 294.20 243.60, 293.80 243.40, 294.00 243.00 C 294.20 242.60, 294.80 242.60, 295.00 242.00 C 295.20 241.40, 294.80 240.60, 295.00 240.00 C 295.20 239.40, 295.40 239.20, 296.00 239.00 Z" fill="#F0E5D9" stroke="none" />
  <path d="M 285.00 236.00 C 285.60 235.80, 286.40 235.80, 287.00 236.00 C 287.60 236.20, 287.80 235.80, 288.00 237.00 C 288.20 238.20, 287.60 240.40, 288.00 242.00 C 288.40 243.60, 289.60 243.60, 290.00 245.00 C 290.40 246.40, 290.40 247.80, 290.00 249.00 C 289.60 250.20, 288.40 249.80, 288.00 251.00 C 287.60 252.20, 288.20 254.00, 288.00 255.00 C 287.80 256.00, 288.20 255.80, 287.00 256.00 C 285.80 256.20, 283.20 256.20, 282.00 256.00 C 280.80 255.80, 281.00 258.20, 281.00 255.00 C 281.00 251.80, 281.40 243.20, 282.00 240.00 C 282.60 236.80, 283.60 239.60, 284.00 239.00 C 284.40 238.40, 283.80 237.60, 284.00 237.00 C 284.20 236.40, 284.40 236.20, 285.00 236.00 Z" fill="#F0E5D9" stroke="none" />
  <path d="M 136.00 192.00 C 130.00 198.60, 125.20 216.20, 125.00 223.00 C 124.80 229.80, 132.20 229.80, 135.00 226.00 C 137.80 222.20, 136.40 208.20, 139.00 204.00 C 141.60 199.80, 145.40 194.20, 148.00 205.00 C 150.60 215.80, 153.00 246.20, 152.00 258.00 C 151.00 269.80, 147.00 265.80, 143.00 264.00 C 139.00 262.20, 133.60 255.80, 132.00 249.00 C 130.40 242.20, 138.20 230.40, 135.00 230.00 C 131.80 229.60, 119.80 249.80, 116.00 247.00 C 112.20 244.20, 120.60 215.60, 116.00 216.00 C 111.40 216.40, 93.40 241.60, 93.00 249.00 C 92.60 256.40, 109.80 247.80, 114.00 253.00 C 118.20 258.20, 101.80 267.20, 114.00 275.00 C 126.20 282.80, 162.80 293.00, 175.00 292.00 C 187.20 291.00, 170.20 276.40, 175.00 270.00 C 179.80 263.60, 194.80 266.00, 199.00 260.00 C 203.20 254.00, 193.40 244.00, 196.00 240.00 C 198.60 236.00, 208.20 245.00, 212.00 240.00 C 215.80 235.00, 218.00 220.80, 215.00 215.00 C 212.00 209.20, 202.60 209.60, 197.00 211.00 C 191.40 212.40, 189.80 223.20, 187.00 222.00 C 184.20 220.80, 187.40 207.20, 183.00 205.00 C 178.60 202.80, 170.60 214.00, 165.00 211.00 C 159.40 208.00, 160.80 193.80, 155.00 190.00 C 149.20 186.20, 142.00 185.40, 136.00 192.00 Z" fill="#F0E5D9" stroke="none" />
  <path d="M 186.00 228.00 C 186.80 228.40, 186.40 230.20, 187.00 231.00 C 187.60 231.80, 188.60 230.00, 189.00 232.00 C 189.40 234.00, 190.20 237.80, 189.00 241.00 C 187.80 244.20, 185.00 247.60, 183.00 248.00 C 181.00 248.40, 180.60 242.60, 179.00 243.00 C 177.40 243.40, 177.20 248.20, 175.00 250.00 C 172.80 251.80, 169.60 252.40, 168.00 252.00 C 166.40 251.60, 166.60 249.00, 167.00 248.00 C 167.40 247.00, 169.20 249.20, 170.00 247.00 C 170.80 244.80, 170.00 239.60, 171.00 237.00 C 172.00 234.40, 174.00 235.20, 175.00 234.00 C 176.00 232.80, 175.00 230.60, 176.00 231.00 C 177.00 231.40, 178.60 236.40, 180.00 236.00 C 181.40 235.60, 181.80 230.60, 183.00 229.00 C 184.20 227.40, 185.20 227.60, 186.00 228.00 Z" fill="#F0E5D9" stroke="none" />
  <path d="M 219.00 143.00 C 218.40 139.20, 213.80 134.20, 211.00 136.00 C 208.20 137.80, 207.40 151.20, 205.00 152.00 C 202.60 152.80, 202.40 141.00, 199.00 140.00 C 195.60 139.00, 190.60 148.00, 188.00 147.00 C 185.40 146.00, 185.20 138.60, 186.00 135.00 C 186.80 131.40, 188.80 129.00, 192.00 129.00 C 195.20 129.00, 200.00 135.40, 202.00 135.00 C 204.00 134.60, 204.20 128.60, 202.00 127.00 C 199.80 125.40, 193.00 128.60, 191.00 127.00 C 189.00 125.40, 195.00 118.80, 192.00 119.00 C 189.00 119.20, 181.00 123.80, 176.00 128.00 C 171.00 132.20, 171.80 139.20, 167.00 140.00 C 162.20 140.80, 154.20 131.40, 152.00 132.00 C 149.80 132.60, 153.00 140.00, 156.00 143.00 C 159.00 146.00, 164.80 147.00, 167.00 147.00 C 169.20 147.00, 164.60 143.80, 167.00 143.00 C 169.40 142.20, 175.20 141.60, 179.00 143.00 C 182.80 144.40, 182.00 148.40, 186.00 150.00 C 190.00 151.60, 196.40 149.40, 199.00 151.00 C 201.60 152.60, 196.00 157.20, 199.00 158.00 C 202.00 158.80, 210.00 158.00, 214.00 155.00 C 218.00 152.00, 219.60 146.80, 219.00 143.00 Z" fill="#F0E5D9" stroke="none" />
  <path d="M 256.00 111.00 C 254.80 110.60, 254.20 112.60, 253.00 112.00 C 251.80 111.40, 250.80 108.00, 250.00 108.00 C 249.20 108.00, 251.80 111.40, 249.00 112.00 C 246.20 112.60, 239.00 110.40, 236.00 111.00 C 233.00 111.60, 235.00 114.20, 234.00 115.00 C 233.00 115.80, 231.40 114.40, 231.00 115.00 C 230.60 115.60, 232.80 117.00, 232.00 118.00 C 231.20 119.00, 227.20 118.20, 227.00 120.00 C 226.80 121.80, 230.00 126.40, 231.00 127.00 C 232.00 127.60, 230.80 123.40, 232.00 123.00 C 233.20 122.60, 235.60 122.60, 237.00 125.00 C 238.40 127.40, 239.80 132.20, 239.00 135.00 C 238.20 137.80, 236.00 138.20, 233.00 139.00 C 230.00 139.80, 225.20 138.20, 224.00 139.00 C 222.80 139.80, 226.60 141.00, 227.00 143.00 C 227.40 145.00, 221.20 150.40, 226.00 149.00 C 230.80 147.60, 246.60 138.80, 251.00 136.00 C 255.40 133.20, 247.60 135.60, 248.00 135.00 C 248.40 134.40, 251.60 135.20, 253.00 133.00 C 254.40 130.80, 253.80 126.00, 255.00 124.00 C 256.20 122.00, 259.00 124.00, 259.00 123.00 C 259.00 122.00, 255.80 120.40, 255.00 119.00 C 254.20 117.60, 254.20 117.00, 255.00 116.00 C 255.80 115.00, 258.80 115.00, 259.00 114.00 C 259.20 113.00, 257.20 111.40, 256.00 111.00 Z" fill="#F0E5D9" stroke="none" />
  <path d="M 84.00 301.00 C 83.80 301.20, 84.80 301.00, 85.00 303.00 C 85.20 305.00, 85.40 309.00, 85.00 311.00 C 84.60 313.00, 83.80 312.80, 83.00 313.00 C 82.20 313.20, 82.40 309.60, 81.00 312.00 C 79.60 314.40, 77.00 322.00, 76.00 325.00 C 75.00 328.00, 75.60 326.40, 76.00 327.00 C 76.40 327.60, 77.80 327.40, 78.00 328.00 C 78.20 328.60, 76.80 330.00, 77.00 330.00 C 77.20 330.00, 78.60 328.80, 79.00 328.00 C 79.40 327.20, 77.80 329.00, 79.00 326.00 C 80.20 323.00, 83.80 317.60, 85.00 313.00 C 86.20 308.40, 84.80 305.20, 85.00 303.00 C 85.20 300.80, 86.20 302.40, 86.00 302.00 C 85.80 301.60, 84.20 300.80, 84.00 301.00 Z" fill="#D7CEC6" stroke="none" />
  <path d="M 87.00 267.00 C 86.80 267.40, 94.60 280.80, 118.00 289.00 C 141.40 297.20, 173.40 304.60, 204.00 308.00 C 234.60 311.40, 244.40 310.20, 271.00 306.00 C 297.60 301.80, 338.60 287.00, 337.00 287.00 C 335.40 287.00, 287.80 302.00, 263.00 306.00 C 238.20 310.00, 241.80 310.80, 213.00 307.00 C 184.20 303.20, 144.20 295.00, 119.00 287.00 C 93.80 279.00, 87.20 266.60, 87.00 267.00 Z" fill="#D7CEC6" stroke="none" />
  <path d="M 152.00 183.00 C 148.40 182.40, 177.40 198.00, 191.00 203.00 C 204.60 208.00, 205.40 207.40, 220.00 208.00 C 234.60 208.60, 248.40 208.20, 264.00 206.00 C 279.60 203.80, 291.60 199.40, 298.00 197.00 C 304.40 194.60, 303.00 192.40, 296.00 194.00 C 289.00 195.60, 280.40 202.60, 263.00 205.00 C 245.60 207.40, 231.20 210.40, 209.00 206.00 C 186.80 201.60, 155.60 183.60, 152.00 183.00 Z" fill="#D7CEC6" stroke="none" />
  <path d="M 394.00 344.00 C 394.00 344.60, 394.80 345.20, 395.00 346.00 C 395.20 346.80, 395.20 347.40, 395.00 348.00 C 394.80 348.60, 394.00 348.40, 394.00 349.00 C 394.00 349.60, 395.00 350.40, 395.00 351.00 C 395.00 351.60, 394.00 351.60, 394.00 352.00 C 394.00 352.40, 394.40 353.20, 395.00 353.00 C 395.60 352.80, 396.40 351.00, 397.00 351.00 C 397.60 351.00, 397.60 352.60, 398.00 353.00 C 398.40 353.40, 398.60 353.40, 399.00 353.00 C 399.40 352.60, 399.20 351.40, 400.00 351.00 C 400.80 350.60, 402.00 350.80, 403.00 351.00 C 404.00 351.20, 404.40 351.40, 405.00 352.00 C 405.60 352.60, 405.80 354.00, 406.00 354.00 C 406.20 354.00, 405.60 353.00, 406.00 352.00 C 406.40 351.00, 407.80 349.80, 408.00 349.00 C 408.20 348.20, 407.00 348.40, 407.00 348.00 C 407.00 347.60, 407.40 347.20, 408.00 347.00 C 408.60 346.80, 410.80 347.00, 410.00 347.00 C 409.20 347.00, 406.20 346.60, 404.00 347.00 C 401.80 347.40, 400.20 348.80, 399.00 349.00 C 397.80 349.20, 398.60 347.80, 398.00 348.00 C 397.40 348.20, 396.60 349.80, 396.00 350.00 C 395.40 350.20, 395.20 350.40, 395.00 349.00 C 394.80 347.60, 395.20 344.00, 395.00 343.00 C 394.80 342.00, 394.00 343.40, 394.00 344.00 Z" fill="#E3D9CE" stroke="none" />
  <path d="M 360.00 308.00 C 359.40 308.20, 358.40 308.60, 358.00 310.00 C 357.60 311.40, 358.20 313.80, 358.00 315.00 C 357.80 316.20, 357.20 314.60, 357.00 316.00 C 356.80 317.40, 356.80 321.00, 357.00 322.00 C 357.20 323.00, 357.60 321.20, 358.00 321.00 C 358.40 320.80, 358.80 321.20, 359.00 321.00 C 359.20 320.80, 358.40 320.80, 359.00 320.00 C 359.60 319.20, 361.40 317.80, 362.00 317.00 C 362.60 316.20, 361.60 316.80, 362.00 316.00 C 362.40 315.20, 363.60 313.80, 364.00 313.00 C 364.40 312.20, 364.20 312.20, 364.00 312.00 C 363.80 311.80, 363.40 312.20, 363.00 312.00 C 362.60 311.80, 362.20 311.60, 362.00 311.00 C 361.80 310.40, 362.20 309.40, 362.00 309.00 C 361.80 308.60, 361.40 309.20, 361.00 309.00 C 360.60 308.80, 360.60 307.80, 360.00 308.00 Z" fill="#E3D9CE" stroke="none" />
  <path d="M 337.00 302.00 C 333.80 302.20, 333.20 305.80, 333.00 307.00 C 332.80 308.20, 335.40 307.20, 336.00 308.00 C 336.60 308.80, 337.20 310.40, 336.00 311.00 C 334.80 311.60, 331.00 310.00, 330.00 311.00 C 329.00 312.00, 331.20 314.20, 331.00 316.00 C 330.80 317.80, 328.60 317.60, 329.00 320.00 C 329.40 322.40, 330.60 325.20, 333.00 328.00 C 335.40 330.80, 338.40 333.20, 341.00 334.00 C 343.60 334.80, 345.80 332.40, 346.00 332.00 C 346.20 331.60, 344.20 333.20, 342.00 332.00 C 339.80 330.80, 337.20 328.60, 335.00 326.00 C 332.80 323.40, 330.20 322.00, 331.00 319.00 C 331.80 316.00, 336.00 312.60, 339.00 311.00 C 342.00 309.40, 344.00 312.00, 346.00 311.00 C 348.00 310.00, 350.80 307.80, 349.00 306.00 C 347.20 304.20, 340.20 301.80, 337.00 302.00 Z" fill="#E3D9CE" stroke="none" />
  <path d="M 394.00 301.00 C 393.00 301.00, 395.40 302.00, 395.00 303.00 C 394.60 304.00, 393.40 305.20, 392.00 306.00 C 390.60 306.80, 388.40 306.80, 388.00 307.00 C 387.60 307.20, 389.40 306.80, 390.00 307.00 C 390.60 307.20, 390.60 308.00, 391.00 308.00 C 391.40 308.00, 391.60 307.00, 392.00 307.00 C 392.40 307.00, 392.80 307.20, 393.00 308.00 C 393.20 308.80, 392.60 310.40, 393.00 311.00 C 393.40 311.60, 394.40 310.60, 395.00 311.00 C 395.60 311.40, 395.00 312.60, 396.00 313.00 C 397.00 313.40, 399.00 312.80, 400.00 313.00 C 401.00 313.20, 400.80 314.00, 401.00 314.00 C 401.20 314.00, 401.40 313.40, 401.00 313.00 C 400.60 312.60, 399.20 312.40, 399.00 312.00 C 398.80 311.60, 400.40 312.20, 400.00 311.00 C 399.60 309.80, 397.20 307.40, 397.00 306.00 C 396.80 304.60, 398.40 304.40, 399.00 304.00 C 399.60 303.60, 399.80 304.20, 400.00 304.00 C 400.20 303.80, 401.20 303.60, 400.00 303.00 C 398.80 302.40, 395.00 301.00, 394.00 301.00 Z" fill="#E3D9CE" stroke="none" />
  <path d="M 83.00 297.00 C 81.20 296.80, 72.60 295.60, 67.00 298.00 C 61.40 300.40, 59.00 309.40, 55.00 309.00 C 51.00 308.60, 50.00 298.60, 47.00 296.00 C 44.00 293.40, 43.20 293.40, 40.00 296.00 C 36.80 298.60, 34.80 306.40, 31.00 309.00 C 27.20 311.60, 22.40 307.40, 21.00 309.00 C 19.60 310.60, 24.60 314.80, 24.00 317.00 C 23.40 319.20, 19.00 316.00, 18.00 320.00 C 17.00 324.00, 18.00 334.00, 19.00 337.00 C 20.00 340.00, 22.00 338.40, 23.00 335.00 C 24.00 331.60, 22.60 323.00, 24.00 320.00 C 25.40 317.00, 28.40 321.60, 30.00 320.00 C 31.60 318.40, 25.40 312.20, 32.00 312.00 C 38.60 311.80, 55.00 315.60, 63.00 319.00 C 71.00 322.40, 67.80 330.60, 72.00 329.00 C 76.20 327.40, 81.60 316.20, 84.00 311.00 C 86.40 305.80, 85.60 303.00, 84.00 303.00 C 82.40 303.00, 77.60 311.80, 76.00 311.00 C 74.40 310.20, 74.60 301.80, 76.00 299.00 C 77.40 296.20, 84.80 297.20, 83.00 297.00 Z" fill="#E3D9CE" stroke="none" />
  <path d="M 88.00 264.00 C 83.20 263.20, 91.00 277.40, 119.00 286.00 C 147.00 294.60, 198.00 303.40, 228.00 307.00 C 258.00 310.60, 246.60 309.80, 269.00 304.00 C 291.40 298.20, 339.60 279.00, 340.00 278.00 C 340.40 277.00, 295.80 294.20, 271.00 299.00 C 246.20 303.80, 241.60 303.80, 216.00 302.00 C 190.40 300.20, 168.60 297.60, 143.00 290.00 C 117.40 282.40, 92.80 264.80, 88.00 264.00 Z" fill="#E3D9CE" stroke="none" />
  <path d="M 151.00 182.00 C 150.80 182.40, 157.00 193.20, 171.00 199.00 C 185.00 204.80, 202.60 209.00, 221.00 211.00 C 239.40 213.00, 247.80 211.40, 263.00 209.00 C 278.20 206.60, 296.80 199.40, 297.00 199.00 C 297.20 198.60, 281.40 205.20, 264.00 207.00 C 246.60 208.80, 228.40 210.00, 210.00 208.00 C 191.60 206.00, 183.80 202.20, 172.00 197.00 C 160.20 191.80, 151.20 181.60, 151.00 182.00 Z" fill="#E3D9CE" stroke="none" />
  <path d="M 226.00 154.00 C 224.80 153.80, 221.80 153.80, 220.00 154.00 C 218.20 154.20, 218.00 154.20, 217.00 155.00 C 216.00 155.80, 216.60 157.40, 215.00 158.00 C 213.40 158.60, 210.80 157.60, 209.00 158.00 C 207.20 158.40, 209.40 159.40, 206.00 160.00 C 202.60 160.60, 195.00 160.00, 192.00 161.00 C 189.00 162.00, 190.00 164.20, 191.00 165.00 C 192.00 165.80, 194.20 165.40, 197.00 165.00 C 199.80 164.60, 203.00 163.80, 205.00 163.00 C 207.00 162.20, 205.00 161.60, 207.00 161.00 C 209.00 160.40, 212.60 160.80, 215.00 160.00 C 217.40 159.20, 217.60 157.60, 219.00 157.00 C 220.40 156.40, 221.00 157.60, 222.00 157.00 C 223.00 156.40, 223.20 154.40, 224.00 154.00 C 224.80 153.60, 225.60 155.00, 226.00 155.00 C 226.40 155.00, 227.20 154.20, 226.00 154.00 Z" fill="#E3D9CE" stroke="none" />
  <path d="M 263.00 125.00 C 259.40 127.80, 252.80 136.80, 246.00 142.00 C 239.20 147.20, 231.40 149.00, 229.00 151.00 C 226.60 153.00, 231.80 153.00, 234.00 152.00 C 236.20 151.00, 238.00 147.00, 240.00 146.00 C 242.00 145.00, 241.80 147.60, 244.00 147.00 C 246.20 146.40, 248.40 145.20, 251.00 143.00 C 253.60 140.80, 255.80 137.80, 257.00 136.00 C 258.20 134.20, 256.20 134.80, 257.00 134.00 C 257.80 133.20, 260.40 132.80, 261.00 132.00 C 261.60 131.20, 259.40 130.80, 260.00 130.00 C 260.60 129.20, 263.40 129.00, 264.00 128.00 C 264.60 127.00, 266.60 122.20, 263.00 125.00 Z" fill="#E3D9CE" stroke="none" />
  <path d="M 316.00 362.00 C 316.60 361.00, 315.00 365.00, 314.00 361.00 C 313.00 357.00, 312.00 345.80, 311.00 342.00 C 310.00 338.20, 315.00 338.80, 309.00 342.00 C 303.00 345.20, 287.60 354.80, 281.00 358.00 C 274.40 361.20, 278.40 357.00, 276.00 358.00 C 273.60 359.00, 270.00 362.20, 269.00 363.00 C 268.00 363.80, 270.00 361.80, 271.00 362.00 C 272.00 362.20, 273.20 364.00, 274.00 364.00 C 274.80 364.00, 274.40 361.80, 275.00 362.00 C 275.60 362.20, 275.60 364.60, 277.00 365.00 C 278.40 365.40, 280.80 363.80, 282.00 364.00 C 283.20 364.20, 278.80 365.40, 283.00 366.00 C 287.20 366.60, 297.40 367.00, 303.00 367.00 C 308.60 367.00, 308.40 367.00, 311.00 366.00 C 313.60 365.00, 315.40 363.00, 316.00 362.00 Z" fill="#255466" stroke="none" />
  <path d="M 110.00 331.00 C 108.00 331.60, 110.40 340.60, 111.00 343.00 C 111.60 345.40, 113.00 340.00, 113.00 343.00 C 113.00 346.00, 105.00 355.20, 111.00 358.00 C 117.00 360.80, 137.00 357.40, 143.00 357.00 C 149.00 356.60, 141.00 356.40, 141.00 356.00 C 141.00 355.60, 142.80 356.00, 143.00 355.00 C 143.20 354.00, 143.40 351.80, 142.00 351.00 C 140.60 350.20, 136.80 350.40, 136.00 351.00 C 135.20 351.60, 138.20 353.40, 138.00 354.00 C 137.80 354.60, 136.00 354.60, 135.00 354.00 C 134.00 353.40, 134.00 351.40, 133.00 351.00 C 132.00 350.60, 130.40 352.40, 130.00 352.00 C 129.60 351.60, 129.80 349.60, 131.00 349.00 C 132.20 348.40, 135.20 349.40, 136.00 349.00 C 136.80 348.60, 138.00 348.80, 135.00 347.00 C 132.00 345.20, 126.00 343.20, 121.00 340.00 C 116.00 336.80, 112.00 330.40, 110.00 331.00 Z" fill="#255466" stroke="none" />
  <path d="M 68.00 245.00 C 67.00 249.00, 64.60 258.60, 66.00 265.00 C 67.40 271.40, 72.80 272.80, 75.00 277.00 C 77.20 281.20, 75.60 283.40, 77.00 286.00 C 78.40 288.60, 81.00 293.40, 82.00 290.00 C 83.00 286.60, 82.40 272.60, 82.00 269.00 C 81.60 265.40, 81.20 272.40, 80.00 272.00 C 78.80 271.60, 77.00 267.80, 76.00 267.00 C 75.00 266.20, 76.20 268.60, 75.00 268.00 C 73.80 267.40, 71.00 265.40, 70.00 264.00 C 69.00 262.60, 70.40 261.60, 70.00 261.00 C 69.60 260.40, 68.40 263.80, 68.00 261.00 C 67.60 258.20, 67.40 250.20, 68.00 247.00 C 68.60 243.80, 71.00 245.40, 71.00 245.00 C 71.00 244.60, 69.00 241.00, 68.00 245.00 Z" fill="#255466" stroke="none" />
  <path d="M 377.00 239.00 C 374.00 235.00, 371.80 246.20, 370.00 251.00 C 368.20 255.80, 369.60 259.40, 368.00 263.00 C 366.40 266.60, 365.40 267.00, 362.00 269.00 C 358.60 271.00, 353.00 271.80, 351.00 273.00 C 349.00 274.20, 352.20 274.20, 352.00 275.00 C 351.80 275.80, 348.80 274.60, 350.00 277.00 C 351.20 279.40, 353.20 285.60, 358.00 287.00 C 362.80 288.40, 368.60 287.20, 374.00 284.00 C 379.40 280.80, 384.40 280.00, 385.00 271.00 C 385.60 262.00, 380.00 243.00, 377.00 239.00 Z" fill="#255466" stroke="none" />
  <path d="M 182.00 104.00 C 181.00 102.20, 180.00 101.20, 178.00 102.00 C 176.00 102.80, 174.40 106.60, 172.00 108.00 C 169.60 109.40, 167.20 108.20, 166.00 109.00 C 164.80 109.80, 166.60 111.80, 166.00 112.00 C 165.40 112.20, 164.60 110.00, 163.00 110.00 C 161.40 110.00, 158.60 110.20, 158.00 112.00 C 157.40 113.80, 160.40 117.40, 160.00 119.00 C 159.60 120.60, 157.00 120.20, 156.00 120.00 C 155.00 119.80, 155.20 117.40, 155.00 118.00 C 154.80 118.60, 155.80 121.40, 155.00 123.00 C 154.20 124.60, 151.60 124.60, 151.00 126.00 C 150.40 127.40, 152.40 128.20, 152.00 130.00 C 151.60 131.80, 148.80 134.80, 149.00 135.00 C 149.20 135.20, 150.80 130.80, 153.00 131.00 C 155.20 131.20, 158.60 134.40, 160.00 136.00 C 161.40 137.60, 158.60 138.40, 160.00 139.00 C 161.40 139.60, 164.60 139.60, 167.00 139.00 C 169.40 138.40, 171.20 137.00, 172.00 136.00 C 172.80 135.00, 170.40 134.80, 171.00 134.00 C 171.60 133.20, 174.00 133.40, 175.00 132.00 C 176.00 130.60, 174.00 128.60, 176.00 127.00 C 178.00 125.40, 182.20 125.60, 185.00 124.00 C 187.80 122.40, 189.40 121.00, 190.00 119.00 C 190.60 117.00, 189.40 115.60, 188.00 114.00 C 186.60 112.40, 184.20 113.00, 183.00 111.00 C 181.80 109.00, 183.00 105.80, 182.00 104.00 Z" fill="#F1EBE5" stroke="none" />
  <path d="M 178.00 108.00 C 179.60 108.40, 180.00 108.60, 180.00 110.00 C 180.00 111.40, 178.60 114.40, 178.00 115.00 C 177.40 115.60, 177.20 112.80, 177.00 113.00 C 176.80 113.20, 176.80 115.20, 177.00 116.00 C 177.20 116.80, 178.20 116.60, 178.00 117.00 C 177.80 117.40, 176.60 117.40, 176.00 118.00 C 175.40 118.60, 175.80 119.60, 175.00 120.00 C 174.20 120.40, 173.20 119.20, 172.00 120.00 C 170.80 120.80, 170.00 123.20, 169.00 124.00 C 168.00 124.80, 168.00 123.60, 167.00 124.00 C 166.00 124.40, 165.20 126.40, 164.00 126.00 C 162.80 125.60, 161.20 123.00, 161.00 122.00 C 160.80 121.00, 162.40 121.80, 163.00 121.00 C 163.60 120.20, 163.20 119.20, 164.00 118.00 C 164.80 116.80, 166.40 116.20, 167.00 115.00 C 167.60 113.80, 166.00 113.40, 167.00 112.00 C 168.00 110.60, 169.80 108.80, 172.00 108.00 C 174.20 107.20, 176.40 107.60, 178.00 108.00 Z" fill="#F1EBE5" stroke="none" />
</svg>