<svg xmlns="http://www.w3.org/2000/svg" width="431" height="431" viewBox="0 0 431 431">
<!-- Generated by apx-clsct -->
  <rect width="431" height="431" fill="none" />
  <path d="M 343.00 129.00 C 340.40 134.20, 338.80 146.20, 334.00 155.00 C 329.20 163.80, 322.00 168.40, 319.00 173.00 C 316.00 177.60, 317.00 175.60, 319.00 178.00 C 321.00 180.40, 319.60 181.00, 329.00 185.00 C 338.40 189.00, 352.00 194.60, 366.00 198.00 C 380.00 201.40, 389.60 201.40, 399.00 202.00 C 408.40 202.60, 410.00 202.40, 413.00 201.00 C 416.00 199.60, 414.20 197.00, 414.00 195.00 C 413.80 193.00, 414.00 193.20, 412.00 191.00 C 410.00 188.80, 407.60 188.20, 404.00 184.00 C 400.40 179.80, 401.60 178.40, 394.00 170.00 C 386.40 161.60, 372.80 148.00, 366.00 142.00 C 359.20 136.00, 362.40 141.60, 360.00 140.00 C 357.60 138.40, 356.40 135.40, 354.00 134.00 C 351.60 132.60, 349.40 134.00, 348.00 133.00 C 346.60 132.00, 348.00 129.80, 347.00 129.00 C 346.00 128.20, 345.60 123.80, 343.00 129.00 Z" fill="#5F96A9" stroke="none" fill-rule="evenodd" />
  <path d="M 149.00 164.00 C 147.40 161.80, 143.80 161.00, 141.00 158.00 C 138.20 155.00, 136.20 152.20, 135.00 149.00 C 133.80 145.80, 135.80 145.20, 135.00 142.00 C 134.20 138.80, 131.80 137.40, 131.00 133.00 C 130.20 128.60, 131.40 123.20, 131.00 120.00 C 130.60 116.80, 130.20 117.60, 129.00 117.00 C 127.80 116.40, 127.40 115.80, 125.00 117.00 C 122.60 118.20, 120.80 121.40, 117.00 123.00 C 113.20 124.60, 108.20 123.00, 106.00 125.00 C 103.80 127.00, 104.80 131.40, 106.00 133.00 C 107.20 134.60, 110.60 132.60, 112.00 133.00 C 113.40 133.40, 113.40 134.00, 113.00 135.00 C 112.60 136.00, 110.80 134.20, 110.00 138.00 C 109.20 141.80, 110.00 150.40, 109.00 154.00 C 108.00 157.60, 106.60 154.00, 105.00 156.00 C 103.40 158.00, 105.00 162.40, 101.00 164.00 C 97.00 165.60, 88.40 165.20, 85.00 164.00 C 81.60 162.80, 86.00 159.20, 84.00 158.00 C 82.00 156.80, 77.80 157.40, 75.00 158.00 C 72.20 158.60, 71.40 161.60, 70.00 161.00 C 68.60 160.40, 69.40 156.40, 68.00 155.00 C 66.60 153.60, 65.00 152.20, 63.00 154.00 C 61.00 155.80, 60.00 161.40, 58.00 164.00 C 56.00 166.60, 54.00 165.20, 53.00 167.00 C 52.00 168.80, 52.00 171.00, 53.00 173.00 C 54.00 175.00, 54.40 175.40, 58.00 177.00 C 61.60 178.60, 61.00 180.40, 71.00 181.00 C 81.00 181.60, 93.60 181.80, 108.00 180.00 C 122.40 178.20, 134.80 174.20, 143.00 172.00 C 151.20 169.80, 147.80 170.60, 149.00 169.00 C 150.20 167.40, 150.60 166.20, 149.00 164.00 Z" fill="#5F96A9" stroke="none" fill-rule="evenodd" />
  <path d="M 148.00 112.00 C 149.60 119.60, 149.80 115.00, 154.00 113.00 C 158.20 111.00, 163.60 104.80, 169.00 102.00 C 174.40 99.20, 176.00 96.20, 181.00 99.00 C 186.00 101.80, 185.40 112.80, 194.00 116.00 C 202.60 119.20, 215.80 118.00, 224.00 115.00 C 232.20 112.00, 231.80 104.00, 235.00 101.00 C 238.20 98.00, 232.40 96.80, 240.00 100.00 C 247.60 103.20, 263.20 119.20, 273.00 117.00 C 282.80 114.80, 283.80 101.60, 289.00 89.00 C 294.20 76.40, 302.00 60.80, 299.00 54.00 C 296.00 47.20, 283.00 52.20, 274.00 55.00 C 265.00 57.80, 261.20 67.00, 254.00 68.00 C 246.80 69.00, 248.00 61.80, 238.00 60.00 C 228.00 58.20, 212.20 57.20, 204.00 59.00 C 195.80 60.80, 199.80 66.60, 197.00 69.00 C 194.20 71.40, 195.40 74.40, 190.00 71.00 C 184.60 67.60, 176.60 57.00, 170.00 52.00 C 163.40 47.00, 161.80 41.40, 157.00 46.00 C 152.20 50.60, 147.80 61.80, 146.00 75.00 C 144.20 88.20, 146.40 104.40, 148.00 112.00 Z M 208.00 71.00 C 207.00 70.60, 206.00 70.60, 205.00 71.00 C 204.00 71.40, 203.60 72.60, 203.00 73.00 C 202.40 73.40, 202.40 72.80, 202.00 73.00 C 201.60 73.20, 201.60 73.80, 201.00 74.00 C 200.40 74.20, 200.00 73.60, 199.00 74.00 C 198.00 74.40, 196.80 75.60, 196.00 76.00 C 195.20 76.40, 195.60 75.60, 195.00 76.00 C 194.40 76.40, 193.40 77.20, 193.00 78.00 C 192.60 78.80, 193.20 79.60, 193.00 80.00 C 192.80 80.40, 192.40 79.80, 192.00 80.00 C 191.60 80.20, 191.20 80.60, 191.00 81.00 C 190.80 81.40, 190.60 81.40, 191.00 82.00 C 191.40 82.60, 192.60 83.40, 193.00 84.00 C 193.40 84.60, 192.80 84.60, 193.00 85.00 C 193.20 85.40, 192.40 85.80, 194.00 86.00 C 195.60 86.20, 199.00 86.40, 201.00 86.00 C 203.00 85.60, 203.20 84.40, 204.00 84.00 C 204.80 83.60, 204.60 84.20, 205.00 84.00 C 205.40 83.80, 205.60 83.20, 206.00 83.00 C 206.40 82.80, 205.80 84.00, 207.00 83.00 C 208.20 82.00, 211.00 79.20, 212.00 78.00 C 213.00 76.80, 212.20 77.40, 212.00 77.00 C 211.80 76.60, 211.20 76.40, 211.00 76.00 C 210.80 75.60, 211.20 75.40, 211.00 75.00 C 210.80 74.60, 210.20 74.40, 210.00 74.00 C 209.80 73.60, 210.40 73.60, 210.00 73.00 C 209.60 72.40, 209.00 71.40, 208.00 71.00 Z" fill="#5F96A9" stroke="none" fill-rule="evenodd" />
  <path d="M 430.00 226.00 C 423.40 188.40, 407.40 241.00, 397.00 242.00 C 386.60 243.00, 379.40 220.80, 378.00 231.00 C 376.60 241.20, 385.20 278.80, 390.00 293.00 C 394.80 307.20, 396.20 301.40, 402.00 302.00 C 407.80 302.60, 417.40 286.40, 419.00 296.00 C 420.60 305.60, 417.20 333.60, 410.00 350.00 C 402.80 366.40, 395.60 371.00, 383.00 378.00 C 370.40 385.00, 359.80 387.60, 347.00 385.00 C 334.20 382.40, 347.80 368.40, 319.00 365.00 C 290.20 361.60, 235.00 369.80, 203.00 368.00 C 171.00 366.20, 178.40 357.80, 159.00 356.00 C 139.60 354.20, 119.80 355.60, 106.00 359.00 C 92.20 362.40, 99.20 369.60, 90.00 373.00 C 80.80 376.40, 74.00 380.60, 60.00 376.00 C 46.00 371.40, 32.00 364.60, 20.00 350.00 C 8.00 335.40, 4.00 287.00, 0.00 303.00 C -4.00 319.00, -86.00 404.60, 0.00 430.00 C 86.00 455.40, 344.00 470.80, 430.00 430.00 C 516.00 389.20, 436.60 263.60, 430.00 226.00 Z" fill="#000000" stroke="none" fill-rule="evenodd" />
  <path d="M 0.00 0.00 C -86.00 60.20, -3.00 240.80, 0.00 301.00 C 3.00 361.20, 9.60 306.00, 15.00 301.00 C 20.40 296.00, 18.40 279.80, 27.00 276.00 C 35.60 272.20, 48.40 294.40, 58.00 282.00 C 67.60 269.60, 77.60 225.40, 75.00 214.00 C 72.40 202.60, 54.00 227.00, 45.00 225.00 C 36.00 223.00, 26.20 218.00, 30.00 204.00 C 33.80 190.00, 42.80 173.60, 64.00 155.00 C 85.20 136.40, 117.00 133.20, 136.00 111.00 C 155.00 88.80, 147.60 53.80, 159.00 44.00 C 170.40 34.20, 174.60 57.40, 193.00 62.00 C 211.40 66.60, 230.20 69.00, 251.00 67.00 C 271.80 65.00, 287.00 44.40, 297.00 52.00 C 307.00 59.60, 285.60 85.20, 301.00 105.00 C 316.40 124.80, 348.20 128.00, 374.00 151.00 C 399.80 174.00, 418.80 250.20, 430.00 220.00 C 441.20 189.80, 516.00 44.00, 430.00 0.00 C 344.00 -44.00, 86.00 -60.20, 0.00 0.00 Z" fill="#000000" stroke="none" fill-rule="evenodd" />
  <path d="M 13.00 318.00 C 11.60 318.20, 12.40 318.80, 12.00 319.00 C 11.60 319.20, 11.20 317.20, 11.00 319.00 C 10.80 320.80, 10.60 325.80, 11.00 328.00 C 11.40 330.20, 12.80 329.40, 13.00 330.00 C 13.20 330.60, 12.20 329.80, 12.00 331.00 C 11.80 332.20, 11.80 334.80, 12.00 336.00 C 12.20 337.20, 11.60 336.80, 13.00 337.00 C 14.40 337.20, 17.80 340.80, 19.00 337.00 C 20.20 333.20, 20.20 321.80, 19.00 318.00 C 17.80 314.20, 14.40 317.80, 13.00 318.00 Z" fill="#EDE1D5" stroke="none" fill-rule="evenodd" />
  <path d="M 21.00 302.00 C 20.80 302.60, 21.20 303.40, 21.00 304.00 C 20.80 304.60, 20.20 304.00, 20.00 305.00 C 19.80 306.00, 19.80 308.00, 20.00 309.00 C 20.20 310.00, 20.80 309.60, 21.00 310.00 C 21.20 310.40, 20.20 310.80, 21.00 311.00 C 21.80 311.20, 24.00 311.20, 25.00 311.00 C 26.00 310.80, 24.40 310.20, 26.00 310.00 C 27.60 309.80, 31.20 310.40, 33.00 310.00 C 34.80 309.60, 34.60 308.80, 35.00 308.00 C 35.40 307.20, 34.80 306.60, 35.00 306.00 C 35.20 305.40, 35.60 305.20, 36.00 305.00 C 36.40 304.80, 36.80 305.80, 37.00 305.00 C 37.20 304.20, 37.20 301.80, 37.00 301.00 C 36.80 300.20, 36.40 301.20, 36.00 301.00 C 35.60 300.80, 37.00 300.20, 35.00 300.00 C 33.00 299.80, 28.00 299.80, 26.00 300.00 C 24.00 300.20, 25.80 300.80, 25.00 301.00 C 24.20 301.20, 22.80 300.80, 22.00 301.00 C 21.20 301.20, 21.20 301.40, 21.00 302.00 Z" fill="#EDE1D5" stroke="none" fill-rule="evenodd" />
  <path d="M 75.00 297.00 C 74.20 297.60, 75.20 299.20, 75.00 300.00 C 74.80 300.80, 74.20 300.00, 74.00 301.00 C 73.80 302.00, 73.80 304.00, 74.00 305.00 C 74.20 306.00, 74.80 304.40, 75.00 306.00 C 75.20 307.60, 73.80 311.60, 75.00 313.00 C 76.20 314.40, 79.80 313.40, 81.00 313.00 C 82.20 312.60, 80.80 311.60, 81.00 311.00 C 81.20 310.40, 81.80 310.60, 82.00 310.00 C 82.20 309.40, 81.80 308.60, 82.00 308.00 C 82.20 307.40, 82.80 307.80, 83.00 307.00 C 83.20 306.20, 82.80 304.80, 83.00 304.00 C 83.20 303.20, 83.80 304.00, 84.00 303.00 C 84.20 302.00, 84.40 299.80, 84.00 299.00 C 83.60 298.20, 82.60 299.20, 82.00 299.00 C 81.40 298.80, 81.40 298.20, 81.00 298.00 C 80.60 297.80, 80.40 298.20, 80.00 298.00 C 79.60 297.80, 80.00 297.20, 79.00 297.00 C 78.00 296.80, 75.80 296.40, 75.00 297.00 Z" fill="#EDE1D5" stroke="none" fill-rule="evenodd" />
  <path d="M 330.00 317.00 C 328.60 319.40, 329.40 320.00, 330.00 322.00 C 330.60 324.00, 331.00 324.80, 333.00 327.00 C 335.00 329.20, 336.40 331.80, 340.00 333.00 C 343.60 334.20, 348.20 334.00, 351.00 333.00 C 353.80 332.00, 349.00 328.80, 354.00 328.00 C 359.00 327.20, 371.20 328.40, 376.00 329.00 C 380.80 329.60, 376.00 330.40, 378.00 331.00 C 380.00 331.60, 383.60 329.20, 386.00 332.00 C 388.40 334.80, 388.40 342.20, 390.00 345.00 C 391.60 347.80, 393.20 344.80, 394.00 346.00 C 394.80 347.20, 391.00 350.60, 394.00 351.00 C 397.00 351.40, 405.40 351.60, 409.00 348.00 C 412.60 344.40, 412.60 337.00, 412.00 333.00 C 411.40 329.00, 407.20 331.00, 406.00 328.00 C 404.80 325.00, 406.80 320.40, 406.00 318.00 C 405.20 315.60, 403.00 317.20, 402.00 316.00 C 401.00 314.80, 402.40 313.20, 401.00 312.00 C 399.60 310.80, 396.40 311.20, 395.00 310.00 C 393.60 308.80, 397.00 307.00, 394.00 306.00 C 391.00 305.00, 383.00 304.80, 380.00 305.00 C 377.00 305.20, 379.60 307.60, 379.00 307.00 C 378.40 306.40, 378.40 303.00, 377.00 302.00 C 375.60 301.00, 373.40 302.40, 372.00 302.00 C 370.60 301.60, 370.40 301.60, 370.00 300.00 C 369.60 298.40, 372.20 295.20, 370.00 294.00 C 367.80 292.80, 361.20 292.80, 359.00 294.00 C 356.80 295.20, 359.40 298.40, 359.00 300.00 C 358.60 301.60, 359.40 301.40, 357.00 302.00 C 354.60 302.60, 349.00 302.00, 347.00 303.00 C 345.00 304.00, 347.60 305.60, 347.00 307.00 C 346.40 308.40, 346.00 309.40, 344.00 310.00 C 342.00 310.60, 339.80 308.60, 337.00 310.00 C 334.20 311.40, 331.40 314.60, 330.00 317.00 Z" fill="#EDE1D5" stroke="none" fill-rule="evenodd" />
  <path d="M 46.00 294.00 C 45.40 296.00, 45.40 301.80, 46.00 304.00 C 46.60 306.20, 47.60 303.80, 49.00 305.00 C 50.40 306.20, 50.80 309.00, 53.00 310.00 C 55.20 311.00, 58.20 310.40, 60.00 310.00 C 61.80 309.60, 61.60 308.80, 62.00 308.00 C 62.40 307.20, 61.80 306.60, 62.00 306.00 C 62.20 305.40, 62.60 305.20, 63.00 305.00 C 63.40 304.80, 63.80 305.20, 64.00 305.00 C 64.20 304.80, 63.20 305.00, 64.00 304.00 C 64.80 303.00, 67.20 301.60, 68.00 300.00 C 68.80 298.40, 68.40 296.80, 68.00 296.00 C 67.60 295.20, 66.60 296.20, 66.00 296.00 C 65.40 295.80, 65.20 295.40, 65.00 295.00 C 64.80 294.60, 67.00 294.20, 65.00 294.00 C 63.00 293.80, 57.20 294.20, 55.00 294.00 C 52.80 293.80, 55.00 293.20, 54.00 293.00 C 53.00 292.80, 51.00 292.80, 50.00 293.00 C 49.00 293.20, 49.80 293.80, 49.00 294.00 C 48.20 294.20, 46.60 292.00, 46.00 294.00 Z" fill="#EDE1D5" stroke="none" fill-rule="evenodd" />
  <path d="M 250.00 242.00 C 248.00 241.60, 243.80 241.80, 242.00 242.00 C 240.20 242.20, 241.20 242.60, 241.00 243.00 C 240.80 243.40, 241.20 243.60, 241.00 244.00 C 240.80 244.40, 240.20 244.40, 240.00 245.00 C 239.80 245.60, 240.20 246.40, 240.00 247.00 C 239.80 247.60, 239.40 247.80, 239.00 248.00 C 238.60 248.20, 238.20 246.20, 238.00 248.00 C 237.80 249.80, 236.40 255.20, 238.00 257.00 C 239.60 258.80, 244.00 257.40, 246.00 257.00 C 248.00 256.60, 247.40 255.40, 248.00 255.00 C 248.60 254.60, 248.80 256.00, 249.00 255.00 C 249.20 254.00, 248.80 251.20, 249.00 250.00 C 249.20 248.80, 249.40 249.20, 250.00 249.00 C 250.60 248.80, 251.60 250.00, 252.00 249.00 C 252.40 248.00, 252.40 245.40, 252.00 244.00 C 251.60 242.60, 252.00 242.40, 250.00 242.00 Z" fill="#EDE1D5" stroke="none" fill-rule="evenodd" />
  <path d="M 188.00 227.00 C 186.80 226.60, 183.20 226.60, 182.00 227.00 C 180.80 227.40, 182.40 228.00, 182.00 229.00 C 181.60 230.00, 180.60 231.40, 180.00 232.00 C 179.40 232.60, 179.40 232.40, 179.00 232.00 C 178.60 231.60, 179.00 230.40, 178.00 230.00 C 177.00 229.60, 174.80 229.60, 174.00 230.00 C 173.20 230.40, 174.80 231.00, 174.00 232.00 C 173.20 233.00, 170.80 234.00, 170.00 235.00 C 169.20 236.00, 170.20 236.40, 170.00 237.00 C 169.80 237.60, 169.20 236.40, 169.00 238.00 C 168.80 239.60, 169.20 243.40, 169.00 245.00 C 168.80 246.60, 168.60 245.80, 168.00 246.00 C 167.40 246.20, 166.40 244.60, 166.00 246.00 C 165.60 247.40, 164.80 251.60, 166.00 253.00 C 167.20 254.40, 170.60 253.20, 172.00 253.00 C 173.40 252.80, 172.40 252.20, 173.00 252.00 C 173.60 251.80, 174.20 252.20, 175.00 252.00 C 175.80 251.80, 176.20 252.00, 177.00 251.00 C 177.80 250.00, 178.40 247.80, 179.00 247.00 C 179.60 246.20, 179.60 246.60, 180.00 247.00 C 180.40 247.40, 180.00 248.60, 181.00 249.00 C 182.00 249.40, 183.60 249.60, 185.00 249.00 C 186.40 248.40, 187.40 246.80, 188.00 246.00 C 188.60 245.20, 187.60 245.60, 188.00 245.00 C 188.40 244.40, 189.60 246.00, 190.00 243.00 C 190.40 240.00, 190.40 232.80, 190.00 230.00 C 189.60 227.20, 188.40 229.60, 188.00 229.00 C 187.60 228.40, 189.20 227.40, 188.00 227.00 Z" fill="#EDE1D5" stroke="none" fill-rule="evenodd" />
  <path d="M 119.00 204.00 C 116.80 207.20, 115.00 216.00, 114.00 220.00 C 113.00 224.00, 113.20 222.80, 114.00 224.00 C 114.80 225.20, 117.40 223.40, 118.00 226.00 C 118.60 228.60, 117.60 234.60, 117.00 237.00 C 116.40 239.40, 115.40 235.60, 115.00 238.00 C 114.60 240.40, 113.20 246.80, 115.00 249.00 C 116.80 251.20, 121.00 250.60, 124.00 249.00 C 127.00 247.40, 128.60 240.60, 130.00 241.00 C 131.40 241.40, 130.20 248.40, 131.00 251.00 C 131.80 253.60, 132.40 253.40, 134.00 254.00 C 135.60 254.60, 137.60 251.80, 139.00 254.00 C 140.40 256.20, 139.80 262.80, 141.00 265.00 C 142.20 267.20, 144.00 265.60, 145.00 265.00 C 146.00 264.40, 144.40 263.00, 146.00 262.00 C 147.60 261.00, 151.60 265.60, 153.00 260.00 C 154.40 254.40, 153.80 239.80, 153.00 234.00 C 152.20 228.20, 149.80 232.60, 149.00 231.00 C 148.20 229.40, 148.20 228.00, 149.00 226.00 C 149.80 224.00, 152.20 224.20, 153.00 221.00 C 153.80 217.80, 154.00 213.80, 153.00 210.00 C 152.00 206.20, 151.00 203.60, 148.00 202.00 C 145.00 200.40, 140.80 200.00, 138.00 202.00 C 135.20 204.00, 134.80 207.80, 134.00 212.00 C 133.20 216.20, 134.80 220.60, 134.00 223.00 C 133.20 225.40, 131.40 224.40, 130.00 224.00 C 128.60 223.60, 127.20 223.80, 127.00 221.00 C 126.80 218.20, 129.20 212.60, 129.00 210.00 C 128.80 207.40, 126.80 209.20, 126.00 208.00 C 125.20 206.80, 126.40 204.80, 125.00 204.00 C 123.60 203.20, 121.20 200.80, 119.00 204.00 Z" fill="#EDE1D5" stroke="none" fill-rule="evenodd" />
  <path d="M 86.00 261.00 C 85.60 267.00, 90.60 272.80, 113.00 281.00 C 135.40 289.20, 166.00 298.20, 198.00 302.00 C 230.00 305.80, 245.20 305.00, 273.00 300.00 C 300.80 295.00, 329.20 281.00, 337.00 277.00 C 344.80 273.00, 313.60 288.40, 312.00 280.00 C 310.40 271.60, 329.40 243.40, 329.00 235.00 C 328.60 226.60, 316.60 229.60, 310.00 238.00 C 303.40 246.40, 302.80 266.40, 296.00 277.00 C 289.20 287.60, 279.40 294.80, 276.00 291.00 C 272.60 287.20, 274.20 264.80, 279.00 258.00 C 283.80 251.20, 295.80 261.00, 300.00 257.00 C 304.20 253.00, 303.40 242.40, 300.00 238.00 C 296.60 233.60, 288.80 227.80, 283.00 235.00 C 277.20 242.20, 280.20 268.40, 271.00 274.00 C 261.80 279.60, 244.60 258.40, 237.00 263.00 C 229.40 267.60, 241.20 290.60, 233.00 297.00 C 224.80 303.40, 197.60 298.20, 196.00 295.00 C 194.40 291.80, 221.80 290.40, 225.00 281.00 C 228.20 271.60, 208.80 260.80, 212.00 248.00 C 215.20 235.20, 230.40 223.20, 241.00 217.00 C 251.60 210.80, 262.40 213.60, 265.00 217.00 C 267.60 220.40, 254.00 228.40, 254.00 234.00 C 254.00 239.60, 256.60 251.00, 265.00 245.00 C 273.40 239.00, 290.20 206.40, 296.00 204.00 C 301.80 201.60, 289.80 231.00, 294.00 233.00 C 298.20 235.00, 314.80 221.00, 317.00 214.00 C 319.20 207.00, 324.40 199.00, 305.00 198.00 C 285.60 197.00, 249.20 211.00, 220.00 209.00 C 190.80 207.00, 170.40 187.40, 159.00 188.00 C 147.60 188.60, 159.40 208.80, 163.00 212.00 C 166.60 215.20, 173.20 202.00, 177.00 204.00 C 180.80 206.00, 174.60 219.20, 182.00 222.00 C 189.40 224.80, 208.00 215.60, 214.00 218.00 C 220.00 220.40, 215.80 230.00, 212.00 234.00 C 208.20 238.00, 198.00 233.60, 195.00 238.00 C 192.00 242.40, 201.20 250.00, 197.00 256.00 C 192.80 262.00, 179.20 261.20, 174.00 268.00 C 168.80 274.80, 182.20 288.80, 171.00 290.00 C 159.80 291.20, 129.20 281.80, 118.00 274.00 C 106.80 266.20, 121.40 253.60, 115.00 251.00 C 108.60 248.40, 86.40 255.00, 86.00 261.00 Z" fill="#EDE1D5" stroke="none" fill-rule="evenodd" />
  <path d="M 266.00 118.00 C 265.00 116.80, 262.20 118.20, 261.00 118.00 C 259.80 117.80, 261.00 117.20, 260.00 117.00 C 259.00 116.80, 256.80 116.20, 256.00 117.00 C 255.20 117.80, 256.20 120.00, 256.00 121.00 C 255.80 122.00, 255.40 121.80, 255.00 122.00 C 254.60 122.20, 254.20 121.40, 254.00 122.00 C 253.80 122.60, 254.40 123.80, 254.00 125.00 C 253.60 126.20, 252.40 126.00, 252.00 128.00 C 251.60 130.00, 251.00 133.60, 252.00 135.00 C 253.00 136.40, 256.00 135.20, 257.00 135.00 C 258.00 134.80, 255.40 135.80, 257.00 134.00 C 258.60 132.20, 263.40 127.80, 265.00 126.00 C 266.60 124.20, 264.80 125.40, 265.00 125.00 C 265.20 124.60, 265.80 125.40, 266.00 124.00 C 266.20 122.60, 267.00 119.20, 266.00 118.00 Z" fill="#EDE1D5" stroke="none" fill-rule="evenodd" />
  <path d="M 250.00 137.00 C 246.80 136.80, 236.20 140.20, 232.00 142.00 C 227.80 143.80, 229.60 146.40, 229.00 146.00 C 228.40 145.60, 226.80 141.80, 229.00 140.00 C 231.20 138.20, 237.80 139.80, 240.00 137.00 C 242.20 134.20, 240.60 129.00, 240.00 126.00 C 239.40 123.00, 239.00 122.80, 237.00 122.00 C 235.00 121.20, 231.80 123.40, 230.00 122.00 C 228.20 120.60, 229.40 116.40, 228.00 115.00 C 226.60 113.60, 226.00 112.60, 223.00 115.00 C 220.00 117.40, 219.60 124.40, 213.00 127.00 C 206.40 129.60, 195.60 126.80, 190.00 128.00 C 184.40 129.20, 185.80 129.00, 185.00 133.00 C 184.20 137.00, 184.40 144.80, 186.00 148.00 C 187.60 151.20, 190.60 149.60, 193.00 149.00 C 195.40 148.40, 196.40 144.20, 198.00 145.00 C 199.60 145.80, 199.20 151.40, 201.00 153.00 C 202.80 154.60, 204.80 155.40, 207.00 153.00 C 209.20 150.60, 210.40 143.00, 212.00 141.00 C 213.60 139.00, 215.00 140.40, 215.00 143.00 C 215.00 145.60, 214.80 151.20, 212.00 154.00 C 209.20 156.80, 211.00 156.40, 201.00 157.00 C 191.00 157.60, 172.60 157.60, 162.00 157.00 C 151.40 156.40, 150.80 153.80, 148.00 154.00 C 145.20 154.20, 144.40 156.20, 148.00 158.00 C 151.60 159.80, 154.00 162.40, 166.00 163.00 C 178.00 163.60, 195.40 162.80, 208.00 161.00 C 220.60 159.20, 221.00 157.60, 229.00 154.00 C 237.00 150.40, 243.80 146.40, 248.00 143.00 C 252.20 139.60, 253.20 137.20, 250.00 137.00 Z" fill="#EDE1D5" stroke="none" fill-rule="evenodd" />
  <path d="M 70.00 233.00 C 69.00 233.40, 70.40 234.40, 70.00 235.00 C 69.60 235.60, 68.40 234.60, 68.00 236.00 C 67.60 237.40, 67.80 240.40, 68.00 242.00 C 68.20 243.60, 69.20 243.40, 69.00 244.00 C 68.80 244.60, 67.40 241.20, 67.00 245.00 C 66.60 248.80, 66.60 259.20, 67.00 263.00 C 67.40 266.80, 68.60 263.40, 69.00 264.00 C 69.40 264.60, 68.80 265.60, 69.00 266.00 C 69.20 266.40, 69.20 265.40, 70.00 266.00 C 70.80 266.60, 72.00 268.40, 73.00 269.00 C 74.00 269.60, 74.00 268.40, 75.00 269.00 C 76.00 269.60, 77.40 271.20, 78.00 272.00 C 78.60 272.80, 77.20 272.80, 78.00 273.00 C 78.80 273.20, 80.80 273.60, 82.00 273.00 C 83.20 272.40, 83.60 275.00, 84.00 270.00 C 84.40 265.00, 84.40 252.40, 84.00 248.00 C 83.60 243.60, 82.60 248.20, 82.00 248.00 C 81.40 247.80, 81.20 247.80, 81.00 247.00 C 80.80 246.20, 81.20 244.60, 81.00 244.00 C 80.80 243.40, 80.60 244.40, 80.00 244.00 C 79.40 243.60, 78.60 243.20, 78.00 242.00 C 77.40 240.80, 77.60 239.00, 77.00 238.00 C 76.40 237.00, 75.40 238.00, 75.00 237.00 C 74.60 236.00, 76.00 233.80, 75.00 233.00 C 74.00 232.20, 71.00 232.60, 70.00 233.00 Z" fill="#225F75" stroke="none" fill-rule="evenodd" />
  <path d="M 375.00 231.00 C 373.60 230.60, 371.80 229.80, 371.00 231.00 C 370.20 232.20, 371.40 235.60, 371.00 237.00 C 370.60 238.40, 369.40 237.40, 369.00 238.00 C 368.60 238.60, 369.60 238.80, 369.00 240.00 C 368.40 241.20, 367.40 241.40, 366.00 244.00 C 364.60 246.60, 364.60 249.60, 362.00 253.00 C 359.40 256.40, 355.80 259.00, 353.00 261.00 C 350.20 263.00, 349.60 262.60, 348.00 263.00 C 346.40 263.40, 345.60 261.00, 345.00 263.00 C 344.40 265.00, 344.60 270.80, 345.00 273.00 C 345.40 275.20, 345.40 273.80, 347.00 274.00 C 348.60 274.20, 350.40 274.80, 353.00 274.00 C 355.60 273.20, 357.80 270.80, 360.00 270.00 C 362.20 269.20, 362.80 270.60, 364.00 270.00 C 365.20 269.40, 365.00 268.00, 366.00 267.00 C 367.00 266.00, 368.40 266.20, 369.00 265.00 C 369.60 263.80, 368.60 262.20, 369.00 261.00 C 369.40 259.80, 370.60 260.60, 371.00 259.00 C 371.40 257.40, 370.40 254.80, 371.00 253.00 C 371.60 251.20, 373.40 251.20, 374.00 250.00 C 374.60 248.80, 373.20 248.80, 374.00 247.00 C 374.80 245.20, 377.20 243.80, 378.00 241.00 C 378.80 238.20, 378.60 235.00, 378.00 233.00 C 377.40 231.00, 376.40 231.40, 375.00 231.00 Z" fill="#225F75" stroke="none" fill-rule="evenodd" />
  <path d="M 302.00 65.00 C 301.60 56.40, 300.60 58.80, 298.00 65.00 C 295.40 71.20, 293.80 85.60, 289.00 96.00 C 284.20 106.40, 276.80 111.40, 274.00 117.00 C 271.20 122.60, 273.00 120.40, 275.00 124.00 C 277.00 127.60, 281.80 129.20, 284.00 135.00 C 286.20 140.80, 285.00 149.20, 286.00 153.00 C 287.00 156.80, 290.20 150.60, 289.00 154.00 C 287.80 157.40, 281.60 165.60, 280.00 170.00 C 278.40 174.40, 279.60 174.00, 281.00 176.00 C 282.40 178.00, 283.60 179.80, 287.00 180.00 C 290.40 180.20, 294.40 177.40, 298.00 177.00 C 301.60 176.60, 300.80 179.00, 305.00 178.00 C 309.20 177.00, 313.60 176.40, 319.00 172.00 C 324.40 167.60, 327.60 164.00, 332.00 156.00 C 336.40 148.00, 339.20 138.00, 341.00 132.00 C 342.80 126.00, 345.40 129.40, 341.00 126.00 C 336.60 122.60, 324.20 118.20, 319.00 115.00 C 313.80 111.80, 318.00 110.80, 315.00 110.00 C 312.00 109.20, 307.00 111.40, 304.00 111.00 C 301.00 110.60, 300.40 117.20, 300.00 108.00 C 299.60 98.80, 302.40 73.60, 302.00 65.00 Z" fill="#225F75" stroke="none" fill-rule="evenodd" />
  <path d="M 158.00 172.00 C 156.00 170.40, 157.80 167.00, 147.00 169.00 C 136.20 171.00, 119.60 179.60, 104.00 182.00 C 88.40 184.40, 80.40 182.80, 69.00 181.00 C 57.60 179.20, 54.00 170.20, 47.00 173.00 C 40.00 175.80, 36.60 187.80, 34.00 195.00 C 31.40 202.20, 33.20 205.20, 34.00 209.00 C 34.80 212.80, 35.60 212.60, 38.00 214.00 C 40.40 215.40, 38.60 216.20, 46.00 216.00 C 53.40 215.80, 70.00 210.20, 75.00 213.00 C 80.00 215.80, 71.60 224.40, 71.00 230.00 C 70.40 235.60, 70.00 236.20, 72.00 241.00 C 74.00 245.80, 79.20 250.20, 81.00 254.00 C 82.80 257.80, 80.20 258.80, 81.00 260.00 C 81.80 261.20, 81.60 266.60, 85.00 260.00 C 88.40 253.40, 93.20 236.80, 98.00 227.00 C 102.80 217.20, 105.20 215.40, 109.00 211.00 C 112.80 206.60, 115.40 207.40, 117.00 205.00 C 118.60 202.60, 117.80 200.60, 117.00 199.00 C 116.20 197.40, 111.00 199.20, 113.00 197.00 C 115.00 194.80, 122.20 189.60, 127.00 188.00 C 131.80 186.40, 131.00 191.20, 137.00 189.00 C 143.00 186.80, 152.80 180.40, 157.00 177.00 C 161.20 173.60, 160.00 173.60, 158.00 172.00 Z" fill="#29728E" stroke="none" fill-rule="evenodd" />
  <path d="M 338.00 126.00 C 334.20 133.00, 328.80 151.60, 323.00 161.00 C 317.20 170.40, 314.80 170.60, 309.00 173.00 C 303.20 175.40, 297.80 171.60, 294.00 173.00 C 290.20 174.40, 285.60 174.20, 290.00 180.00 C 294.40 185.80, 306.60 190.60, 316.00 202.00 C 325.40 213.40, 331.40 224.00, 337.00 237.00 C 342.60 250.00, 341.00 260.80, 344.00 267.00 C 347.00 273.20, 347.80 270.00, 352.00 268.00 C 356.20 266.00, 360.40 262.40, 365.00 257.00 C 369.60 251.60, 373.00 246.60, 375.00 241.00 C 377.00 235.40, 368.00 230.20, 375.00 229.00 C 382.00 227.80, 400.60 235.00, 410.00 235.00 C 419.40 235.00, 419.40 233.20, 422.00 229.00 C 424.60 224.80, 423.80 219.20, 423.00 214.00 C 422.20 208.80, 424.60 205.00, 418.00 203.00 C 411.40 201.00, 401.20 205.00, 390.00 204.00 C 378.80 203.00, 373.60 201.60, 362.00 198.00 C 350.40 194.40, 340.80 190.40, 332.00 186.00 C 323.20 181.60, 316.60 184.00, 318.00 176.00 C 319.40 168.00, 334.20 156.00, 339.00 146.00 C 343.80 136.00, 342.20 130.00, 342.00 126.00 C 341.80 122.00, 341.80 119.00, 338.00 126.00 Z M 331.00 211.00 C 331.20 211.40, 331.40 211.80, 332.00 212.00 C 332.60 212.20, 333.40 211.80, 334.00 212.00 C 334.60 212.20, 334.60 212.80, 335.00 213.00 C 335.40 213.20, 335.40 212.60, 336.00 213.00 C 336.60 213.40, 336.80 214.60, 338.00 215.00 C 339.20 215.40, 341.00 215.20, 342.00 215.00 C 343.00 214.80, 343.00 214.40, 343.00 214.00 C 343.00 213.60, 342.40 213.20, 342.00 213.00 C 341.60 212.80, 341.40 213.20, 341.00 213.00 C 340.60 212.80, 340.40 212.20, 340.00 212.00 C 339.60 211.80, 339.60 212.40, 339.00 212.00 C 338.40 211.60, 338.00 210.40, 337.00 210.00 C 336.00 209.60, 334.80 210.20, 334.00 210.00 C 333.20 209.80, 333.40 209.20, 333.00 209.00 C 332.60 208.80, 332.40 208.80, 332.00 209.00 C 331.60 209.20, 331.20 209.60, 331.00 210.00 C 330.80 210.40, 330.80 210.60, 331.00 211.00 Z" fill="#29728E" stroke="none" fill-rule="evenodd" />
  <path d="M 301.00 59.00 C 300.20 56.20, 298.00 58.80, 297.00 59.00 C 296.00 59.20, 296.40 57.60, 296.00 60.00 C 295.60 62.40, 295.80 66.80, 295.00 71.00 C 294.20 75.20, 293.20 78.00, 292.00 81.00 C 290.80 84.00, 289.60 84.20, 289.00 86.00 C 288.40 87.80, 289.60 88.40, 289.00 90.00 C 288.40 91.60, 286.60 92.60, 286.00 94.00 C 285.40 95.40, 286.40 96.00, 286.00 97.00 C 285.60 98.00, 284.40 98.20, 284.00 99.00 C 283.60 99.80, 285.20 98.80, 284.00 101.00 C 282.80 103.20, 280.20 107.20, 278.00 110.00 C 275.80 112.80, 274.00 113.00, 273.00 115.00 C 272.00 117.00, 272.00 119.00, 273.00 120.00 C 274.00 121.00, 276.00 121.00, 278.00 120.00 C 280.00 119.00, 280.20 119.00, 283.00 115.00 C 285.80 111.00, 290.20 103.60, 292.00 100.00 C 293.80 96.40, 291.40 98.60, 292.00 97.00 C 292.60 95.40, 294.40 93.80, 295.00 92.00 C 295.60 90.20, 293.80 91.80, 295.00 88.00 C 296.20 84.20, 299.80 78.80, 301.00 73.00 C 302.20 67.20, 301.80 61.80, 301.00 59.00 Z" fill="#29728E" stroke="none" fill-rule="evenodd" />
  <path d="M 163.00 46.00 C 161.80 47.00, 162.60 49.80, 163.00 51.00 C 163.40 52.20, 164.20 51.20, 165.00 52.00 C 165.80 52.80, 165.60 53.80, 167.00 55.00 C 168.40 56.20, 169.00 55.20, 172.00 58.00 C 175.00 60.80, 180.00 66.60, 182.00 69.00 C 184.00 71.40, 181.40 69.40, 182.00 70.00 C 182.60 70.60, 184.00 71.60, 185.00 72.00 C 186.00 72.40, 186.40 71.80, 187.00 72.00 C 187.60 72.20, 186.40 72.80, 188.00 73.00 C 189.60 73.20, 193.00 73.60, 195.00 73.00 C 197.00 72.40, 196.80 70.60, 198.00 70.00 C 199.20 69.40, 200.00 70.80, 201.00 70.00 C 202.00 69.20, 202.60 67.60, 203.00 66.00 C 203.40 64.40, 204.00 62.80, 203.00 62.00 C 202.00 61.20, 199.20 61.80, 198.00 62.00 C 196.80 62.20, 197.40 63.00, 197.00 63.00 C 196.60 63.00, 196.60 62.20, 196.00 62.00 C 195.40 61.80, 195.00 62.80, 194.00 62.00 C 193.00 61.20, 192.20 58.80, 191.00 58.00 C 189.80 57.20, 189.20 58.60, 188.00 58.00 C 186.80 57.40, 185.60 55.80, 185.00 55.00 C 184.40 54.20, 185.80 54.40, 185.00 54.00 C 184.20 53.60, 182.00 53.60, 181.00 53.00 C 180.00 52.40, 182.20 52.00, 180.00 51.00 C 177.80 50.00, 172.20 49.00, 170.00 48.00 C 167.80 47.00, 170.40 46.40, 169.00 46.00 C 167.60 45.60, 164.20 45.00, 163.00 46.00 Z" fill="#29728E" stroke="none" fill-rule="evenodd" />
  <path d="M 348.00 336.00 C 347.80 337.00, 347.60 338.80, 348.00 340.00 C 348.40 341.20, 349.40 341.00, 350.00 342.00 C 350.60 343.00, 350.40 344.20, 351.00 345.00 C 351.60 345.80, 352.20 345.80, 353.00 346.00 C 353.80 346.20, 353.80 345.60, 355.00 346.00 C 356.20 346.40, 357.60 347.60, 359.00 348.00 C 360.40 348.40, 360.20 347.40, 362.00 348.00 C 363.80 348.60, 365.80 350.40, 368.00 351.00 C 370.20 351.60, 371.80 350.80, 373.00 351.00 C 374.20 351.20, 373.00 351.80, 374.00 352.00 C 375.00 352.20, 377.00 351.80, 378.00 352.00 C 379.00 352.20, 377.20 352.80, 379.00 353.00 C 380.80 353.20, 385.20 352.60, 387.00 353.00 C 388.80 353.40, 387.00 354.60, 388.00 355.00 C 389.00 355.40, 391.20 356.40, 392.00 355.00 C 392.80 353.60, 392.20 349.80, 392.00 348.00 C 391.80 346.20, 392.80 346.40, 391.00 346.00 C 389.20 345.60, 384.80 346.20, 383.00 346.00 C 381.20 345.80, 383.00 345.20, 382.00 345.00 C 381.00 344.80, 379.00 345.20, 378.00 345.00 C 377.00 344.80, 378.40 344.20, 377.00 344.00 C 375.60 343.80, 372.60 344.40, 371.00 344.00 C 369.40 343.60, 370.20 342.40, 369.00 342.00 C 367.80 341.60, 367.60 343.00, 365.00 342.00 C 362.40 341.00, 358.20 338.00, 356.00 337.00 C 353.80 336.00, 354.60 337.40, 354.00 337.00 C 353.40 336.60, 354.00 335.40, 353.00 335.00 C 352.00 334.60, 350.00 334.80, 349.00 335.00 C 348.00 335.20, 348.20 335.00, 348.00 336.00 Z" fill="#87807A" stroke="none" fill-rule="evenodd" />
  <path d="M 72.00 334.00 C 71.60 332.40, 71.20 332.40, 70.00 332.00 C 68.80 331.60, 69.00 330.80, 66.00 332.00 C 63.00 333.20, 57.60 336.80, 55.00 338.00 C 52.40 339.20, 54.20 337.60, 53.00 338.00 C 51.80 338.40, 50.40 339.60, 49.00 340.00 C 47.60 340.40, 46.80 339.80, 46.00 340.00 C 45.20 340.20, 45.80 340.80, 45.00 341.00 C 44.20 341.20, 42.80 340.80, 42.00 341.00 C 41.20 341.20, 42.00 341.80, 41.00 342.00 C 40.00 342.20, 38.00 341.80, 37.00 342.00 C 36.00 342.20, 37.40 342.80, 36.00 343.00 C 34.60 343.20, 31.40 342.80, 30.00 343.00 C 28.60 343.20, 29.60 343.80, 29.00 344.00 C 28.40 344.20, 27.40 343.20, 27.00 344.00 C 26.60 344.80, 26.60 347.20, 27.00 348.00 C 27.40 348.80, 28.40 347.60, 29.00 348.00 C 29.60 348.40, 27.80 349.60, 30.00 350.00 C 32.20 350.40, 37.80 350.20, 40.00 350.00 C 42.20 349.80, 40.20 349.20, 41.00 349.00 C 41.80 348.80, 43.20 349.20, 44.00 349.00 C 44.80 348.80, 44.20 348.20, 45.00 348.00 C 45.80 347.80, 47.20 348.20, 48.00 348.00 C 48.80 347.80, 48.00 347.20, 49.00 347.00 C 50.00 346.80, 52.00 347.20, 53.00 347.00 C 54.00 346.80, 53.20 346.20, 54.00 346.00 C 54.80 345.80, 56.20 346.20, 57.00 346.00 C 57.80 345.80, 57.00 345.20, 58.00 345.00 C 59.00 344.80, 60.80 345.40, 62.00 345.00 C 63.20 344.60, 62.60 343.60, 64.00 343.00 C 65.40 342.40, 67.40 342.60, 69.00 342.00 C 70.60 341.40, 71.40 341.60, 72.00 340.00 C 72.60 338.40, 72.40 335.60, 72.00 334.00 Z" fill="#87807A" stroke="none" fill-rule="evenodd" />
  <path d="M 329.00 372.00 C 328.60 373.00, 328.80 375.00, 329.00 376.00 C 329.20 377.00, 328.80 376.40, 330.00 377.00 C 331.20 377.60, 333.60 378.20, 335.00 379.00 C 336.40 379.80, 336.60 380.40, 337.00 381.00 C 337.40 381.60, 336.20 381.80, 337.00 382.00 C 337.80 382.20, 339.60 381.60, 341.00 382.00 C 342.40 382.40, 340.60 383.60, 344.00 384.00 C 347.40 384.40, 355.00 383.80, 358.00 384.00 C 361.00 384.20, 357.80 384.80, 359.00 385.00 C 360.20 385.20, 362.80 385.40, 364.00 385.00 C 365.20 384.60, 364.00 383.40, 365.00 383.00 C 366.00 382.60, 368.20 384.00, 369.00 383.00 C 369.80 382.00, 369.40 379.20, 369.00 378.00 C 368.60 376.80, 369.40 377.20, 367.00 377.00 C 364.60 376.80, 359.20 377.20, 357.00 377.00 C 354.80 376.80, 357.00 376.20, 356.00 376.00 C 355.00 375.80, 353.40 376.40, 352.00 376.00 C 350.60 375.60, 350.40 374.40, 349.00 374.00 C 347.60 373.60, 346.00 374.40, 345.00 374.00 C 344.00 373.60, 344.80 372.40, 344.00 372.00 C 343.20 371.60, 342.00 372.60, 341.00 372.00 C 340.00 371.40, 341.00 369.60, 339.00 369.00 C 337.00 368.40, 332.60 368.60, 331.00 369.00 C 329.40 369.40, 331.40 370.40, 331.00 371.00 C 330.60 371.60, 329.40 371.00, 329.00 372.00 Z" fill="#CFC4BA" stroke="none" fill-rule="evenodd" />
  <path d="M 393.00 352.00 C 392.00 352.20, 392.40 352.80, 392.00 353.00 C 391.60 353.20, 391.20 351.60, 391.00 353.00 C 390.80 354.40, 391.20 358.40, 391.00 360.00 C 390.80 361.60, 390.20 360.00, 390.00 361.00 C 389.80 362.00, 389.80 364.00, 390.00 365.00 C 390.20 366.00, 390.60 365.80, 391.00 366.00 C 391.40 366.20, 391.60 365.80, 392.00 366.00 C 392.40 366.20, 392.80 366.60, 393.00 367.00 C 393.20 367.40, 392.20 367.80, 393.00 368.00 C 393.80 368.20, 396.20 368.20, 397.00 368.00 C 397.80 367.80, 396.80 367.40, 397.00 367.00 C 397.20 366.60, 397.60 366.20, 398.00 366.00 C 398.40 365.80, 398.80 366.20, 399.00 366.00 C 399.20 365.80, 398.80 365.40, 399.00 365.00 C 399.20 364.60, 399.60 364.20, 400.00 364.00 C 400.40 363.80, 400.80 364.40, 401.00 364.00 C 401.20 363.60, 400.80 362.60, 401.00 362.00 C 401.20 361.40, 401.40 361.20, 402.00 361.00 C 402.60 360.80, 403.60 362.00, 404.00 361.00 C 404.40 360.00, 404.40 357.40, 404.00 356.00 C 403.60 354.60, 402.40 354.60, 402.00 354.00 C 401.60 353.40, 402.80 353.20, 402.00 353.00 C 401.20 352.80, 399.00 353.20, 398.00 353.00 C 397.00 352.80, 398.00 352.20, 397.00 352.00 C 396.00 351.80, 394.00 351.80, 393.00 352.00 Z" fill="#CFC4BA" stroke="none" fill-rule="evenodd" />
  <path d="M 326.00 313.00 C 324.60 312.80, 322.00 312.40, 321.00 313.00 C 320.00 313.60, 321.80 314.20, 321.00 316.00 C 320.20 317.80, 317.80 318.80, 317.00 322.00 C 316.20 325.20, 317.40 329.60, 317.00 332.00 C 316.60 334.40, 315.80 333.60, 315.00 334.00 C 314.20 334.40, 313.40 332.40, 313.00 334.00 C 312.60 335.60, 312.80 340.20, 313.00 342.00 C 313.20 343.80, 313.80 341.40, 314.00 343.00 C 314.20 344.60, 313.80 348.20, 314.00 350.00 C 314.20 351.80, 313.20 351.80, 315.00 352.00 C 316.80 352.20, 321.00 351.40, 323.00 351.00 C 325.00 350.60, 323.20 351.60, 325.00 350.00 C 326.80 348.40, 329.40 344.40, 332.00 343.00 C 334.60 341.60, 336.20 343.40, 338.00 343.00 C 339.80 342.60, 340.40 342.80, 341.00 341.00 C 341.60 339.20, 341.20 335.40, 341.00 334.00 C 340.80 332.60, 341.80 335.80, 340.00 334.00 C 338.20 332.20, 334.20 328.00, 332.00 325.00 C 329.80 322.00, 329.60 320.80, 329.00 319.00 C 328.40 317.20, 329.20 317.00, 329.00 316.00 C 328.80 315.00, 328.60 314.60, 328.00 314.00 C 327.40 313.40, 327.40 313.20, 326.00 313.00 Z" fill="#CFC4BA" stroke="none" fill-rule="evenodd" />
  <path d="M 84.00 301.00 C 82.60 302.80, 85.20 306.40, 84.00 311.00 C 82.80 315.60, 79.00 319.80, 78.00 324.00 C 77.00 328.20, 79.20 330.20, 79.00 332.00 C 78.80 333.80, 76.80 329.40, 77.00 333.00 C 77.20 336.60, 77.80 346.80, 80.00 350.00 C 82.20 353.20, 86.20 348.60, 88.00 349.00 C 89.80 349.40, 90.40 349.00, 89.00 352.00 C 87.60 355.00, 86.20 360.60, 81.00 364.00 C 75.80 367.40, 66.60 366.80, 63.00 369.00 C 59.40 371.20, 59.40 373.80, 63.00 375.00 C 66.60 376.20, 75.80 375.40, 81.00 375.00 C 86.20 374.60, 87.20 373.80, 89.00 373.00 C 90.80 372.20, 88.20 371.80, 90.00 371.00 C 91.80 370.20, 96.40 370.00, 98.00 369.00 C 99.60 368.00, 96.60 367.40, 98.00 366.00 C 99.40 364.60, 103.40 364.40, 105.00 362.00 C 106.60 359.60, 105.40 355.80, 106.00 354.00 C 106.60 352.20, 107.60 354.60, 108.00 353.00 C 108.40 351.40, 110.00 347.40, 108.00 346.00 C 106.00 344.60, 100.20 346.40, 98.00 346.00 C 95.80 345.60, 96.40 346.40, 97.00 344.00 C 97.60 341.60, 99.00 336.80, 101.00 334.00 C 103.00 331.20, 105.80 331.60, 107.00 330.00 C 108.20 328.40, 107.60 327.00, 107.00 326.00 C 106.40 325.00, 105.00 326.60, 104.00 325.00 C 103.00 323.40, 104.00 319.80, 102.00 318.00 C 100.00 316.20, 96.40 317.20, 94.00 316.00 C 91.60 314.80, 90.60 314.80, 90.00 312.00 C 89.40 309.20, 92.20 304.20, 91.00 302.00 C 89.80 299.80, 85.40 299.20, 84.00 301.00 Z" fill="#CFC4BA" stroke="none" fill-rule="evenodd" />
  <path d="M 84.00 268.00 C 83.00 271.60, 80.40 278.20, 84.00 284.00 C 87.60 289.80, 92.00 291.80, 102.00 297.00 C 112.00 302.20, 120.20 306.60, 134.00 310.00 C 147.80 313.40, 162.00 312.20, 171.00 314.00 C 180.00 315.80, 169.80 318.20, 179.00 319.00 C 188.20 319.80, 206.20 317.40, 217.00 318.00 C 227.80 318.60, 225.80 322.00, 233.00 322.00 C 240.20 322.00, 247.80 318.00, 253.00 318.00 C 258.20 318.00, 251.80 322.80, 259.00 322.00 C 266.20 321.20, 281.00 317.40, 289.00 314.00 C 297.00 310.60, 295.20 306.40, 299.00 305.00 C 302.80 303.60, 300.20 308.60, 308.00 307.00 C 315.80 305.40, 332.00 301.00, 338.00 297.00 C 344.00 293.00, 339.20 289.20, 338.00 287.00 C 336.80 284.80, 345.80 282.40, 332.00 286.00 C 318.20 289.60, 289.60 300.60, 269.00 305.00 C 248.40 309.40, 247.20 308.20, 229.00 308.00 C 210.80 307.80, 200.20 308.20, 178.00 304.00 C 155.80 299.80, 135.80 294.60, 118.00 287.00 C 100.20 279.40, 95.80 269.80, 89.00 266.00 C 82.20 262.20, 85.00 264.40, 84.00 268.00 Z" fill="#CFC4BA" stroke="none" fill-rule="evenodd" />
  <path d="M 154.00 181.00 C 151.80 182.20, 151.80 184.20, 155.00 187.00 C 158.20 189.80, 160.40 191.20, 170.00 195.00 C 179.60 198.80, 193.40 203.40, 203.00 206.00 C 212.60 208.60, 204.20 208.20, 218.00 208.00 C 231.80 207.80, 258.60 206.20, 272.00 205.00 C 285.40 203.80, 279.20 204.20, 285.00 202.00 C 290.80 199.80, 298.20 196.80, 301.00 194.00 C 303.80 191.20, 300.80 189.20, 299.00 188.00 C 297.20 186.80, 296.40 186.00, 292.00 188.00 C 287.60 190.00, 291.20 195.00, 277.00 198.00 C 262.80 201.00, 234.40 202.40, 221.00 203.00 C 207.60 203.60, 214.00 202.80, 210.00 201.00 C 206.00 199.20, 204.20 195.00, 201.00 194.00 C 197.80 193.00, 200.40 197.80, 194.00 196.00 C 187.60 194.20, 174.60 188.00, 169.00 185.00 C 163.40 182.00, 169.00 181.80, 166.00 181.00 C 163.00 180.20, 156.20 179.80, 154.00 181.00 Z" fill="#CFC4BA" stroke="none" fill-rule="evenodd" />
  <path d="M 284.00 134.00 C 283.00 127.60, 280.60 134.00, 279.00 132.00 C 277.40 130.00, 278.00 125.80, 276.00 124.00 C 274.00 122.20, 273.20 120.00, 269.00 123.00 C 264.80 126.00, 261.40 133.60, 255.00 139.00 C 248.60 144.40, 240.80 146.80, 237.00 150.00 C 233.20 153.20, 245.00 152.00, 236.00 155.00 C 227.00 158.00, 201.20 160.80, 192.00 165.00 C 182.80 169.20, 191.40 174.00, 190.00 176.00 C 188.60 178.00, 185.60 177.20, 185.00 175.00 C 184.40 172.80, 192.60 167.40, 187.00 165.00 C 181.40 162.60, 163.00 161.80, 157.00 163.00 C 151.00 164.20, 155.00 168.00, 157.00 171.00 C 159.00 174.00, 164.00 176.60, 167.00 178.00 C 170.00 179.40, 169.80 176.80, 172.00 178.00 C 174.20 179.20, 174.00 182.00, 178.00 184.00 C 182.00 186.00, 185.80 187.20, 192.00 188.00 C 198.20 188.80, 205.00 187.40, 209.00 188.00 C 213.00 188.60, 204.20 191.00, 212.00 191.00 C 219.80 191.00, 238.20 189.60, 248.00 188.00 C 257.80 186.40, 258.40 184.60, 261.00 183.00 C 263.60 181.40, 260.00 181.20, 261.00 180.00 C 262.00 178.80, 263.60 177.60, 266.00 177.00 C 268.40 176.40, 271.00 178.60, 273.00 177.00 C 275.00 175.40, 273.80 171.60, 276.00 169.00 C 278.20 166.40, 282.40 171.00, 284.00 164.00 C 285.60 157.00, 285.00 140.40, 284.00 134.00 Z M 205.00 181.00 C 209.00 181.20, 220.00 181.20, 224.00 181.00 C 228.00 180.80, 225.00 180.40, 225.00 180.00 C 225.00 179.60, 228.00 179.20, 224.00 179.00 C 220.00 178.80, 209.00 178.80, 205.00 179.00 C 201.00 179.20, 204.00 179.60, 204.00 180.00 C 204.00 180.40, 201.00 180.80, 205.00 181.00 Z M 236.00 169.00 C 235.60 169.20, 235.40 169.80, 235.00 170.00 C 234.60 170.20, 234.60 169.60, 234.00 170.00 C 233.40 170.40, 232.40 171.20, 232.00 172.00 C 231.60 172.80, 232.20 173.40, 232.00 174.00 C 231.80 174.60, 231.20 174.60, 231.00 175.00 C 230.80 175.40, 230.80 175.60, 231.00 176.00 C 231.20 176.40, 231.20 176.80, 232.00 177.00 C 232.80 177.20, 233.80 177.60, 235.00 177.00 C 236.20 176.40, 237.40 175.40, 238.00 174.00 C 238.60 172.60, 238.20 171.00, 238.00 170.00 C 237.80 169.00, 237.40 169.20, 237.00 169.00 C 236.60 168.80, 236.40 168.80, 236.00 169.00 Z" fill="#CFC4BA" stroke="none" fill-rule="evenodd" />
  <path d="M 131.00 114.00 C 129.80 113.20, 129.40 112.60, 125.00 114.00 C 120.60 115.40, 115.40 117.40, 109.00 121.00 C 102.60 124.60, 97.00 129.60, 93.00 132.00 C 89.00 134.40, 90.80 132.00, 89.00 133.00 C 87.20 134.00, 85.20 135.60, 84.00 137.00 C 82.80 138.40, 85.80 138.00, 83.00 140.00 C 80.20 142.00, 73.00 144.00, 70.00 147.00 C 67.00 150.00, 69.80 151.60, 68.00 155.00 C 66.20 158.40, 62.40 161.20, 61.00 164.00 C 59.60 166.80, 60.00 168.00, 61.00 169.00 C 62.00 170.00, 62.20 170.60, 66.00 169.00 C 69.80 167.40, 76.80 161.00, 80.00 161.00 C 83.20 161.00, 80.60 167.40, 82.00 169.00 C 83.40 170.60, 85.40 169.40, 87.00 169.00 C 88.60 168.60, 88.80 167.00, 90.00 167.00 C 91.20 167.00, 90.40 168.40, 93.00 169.00 C 95.60 169.60, 99.20 172.20, 103.00 170.00 C 106.80 167.80, 110.20 161.60, 112.00 158.00 C 113.80 154.40, 111.40 154.40, 112.00 152.00 C 112.60 149.60, 114.60 148.20, 115.00 146.00 C 115.40 143.80, 113.00 143.40, 114.00 141.00 C 115.00 138.60, 119.20 136.80, 120.00 134.00 C 120.80 131.20, 115.80 130.20, 118.00 127.00 C 120.20 123.80, 128.40 120.60, 131.00 118.00 C 133.60 115.40, 132.20 114.80, 131.00 114.00 Z" fill="#75A2B3" stroke="none" fill-rule="evenodd" />
  <path d="M 146.00 94.00 C 145.00 93.80, 143.00 93.20, 142.00 94.00 C 141.00 94.80, 141.60 97.00, 141.00 98.00 C 140.40 99.00, 139.40 98.00, 139.00 99.00 C 138.60 100.00, 139.60 101.60, 139.00 103.00 C 138.40 104.40, 136.60 105.00, 136.00 106.00 C 135.40 107.00, 136.40 107.20, 136.00 108.00 C 135.60 108.80, 134.60 109.00, 134.00 110.00 C 133.40 111.00, 133.20 111.20, 133.00 113.00 C 132.80 114.80, 133.20 117.60, 133.00 119.00 C 132.80 120.40, 132.20 116.40, 132.00 120.00 C 131.80 123.60, 131.80 133.40, 132.00 137.00 C 132.20 140.60, 132.80 137.20, 133.00 138.00 C 133.20 138.80, 132.60 140.40, 133.00 141.00 C 133.40 141.60, 134.00 140.20, 135.00 141.00 C 136.00 141.80, 136.60 144.20, 138.00 145.00 C 139.40 145.80, 141.00 148.00, 142.00 145.00 C 143.00 142.00, 142.40 133.20, 143.00 130.00 C 143.60 126.80, 144.60 130.00, 145.00 129.00 C 145.40 128.00, 144.40 126.20, 145.00 125.00 C 145.60 123.80, 147.20 124.20, 148.00 123.00 C 148.80 121.80, 147.40 121.00, 149.00 119.00 C 150.60 117.00, 154.60 115.00, 156.00 113.00 C 157.40 111.00, 156.80 109.80, 156.00 109.00 C 155.20 108.20, 153.00 109.20, 152.00 109.00 C 151.00 108.80, 151.20 108.80, 151.00 108.00 C 150.80 107.20, 151.40 106.40, 151.00 105.00 C 150.60 103.60, 149.20 103.00, 149.00 101.00 C 148.80 99.00, 150.40 96.20, 150.00 95.00 C 149.60 93.80, 147.80 95.20, 147.00 95.00 C 146.20 94.80, 147.00 94.20, 146.00 94.00 Z" fill="#75A2B3" stroke="none" fill-rule="evenodd" />
  <path d="M 213.00 69.00 C 212.60 68.20, 214.40 68.20, 212.00 68.00 C 209.60 67.80, 203.60 67.60, 201.00 68.00 C 198.40 68.40, 199.60 69.60, 199.00 70.00 C 198.40 70.40, 198.40 69.80, 198.00 70.00 C 197.60 70.20, 197.60 70.80, 197.00 71.00 C 196.40 71.20, 195.60 70.80, 195.00 71.00 C 194.40 71.20, 194.80 71.60, 194.00 72.00 C 193.20 72.40, 191.80 72.60, 191.00 73.00 C 190.20 73.40, 190.20 73.40, 190.00 74.00 C 189.80 74.60, 190.20 75.40, 190.00 76.00 C 189.80 76.60, 189.40 76.80, 189.00 77.00 C 188.60 77.20, 188.20 75.20, 188.00 77.00 C 187.80 78.80, 187.60 83.80, 188.00 86.00 C 188.40 88.20, 189.60 87.40, 190.00 88.00 C 190.40 88.60, 187.00 88.80, 190.00 89.00 C 193.00 89.20, 201.80 89.20, 205.00 89.00 C 208.20 88.80, 204.80 88.60, 206.00 88.00 C 207.20 87.40, 209.20 87.20, 211.00 86.00 C 212.80 84.80, 214.20 84.60, 215.00 82.00 C 215.80 79.40, 215.20 75.00, 215.00 73.00 C 214.80 71.00, 214.40 72.80, 214.00 72.00 C 213.60 71.20, 213.40 69.80, 213.00 69.00 Z" fill="#75A2B3" stroke="none" fill-rule="evenodd" />
  <path d="M 339.00 339.00 C 338.00 338.80, 336.00 338.80, 335.00 339.00 C 334.00 339.20, 335.40 339.80, 334.00 340.00 C 332.60 340.20, 330.40 338.80, 328.00 340.00 C 325.60 341.20, 324.20 344.80, 322.00 346.00 C 319.80 347.20, 318.20 345.60, 317.00 346.00 C 315.80 346.40, 316.20 345.80, 316.00 348.00 C 315.80 350.20, 315.80 355.00, 316.00 357.00 C 316.20 359.00, 316.60 356.80, 317.00 358.00 C 317.40 359.20, 317.00 362.00, 318.00 363.00 C 319.00 364.00, 321.00 363.20, 322.00 363.00 C 323.00 362.80, 322.40 361.60, 323.00 362.00 C 323.60 362.40, 324.40 363.20, 325.00 365.00 C 325.60 366.80, 325.20 369.40, 326.00 371.00 C 326.80 372.60, 327.60 372.60, 329.00 373.00 C 330.40 373.40, 332.20 373.60, 333.00 373.00 C 333.80 372.40, 332.80 370.80, 333.00 370.00 C 333.20 369.20, 333.80 370.20, 334.00 369.00 C 334.20 367.80, 334.20 365.40, 334.00 364.00 C 333.80 362.60, 332.80 362.60, 333.00 362.00 C 333.20 361.40, 334.60 362.40, 335.00 361.00 C 335.40 359.60, 334.40 357.20, 335.00 355.00 C 335.60 352.80, 337.40 351.60, 338.00 350.00 C 338.60 348.40, 337.60 348.00, 338.00 347.00 C 338.40 346.00, 339.60 346.40, 340.00 345.00 C 340.40 343.60, 340.20 341.20, 340.00 340.00 C 339.80 338.80, 340.00 339.20, 339.00 339.00 Z" fill="#C4B9B3" stroke="none" fill-rule="evenodd" />
  <path d="M 106.00 328.00 C 104.60 326.80, 101.60 327.60, 100.00 328.00 C 98.40 328.40, 99.60 326.40, 98.00 330.00 C 96.40 333.60, 93.80 343.00, 92.00 346.00 C 90.20 349.00, 90.80 345.20, 89.00 345.00 C 87.20 344.80, 84.20 344.80, 83.00 345.00 C 81.80 345.20, 83.40 345.60, 83.00 346.00 C 82.60 346.40, 81.60 344.40, 81.00 347.00 C 80.40 349.60, 80.80 356.00, 80.00 359.00 C 79.20 362.00, 77.60 360.40, 77.00 362.00 C 76.40 363.60, 76.80 365.80, 77.00 367.00 C 77.20 368.20, 77.00 367.80, 78.00 368.00 C 79.00 368.20, 80.60 368.20, 82.00 368.00 C 83.40 367.80, 84.00 367.60, 85.00 367.00 C 86.00 366.40, 86.40 366.00, 87.00 365.00 C 87.60 364.00, 87.40 362.80, 88.00 362.00 C 88.60 361.20, 88.80 363.60, 90.00 361.00 C 91.20 358.40, 90.80 351.20, 94.00 349.00 C 97.20 346.80, 103.00 350.20, 106.00 350.00 C 109.00 349.80, 108.40 349.80, 109.00 348.00 C 109.60 346.20, 109.20 342.60, 109.00 341.00 C 108.80 339.40, 108.20 341.20, 108.00 340.00 C 107.80 338.80, 108.20 336.20, 108.00 335.00 C 107.80 333.80, 107.40 335.40, 107.00 334.00 C 106.60 332.60, 107.40 329.20, 106.00 328.00 Z" fill="#C4B9B3" stroke="none" fill-rule="evenodd" />
  <path d="M 84.00 281.00 C 73.60 279.00, 84.20 292.80, 86.00 297.00 C 87.80 301.20, 93.00 300.20, 93.00 302.00 C 93.00 303.80, 86.40 302.20, 86.00 306.00 C 85.60 309.80, 88.00 319.20, 91.00 321.00 C 94.00 322.80, 98.20 314.20, 101.00 315.00 C 103.80 315.80, 98.20 318.80, 105.00 325.00 C 111.80 331.20, 121.40 338.40, 135.00 346.00 C 148.60 353.60, 161.60 359.00, 173.00 363.00 C 184.40 367.00, 174.40 366.00, 192.00 366.00 C 209.60 366.00, 236.60 369.20, 261.00 363.00 C 285.40 356.80, 303.00 343.40, 314.00 335.00 C 325.00 326.60, 312.20 327.60, 316.00 321.00 C 319.80 314.40, 329.60 307.00, 333.00 302.00 C 336.40 297.00, 334.40 297.40, 333.00 296.00 C 331.60 294.60, 340.80 290.80, 326.00 295.00 C 311.20 299.20, 287.60 312.80, 259.00 317.00 C 230.40 321.20, 200.00 317.40, 183.00 316.00 C 166.00 314.60, 183.00 311.80, 174.00 310.00 C 165.00 308.20, 156.00 312.80, 138.00 307.00 C 120.00 301.20, 94.40 283.00, 84.00 281.00 Z" fill="#C4B9B3" stroke="none" fill-rule="evenodd" />
  <path d="M 298.00 192.00 C 302.60 189.00, 301.40 190.60, 298.00 187.00 C 294.60 183.40, 286.60 176.40, 281.00 174.00 C 275.40 171.60, 274.40 172.80, 270.00 175.00 C 265.60 177.20, 265.80 181.60, 259.00 185.00 C 252.20 188.40, 242.40 190.80, 236.00 192.00 C 229.60 193.20, 229.00 190.80, 227.00 191.00 C 225.00 191.20, 230.20 192.60, 226.00 193.00 C 221.80 193.40, 215.60 194.60, 206.00 193.00 C 196.40 191.40, 186.80 188.60, 178.00 185.00 C 169.20 181.40, 166.40 176.60, 162.00 175.00 C 157.60 173.40, 157.20 175.60, 156.00 177.00 C 154.80 178.40, 154.20 179.80, 156.00 182.00 C 157.80 184.20, 153.60 183.20, 165.00 188.00 C 176.40 192.80, 191.00 203.20, 213.00 206.00 C 235.00 208.80, 258.00 204.80, 275.00 202.00 C 292.00 199.20, 293.40 195.00, 298.00 192.00 Z" fill="#C4B9B3" stroke="none" fill-rule="evenodd" />
  <path d="M 350.00 333.00 C 349.00 334.80, 349.60 338.60, 350.00 340.00 C 350.40 341.40, 349.80 339.00, 352.00 340.00 C 354.20 341.00, 358.40 344.00, 361.00 345.00 C 363.60 346.00, 363.80 344.60, 365.00 345.00 C 366.20 345.40, 365.40 346.60, 367.00 347.00 C 368.60 347.40, 371.60 346.80, 373.00 347.00 C 374.40 347.20, 373.00 347.80, 374.00 348.00 C 375.00 348.20, 376.20 347.60, 378.00 348.00 C 379.80 348.40, 380.20 349.40, 383.00 350.00 C 385.80 350.60, 390.20 352.20, 392.00 351.00 C 393.80 349.80, 392.20 345.60, 392.00 344.00 C 391.80 342.40, 391.20 343.80, 391.00 343.00 C 390.80 342.20, 391.20 341.00, 391.00 340.00 C 390.80 339.00, 390.60 338.40, 390.00 338.00 C 389.40 337.60, 389.20 339.00, 388.00 338.00 C 386.80 337.00, 385.80 334.60, 384.00 333.00 C 382.20 331.40, 382.60 330.80, 379.00 330.00 C 375.40 329.20, 368.80 329.00, 366.00 329.00 C 363.20 329.00, 366.20 329.80, 365.00 330.00 C 363.80 330.20, 361.20 329.80, 360.00 330.00 C 358.80 330.20, 360.00 330.80, 359.00 331.00 C 358.00 331.20, 356.80 330.60, 355.00 331.00 C 353.20 331.40, 351.00 331.20, 350.00 333.00 Z" fill="#A19182" stroke="none" fill-rule="evenodd" />
  <path d="M 25.00 342.00 C 25.40 344.40, 26.60 344.00, 27.00 345.00 C 27.40 346.00, 26.20 346.60, 27.00 347.00 C 27.80 347.40, 30.00 347.20, 31.00 347.00 C 32.00 346.80, 29.20 346.40, 32.00 346.00 C 34.80 345.60, 42.20 345.40, 45.00 345.00 C 47.80 344.60, 45.20 344.20, 46.00 344.00 C 46.80 343.80, 48.20 344.20, 49.00 344.00 C 49.80 343.80, 49.20 343.20, 50.00 343.00 C 50.80 342.80, 51.20 343.40, 53.00 343.00 C 54.80 342.60, 55.80 342.40, 59.00 341.00 C 62.20 339.60, 67.20 338.80, 69.00 336.00 C 70.80 333.20, 69.80 329.40, 68.00 327.00 C 66.20 324.60, 61.80 325.00, 60.00 324.00 C 58.20 323.00, 60.40 322.60, 59.00 322.00 C 57.60 321.40, 54.40 321.40, 53.00 321.00 C 51.60 320.60, 55.00 320.20, 52.00 320.00 C 49.00 319.80, 41.00 319.80, 38.00 320.00 C 35.00 320.20, 38.20 320.80, 37.00 321.00 C 35.80 321.20, 33.00 320.80, 32.00 321.00 C 31.00 321.20, 33.00 321.00, 32.00 322.00 C 31.00 323.00, 28.00 324.40, 27.00 326.00 C 26.00 327.60, 27.40 328.60, 27.00 330.00 C 26.60 331.40, 25.40 330.60, 25.00 333.00 C 24.60 335.40, 24.60 339.60, 25.00 342.00 Z" fill="#A19182" stroke="none" fill-rule="evenodd" />
  <path d="M 154.00 168.00 C 153.40 166.60, 152.60 165.60, 151.00 165.00 C 149.40 164.40, 150.20 163.60, 146.00 165.00 C 141.80 166.40, 135.60 170.40, 130.00 172.00 C 124.40 173.60, 123.20 172.00, 118.00 173.00 C 112.80 174.00, 110.00 176.00, 104.00 177.00 C 98.00 178.00, 94.60 178.00, 88.00 178.00 C 81.40 178.00, 76.20 177.80, 71.00 177.00 C 65.80 176.20, 65.00 175.60, 62.00 174.00 C 59.00 172.40, 58.40 170.00, 56.00 169.00 C 53.60 168.00, 51.40 167.60, 50.00 169.00 C 48.60 170.40, 48.20 173.80, 49.00 176.00 C 49.80 178.20, 50.80 178.40, 54.00 180.00 C 57.20 181.60, 54.20 183.00, 65.00 184.00 C 75.80 185.00, 92.80 186.40, 108.00 185.00 C 123.20 183.60, 131.80 179.60, 141.00 177.00 C 150.20 174.40, 151.40 173.80, 154.00 172.00 C 156.60 170.20, 154.60 169.40, 154.00 168.00 Z" fill="#46849A" stroke="none" fill-rule="evenodd" />
  <path d="M 339.00 126.00 C 337.20 129.20, 337.80 136.40, 336.00 142.00 C 334.20 147.60, 334.80 147.80, 330.00 154.00 C 325.20 160.20, 315.60 168.00, 312.00 173.00 C 308.40 178.00, 308.80 175.80, 312.00 179.00 C 315.20 182.20, 318.80 184.60, 328.00 189.00 C 337.20 193.40, 346.40 197.40, 358.00 201.00 C 369.60 204.60, 373.80 206.00, 386.00 207.00 C 398.20 208.00, 413.40 208.20, 419.00 206.00 C 424.60 203.80, 419.80 197.60, 414.00 196.00 C 408.20 194.40, 398.80 198.20, 390.00 198.00 C 381.20 197.80, 382.80 199.00, 370.00 195.00 C 357.20 191.00, 335.20 182.00, 326.00 178.00 C 316.80 174.00, 321.80 178.80, 324.00 175.00 C 326.20 171.20, 332.60 167.00, 337.00 159.00 C 341.40 151.00, 344.40 141.60, 346.00 135.00 C 347.60 128.40, 346.40 127.80, 345.00 126.00 C 343.60 124.20, 340.80 122.80, 339.00 126.00 Z" fill="#46849A" stroke="none" fill-rule="evenodd" />
  <path d="M 195.00 111.00 C 194.20 112.00, 194.40 114.40, 195.00 116.00 C 195.60 117.60, 197.40 118.00, 198.00 119.00 C 198.60 120.00, 197.00 120.60, 198.00 121.00 C 199.00 121.40, 201.80 120.80, 203.00 121.00 C 204.20 121.20, 201.20 121.80, 204.00 122.00 C 206.80 122.20, 214.00 122.60, 217.00 122.00 C 220.00 121.40, 218.60 120.40, 219.00 119.00 C 219.40 117.60, 219.20 116.00, 219.00 115.00 C 218.80 114.00, 218.20 114.40, 218.00 114.00 C 217.80 113.60, 219.00 113.20, 218.00 113.00 C 217.00 112.80, 214.20 112.80, 213.00 113.00 C 211.80 113.20, 212.40 113.80, 212.00 114.00 C 211.60 114.20, 211.40 114.20, 211.00 114.00 C 210.60 113.80, 212.00 113.20, 210.00 113.00 C 208.00 112.80, 203.20 113.40, 201.00 113.00 C 198.80 112.60, 200.20 111.40, 199.00 111.00 C 197.80 110.60, 195.80 110.00, 195.00 111.00 Z" fill="#46849A" stroke="none" fill-rule="evenodd" />
  <path d="M 300.00 54.00 C 299.00 53.80, 297.20 53.40, 296.00 54.00 C 294.80 54.60, 294.40 55.00, 294.00 57.00 C 293.60 59.00, 294.80 61.00, 294.00 64.00 C 293.20 67.00, 290.80 69.80, 290.00 72.00 C 289.20 74.20, 290.80 72.40, 290.00 75.00 C 289.20 77.60, 287.20 82.60, 286.00 85.00 C 284.80 87.40, 285.40 84.00, 284.00 87.00 C 282.60 90.00, 282.00 94.60, 279.00 100.00 C 276.00 105.40, 270.80 109.80, 269.00 114.00 C 267.20 118.20, 268.60 119.80, 270.00 121.00 C 271.40 122.20, 272.20 124.00, 276.00 120.00 C 279.80 116.00, 286.40 105.40, 289.00 101.00 C 291.60 96.60, 288.40 99.40, 289.00 98.00 C 289.60 96.60, 291.40 95.60, 292.00 94.00 C 292.60 92.40, 291.40 91.80, 292.00 90.00 C 292.60 88.20, 293.80 88.00, 295.00 85.00 C 296.20 82.00, 297.40 78.20, 298.00 75.00 C 298.60 71.80, 297.40 71.80, 298.00 69.00 C 298.60 66.20, 300.40 63.80, 301.00 61.00 C 301.60 58.20, 301.20 56.40, 301.00 55.00 C 300.80 53.60, 301.00 54.20, 300.00 54.00 Z" fill="#46849A" stroke="none" fill-rule="evenodd" />
  <path d="M 167.00 52.00 C 166.00 52.80, 166.00 54.20, 167.00 56.00 C 168.00 57.80, 170.80 59.40, 172.00 61.00 C 173.20 62.60, 172.60 63.40, 173.00 64.00 C 173.40 64.60, 172.40 62.40, 174.00 64.00 C 175.60 65.60, 178.60 70.00, 181.00 72.00 C 183.40 74.00, 183.00 73.60, 186.00 74.00 C 189.00 74.40, 193.80 74.20, 196.00 74.00 C 198.20 73.80, 196.40 73.20, 197.00 73.00 C 197.60 72.80, 198.20 73.20, 199.00 73.00 C 199.80 72.80, 199.40 73.60, 201.00 72.00 C 202.60 70.40, 205.80 67.20, 207.00 65.00 C 208.20 62.80, 208.40 62.00, 207.00 61.00 C 205.60 60.00, 201.60 60.00, 200.00 60.00 C 198.40 60.00, 199.80 60.80, 199.00 61.00 C 198.20 61.20, 196.60 60.20, 196.00 61.00 C 195.40 61.80, 195.80 64.00, 196.00 65.00 C 196.20 66.00, 197.40 65.20, 197.00 66.00 C 196.60 66.80, 195.60 68.40, 194.00 69.00 C 192.40 69.60, 190.80 69.60, 189.00 69.00 C 187.20 68.40, 185.80 66.80, 185.00 66.00 C 184.20 65.20, 186.60 66.80, 185.00 65.00 C 183.40 63.20, 178.80 59.00, 177.00 57.00 C 175.20 55.00, 176.40 55.40, 176.00 55.00 C 175.60 54.60, 175.80 55.60, 175.00 55.00 C 174.20 54.40, 173.60 52.60, 172.00 52.00 C 170.40 51.40, 168.00 51.20, 167.00 52.00 Z" fill="#46849A" stroke="none" fill-rule="evenodd" />
  <path d="M 337.00 364.00 C 337.00 368.60, 337.20 367.40, 338.00 369.00 C 338.80 370.60, 339.60 371.20, 341.00 372.00 C 342.40 372.80, 343.80 372.40, 345.00 373.00 C 346.20 373.60, 345.60 374.80, 347.00 375.00 C 348.40 375.20, 350.80 374.00, 352.00 374.00 C 353.20 374.00, 350.40 374.60, 353.00 375.00 C 355.60 375.40, 360.00 376.60, 365.00 376.00 C 370.00 375.40, 374.00 373.80, 378.00 372.00 C 382.00 370.20, 383.40 368.60, 385.00 367.00 C 386.60 365.40, 385.40 364.80, 386.00 364.00 C 386.60 363.20, 387.40 364.00, 388.00 363.00 C 388.60 362.00, 388.20 360.40, 389.00 359.00 C 389.80 357.60, 391.60 358.00, 392.00 356.00 C 392.40 354.00, 395.00 350.60, 391.00 349.00 C 387.00 347.40, 377.00 348.80, 372.00 348.00 C 367.00 347.20, 369.00 346.00, 366.00 345.00 C 363.00 344.00, 359.60 344.40, 357.00 343.00 C 354.40 341.60, 355.20 339.00, 353.00 338.00 C 350.80 337.00, 348.00 337.80, 346.00 338.00 C 344.00 338.20, 343.60 338.40, 343.00 339.00 C 342.40 339.60, 344.00 339.60, 343.00 341.00 C 342.00 342.40, 339.20 341.40, 338.00 346.00 C 336.80 350.60, 337.00 359.40, 337.00 364.00 Z" fill="#7C6E63" stroke="none" fill-rule="evenodd" />
  <path d="M 81.00 350.00 C 80.80 349.00, 80.20 350.20, 80.00 349.00 C 79.80 347.80, 80.60 346.40, 80.00 344.00 C 79.40 341.60, 78.40 339.00, 77.00 337.00 C 75.60 335.00, 74.60 334.60, 73.00 334.00 C 71.40 333.40, 69.80 333.60, 69.00 334.00 C 68.20 334.40, 69.40 335.20, 69.00 336.00 C 68.60 336.80, 68.80 337.20, 67.00 338.00 C 65.20 338.80, 61.80 339.20, 60.00 340.00 C 58.20 340.80, 61.00 341.20, 58.00 342.00 C 55.00 342.80, 49.40 343.00, 45.00 344.00 C 40.60 345.00, 39.00 346.40, 36.00 347.00 C 33.00 347.60, 31.20 345.60, 30.00 347.00 C 28.80 348.40, 28.40 351.00, 30.00 354.00 C 31.60 357.00, 35.60 360.20, 38.00 362.00 C 40.40 363.80, 40.60 362.20, 42.00 363.00 C 43.40 363.80, 42.80 365.40, 45.00 366.00 C 47.20 366.60, 50.80 365.40, 53.00 366.00 C 55.20 366.60, 53.60 368.40, 56.00 369.00 C 58.40 369.60, 63.00 369.40, 65.00 369.00 C 67.00 368.60, 64.00 367.60, 66.00 367.00 C 68.00 366.40, 72.60 366.80, 75.00 366.00 C 77.40 365.20, 76.80 365.40, 78.00 363.00 C 79.20 360.60, 80.40 356.60, 81.00 354.00 C 81.60 351.40, 81.20 351.00, 81.00 350.00 Z" fill="#7C6E63" stroke="none" fill-rule="evenodd" />
  <path d="M 301.00 105.00 C 299.80 106.20, 300.80 109.60, 301.00 111.00 C 301.20 112.40, 301.60 110.20, 302.00 112.00 C 302.40 113.80, 302.60 118.20, 303.00 120.00 C 303.40 121.80, 303.80 118.80, 304.00 121.00 C 304.20 123.20, 303.80 128.80, 304.00 131.00 C 304.20 133.20, 304.80 130.80, 305.00 132.00 C 305.20 133.20, 305.20 135.80, 305.00 137.00 C 304.80 138.20, 304.20 137.20, 304.00 138.00 C 303.80 138.80, 304.20 140.20, 304.00 141.00 C 303.80 141.80, 303.20 140.40, 303.00 142.00 C 302.80 143.60, 302.20 147.60, 303.00 149.00 C 303.80 150.40, 306.20 149.40, 307.00 149.00 C 307.80 148.60, 306.60 148.20, 307.00 147.00 C 307.40 145.80, 308.60 148.00, 309.00 143.00 C 309.40 138.00, 309.20 126.40, 309.00 122.00 C 308.80 117.60, 308.20 122.40, 308.00 121.00 C 307.80 119.60, 308.20 116.40, 308.00 115.00 C 307.80 113.60, 307.20 116.00, 307.00 114.00 C 306.80 112.00, 308.20 106.80, 307.00 105.00 C 305.80 103.20, 302.20 103.80, 301.00 105.00 Z" fill="#06151E" stroke="none" fill-rule="evenodd" />
  <path d="M 91.00 247.00 C 88.20 255.20, 88.40 253.80, 93.00 256.00 C 97.60 258.20, 110.20 253.80, 114.00 258.00 C 117.80 262.20, 99.40 269.80, 112.00 277.00 C 124.60 284.20, 164.00 295.00, 177.00 294.00 C 190.00 293.00, 175.00 278.60, 177.00 272.00 C 179.00 265.40, 182.20 263.00, 187.00 261.00 C 191.80 259.00, 198.80 265.80, 201.00 262.00 C 203.20 258.20, 197.00 246.60, 198.00 242.00 C 199.00 237.40, 203.60 232.80, 206.00 239.00 C 208.40 245.20, 207.00 266.80, 210.00 273.00 C 213.00 279.20, 220.40 266.80, 221.00 270.00 C 221.60 273.20, 218.40 285.80, 213.00 289.00 C 207.60 292.20, 198.60 284.20, 194.00 286.00 C 189.40 287.80, 181.20 295.40, 190.00 298.00 C 198.80 300.60, 228.20 305.00, 238.00 299.00 C 247.80 293.00, 237.60 272.20, 239.00 268.00 C 240.40 263.80, 239.00 276.20, 245.00 278.00 C 251.00 279.80, 264.00 273.40, 269.00 277.00 C 274.00 280.60, 268.40 292.20, 270.00 296.00 C 271.60 299.80, 269.40 302.20, 277.00 296.00 C 284.60 289.80, 302.00 267.80, 308.00 265.00 C 314.00 262.20, 305.60 278.00, 307.00 282.00 C 308.40 286.00, 308.20 288.80, 315.00 285.00 C 321.80 281.20, 339.60 277.40, 341.00 263.00 C 342.40 248.60, 330.80 219.80, 322.00 213.00 C 313.20 206.20, 300.40 231.80, 297.00 229.00 C 293.60 226.20, 306.60 204.60, 305.00 199.00 C 303.40 193.40, 296.00 195.00, 289.00 201.00 C 282.00 207.00, 274.00 226.60, 270.00 229.00 C 266.00 231.40, 275.60 216.60, 269.00 213.00 C 262.40 209.40, 247.80 205.00, 237.00 211.00 C 226.20 217.00, 219.00 242.60, 215.00 243.00 C 211.00 243.40, 221.00 219.80, 217.00 213.00 C 213.00 206.20, 201.20 207.80, 195.00 209.00 C 188.80 210.20, 188.00 220.20, 186.00 219.00 C 184.00 217.80, 187.40 206.80, 185.00 203.00 C 182.60 199.20, 177.60 198.80, 174.00 200.00 C 170.40 201.20, 169.00 210.40, 167.00 209.00 C 165.00 207.60, 168.00 197.40, 164.00 193.00 C 160.00 188.60, 154.80 186.00, 147.00 187.00 C 139.20 188.00, 130.00 191.00, 125.00 198.00 C 120.00 205.00, 125.60 218.60, 122.00 222.00 C 118.40 225.40, 113.20 210.00, 107.00 215.00 C 100.80 220.00, 93.80 238.80, 91.00 247.00 Z M 314.00 241.00 C 311.60 241.20, 313.20 241.20, 313.00 242.00 C 312.80 242.80, 313.60 243.80, 313.00 245.00 C 312.40 246.20, 310.60 245.60, 310.00 248.00 C 309.40 250.40, 310.20 255.00, 310.00 257.00 C 309.80 259.00, 309.20 257.20, 309.00 258.00 C 308.80 258.80, 308.80 260.20, 309.00 261.00 C 309.20 261.80, 309.40 261.80, 310.00 262.00 C 310.60 262.20, 311.40 262.20, 312.00 262.00 C 312.60 261.80, 312.80 261.60, 313.00 261.00 C 313.20 260.40, 312.40 260.00, 313.00 259.00 C 313.60 258.00, 315.40 256.80, 316.00 256.00 C 316.60 255.20, 315.80 255.40, 316.00 255.00 C 316.20 254.60, 316.80 255.80, 317.00 254.00 C 317.20 252.20, 316.20 247.60, 317.00 246.00 C 317.80 244.40, 320.20 245.40, 321.00 246.00 C 321.80 246.60, 320.80 248.20, 321.00 249.00 C 321.20 249.80, 321.60 249.80, 322.00 250.00 C 322.40 250.20, 322.20 250.60, 323.00 250.00 C 323.80 249.40, 325.40 248.60, 326.00 247.00 C 326.60 245.40, 326.20 243.20, 326.00 242.00 C 325.80 240.80, 327.40 241.20, 325.00 241.00 C 322.60 240.80, 316.40 240.80, 314.00 241.00 Z M 284.00 242.00 C 283.80 243.60, 284.20 247.40, 284.00 249.00 C 283.80 250.60, 283.20 249.20, 283.00 250.00 C 282.80 250.80, 282.80 252.20, 283.00 253.00 C 283.20 253.80, 283.60 253.80, 284.00 254.00 C 284.40 254.20, 284.60 254.20, 285.00 254.00 C 285.40 253.80, 285.80 254.00, 286.00 253.00 C 286.20 252.00, 285.60 250.20, 286.00 249.00 C 286.40 247.80, 287.80 247.60, 288.00 247.00 C 288.20 246.40, 287.20 246.40, 287.00 246.00 C 286.80 245.60, 287.20 245.40, 287.00 245.00 C 286.80 244.60, 286.20 244.60, 286.00 244.00 C 285.80 243.40, 286.20 242.60, 286.00 242.00 C 285.80 241.40, 285.40 241.00, 285.00 241.00 C 284.60 241.00, 284.20 240.40, 284.00 242.00 Z M 185.00 233.00 C 184.60 233.20, 184.20 233.60, 184.00 234.00 C 183.80 234.40, 184.20 234.60, 184.00 235.00 C 183.80 235.40, 183.20 235.60, 183.00 236.00 C 182.80 236.40, 183.20 236.60, 183.00 237.00 C 182.80 237.40, 183.20 237.80, 182.00 238.00 C 180.80 238.20, 178.20 238.20, 177.00 238.00 C 175.80 237.80, 176.40 237.20, 176.00 237.00 C 175.60 236.80, 175.60 236.60, 175.00 237.00 C 174.40 237.40, 173.40 238.20, 173.00 239.00 C 172.60 239.80, 173.20 240.40, 173.00 241.00 C 172.80 241.60, 172.20 240.80, 172.00 242.00 C 171.80 243.20, 171.80 245.80, 172.00 247.00 C 172.20 248.20, 172.60 248.00, 173.00 248.00 C 173.40 248.00, 173.80 247.40, 174.00 247.00 C 174.20 246.60, 173.80 246.40, 174.00 246.00 C 174.20 245.60, 174.80 245.40, 175.00 245.00 C 175.20 244.60, 174.80 244.40, 175.00 244.00 C 175.20 243.60, 175.80 243.40, 176.00 243.00 C 176.20 242.60, 175.80 242.40, 176.00 242.00 C 176.20 241.60, 175.80 241.20, 177.00 241.00 C 178.20 240.80, 180.60 240.60, 182.00 241.00 C 183.40 241.40, 183.40 242.80, 184.00 243.00 C 184.60 243.20, 184.80 242.40, 185.00 242.00 C 185.20 241.60, 184.60 241.60, 185.00 241.00 C 185.40 240.40, 186.60 240.40, 187.00 239.00 C 187.40 237.60, 187.20 235.20, 187.00 234.00 C 186.80 232.80, 186.40 233.20, 186.00 233.00 C 185.60 232.80, 185.40 232.80, 185.00 233.00 Z M 267.00 229.00 C 266.60 229.20, 266.60 229.80, 266.00 230.00 C 265.40 230.20, 264.60 229.80, 264.00 230.00 C 263.40 230.20, 263.40 230.80, 263.00 231.00 C 262.60 231.20, 262.60 230.60, 262.00 231.00 C 261.40 231.40, 260.40 232.20, 260.00 233.00 C 259.60 233.80, 260.20 234.40, 260.00 235.00 C 259.80 235.60, 259.20 235.60, 259.00 236.00 C 258.80 236.40, 259.20 236.80, 259.00 237.00 C 258.80 237.20, 258.40 236.80, 258.00 237.00 C 257.60 237.20, 257.20 237.20, 257.00 238.00 C 256.80 238.80, 256.80 240.20, 257.00 241.00 C 257.20 241.80, 257.20 241.80, 258.00 242.00 C 258.80 242.20, 260.20 242.20, 261.00 242.00 C 261.80 241.80, 261.80 241.80, 262.00 241.00 C 262.20 240.20, 261.60 238.60, 262.00 238.00 C 262.40 237.40, 263.40 238.20, 264.00 238.00 C 264.60 237.80, 264.80 237.60, 265.00 237.00 C 265.20 236.40, 264.40 236.00, 265.00 235.00 C 265.60 234.00, 267.40 232.80, 268.00 232.00 C 268.60 231.20, 267.80 231.40, 268.00 231.00 C 268.20 230.60, 269.00 230.40, 269.00 230.00 C 269.00 229.60, 268.40 229.20, 268.00 229.00 C 267.60 228.80, 267.40 228.80, 267.00 229.00 Z M 126.00 227.00 C 125.20 226.80, 126.20 226.40, 126.00 226.00 C 125.80 225.60, 125.40 225.20, 125.00 225.00 C 124.60 224.80, 124.40 224.80, 124.00 225.00 C 123.60 225.20, 123.20 225.40, 123.00 226.00 C 122.80 226.60, 123.20 227.60, 123.00 228.00 C 122.80 228.40, 122.40 227.80, 122.00 228.00 C 121.60 228.20, 121.20 228.00, 121.00 229.00 C 120.80 230.00, 121.20 232.00, 121.00 233.00 C 120.80 234.00, 120.20 232.40, 120.00 234.00 C 119.80 235.60, 120.20 239.60, 120.00 241.00 C 119.80 242.40, 119.40 240.80, 119.00 241.00 C 118.60 241.20, 118.20 241.20, 118.00 242.00 C 117.80 242.80, 117.80 244.20, 118.00 245.00 C 118.20 245.80, 118.60 245.80, 119.00 246.00 C 119.40 246.20, 119.60 246.20, 120.00 246.00 C 120.40 245.80, 120.80 245.40, 121.00 245.00 C 121.20 244.60, 120.80 244.40, 121.00 244.00 C 121.20 243.60, 121.80 243.40, 122.00 243.00 C 122.20 242.60, 121.80 242.40, 122.00 242.00 C 122.20 241.60, 122.40 241.20, 123.00 241.00 C 123.60 240.80, 124.40 241.20, 125.00 241.00 C 125.60 240.80, 125.80 240.60, 126.00 240.00 C 126.20 239.40, 125.60 238.40, 126.00 238.00 C 126.40 237.60, 127.40 238.20, 128.00 238.00 C 128.60 237.80, 128.80 238.60, 129.00 237.00 C 129.20 235.40, 128.60 231.80, 129.00 230.00 C 129.40 228.20, 130.80 228.60, 131.00 228.00 C 131.20 227.40, 131.00 227.20, 130.00 227.00 C 129.00 226.80, 126.80 227.20, 126.00 227.00 Z M 142.00 206.00 C 141.80 206.80, 142.40 208.20, 142.00 209.00 C 141.60 209.80, 141.00 208.60, 140.00 210.00 C 139.00 211.40, 137.60 211.40, 137.00 216.00 C 136.40 220.60, 137.20 229.40, 137.00 233.00 C 136.80 236.60, 136.20 232.40, 136.00 234.00 C 135.80 235.60, 136.40 239.40, 136.00 241.00 C 135.60 242.60, 134.40 240.80, 134.00 242.00 C 133.60 243.20, 133.60 245.60, 134.00 247.00 C 134.40 248.40, 134.40 248.60, 136.00 249.00 C 137.60 249.40, 140.60 248.80, 142.00 249.00 C 143.40 249.20, 142.60 248.20, 143.00 250.00 C 143.40 251.80, 143.60 256.20, 144.00 258.00 C 144.40 259.80, 144.20 259.00, 145.00 259.00 C 145.80 259.00, 147.00 258.60, 148.00 258.00 C 149.00 257.40, 149.60 260.00, 150.00 256.00 C 150.40 252.00, 150.80 242.20, 150.00 238.00 C 149.20 233.80, 146.80 238.20, 146.00 235.00 C 145.20 231.80, 145.60 225.40, 146.00 222.00 C 146.40 218.60, 147.20 219.00, 148.00 218.00 C 148.80 217.00, 149.60 217.80, 150.00 217.00 C 150.40 216.20, 150.40 214.80, 150.00 214.00 C 149.60 213.20, 148.80 214.40, 148.00 213.00 C 147.20 211.60, 147.00 208.60, 146.00 207.00 C 145.00 205.40, 143.80 205.20, 143.00 205.00 C 142.20 204.80, 142.20 205.20, 142.00 206.00 Z" fill="#F0E5D9" stroke="none" fill-rule="evenodd" />
  <path d="M 261.00 112.00 C 259.20 108.20, 254.80 106.60, 252.00 106.00 C 249.20 105.40, 250.60 108.40, 247.00 109.00 C 243.40 109.60, 238.40 107.20, 234.00 109.00 C 229.60 110.80, 226.80 115.00, 225.00 118.00 C 223.20 121.00, 224.20 121.80, 225.00 124.00 C 225.80 126.20, 227.20 128.60, 229.00 129.00 C 230.80 129.40, 232.40 125.20, 234.00 126.00 C 235.60 126.80, 239.20 131.00, 237.00 133.00 C 234.80 135.00, 226.20 134.60, 223.00 136.00 C 219.80 137.40, 223.80 140.40, 221.00 140.00 C 218.20 139.60, 212.20 132.60, 209.00 134.00 C 205.80 135.40, 206.60 145.60, 205.00 147.00 C 203.40 148.40, 201.20 143.00, 201.00 141.00 C 200.80 139.00, 203.40 140.20, 204.00 137.00 C 204.60 133.80, 205.40 127.60, 204.00 125.00 C 202.60 122.40, 198.40 125.40, 197.00 124.00 C 195.60 122.60, 197.60 119.40, 197.00 118.00 C 196.40 116.60, 198.60 115.40, 194.00 117.00 C 189.40 118.60, 179.20 122.00, 174.00 126.00 C 168.80 130.00, 170.40 134.60, 168.00 137.00 C 165.60 139.40, 164.60 139.40, 162.00 138.00 C 159.40 136.60, 157.40 131.60, 155.00 130.00 C 152.60 128.40, 151.00 128.60, 150.00 130.00 C 149.00 131.40, 148.80 133.80, 150.00 137.00 C 151.20 140.20, 153.40 144.20, 156.00 146.00 C 158.60 147.80, 161.20 145.40, 163.00 146.00 C 164.80 146.60, 161.40 148.60, 165.00 149.00 C 168.60 149.40, 177.20 147.40, 181.00 148.00 C 184.80 148.60, 181.40 151.00, 184.00 152.00 C 186.60 153.00, 191.40 151.40, 194.00 153.00 C 196.60 154.60, 194.80 158.60, 197.00 160.00 C 199.20 161.40, 200.80 161.00, 205.00 160.00 C 209.20 159.00, 215.40 157.80, 218.00 155.00 C 220.60 152.20, 217.20 148.60, 218.00 146.00 C 218.80 143.40, 220.80 141.00, 222.00 142.00 C 223.20 143.00, 222.40 149.20, 224.00 151.00 C 225.60 152.80, 224.20 153.60, 230.00 151.00 C 235.80 148.40, 247.60 143.00, 253.00 138.00 C 258.40 133.00, 255.40 128.60, 257.00 126.00 C 258.60 123.40, 260.20 127.80, 261.00 125.00 C 261.80 122.20, 262.80 115.80, 261.00 112.00 Z M 194.00 132.00 C 193.20 132.20, 193.40 132.80, 193.00 133.00 C 192.60 133.20, 192.80 132.40, 192.00 133.00 C 191.20 133.60, 189.60 134.40, 189.00 136.00 C 188.40 137.60, 188.80 139.80, 189.00 141.00 C 189.20 142.20, 189.60 141.80, 190.00 142.00 C 190.40 142.20, 190.80 141.60, 191.00 142.00 C 191.20 142.40, 190.80 143.40, 191.00 144.00 C 191.20 144.60, 191.60 145.00, 192.00 145.00 C 192.40 145.00, 192.80 144.60, 193.00 144.00 C 193.20 143.40, 192.80 142.60, 193.00 142.00 C 193.20 141.40, 193.80 141.40, 194.00 141.00 C 194.20 140.60, 193.60 140.60, 194.00 140.00 C 194.40 139.40, 195.00 138.40, 196.00 138.00 C 197.00 137.60, 198.20 138.20, 199.00 138.00 C 199.80 137.80, 200.00 137.40, 200.00 137.00 C 200.00 136.60, 199.40 136.20, 199.00 136.00 C 198.60 135.80, 198.20 136.60, 198.00 136.00 C 197.80 135.40, 198.20 133.80, 198.00 133.00 C 197.80 132.20, 197.80 132.20, 197.00 132.00 C 196.20 131.80, 194.80 131.80, 194.00 132.00 Z" fill="#F0E5D9" stroke="none" fill-rule="evenodd" />
  <path d="M 86.00 299.00 C 85.00 298.80, 82.80 298.00, 82.00 299.00 C 81.20 300.00, 81.80 302.80, 82.00 304.00 C 82.20 305.20, 82.80 304.00, 83.00 305.00 C 83.20 306.00, 83.20 308.00, 83.00 309.00 C 82.80 310.00, 82.80 309.80, 82.00 310.00 C 81.20 310.20, 79.60 309.80, 79.00 310.00 C 78.40 310.20, 79.20 310.60, 79.00 311.00 C 78.80 311.40, 78.20 311.40, 78.00 312.00 C 77.80 312.60, 78.40 313.00, 78.00 314.00 C 77.60 315.00, 76.40 316.00, 76.00 317.00 C 75.60 318.00, 76.20 318.40, 76.00 319.00 C 75.80 319.60, 75.20 319.40, 75.00 320.00 C 74.80 320.60, 75.20 321.40, 75.00 322.00 C 74.80 322.60, 74.20 321.60, 74.00 323.00 C 73.80 324.40, 73.80 327.60, 74.00 329.00 C 74.20 330.40, 74.80 329.40, 75.00 330.00 C 75.20 330.60, 74.00 331.60, 75.00 332.00 C 76.00 332.40, 79.00 332.20, 80.00 332.00 C 81.00 331.80, 79.80 331.40, 80.00 331.00 C 80.20 330.60, 80.80 330.60, 81.00 330.00 C 81.20 329.40, 80.20 329.80, 81.00 328.00 C 81.80 326.20, 84.20 323.00, 85.00 321.00 C 85.80 319.00, 84.60 319.20, 85.00 318.00 C 85.40 316.80, 86.60 317.60, 87.00 315.00 C 87.40 312.40, 86.80 307.20, 87.00 305.00 C 87.20 302.80, 87.80 305.00, 88.00 304.00 C 88.20 303.00, 88.20 300.80, 88.00 300.00 C 87.80 299.20, 87.40 300.20, 87.00 300.00 C 86.60 299.80, 87.00 299.20, 86.00 299.00 Z" fill="#D7CEC6" stroke="none" fill-rule="evenodd" />
  <path d="M 375.00 283.00 C 374.20 283.40, 375.20 284.40, 375.00 285.00 C 374.80 285.60, 374.20 285.20, 374.00 286.00 C 373.80 286.80, 374.20 288.20, 374.00 289.00 C 373.80 289.80, 373.20 288.00, 373.00 290.00 C 372.80 292.00, 372.80 297.00, 373.00 299.00 C 373.20 301.00, 373.20 299.80, 374.00 300.00 C 374.80 300.20, 376.00 299.60, 377.00 300.00 C 378.00 300.40, 378.60 301.40, 379.00 302.00 C 379.40 302.60, 378.20 302.80, 379.00 303.00 C 379.80 303.20, 382.20 303.40, 383.00 303.00 C 383.80 302.60, 382.80 301.60, 383.00 301.00 C 383.20 300.40, 383.80 301.80, 384.00 300.00 C 384.20 298.20, 384.20 293.60, 384.00 292.00 C 383.80 290.40, 383.60 292.40, 383.00 292.00 C 382.40 291.60, 381.40 291.40, 381.00 290.00 C 380.60 288.60, 381.40 286.40, 381.00 285.00 C 380.60 283.60, 380.20 283.40, 379.00 283.00 C 377.80 282.60, 375.80 282.60, 375.00 283.00 Z" fill="#D7CEC6" stroke="none" fill-rule="evenodd" />
  <path d="M 85.00 265.00 C 80.00 264.00, 89.80 274.80, 96.00 280.00 C 102.20 285.20, 100.40 285.60, 116.00 291.00 C 131.60 296.40, 156.80 303.20, 174.00 307.00 C 191.20 310.80, 182.20 309.80, 202.00 310.00 C 221.80 310.20, 245.60 312.20, 273.00 308.00 C 300.40 303.80, 325.80 293.80, 339.00 289.00 C 352.20 284.20, 340.40 285.20, 339.00 284.00 C 337.60 282.80, 346.40 279.20, 332.00 283.00 C 317.60 286.80, 290.40 298.60, 267.00 303.00 C 243.60 307.40, 234.40 305.60, 215.00 305.00 C 195.60 304.40, 188.80 304.00, 170.00 300.00 C 151.20 296.00, 138.00 292.00, 121.00 285.00 C 104.00 278.00, 90.00 266.00, 85.00 265.00 Z" fill="#D7CEC6" stroke="none" fill-rule="evenodd" />
  <path d="M 150.00 181.00 C 149.20 182.40, 149.00 184.60, 153.00 188.00 C 157.00 191.40, 159.00 193.80, 170.00 198.00 C 181.00 202.20, 188.80 207.00, 208.00 209.00 C 227.20 211.00, 247.60 210.00, 266.00 208.00 C 284.40 206.00, 293.60 202.20, 300.00 199.00 C 306.40 195.80, 299.20 193.40, 298.00 192.00 C 296.80 190.60, 297.40 190.60, 294.00 192.00 C 290.60 193.40, 286.20 197.00, 281.00 199.00 C 275.80 201.00, 282.00 201.00, 268.00 202.00 C 254.00 203.00, 224.20 204.60, 211.00 204.00 C 197.80 203.40, 205.40 200.00, 202.00 199.00 C 198.60 198.00, 199.60 200.40, 194.00 199.00 C 188.40 197.60, 181.40 195.60, 174.00 192.00 C 166.60 188.40, 161.80 183.20, 157.00 181.00 C 152.20 178.80, 150.80 179.60, 150.00 181.00 Z" fill="#D7CEC6" stroke="none" fill-rule="evenodd" />
  <path d="M 154.00 161.00 C 153.80 162.00, 153.60 163.80, 154.00 165.00 C 154.40 166.20, 153.80 166.60, 156.00 167.00 C 158.20 167.40, 163.00 166.80, 165.00 167.00 C 167.00 167.20, 162.00 167.80, 166.00 168.00 C 170.00 168.20, 181.20 168.20, 185.00 168.00 C 188.80 167.80, 184.80 167.40, 185.00 167.00 C 185.20 166.60, 185.80 167.20, 186.00 166.00 C 186.20 164.80, 186.80 162.00, 186.00 161.00 C 185.20 160.00, 183.00 160.80, 182.00 161.00 C 181.00 161.20, 185.20 161.80, 181.00 162.00 C 176.80 162.20, 165.20 162.20, 161.00 162.00 C 156.80 161.80, 160.20 161.40, 160.00 161.00 C 159.80 160.60, 161.00 160.20, 160.00 160.00 C 159.00 159.80, 156.20 159.80, 155.00 160.00 C 153.80 160.20, 154.20 160.00, 154.00 161.00 Z" fill="#D7CEC6" stroke="none" fill-rule="evenodd" />
  <path d="M 228.00 156.00 C 227.60 155.20, 226.60 156.40, 226.00 156.00 C 225.40 155.60, 226.00 154.40, 225.00 154.00 C 224.00 153.60, 222.00 153.60, 221.00 154.00 C 220.00 154.40, 220.80 155.60, 220.00 156.00 C 219.20 156.40, 218.40 155.40, 217.00 156.00 C 215.60 156.60, 215.40 158.20, 213.00 159.00 C 210.60 159.80, 207.00 159.40, 205.00 160.00 C 203.00 160.60, 204.00 161.60, 203.00 162.00 C 202.00 162.40, 200.80 161.80, 200.00 162.00 C 199.20 162.20, 199.80 162.80, 199.00 163.00 C 198.20 163.20, 196.80 162.80, 196.00 163.00 C 195.20 163.20, 196.40 163.80, 195.00 164.00 C 193.60 164.20, 190.40 163.60, 189.00 164.00 C 187.60 164.40, 188.20 164.80, 188.00 166.00 C 187.80 167.20, 187.80 169.00, 188.00 170.00 C 188.20 171.00, 187.80 170.80, 189.00 171.00 C 190.20 171.20, 193.00 171.20, 194.00 171.00 C 195.00 170.80, 193.60 170.60, 194.00 170.00 C 194.40 169.40, 194.40 168.40, 196.00 168.00 C 197.60 167.60, 200.60 168.20, 202.00 168.00 C 203.40 167.80, 202.40 167.20, 203.00 167.00 C 203.60 166.80, 203.80 167.40, 205.00 167.00 C 206.20 166.60, 207.60 165.40, 209.00 165.00 C 210.40 164.60, 210.60 165.40, 212.00 165.00 C 213.40 164.60, 214.60 163.40, 216.00 163.00 C 217.40 162.60, 218.00 163.40, 219.00 163.00 C 220.00 162.60, 219.40 161.40, 221.00 161.00 C 222.60 160.60, 225.60 161.20, 227.00 161.00 C 228.40 160.80, 227.80 161.00, 228.00 160.00 C 228.20 159.00, 228.40 156.80, 228.00 156.00 Z" fill="#D7CEC6" stroke="none" fill-rule="evenodd" />
  <path d="M 270.00 125.00 C 269.00 124.20, 266.60 124.60, 265.00 125.00 C 263.40 125.40, 263.00 126.60, 262.00 127.00 C 261.00 127.40, 260.60 126.80, 260.00 127.00 C 259.40 127.20, 259.20 127.40, 259.00 128.00 C 258.80 128.60, 259.60 129.20, 259.00 130.00 C 258.40 130.80, 256.60 131.20, 256.00 132.00 C 255.40 132.80, 256.80 132.80, 256.00 134.00 C 255.20 135.20, 252.80 137.00, 252.00 138.00 C 251.20 139.00, 252.20 138.60, 252.00 139.00 C 251.80 139.40, 251.40 139.80, 251.00 140.00 C 250.60 140.20, 250.20 139.00, 250.00 140.00 C 249.80 141.00, 249.20 144.00, 250.00 145.00 C 250.80 146.00, 253.00 145.20, 254.00 145.00 C 255.00 144.80, 254.60 144.20, 255.00 144.00 C 255.40 143.80, 255.40 144.40, 256.00 144.00 C 256.60 143.60, 257.40 142.40, 258.00 142.00 C 258.60 141.60, 258.20 142.60, 259.00 142.00 C 259.80 141.40, 261.40 139.80, 262.00 139.00 C 262.60 138.20, 261.40 138.80, 262.00 138.00 C 262.60 137.20, 264.40 135.80, 265.00 135.00 C 265.60 134.20, 264.80 134.40, 265.00 134.00 C 265.20 133.60, 265.60 133.20, 266.00 133.00 C 266.40 132.80, 266.60 133.20, 267.00 133.00 C 267.40 132.80, 267.80 132.40, 268.00 132.00 C 268.20 131.60, 267.60 131.60, 268.00 131.00 C 268.40 130.40, 269.60 130.20, 270.00 129.00 C 270.40 127.80, 271.00 125.80, 270.00 125.00 Z" fill="#D7CEC6" stroke="none" fill-rule="evenodd" />
  <path d="M 392.00 342.00 C 391.80 344.60, 391.80 351.40, 392.00 354.00 C 392.20 356.60, 391.20 354.80, 393.00 355.00 C 394.80 355.20, 399.20 355.20, 401.00 355.00 C 402.80 354.80, 401.60 354.20, 402.00 354.00 C 402.40 353.80, 402.60 353.80, 403.00 354.00 C 403.40 354.20, 403.80 354.60, 404.00 355.00 C 404.20 355.40, 403.20 355.80, 404.00 356.00 C 404.80 356.20, 407.20 356.40, 408.00 356.00 C 408.80 355.60, 407.80 354.60, 408.00 354.00 C 408.20 353.40, 408.60 353.80, 409.00 353.00 C 409.40 352.20, 409.60 350.80, 410.00 350.00 C 410.40 349.20, 410.60 349.20, 411.00 349.00 C 411.40 348.80, 411.80 349.80, 412.00 349.00 C 412.20 348.20, 414.00 345.80, 412.00 345.00 C 410.00 344.20, 404.20 344.80, 402.00 345.00 C 399.80 345.20, 401.80 345.80, 401.00 346.00 C 400.20 346.20, 398.80 346.20, 398.00 346.00 C 397.20 345.80, 397.20 346.00, 397.00 345.00 C 396.80 344.00, 397.80 341.80, 397.00 341.00 C 396.20 340.20, 394.00 340.80, 393.00 341.00 C 392.00 341.20, 392.20 339.40, 392.00 342.00 Z" fill="#E3D9CE" stroke="none" fill-rule="evenodd" />
  <path d="M 362.00 306.00 C 361.00 305.80, 359.20 305.60, 358.00 306.00 C 356.80 306.40, 356.40 306.60, 356.00 308.00 C 355.60 309.40, 356.20 311.80, 356.00 313.00 C 355.80 314.20, 355.20 311.80, 355.00 314.00 C 354.80 316.20, 354.20 322.00, 355.00 324.00 C 355.80 326.00, 358.00 324.20, 359.00 324.00 C 360.00 323.80, 359.60 323.20, 360.00 323.00 C 360.40 322.80, 360.80 323.20, 361.00 323.00 C 361.20 322.80, 360.40 322.80, 361.00 322.00 C 361.60 321.20, 363.40 319.80, 364.00 319.00 C 364.60 318.20, 363.80 318.40, 364.00 318.00 C 364.20 317.60, 364.80 317.40, 365.00 317.00 C 365.20 316.60, 364.80 316.40, 365.00 316.00 C 365.20 315.60, 365.80 316.20, 366.00 315.00 C 366.20 313.80, 366.20 311.00, 366.00 310.00 C 365.80 309.00, 365.40 310.20, 365.00 310.00 C 364.60 309.80, 364.20 309.60, 364.00 309.00 C 363.80 308.40, 364.20 307.40, 364.00 307.00 C 363.80 306.60, 363.40 307.20, 363.00 307.00 C 362.60 306.80, 363.00 306.20, 362.00 306.00 Z" fill="#E3D9CE" stroke="none" fill-rule="evenodd" />
  <path d="M 335.00 300.00 C 333.60 300.20, 335.60 300.40, 335.00 301.00 C 334.40 301.60, 332.80 301.60, 332.00 303.00 C 331.20 304.40, 331.40 306.80, 331.00 308.00 C 330.60 309.20, 330.60 308.80, 330.00 309.00 C 329.40 309.20, 328.60 306.40, 328.00 309.00 C 327.40 311.60, 326.40 317.80, 327.00 322.00 C 327.60 326.20, 329.60 328.00, 331.00 330.00 C 332.40 332.00, 332.80 330.80, 334.00 332.00 C 335.20 333.20, 334.40 335.40, 337.00 336.00 C 339.60 336.60, 344.80 335.40, 347.00 335.00 C 349.20 334.60, 347.80 335.00, 348.00 334.00 C 348.20 333.00, 348.80 330.80, 348.00 330.00 C 347.20 329.20, 346.40 331.40, 344.00 330.00 C 341.60 328.60, 337.80 325.20, 336.00 323.00 C 334.20 320.80, 334.40 320.40, 335.00 319.00 C 335.60 317.60, 338.00 317.00, 339.00 316.00 C 340.00 315.00, 338.20 314.60, 340.00 314.00 C 341.80 313.40, 346.00 313.60, 348.00 313.00 C 350.00 312.40, 349.40 312.80, 350.00 311.00 C 350.60 309.20, 351.00 305.60, 351.00 304.00 C 351.00 302.40, 351.60 303.40, 350.00 303.00 C 348.40 302.60, 344.60 302.60, 343.00 302.00 C 341.40 301.40, 343.60 300.40, 342.00 300.00 C 340.40 299.60, 336.40 299.80, 335.00 300.00 Z" fill="#E3D9CE" stroke="none" fill-rule="evenodd" />
  <path d="M 392.00 299.00 C 391.00 299.60, 392.40 301.00, 392.00 302.00 C 391.60 303.00, 390.60 303.60, 390.00 304.00 C 389.40 304.40, 389.40 303.80, 389.00 304.00 C 388.60 304.20, 388.60 304.80, 388.00 305.00 C 387.40 305.20, 386.40 304.20, 386.00 305.00 C 385.60 305.80, 385.60 308.20, 386.00 309.00 C 386.40 309.80, 387.40 308.80, 388.00 309.00 C 388.60 309.20, 388.60 309.80, 389.00 310.00 C 389.40 310.20, 389.60 309.80, 390.00 310.00 C 390.40 310.20, 390.80 310.40, 391.00 311.00 C 391.20 311.60, 390.60 312.60, 391.00 313.00 C 391.40 313.40, 392.40 312.80, 393.00 313.00 C 393.60 313.20, 393.80 313.60, 394.00 314.00 C 394.20 314.40, 393.20 314.80, 394.00 315.00 C 394.80 315.20, 397.00 314.80, 398.00 315.00 C 399.00 315.20, 398.00 315.80, 399.00 316.00 C 400.00 316.20, 402.20 317.00, 403.00 316.00 C 403.80 315.00, 403.40 312.60, 403.00 311.00 C 402.60 309.40, 401.40 308.80, 401.00 308.00 C 400.60 307.20, 400.80 307.40, 401.00 307.00 C 401.20 306.60, 401.80 307.20, 402.00 306.00 C 402.20 304.80, 402.20 302.00, 402.00 301.00 C 401.80 300.00, 401.40 301.20, 401.00 301.00 C 400.60 300.80, 400.60 300.20, 400.00 300.00 C 399.40 299.80, 398.60 300.20, 398.00 300.00 C 397.40 299.80, 398.20 299.20, 397.00 299.00 C 395.80 298.80, 393.00 298.40, 392.00 299.00 Z" fill="#E3D9CE" stroke="none" fill-rule="evenodd" />
  <path d="M 19.00 307.00 C 16.80 308.60, 19.60 311.80, 19.00 314.00 C 18.40 316.20, 16.40 313.00, 16.00 318.00 C 15.60 323.00, 15.40 334.60, 17.00 339.00 C 18.60 343.40, 22.20 343.20, 24.00 340.00 C 25.80 336.80, 24.40 326.60, 26.00 323.00 C 27.60 319.40, 30.60 323.20, 32.00 322.00 C 33.40 320.80, 26.40 316.60, 33.00 317.00 C 39.60 317.40, 57.60 321.20, 65.00 324.00 C 72.40 326.80, 67.60 330.00, 70.00 331.00 C 72.40 332.00, 74.80 332.00, 77.00 329.00 C 79.20 326.00, 79.20 319.20, 81.00 316.00 C 82.80 312.80, 85.00 316.80, 86.00 313.00 C 87.00 309.20, 87.20 301.00, 86.00 297.00 C 84.80 293.00, 84.20 293.20, 80.00 293.00 C 75.80 292.80, 69.80 293.40, 65.00 296.00 C 60.20 298.60, 59.20 305.20, 56.00 306.00 C 52.80 306.80, 50.40 302.40, 49.00 300.00 C 47.60 297.60, 50.80 295.40, 49.00 294.00 C 47.20 292.60, 43.80 290.60, 40.00 293.00 C 36.20 295.40, 34.20 303.20, 30.00 306.00 C 25.80 308.80, 21.20 305.40, 19.00 307.00 Z" fill="#E3D9CE" stroke="none" fill-rule="evenodd" />
  <path d="M 86.00 262.00 C 74.20 258.00, 83.80 264.80, 86.00 268.00 C 88.20 271.20, 90.80 274.00, 97.00 278.00 C 103.20 282.00, 103.20 283.00, 117.00 288.00 C 130.80 293.00, 147.20 299.00, 166.00 303.00 C 184.80 307.00, 190.00 307.40, 211.00 308.00 C 232.00 308.60, 248.60 310.00, 271.00 306.00 C 293.40 302.00, 309.20 291.80, 323.00 288.00 C 336.80 284.20, 336.40 289.80, 340.00 287.00 C 343.60 284.20, 342.60 276.60, 341.00 274.00 C 339.40 271.40, 346.40 269.40, 332.00 274.00 C 317.60 278.60, 295.00 292.00, 269.00 297.00 C 243.00 302.00, 226.80 300.80, 202.00 299.00 C 177.20 297.20, 168.20 295.40, 145.00 288.00 C 121.80 280.60, 97.80 266.00, 86.00 262.00 Z" fill="#E3D9CE" stroke="none" fill-rule="evenodd" />
  <path d="M 149.00 180.00 C 148.20 181.60, 145.80 184.20, 149.00 188.00 C 152.20 191.80, 154.40 194.40, 165.00 199.00 C 175.60 203.60, 191.20 208.20, 202.00 211.00 C 212.80 213.80, 206.40 213.00, 219.00 213.00 C 231.60 213.00, 255.60 211.80, 265.00 211.00 C 274.40 210.20, 261.80 209.80, 266.00 209.00 C 270.20 208.20, 279.40 208.60, 286.00 207.00 C 292.60 205.40, 296.40 203.00, 299.00 201.00 C 301.60 199.00, 300.60 198.00, 299.00 197.00 C 297.40 196.00, 293.80 195.40, 291.00 196.00 C 288.20 196.60, 290.80 198.20, 285.00 200.00 C 279.20 201.80, 276.60 203.80, 262.00 205.00 C 247.40 206.20, 229.60 208.00, 212.00 206.00 C 194.40 204.00, 185.00 199.20, 174.00 195.00 C 163.00 190.80, 161.20 188.00, 157.00 185.00 C 152.80 182.00, 154.60 181.00, 153.00 180.00 C 151.40 179.00, 149.80 178.40, 149.00 180.00 Z" fill="#E3D9CE" stroke="none" fill-rule="evenodd" />
  <path d="M 157.00 160.00 C 156.80 161.20, 156.00 164.00, 157.00 165.00 C 158.00 166.00, 160.80 164.80, 162.00 165.00 C 163.20 165.20, 161.60 165.80, 163.00 166.00 C 164.40 166.20, 167.60 166.20, 169.00 166.00 C 170.40 165.80, 166.80 165.20, 170.00 165.00 C 173.20 164.80, 181.80 165.20, 185.00 165.00 C 188.20 164.80, 185.80 165.00, 186.00 164.00 C 186.20 163.00, 186.40 160.80, 186.00 160.00 C 185.60 159.20, 184.60 160.20, 184.00 160.00 C 183.40 159.80, 185.00 159.20, 183.00 159.00 C 181.00 158.80, 176.00 158.80, 174.00 159.00 C 172.00 159.20, 173.80 159.80, 173.00 160.00 C 172.20 160.20, 170.80 160.20, 170.00 160.00 C 169.20 159.80, 170.00 159.20, 169.00 159.00 C 168.00 158.80, 166.00 159.20, 165.00 159.00 C 164.00 158.80, 165.40 158.20, 164.00 158.00 C 162.60 157.80, 159.20 157.80, 158.00 158.00 C 156.80 158.20, 158.20 158.60, 158.00 159.00 C 157.80 159.40, 157.20 158.80, 157.00 160.00 Z" fill="#E3D9CE" stroke="none" fill-rule="evenodd" />
  <path d="M 266.00 124.00 C 265.00 122.60, 264.40 120.60, 261.00 123.00 C 257.60 125.40, 255.80 130.80, 249.00 136.00 C 242.20 141.20, 231.60 145.80, 227.00 149.00 C 222.40 152.20, 228.40 151.20, 226.00 152.00 C 223.60 152.80, 217.60 152.20, 215.00 153.00 C 212.40 153.80, 214.60 155.40, 213.00 156.00 C 211.40 156.60, 208.80 155.60, 207.00 156.00 C 205.20 156.40, 207.40 157.40, 204.00 158.00 C 200.60 158.60, 193.00 157.20, 190.00 159.00 C 187.00 160.80, 187.20 165.40, 189.00 167.00 C 190.80 168.60, 195.40 167.40, 199.00 167.00 C 202.60 166.60, 205.00 165.80, 207.00 165.00 C 209.00 164.20, 207.00 163.60, 209.00 163.00 C 211.00 162.40, 214.60 162.80, 217.00 162.00 C 219.40 161.20, 219.60 159.60, 221.00 159.00 C 222.40 158.40, 223.20 159.40, 224.00 159.00 C 224.80 158.60, 224.20 157.40, 225.00 157.00 C 225.80 156.60, 227.20 157.60, 228.00 157.00 C 228.80 156.40, 227.40 154.60, 229.00 154.00 C 230.60 153.40, 233.60 155.00, 236.00 154.00 C 238.40 153.00, 238.60 150.20, 241.00 149.00 C 243.40 147.80, 245.20 149.20, 248.00 148.00 C 250.80 146.80, 252.60 145.60, 255.00 143.00 C 257.40 140.40, 258.40 136.80, 260.00 135.00 C 261.60 133.20, 262.40 134.80, 263.00 134.00 C 263.60 133.20, 262.40 131.80, 263.00 131.00 C 263.60 130.20, 265.40 131.40, 266.00 130.00 C 266.60 128.60, 267.00 125.40, 266.00 124.00 Z" fill="#E3D9CE" stroke="none" fill-rule="evenodd" />
  <path d="M 313.00 340.00 C 311.80 339.00, 311.00 338.20, 307.00 340.00 C 303.00 341.80, 296.20 347.20, 293.00 349.00 C 289.80 350.80, 293.40 347.80, 291.00 349.00 C 288.60 350.20, 283.80 353.80, 281.00 355.00 C 278.20 356.20, 278.40 354.80, 277.00 355.00 C 275.60 355.20, 274.80 355.40, 274.00 356.00 C 273.20 356.60, 274.20 357.40, 273.00 358.00 C 271.80 358.60, 269.20 358.60, 268.00 359.00 C 266.80 359.40, 267.20 358.80, 267.00 360.00 C 266.80 361.20, 266.40 364.00, 267.00 365.00 C 267.60 366.00, 268.40 364.60, 270.00 365.00 C 271.60 365.40, 273.00 366.60, 275.00 367.00 C 277.00 367.40, 278.80 366.80, 280.00 367.00 C 281.20 367.20, 279.40 367.80, 281.00 368.00 C 282.60 368.20, 286.40 367.80, 288.00 368.00 C 289.60 368.20, 285.60 368.80, 289.00 369.00 C 292.40 369.20, 301.60 369.20, 305.00 369.00 C 308.40 368.80, 304.40 368.20, 306.00 368.00 C 307.60 367.80, 310.60 368.60, 313.00 368.00 C 315.40 367.40, 317.00 366.60, 318.00 365.00 C 319.00 363.40, 318.60 362.40, 318.00 360.00 C 317.40 357.60, 315.60 355.00, 315.00 353.00 C 314.40 351.00, 315.40 351.60, 315.00 350.00 C 314.60 348.40, 313.40 347.00, 313.00 345.00 C 312.60 343.00, 314.20 341.00, 313.00 340.00 Z" fill="#255466" stroke="none" fill-rule="evenodd" />
  <path d="M 108.00 329.00 C 107.00 330.80, 107.80 336.00, 108.00 338.00 C 108.20 340.00, 108.80 336.20, 109.00 339.00 C 109.20 341.80, 109.20 349.20, 109.00 352.00 C 108.80 354.80, 108.20 351.80, 108.00 353.00 C 107.80 354.20, 107.80 356.60, 108.00 358.00 C 108.20 359.40, 102.80 359.60, 109.00 360.00 C 115.20 360.40, 132.80 360.20, 139.00 360.00 C 145.20 359.80, 138.80 359.20, 140.00 359.00 C 141.20 358.80, 144.20 361.00, 145.00 359.00 C 145.80 357.00, 145.20 351.20, 144.00 349.00 C 142.80 346.80, 140.40 348.80, 139.00 348.00 C 137.60 347.20, 138.00 345.60, 137.00 345.00 C 136.00 344.40, 135.00 345.60, 134.00 345.00 C 133.00 344.40, 133.80 343.40, 132.00 342.00 C 130.20 340.60, 126.80 338.80, 125.00 338.00 C 123.20 337.20, 123.80 338.60, 123.00 338.00 C 122.20 337.40, 121.80 335.60, 121.00 335.00 C 120.20 334.40, 119.60 335.40, 119.00 335.00 C 118.40 334.60, 119.20 334.20, 118.00 333.00 C 116.80 331.80, 115.00 329.80, 113.00 329.00 C 111.00 328.20, 109.00 327.20, 108.00 329.00 Z" fill="#255466" stroke="none" fill-rule="evenodd" />
  <path d="M 66.00 243.00 C 64.40 245.40, 65.40 252.40, 65.00 255.00 C 64.60 257.60, 64.20 253.60, 64.00 256.00 C 63.80 258.40, 63.80 264.20, 64.00 267.00 C 64.20 269.80, 64.20 269.00, 65.00 270.00 C 65.80 271.00, 66.00 269.00, 68.00 272.00 C 70.00 275.00, 73.60 281.80, 75.00 285.00 C 76.40 288.20, 74.40 286.60, 75.00 288.00 C 75.60 289.40, 76.20 291.20, 78.00 292.00 C 79.80 292.80, 82.80 293.40, 84.00 292.00 C 85.20 290.60, 84.20 286.60, 84.00 285.00 C 83.80 283.40, 83.00 287.60, 83.00 284.00 C 83.00 280.40, 84.60 270.40, 84.00 267.00 C 83.40 263.60, 81.20 267.40, 80.00 267.00 C 78.80 266.60, 78.80 265.40, 78.00 265.00 C 77.20 264.60, 77.00 265.60, 76.00 265.00 C 75.00 264.40, 73.60 263.00, 73.00 262.00 C 72.40 261.00, 73.40 260.80, 73.00 260.00 C 72.60 259.20, 71.40 260.20, 71.00 258.00 C 70.60 255.80, 70.60 251.20, 71.00 249.00 C 71.40 246.80, 72.60 248.20, 73.00 247.00 C 73.40 245.80, 74.40 243.80, 73.00 243.00 C 71.60 242.20, 67.60 240.60, 66.00 243.00 Z" fill="#255466" stroke="none" fill-rule="evenodd" />
  <path d="M 379.00 237.00 C 377.80 236.40, 376.40 236.20, 375.00 237.00 C 373.60 237.80, 373.00 239.00, 372.00 241.00 C 371.00 243.00, 370.80 245.40, 370.00 247.00 C 369.20 248.60, 368.40 247.40, 368.00 249.00 C 367.60 250.60, 368.40 253.40, 368.00 255.00 C 367.60 256.60, 366.40 255.80, 366.00 257.00 C 365.60 258.20, 367.20 259.00, 366.00 261.00 C 364.80 263.00, 362.00 265.80, 360.00 267.00 C 358.00 268.20, 358.20 266.20, 356.00 267.00 C 353.80 267.80, 350.60 268.60, 349.00 271.00 C 347.40 273.40, 347.80 277.20, 348.00 279.00 C 348.20 280.80, 349.00 278.60, 350.00 280.00 C 351.00 281.40, 351.80 284.20, 353.00 286.00 C 354.20 287.80, 354.60 288.40, 356.00 289.00 C 357.40 289.60, 358.00 289.40, 360.00 289.00 C 362.00 288.60, 363.60 287.20, 366.00 287.00 C 368.40 286.80, 370.00 288.20, 372.00 288.00 C 374.00 287.80, 374.00 287.80, 376.00 286.00 C 378.00 284.20, 380.80 280.80, 382.00 279.00 C 383.20 277.20, 381.00 278.20, 382.00 277.00 C 383.00 275.80, 386.40 277.20, 387.00 273.00 C 387.60 268.80, 386.20 262.60, 385.00 256.00 C 383.80 249.40, 382.20 243.80, 381.00 240.00 C 379.80 236.20, 380.20 237.60, 379.00 237.00 Z" fill="#255466" stroke="none" fill-rule="evenodd" />
  <path d="M 292.00 137.00 C 291.00 136.80, 288.80 136.20, 288.00 137.00 C 287.20 137.80, 288.20 140.00, 288.00 141.00 C 287.80 142.00, 287.20 139.80, 287.00 142.00 C 286.80 144.20, 287.20 149.80, 287.00 152.00 C 286.80 154.20, 286.40 152.80, 286.00 153.00 C 285.60 153.20, 285.20 152.40, 285.00 153.00 C 284.80 153.60, 285.40 154.80, 285.00 156.00 C 284.60 157.20, 283.40 157.60, 283.00 159.00 C 282.60 160.40, 282.80 162.00, 283.00 163.00 C 283.20 164.00, 283.80 163.60, 284.00 164.00 C 284.20 164.40, 283.20 164.80, 284.00 165.00 C 284.80 165.20, 287.20 165.20, 288.00 165.00 C 288.80 164.80, 287.80 164.40, 288.00 164.00 C 288.20 163.60, 288.60 163.20, 289.00 163.00 C 289.40 162.80, 289.80 163.20, 290.00 163.00 C 290.20 162.80, 289.80 162.40, 290.00 162.00 C 290.20 161.60, 290.60 161.20, 291.00 161.00 C 291.40 160.80, 291.80 162.40, 292.00 161.00 C 292.20 159.60, 291.40 155.80, 292.00 154.00 C 292.60 152.20, 294.40 154.40, 295.00 152.00 C 295.60 149.60, 295.20 144.00, 295.00 142.00 C 294.80 140.00, 294.40 142.20, 294.00 142.00 C 293.60 141.80, 293.20 141.80, 293.00 141.00 C 292.80 140.20, 293.20 138.80, 293.00 138.00 C 292.80 137.20, 293.00 137.20, 292.00 137.00 Z" fill="#255466" stroke="none" fill-rule="evenodd" />
  <path d="M 184.00 102.00 C 183.20 101.20, 182.60 102.40, 182.00 102.00 C 181.40 101.60, 182.20 100.40, 181.00 100.00 C 179.80 99.60, 177.80 99.60, 176.00 100.00 C 174.20 100.40, 173.20 101.00, 172.00 102.00 C 170.80 103.00, 173.20 103.40, 170.00 105.00 C 166.80 106.60, 158.80 108.00, 156.00 110.00 C 153.20 112.00, 156.60 113.80, 156.00 115.00 C 155.40 116.20, 153.60 114.80, 153.00 116.00 C 152.40 117.20, 153.80 119.40, 153.00 121.00 C 152.20 122.60, 149.80 122.40, 149.00 124.00 C 148.20 125.60, 149.40 127.60, 149.00 129.00 C 148.60 130.40, 147.40 129.40, 147.00 131.00 C 146.60 132.60, 146.20 135.80, 147.00 137.00 C 147.80 138.20, 149.80 137.60, 151.00 137.00 C 152.20 136.40, 151.60 133.80, 153.00 134.00 C 154.40 134.20, 157.00 136.60, 158.00 138.00 C 159.00 139.40, 155.80 140.40, 158.00 141.00 C 160.20 141.60, 165.80 141.60, 169.00 141.00 C 172.20 140.40, 173.00 139.20, 174.00 138.00 C 175.00 136.80, 173.40 135.80, 174.00 135.00 C 174.60 134.20, 176.40 135.00, 177.00 134.00 C 177.60 133.00, 176.80 131.00, 177.00 130.00 C 177.20 129.00, 177.00 129.20, 178.00 129.00 C 179.00 128.80, 180.60 129.60, 182.00 129.00 C 183.40 128.40, 184.00 126.60, 185.00 126.00 C 186.00 125.40, 185.60 127.00, 187.00 126.00 C 188.40 125.00, 191.00 122.80, 192.00 121.00 C 193.00 119.20, 192.40 118.80, 192.00 117.00 C 191.60 115.20, 191.20 113.60, 190.00 112.00 C 188.80 110.40, 186.80 110.20, 186.00 109.00 C 185.20 107.80, 186.40 107.40, 186.00 106.00 C 185.60 104.60, 184.80 102.80, 184.00 102.00 Z M 171.00 113.00 C 170.20 113.60, 170.40 112.80, 170.00 113.00 C 169.60 113.20, 169.20 113.20, 169.00 114.00 C 168.80 114.80, 168.80 116.20, 169.00 117.00 C 169.20 117.80, 169.20 117.80, 170.00 118.00 C 170.80 118.20, 172.20 118.20, 173.00 118.00 C 173.80 117.80, 173.80 117.40, 174.00 117.00 C 174.20 116.60, 173.80 116.40, 174.00 116.00 C 174.20 115.60, 174.80 116.00, 175.00 115.00 C 175.20 114.00, 175.20 112.00, 175.00 111.00 C 174.80 110.00, 174.80 109.60, 174.00 110.00 C 173.20 110.40, 171.80 112.40, 171.00 113.00 Z" fill="#F1EBE5" stroke="none" fill-rule="evenodd" />
</svg>