<svg xmlns="http://www.w3.org/2000/svg" width="662" height="532" viewBox="0 0 662 532">
<!-- Generated by apx-clsct -->
  <rect width="662" height="532" fill="none" />
  <path d="M 267.00 120.00 C 258.80 110.60, 226.00 119.60, 215.00 121.00 C 204.00 122.40, 225.60 124.80, 212.00 127.00 C 198.40 129.20, 161.40 122.80, 147.00 132.00 C 132.60 141.20, 134.40 164.60, 140.00 173.00 C 145.60 181.40, 166.60 153.40, 175.00 174.00 C 183.40 194.60, 172.20 256.20, 182.00 276.00 C 191.80 295.80, 216.60 293.40, 224.00 273.00 C 231.40 252.60, 219.40 194.60, 219.00 174.00 C 218.60 153.40, 214.60 171.20, 222.00 170.00 C 229.40 168.80, 247.00 178.00, 256.00 168.00 C 265.00 158.00, 275.20 129.40, 267.00 120.00 Z" fill="#EE1717" stroke="none" fill-rule="evenodd" />
  <path d="M 642.00 108.00 C 637.60 94.60, 620.20 96.80, 602.00 95.00 C 583.80 93.20, 567.40 94.20, 551.00 99.00 C 534.60 103.80, 528.20 109.00, 520.00 119.00 C 511.80 129.00, 517.60 147.40, 510.00 149.00 C 502.40 150.60, 504.20 132.20, 482.00 127.00 C 459.80 121.80, 417.60 116.60, 399.00 123.00 C 380.40 129.40, 389.20 150.00, 389.00 159.00 C 388.80 168.00, 397.00 153.20, 398.00 168.00 C 399.00 182.80, 401.20 242.80, 394.00 233.00 C 386.80 223.20, 385.60 141.80, 362.00 119.00 C 338.40 96.20, 295.20 110.40, 276.00 119.00 C 256.80 127.60, 265.40 153.00, 266.00 162.00 C 266.60 171.00, 282.20 141.20, 279.00 164.00 C 275.80 186.80, 245.80 253.80, 250.00 276.00 C 254.20 298.20, 288.20 279.40, 300.00 275.00 C 311.80 270.60, 299.80 258.20, 309.00 254.00 C 318.20 249.80, 336.60 249.60, 346.00 254.00 C 355.40 258.40, 337.20 271.60, 356.00 276.00 C 374.80 280.40, 422.80 284.40, 440.00 276.00 C 457.20 267.60, 438.20 233.80, 442.00 234.00 C 445.80 234.20, 427.40 267.00, 459.00 277.00 C 490.60 287.00, 565.00 289.40, 600.00 284.00 C 635.00 278.60, 626.80 265.40, 634.00 250.00 C 641.20 234.60, 648.60 227.00, 636.00 207.00 C 623.40 187.00, 573.40 159.00, 571.00 150.00 C 568.60 141.00, 609.80 170.40, 624.00 162.00 C 638.20 153.60, 646.40 121.40, 642.00 108.00 Z M 501.00 249.00 C 502.80 253.20, 500.00 253.00, 501.00 255.00 C 502.00 257.00, 502.40 266.80, 506.00 259.00 C 509.60 251.20, 514.40 224.20, 519.00 216.00 C 523.60 207.80, 522.60 215.00, 529.00 218.00 C 535.40 221.00, 544.60 228.00, 551.00 231.00 C 557.40 234.00, 556.40 232.60, 561.00 233.00 C 565.60 233.40, 570.40 234.00, 574.00 233.00 C 577.60 232.00, 578.00 229.80, 579.00 228.00 C 580.00 226.20, 580.80 226.80, 579.00 224.00 C 577.20 221.20, 573.00 216.00, 570.00 214.00 C 567.00 212.00, 565.60 214.60, 564.00 214.00 C 562.40 213.40, 563.80 211.80, 562.00 211.00 C 560.20 210.20, 560.60 212.20, 555.00 210.00 C 549.40 207.80, 539.00 203.20, 534.00 200.00 C 529.00 196.80, 531.80 195.40, 530.00 194.00 C 528.20 192.60, 527.60 195.00, 525.00 193.00 C 522.40 191.00, 519.20 181.60, 517.00 184.00 C 514.80 186.40, 515.60 199.80, 514.00 205.00 C 512.40 210.20, 510.60 207.40, 509.00 210.00 C 507.40 212.60, 507.60 216.00, 506.00 218.00 C 504.40 220.00, 502.20 218.80, 501.00 220.00 C 499.80 221.20, 501.80 222.00, 500.00 224.00 C 498.20 226.00, 493.60 228.00, 492.00 230.00 C 490.40 232.00, 490.20 230.20, 492.00 234.00 C 493.80 237.80, 499.20 244.80, 501.00 249.00 Z M 326.00 171.00 C 325.80 173.20, 326.40 178.40, 326.00 181.00 C 325.60 183.60, 324.40 182.80, 324.00 184.00 C 323.60 185.20, 324.40 185.60, 324.00 187.00 C 323.60 188.40, 322.40 189.40, 322.00 191.00 C 321.60 192.60, 322.40 193.60, 322.00 195.00 C 321.60 196.40, 320.40 196.60, 320.00 198.00 C 319.60 199.40, 320.60 200.80, 320.00 202.00 C 319.40 203.20, 317.60 202.20, 317.00 204.00 C 316.40 205.80, 316.60 209.20, 317.00 211.00 C 317.40 212.80, 314.80 212.60, 319.00 213.00 C 323.20 213.40, 334.00 213.20, 338.00 213.00 C 342.00 212.80, 338.80 213.60, 339.00 212.00 C 339.20 210.40, 339.20 206.60, 339.00 205.00 C 338.80 203.40, 338.20 205.20, 338.00 204.00 C 337.80 202.80, 338.20 200.20, 338.00 199.00 C 337.80 197.80, 337.20 198.60, 337.00 198.00 C 336.80 197.40, 337.40 196.60, 337.00 196.00 C 336.60 195.40, 335.40 196.80, 335.00 195.00 C 334.60 193.20, 335.20 188.80, 335.00 187.00 C 334.80 185.20, 334.20 187.00, 334.00 186.00 C 333.80 185.00, 334.40 183.40, 334.00 182.00 C 333.60 180.60, 332.40 180.60, 332.00 179.00 C 331.60 177.40, 332.60 175.80, 332.00 174.00 C 331.40 172.20, 330.00 170.80, 329.00 170.00 C 328.00 169.20, 327.60 169.80, 327.00 170.00 C 326.40 170.20, 326.20 168.80, 326.00 171.00 Z M 438.00 169.00 C 437.60 174.80, 437.60 189.40, 438.00 195.00 C 438.40 200.60, 436.80 196.60, 440.00 197.00 C 443.20 197.40, 451.00 197.20, 454.00 197.00 C 457.00 196.80, 454.20 196.20, 455.00 196.00 C 455.80 195.80, 456.40 196.80, 458.00 196.00 C 459.60 195.20, 461.60 193.60, 463.00 192.00 C 464.40 190.40, 464.20 189.00, 465.00 188.00 C 465.80 187.00, 466.60 188.60, 467.00 187.00 C 467.40 185.40, 466.80 181.80, 467.00 180.00 C 467.20 178.20, 468.20 178.80, 468.00 178.00 C 467.80 177.20, 466.40 176.80, 466.00 176.00 C 465.60 175.20, 467.40 175.60, 466.00 174.00 C 464.60 172.40, 461.20 169.40, 459.00 168.00 C 456.80 166.60, 456.20 167.60, 455.00 167.00 C 453.80 166.40, 456.00 165.20, 453.00 165.00 C 450.00 164.80, 443.00 165.20, 440.00 166.00 C 437.00 166.80, 438.40 163.20, 438.00 169.00 Z" fill="#EE1717" stroke="none" fill-rule="evenodd" />
  <path d="M 149.00 91.00 C 141.00 78.00, 106.40 83.20, 95.00 83.00 C 83.60 82.80, 101.60 87.60, 92.00 90.00 C 82.40 92.40, 60.80 90.00, 47.00 95.00 C 33.20 100.00, 29.40 107.20, 23.00 115.00 C 16.60 122.80, 16.60 124.40, 15.00 134.00 C 13.40 143.60, 13.20 153.00, 15.00 163.00 C 16.80 173.00, 19.60 177.40, 24.00 184.00 C 28.40 190.60, 22.40 188.60, 37.00 196.00 C 51.60 203.40, 88.20 213.60, 97.00 221.00 C 105.80 228.40, 93.60 232.80, 81.00 233.00 C 68.40 233.20, 45.40 213.40, 34.00 222.00 C 22.60 230.60, 19.00 262.80, 24.00 276.00 C 29.00 289.20, 43.60 285.60, 59.00 288.00 C 74.40 290.40, 87.80 289.60, 101.00 288.00 C 114.20 286.40, 116.00 285.00, 125.00 280.00 C 134.00 275.00, 139.40 273.00, 146.00 263.00 C 152.60 253.00, 157.60 245.00, 158.00 230.00 C 158.40 215.00, 154.00 199.80, 148.00 188.00 C 142.00 176.20, 141.40 177.40, 128.00 171.00 C 114.60 164.60, 91.00 161.00, 81.00 156.00 C 71.00 151.00, 73.80 149.20, 78.00 146.00 C 82.20 142.80, 90.60 139.60, 102.00 140.00 C 113.40 140.40, 125.60 157.80, 135.00 148.00 C 144.40 138.20, 157.00 104.00, 149.00 91.00 Z" fill="#EE1717" stroke="none" fill-rule="evenodd" />
  <path d="M 320.00 339.00 C 319.40 338.40, 319.60 339.60, 319.00 339.00 C 318.40 338.40, 318.00 337.00, 317.00 336.00 C 316.00 335.00, 317.20 334.20, 314.00 334.00 C 310.80 333.80, 303.80 334.60, 301.00 335.00 C 298.20 335.40, 300.60 335.80, 300.00 336.00 C 299.40 336.20, 298.60 335.60, 298.00 336.00 C 297.40 336.40, 297.80 337.60, 297.00 338.00 C 296.20 338.40, 296.00 337.00, 294.00 338.00 C 292.00 339.00, 289.40 340.00, 287.00 343.00 C 284.60 346.00, 283.00 349.60, 282.00 353.00 C 281.00 356.40, 281.40 358.20, 282.00 360.00 C 282.60 361.80, 283.80 360.80, 285.00 362.00 C 286.20 363.20, 284.40 365.20, 288.00 366.00 C 291.60 366.80, 299.80 366.40, 303.00 366.00 C 306.20 365.60, 303.00 364.40, 304.00 364.00 C 305.00 363.60, 306.80 364.20, 308.00 364.00 C 309.20 363.80, 308.80 364.00, 310.00 363.00 C 311.20 362.00, 313.00 359.80, 314.00 359.00 C 315.00 358.20, 314.40 359.40, 315.00 359.00 C 315.60 358.60, 316.60 357.80, 317.00 357.00 C 317.40 356.20, 316.40 355.80, 317.00 355.00 C 317.60 354.20, 319.40 354.40, 320.00 353.00 C 320.60 351.60, 319.60 349.40, 320.00 348.00 C 320.40 346.60, 321.60 347.20, 322.00 346.00 C 322.40 344.80, 322.40 343.40, 322.00 342.00 C 321.60 340.60, 320.60 339.60, 320.00 339.00 Z" fill="#FEFEFE" stroke="none" fill-rule="evenodd" />
  <path d="M 463.00 311.00 C 459.80 308.40, 457.00 311.20, 452.00 313.00 C 447.00 314.80, 444.40 306.20, 438.00 320.00 C 431.60 333.80, 420.20 357.80, 420.00 382.00 C 419.80 406.20, 432.40 429.40, 437.00 441.00 C 441.60 452.60, 440.00 441.80, 443.00 440.00 C 446.00 438.20, 448.80 435.60, 452.00 432.00 C 455.20 428.40, 456.40 427.20, 459.00 422.00 C 461.60 416.80, 463.40 414.40, 465.00 406.00 C 466.60 397.60, 469.20 385.40, 467.00 380.00 C 464.80 374.60, 454.80 381.80, 454.00 379.00 C 453.20 376.20, 460.20 371.60, 463.00 366.00 C 465.80 360.40, 467.00 359.00, 468.00 351.00 C 469.00 343.00, 469.00 334.00, 468.00 326.00 C 467.00 318.00, 466.20 313.60, 463.00 311.00 Z" fill="#FEFEFE" stroke="none" fill-rule="evenodd" />
  <path d="M 190.00 311.00 C 187.80 314.00, 186.80 318.00, 186.00 326.00 C 185.20 334.00, 184.60 342.20, 186.00 351.00 C 187.40 359.80, 189.80 364.40, 193.00 370.00 C 196.20 375.60, 203.00 377.20, 202.00 379.00 C 201.00 380.80, 190.60 373.80, 188.00 379.00 C 185.40 384.20, 187.80 396.80, 189.00 405.00 C 190.20 413.20, 191.00 414.20, 194.00 420.00 C 197.00 425.80, 201.20 431.00, 204.00 434.00 C 206.80 437.00, 206.60 433.80, 208.00 435.00 C 209.40 436.20, 209.00 438.80, 211.00 440.00 C 213.00 441.20, 213.40 452.80, 218.00 441.00 C 222.60 429.20, 234.60 405.40, 234.00 381.00 C 233.40 356.60, 222.40 333.00, 215.00 319.00 C 207.60 305.00, 202.00 312.60, 197.00 311.00 C 192.00 309.40, 192.20 308.00, 190.00 311.00 Z" fill="#FEFEFE" stroke="none" fill-rule="evenodd" />
  <path d="M 326.00 272.00 C 324.40 264.00, 321.60 271.60, 319.00 273.00 C 316.40 274.40, 314.20 277.20, 313.00 279.00 C 311.80 280.80, 314.20 280.80, 313.00 282.00 C 311.80 283.20, 308.40 283.40, 307.00 285.00 C 305.60 286.60, 307.40 288.60, 306.00 290.00 C 304.60 291.40, 301.20 291.00, 300.00 292.00 C 298.80 293.00, 301.60 293.20, 300.00 295.00 C 298.40 296.80, 294.20 298.60, 292.00 301.00 C 289.80 303.40, 291.00 305.00, 289.00 307.00 C 287.00 309.00, 294.00 307.80, 282.00 311.00 C 270.00 314.20, 239.60 319.60, 229.00 323.00 C 218.40 326.40, 227.60 326.00, 229.00 328.00 C 230.40 330.00, 233.60 332.00, 236.00 333.00 C 238.40 334.00, 237.80 331.20, 241.00 333.00 C 244.20 334.80, 247.00 339.20, 252.00 342.00 C 257.00 344.80, 260.60 349.00, 266.00 347.00 C 271.40 345.00, 274.20 336.60, 279.00 332.00 C 283.80 327.40, 283.80 327.40, 290.00 324.00 C 296.20 320.60, 302.60 317.20, 310.00 315.00 C 317.40 312.80, 323.80 321.60, 327.00 313.00 C 330.20 304.40, 327.60 280.00, 326.00 272.00 Z" fill="#FEFEFE" stroke="none" fill-rule="evenodd" />
  <path d="M 477.00 15.00 C 470.60 20.00, 472.80 35.40, 473.00 41.00 C 473.20 46.60, 477.80 31.60, 478.00 43.00 C 478.20 54.40, 465.40 86.20, 474.00 98.00 C 482.60 109.80, 510.20 105.40, 521.00 102.00 C 531.80 98.60, 526.60 86.40, 528.00 81.00 C 529.40 75.60, 533.00 76.80, 528.00 75.00 C 523.00 73.20, 507.20 83.40, 503.00 72.00 C 498.80 60.60, 506.60 29.20, 507.00 18.00 C 507.40 6.80, 511.00 16.60, 505.00 16.00 C 499.00 15.40, 483.40 10.00, 477.00 15.00 Z" fill="#FEFEFE" stroke="none" fill-rule="evenodd" />
  <path d="M 474.00 11.00 C 470.20 -5.80, 449.80 7.20, 442.00 13.00 C 434.20 18.80, 438.40 39.60, 435.00 40.00 C 431.60 40.40, 432.20 19.60, 425.00 15.00 C 417.80 10.40, 405.40 11.40, 399.00 17.00 C 392.60 22.60, 396.00 42.80, 393.00 43.00 C 390.00 43.20, 392.40 22.60, 384.00 18.00 C 375.60 13.40, 352.40 3.00, 351.00 20.00 C 349.60 37.00, 365.00 86.80, 377.00 103.00 C 389.00 119.20, 403.00 106.80, 411.00 101.00 C 419.00 95.20, 414.00 74.40, 417.00 74.00 C 420.00 73.60, 417.20 94.40, 426.00 99.00 C 434.80 103.60, 451.40 114.60, 461.00 97.00 C 470.60 79.40, 477.80 27.80, 474.00 11.00 Z" fill="#FEFEFE" stroke="none" fill-rule="evenodd" />
  <path d="M 341.00 9.00 C 325.80 -7.20, 302.40 7.40, 292.00 13.00 C 281.60 18.60, 288.20 31.80, 289.00 37.00 C 289.80 42.20, 297.00 28.20, 296.00 39.00 C 295.00 49.80, 288.40 84.80, 284.00 91.00 C 279.60 97.20, 273.60 77.60, 274.00 70.00 C 274.40 62.40, 283.60 60.60, 286.00 53.00 C 288.40 45.40, 289.00 39.80, 286.00 32.00 C 283.00 24.20, 283.80 18.40, 271.00 14.00 C 258.20 9.60, 233.00 6.40, 222.00 10.00 C 211.00 13.60, 216.60 20.40, 216.00 32.00 C 215.40 43.60, 220.80 64.00, 219.00 68.00 C 217.20 72.00, 208.20 59.00, 207.00 52.00 C 205.80 45.00, 213.80 40.20, 213.00 33.00 C 212.20 25.80, 216.00 18.60, 203.00 16.00 C 190.00 13.40, 159.40 14.20, 148.00 20.00 C 136.60 25.80, 144.00 28.40, 146.00 45.00 C 148.00 61.60, 146.80 92.40, 158.00 103.00 C 169.20 113.60, 190.00 101.60, 202.00 98.00 C 214.00 94.40, 214.60 85.60, 218.00 85.00 C 221.40 84.40, 213.60 92.80, 219.00 95.00 C 224.40 97.20, 239.40 99.20, 245.00 96.00 C 250.60 92.80, 245.40 79.20, 247.00 79.00 C 248.60 78.80, 240.00 91.20, 253.00 95.00 C 266.00 98.80, 299.00 100.00, 312.00 98.00 C 325.00 96.00, 313.20 87.80, 318.00 85.00 C 322.80 82.20, 331.80 82.00, 336.00 84.00 C 340.20 86.00, 332.60 93.00, 339.00 95.00 C 345.40 97.00, 367.60 111.20, 368.00 94.00 C 368.40 76.80, 356.20 25.20, 341.00 9.00 Z M 183.00 68.00 C 182.20 68.20, 180.80 67.80, 180.00 68.00 C 179.20 68.20, 179.20 68.20, 179.00 69.00 C 178.80 69.80, 178.80 71.20, 179.00 72.00 C 179.20 72.80, 179.80 71.60, 180.00 73.00 C 180.20 74.40, 179.80 77.60, 180.00 79.00 C 180.20 80.40, 180.00 79.80, 181.00 80.00 C 182.00 80.20, 184.00 80.20, 185.00 80.00 C 186.00 79.80, 185.60 79.20, 186.00 79.00 C 186.40 78.80, 186.00 79.80, 187.00 79.00 C 188.00 78.20, 190.20 76.40, 191.00 75.00 C 191.80 73.60, 191.80 73.40, 191.00 72.00 C 190.20 70.60, 188.20 68.80, 187.00 68.00 C 185.80 67.20, 185.60 68.20, 185.00 68.00 C 184.40 67.80, 184.40 67.00, 184.00 67.00 C 183.60 67.00, 183.80 67.80, 183.00 68.00 Z M 322.00 48.00 C 321.60 49.20, 322.20 51.00, 322.00 52.00 C 321.80 53.00, 321.20 51.80, 321.00 53.00 C 320.80 54.20, 321.20 56.80, 321.00 58.00 C 320.80 59.20, 320.20 58.60, 320.00 59.00 C 319.80 59.40, 319.80 59.60, 320.00 60.00 C 320.20 60.40, 319.40 60.80, 321.00 61.00 C 322.60 61.20, 326.40 61.20, 328.00 61.00 C 329.60 60.80, 329.00 60.40, 329.00 60.00 C 329.00 59.60, 328.20 59.60, 328.00 59.00 C 327.80 58.40, 328.20 57.60, 328.00 57.00 C 327.80 56.40, 327.20 56.60, 327.00 56.00 C 326.80 55.40, 327.20 54.60, 327.00 54.00 C 326.80 53.40, 326.20 53.60, 326.00 53.00 C 325.80 52.40, 326.20 51.60, 326.00 51.00 C 325.80 50.40, 325.20 50.80, 325.00 50.00 C 324.80 49.20, 325.20 47.80, 325.00 47.00 C 324.80 46.20, 324.60 45.80, 324.00 46.00 C 323.40 46.20, 322.40 46.80, 322.00 48.00 Z M 176.00 47.00 C 176.20 48.60, 175.80 47.80, 177.00 48.00 C 178.20 48.20, 180.60 48.40, 182.00 48.00 C 183.40 47.60, 183.60 46.60, 184.00 46.00 C 184.40 45.40, 183.80 45.40, 184.00 45.00 C 184.20 44.60, 185.00 44.40, 185.00 44.00 C 185.00 43.60, 184.20 43.60, 184.00 43.00 C 183.80 42.40, 184.20 41.60, 184.00 41.00 C 183.80 40.40, 183.60 40.20, 183.00 40.00 C 182.40 39.80, 181.60 40.20, 181.00 40.00 C 180.40 39.80, 180.80 39.20, 180.00 39.00 C 179.20 38.80, 177.80 38.80, 177.00 39.00 C 176.20 39.20, 176.20 38.40, 176.00 40.00 C 175.80 41.60, 175.80 45.40, 176.00 47.00 Z M 248.00 38.00 C 247.80 38.60, 248.20 39.40, 248.00 40.00 C 247.80 40.60, 247.20 39.20, 247.00 41.00 C 246.80 42.80, 246.80 47.20, 247.00 49.00 C 247.20 50.80, 246.20 49.80, 248.00 50.00 C 249.80 50.20, 254.20 50.20, 256.00 50.00 C 257.80 49.80, 256.80 49.40, 257.00 49.00 C 257.20 48.60, 256.80 48.20, 257.00 48.00 C 257.20 47.80, 257.60 48.20, 258.00 48.00 C 258.40 47.80, 258.80 47.60, 259.00 47.00 C 259.20 46.40, 258.80 45.60, 259.00 45.00 C 259.20 44.40, 259.80 44.40, 260.00 44.00 C 260.20 43.60, 260.40 43.60, 260.00 43.00 C 259.60 42.40, 258.40 41.60, 258.00 41.00 C 257.60 40.40, 258.20 40.40, 258.00 40.00 C 257.80 39.60, 257.40 39.20, 257.00 39.00 C 256.60 38.80, 256.40 39.20, 256.00 39.00 C 255.60 38.80, 255.40 38.20, 255.00 38.00 C 254.60 37.80, 254.40 38.20, 254.00 38.00 C 253.60 37.80, 254.00 37.20, 253.00 37.00 C 252.00 36.80, 250.00 36.80, 249.00 37.00 C 248.00 37.20, 248.20 37.40, 248.00 38.00 Z" fill="#FEFEFE" stroke="none" fill-rule="evenodd" />
  <path d="M 0.00 0.00 C -132.20 28.00, -9.60 123.60, 0.00 140.00 C 9.60 156.40, 18.80 94.40, 48.00 82.00 C 77.20 69.60, 127.00 92.00, 146.00 78.00 C 165.00 64.00, 75.80 27.00, 143.00 12.00 C 210.20 -3.00, 407.60 3.20, 482.00 3.00 C 556.40 2.80, 505.00 -6.80, 515.00 11.00 C 525.00 28.80, 503.40 74.40, 532.00 92.00 C 560.60 109.60, 641.80 56.60, 658.00 99.00 C 674.20 141.40, 649.60 258.20, 613.00 304.00 C 576.40 349.80, 504.80 303.80, 475.00 328.00 C 445.20 352.20, 493.20 385.00, 464.00 425.00 C 434.80 465.00, 382.60 526.40, 329.00 528.00 C 275.40 529.60, 225.80 479.00, 196.00 433.00 C 166.20 387.00, 196.20 317.60, 180.00 298.00 C 163.80 278.40, 143.80 331.20, 115.00 335.00 C 86.20 338.80, 59.00 352.80, 36.00 317.00 C 13.00 281.20, 7.20 113.20, 0.00 156.00 C -7.20 198.80, -132.20 456.00, 0.00 531.00 C 132.20 606.00, 528.80 637.20, 661.00 531.00 C 793.20 424.80, 793.20 106.20, 661.00 0.00 C 528.80 -106.20, 132.20 -28.00, 0.00 0.00 Z" fill="#FEFEFE" stroke="none" fill-rule="evenodd" />
  <path d="M 516.00 8.00 C 441.20 -2.60, 213.40 -3.40, 139.00 10.00 C 64.60 23.40, 155.00 63.60, 144.00 75.00 C 133.00 86.40, 111.60 59.20, 84.00 67.00 C 56.40 74.80, 18.60 86.00, 6.00 114.00 C -6.60 142.00, 20.60 172.60, 21.00 207.00 C 21.40 241.40, 5.00 263.20, 8.00 286.00 C 11.00 308.80, 20.40 310.80, 36.00 321.00 C 51.60 331.20, 64.20 335.20, 86.00 337.00 C 107.80 338.80, 126.80 337.60, 145.00 330.00 C 163.20 322.40, 167.40 278.20, 177.00 299.00 C 186.60 319.80, 190.40 417.20, 193.00 434.00 C 195.60 450.80, 187.40 394.00, 190.00 383.00 C 192.60 372.00, 206.40 390.00, 206.00 379.00 C 205.60 368.00, 187.00 340.00, 188.00 328.00 C 189.00 316.00, 202.20 307.80, 211.00 319.00 C 219.80 330.20, 233.80 359.20, 232.00 384.00 C 230.20 408.80, 184.20 414.40, 202.00 443.00 C 219.80 471.60, 276.20 520.40, 321.00 527.00 C 365.80 533.60, 395.80 498.80, 426.00 476.00 C 456.20 453.20, 461.80 442.00, 472.00 413.00 C 482.20 384.00, 455.00 347.20, 477.00 331.00 C 499.00 314.80, 547.20 349.00, 582.00 332.00 C 616.80 315.00, 640.60 276.80, 651.00 246.00 C 661.40 215.20, 632.00 208.00, 634.00 178.00 C 636.00 148.00, 669.60 116.20, 661.00 96.00 C 652.40 75.80, 616.00 78.40, 591.00 77.00 C 566.00 75.60, 546.20 91.20, 536.00 89.00 C 525.80 86.80, 544.60 71.20, 540.00 66.00 C 535.40 60.80, 517.80 74.60, 513.00 63.00 C 508.20 51.40, 590.80 18.60, 516.00 8.00 Z M 449.00 316.00 C 444.60 318.20, 441.00 321.20, 439.00 324.00 C 437.00 326.80, 442.20 318.40, 439.00 330.00 C 435.80 341.60, 423.80 362.20, 423.00 382.00 C 422.20 401.80, 431.60 417.60, 435.00 429.00 C 438.40 440.40, 436.20 440.00, 440.00 439.00 C 443.80 438.00, 449.20 432.40, 454.00 424.00 C 458.80 415.60, 462.00 405.20, 464.00 397.00 C 466.00 388.80, 466.60 386.20, 464.00 383.00 C 461.40 379.80, 453.60 382.40, 451.00 381.00 C 448.40 379.60, 449.40 378.40, 451.00 376.00 C 452.60 373.60, 456.20 373.20, 459.00 369.00 C 461.80 364.80, 463.60 362.80, 465.00 355.00 C 466.40 347.20, 466.80 338.40, 466.00 330.00 C 465.20 321.60, 464.40 315.80, 461.00 313.00 C 457.60 310.20, 453.40 313.80, 449.00 316.00 Z M 286.00 313.00 C 266.20 324.60, 234.80 313.00, 226.00 327.00 C 217.20 341.00, 241.80 360.00, 242.00 383.00 C 242.20 406.00, 217.60 427.00, 227.00 442.00 C 236.40 457.00, 268.40 446.60, 289.00 458.00 C 309.60 469.40, 314.40 499.40, 330.00 499.00 C 345.60 498.60, 347.60 467.20, 367.00 456.00 C 386.40 444.80, 418.00 458.20, 427.00 443.00 C 436.00 427.80, 411.80 403.60, 412.00 380.00 C 412.20 356.40, 437.00 338.80, 428.00 325.00 C 419.00 311.20, 387.60 322.20, 367.00 311.00 C 346.40 299.80, 341.20 268.60, 325.00 269.00 C 308.80 269.40, 305.80 301.40, 286.00 313.00 Z M 351.00 378.00 C 352.60 377.60, 350.00 376.40, 352.00 376.00 C 354.00 375.60, 359.00 375.40, 361.00 376.00 C 363.00 376.60, 361.20 377.80, 362.00 379.00 C 362.80 380.20, 363.60 381.40, 365.00 382.00 C 366.40 382.60, 368.20 381.60, 369.00 382.00 C 369.80 382.40, 368.60 383.00, 369.00 384.00 C 369.40 385.00, 370.60 383.80, 371.00 387.00 C 371.40 390.20, 371.60 396.20, 371.00 400.00 C 370.40 403.80, 369.00 404.80, 368.00 406.00 C 367.00 407.20, 366.80 405.60, 366.00 406.00 C 365.20 406.40, 365.60 407.60, 364.00 408.00 C 362.40 408.40, 359.80 407.60, 358.00 408.00 C 356.20 408.40, 356.40 409.60, 355.00 410.00 C 353.60 410.40, 353.00 411.00, 351.00 410.00 C 349.00 409.00, 346.40 406.40, 345.00 405.00 C 343.60 403.60, 344.60 403.40, 344.00 403.00 C 343.40 402.60, 342.60 403.20, 342.00 403.00 C 341.40 402.80, 341.20 402.60, 341.00 402.00 C 340.80 401.40, 341.20 400.60, 341.00 400.00 C 340.80 399.40, 340.60 399.20, 340.00 399.00 C 339.40 398.80, 338.40 401.80, 338.00 399.00 C 337.60 396.20, 337.80 388.20, 338.00 385.00 C 338.20 381.80, 338.40 383.40, 339.00 383.00 C 339.60 382.60, 340.40 383.20, 341.00 383.00 C 341.60 382.80, 341.80 382.60, 342.00 382.00 C 342.20 381.40, 341.60 380.80, 342.00 380.00 C 342.40 379.20, 342.20 378.40, 344.00 378.00 C 345.80 377.60, 349.40 378.40, 351.00 378.00 Z M 306.00 375.00 C 308.40 375.40, 306.80 377.40, 308.00 378.00 C 309.20 378.60, 311.00 377.80, 312.00 378.00 C 313.00 378.20, 312.80 378.20, 313.00 379.00 C 313.20 379.80, 312.80 381.20, 313.00 382.00 C 313.20 382.80, 313.20 382.80, 314.00 383.00 C 314.80 383.20, 316.40 382.40, 317.00 383.00 C 317.60 383.60, 316.80 385.20, 317.00 386.00 C 317.20 386.80, 317.80 384.20, 318.00 387.00 C 318.20 389.80, 318.40 397.40, 318.00 400.00 C 317.60 402.60, 316.80 399.40, 316.00 400.00 C 315.20 400.60, 315.60 401.60, 314.00 403.00 C 312.40 404.40, 309.20 405.80, 308.00 407.00 C 306.80 408.20, 310.40 408.60, 308.00 409.00 C 305.60 409.40, 298.80 409.40, 296.00 409.00 C 293.20 408.60, 295.40 407.40, 294.00 407.00 C 292.60 406.60, 290.20 407.20, 289.00 407.00 C 287.80 406.80, 288.20 406.80, 288.00 406.00 C 287.80 405.20, 288.40 404.00, 288.00 403.00 C 287.60 402.00, 286.40 402.20, 286.00 401.00 C 285.60 399.80, 286.40 398.00, 286.00 397.00 C 285.60 396.00, 284.40 397.80, 284.00 396.00 C 283.60 394.20, 283.60 390.20, 284.00 388.00 C 284.40 385.80, 285.60 386.00, 286.00 385.00 C 286.40 384.00, 285.80 383.60, 286.00 383.00 C 286.20 382.40, 286.20 382.20, 287.00 382.00 C 287.80 381.80, 288.60 383.00, 290.00 382.00 C 291.40 381.00, 292.80 378.20, 294.00 377.00 C 295.20 375.80, 293.60 376.40, 296.00 376.00 C 298.40 375.60, 303.60 374.60, 306.00 375.00 Z M 351.00 315.00 C 364.40 318.40, 379.00 329.00, 371.00 331.00 C 363.00 333.00, 328.00 324.20, 311.00 325.00 C 294.00 325.80, 292.80 330.80, 286.00 335.00 C 279.20 339.20, 280.40 334.40, 277.00 346.00 C 273.60 357.60, 267.60 378.80, 269.00 393.00 C 270.40 407.20, 278.60 411.00, 284.00 417.00 C 289.40 423.00, 293.00 419.20, 296.00 423.00 C 299.00 426.80, 286.80 433.80, 299.00 436.00 C 311.20 438.20, 345.20 436.60, 357.00 434.00 C 368.80 431.40, 352.00 431.40, 358.00 423.00 C 364.00 414.60, 383.00 408.40, 387.00 392.00 C 391.00 375.60, 378.00 350.80, 378.00 341.00 C 378.00 331.20, 383.00 337.20, 387.00 343.00 C 391.00 348.80, 396.00 359.20, 398.00 370.00 C 400.00 380.80, 399.20 386.80, 397.00 397.00 C 394.80 407.20, 392.80 412.40, 387.00 421.00 C 381.20 429.60, 376.60 434.00, 368.00 440.00 C 359.40 446.00, 354.00 448.60, 344.00 451.00 C 334.00 453.40, 329.40 454.00, 318.00 452.00 C 306.60 450.00, 296.60 446.20, 287.00 441.00 C 277.40 435.80, 276.20 435.20, 270.00 426.00 C 263.80 416.80, 257.00 411.40, 256.00 395.00 C 255.00 378.60, 255.40 360.20, 265.00 344.00 C 274.60 327.80, 286.80 319.80, 304.00 314.00 C 321.20 308.20, 337.60 311.60, 351.00 315.00 Z M 40.00 202.00 C 56.60 218.00, 97.60 215.80, 96.00 220.00 C 94.40 224.20, 46.40 212.20, 32.00 223.00 C 17.60 233.80, 11.60 260.20, 24.00 274.00 C 36.40 287.80, 69.80 294.40, 94.00 292.00 C 118.20 289.60, 133.20 285.80, 145.00 262.00 C 156.80 238.20, 147.20 190.80, 153.00 173.00 C 158.80 155.20, 168.80 152.20, 174.00 173.00 C 179.20 193.80, 169.00 256.60, 179.00 277.00 C 189.00 297.40, 216.00 296.00, 224.00 275.00 C 232.00 254.00, 211.60 195.40, 219.00 172.00 C 226.40 148.60, 249.20 158.40, 261.00 158.00 C 272.80 157.60, 280.00 146.40, 278.00 170.00 C 276.00 193.60, 237.40 259.40, 251.00 276.00 C 264.60 292.60, 324.80 252.60, 346.00 253.00 C 367.20 253.40, 338.80 273.20, 357.00 278.00 C 375.20 282.80, 419.20 284.00, 437.00 277.00 C 454.80 270.00, 441.00 242.60, 446.00 243.00 C 451.00 243.40, 435.60 269.60, 462.00 279.00 C 488.40 288.40, 543.00 298.20, 578.00 290.00 C 613.00 281.80, 625.60 256.20, 637.00 238.00 C 648.40 219.80, 648.20 214.80, 635.00 199.00 C 621.80 183.20, 573.00 166.40, 571.00 159.00 C 569.00 151.60, 610.80 172.20, 625.00 162.00 C 639.20 151.80, 647.40 121.80, 642.00 108.00 C 636.60 94.20, 619.60 93.40, 598.00 93.00 C 576.40 92.60, 551.40 95.40, 534.00 106.00 C 516.60 116.60, 537.80 142.80, 511.00 146.00 C 484.20 149.20, 423.20 109.40, 400.00 122.00 C 376.80 134.60, 402.60 209.80, 395.00 209.00 C 387.40 208.20, 411.20 134.00, 362.00 118.00 C 312.80 102.00, 195.00 117.60, 149.00 129.00 C 103.00 140.40, 146.40 170.40, 132.00 175.00 C 117.60 179.60, 76.40 157.60, 77.00 152.00 C 77.60 146.40, 120.60 159.00, 135.00 147.00 C 149.40 135.00, 156.00 104.80, 149.00 92.00 C 142.00 79.20, 119.40 83.00, 100.00 83.00 C 80.60 83.00, 69.40 80.60, 52.00 92.00 C 34.60 103.40, 15.40 118.00, 13.00 140.00 C 10.60 162.00, 23.40 186.00, 40.00 202.00 Z M 498.00 226.00 C 500.00 224.20, 500.40 221.20, 502.00 220.00 C 503.60 218.80, 504.60 220.60, 506.00 220.00 C 507.40 219.40, 508.40 218.80, 509.00 217.00 C 509.60 215.20, 508.20 213.40, 509.00 211.00 C 509.80 208.60, 512.20 207.00, 513.00 205.00 C 513.80 203.00, 510.80 203.20, 513.00 201.00 C 515.20 198.80, 520.40 195.20, 524.00 194.00 C 527.60 192.80, 528.00 193.80, 531.00 195.00 C 534.00 196.20, 536.80 198.00, 539.00 200.00 C 541.20 202.00, 540.40 204.00, 542.00 205.00 C 543.60 206.00, 544.40 204.00, 547.00 205.00 C 549.60 206.00, 550.60 208.20, 555.00 210.00 C 559.40 211.80, 564.40 211.60, 569.00 214.00 C 573.60 216.40, 576.60 218.20, 578.00 222.00 C 579.40 225.80, 579.80 230.80, 576.00 233.00 C 572.20 235.20, 564.20 233.40, 559.00 233.00 C 553.80 232.60, 552.20 232.00, 550.00 231.00 C 547.80 230.00, 549.40 228.60, 548.00 228.00 C 546.60 227.40, 547.80 230.40, 543.00 228.00 C 538.20 225.60, 528.40 218.40, 524.00 216.00 C 519.60 213.60, 522.60 214.00, 521.00 216.00 C 519.40 218.00, 518.60 218.60, 516.00 226.00 C 513.40 233.40, 510.40 247.60, 508.00 253.00 C 505.60 258.40, 504.80 254.00, 504.00 253.00 C 503.20 252.00, 505.40 249.60, 504.00 248.00 C 502.60 246.40, 499.40 248.80, 497.00 245.00 C 494.60 241.20, 491.80 232.80, 492.00 229.00 C 492.20 225.20, 496.00 227.80, 498.00 226.00 Z M 331.00 173.00 C 331.80 173.60, 330.80 175.20, 331.00 176.00 C 331.20 176.80, 331.80 175.40, 332.00 177.00 C 332.20 178.60, 331.60 182.40, 332.00 184.00 C 332.40 185.60, 333.60 183.60, 334.00 185.00 C 334.40 186.40, 333.60 189.60, 334.00 191.00 C 334.40 192.40, 335.60 191.00, 336.00 192.00 C 336.40 193.00, 335.60 194.20, 336.00 196.00 C 336.40 197.80, 337.40 197.80, 338.00 201.00 C 338.60 204.20, 343.00 209.80, 339.00 212.00 C 335.00 214.20, 322.40 212.20, 318.00 212.00 C 313.60 211.80, 317.20 212.00, 317.00 211.00 C 316.80 210.00, 316.60 208.20, 317.00 207.00 C 317.40 205.80, 318.60 206.20, 319.00 205.00 C 319.40 203.80, 318.60 202.60, 319.00 201.00 C 319.40 199.40, 320.40 199.20, 321.00 197.00 C 321.60 194.80, 321.60 191.60, 322.00 190.00 C 322.40 188.40, 322.80 189.60, 323.00 189.00 C 323.20 188.40, 322.60 187.60, 323.00 187.00 C 323.40 186.40, 324.60 187.80, 325.00 186.00 C 325.40 184.20, 324.60 180.60, 325.00 178.00 C 325.40 175.40, 325.80 174.00, 327.00 173.00 C 328.20 172.00, 330.20 172.40, 331.00 173.00 Z M 458.00 167.00 C 461.40 167.20, 459.60 167.40, 460.00 168.00 C 460.40 168.60, 459.80 169.40, 460.00 170.00 C 460.20 170.60, 460.20 170.80, 461.00 171.00 C 461.80 171.20, 462.80 169.60, 464.00 171.00 C 465.20 172.40, 466.40 175.20, 467.00 178.00 C 467.60 180.80, 467.60 182.80, 467.00 185.00 C 466.40 187.20, 464.60 187.60, 464.00 189.00 C 463.40 190.40, 464.60 191.20, 464.00 192.00 C 463.40 192.80, 462.00 192.20, 461.00 193.00 C 460.00 193.80, 463.40 195.40, 459.00 196.00 C 454.60 196.60, 443.00 201.00, 439.00 196.00 C 435.00 191.00, 438.40 176.00, 439.00 171.00 C 439.60 166.00, 441.20 171.20, 442.00 171.00 C 442.80 170.80, 442.80 170.80, 443.00 170.00 C 443.20 169.20, 440.00 167.60, 443.00 167.00 C 446.00 166.40, 454.60 166.80, 458.00 167.00 Z M 478.00 19.00 C 477.20 23.20, 475.60 34.00, 476.00 38.00 C 476.40 42.00, 479.20 35.80, 480.00 39.00 C 480.80 42.20, 480.80 42.60, 480.00 54.00 C 479.20 65.40, 468.40 86.80, 476.00 96.00 C 483.60 105.20, 509.00 100.20, 518.00 100.00 C 527.00 99.80, 519.60 99.40, 521.00 95.00 C 522.40 90.60, 524.80 81.80, 525.00 78.00 C 525.20 74.20, 526.40 76.60, 522.00 76.00 C 517.60 75.40, 507.20 75.60, 503.00 75.00 C 498.80 74.40, 500.80 84.00, 501.00 73.00 C 501.20 62.00, 504.40 31.00, 504.00 20.00 C 503.60 9.00, 503.80 18.60, 499.00 18.00 C 494.20 17.40, 484.20 16.80, 480.00 17.00 C 475.80 17.20, 478.80 14.80, 478.00 19.00 Z M 188.00 16.00 C 178.20 17.00, 158.00 16.80, 150.00 22.00 C 142.00 27.20, 147.40 37.80, 148.00 42.00 C 148.60 46.20, 151.20 36.60, 153.00 43.00 C 154.80 49.40, 156.40 66.40, 157.00 74.00 C 157.60 81.60, 155.80 79.40, 156.00 81.00 C 156.20 82.60, 157.80 79.40, 158.00 82.00 C 158.20 84.60, 156.60 90.40, 157.00 94.00 C 157.40 97.60, 150.60 99.80, 160.00 100.00 C 169.40 100.20, 193.80 96.60, 204.00 95.00 C 214.20 93.40, 209.40 93.60, 211.00 92.00 C 212.60 90.40, 211.20 88.40, 212.00 87.00 C 212.80 85.60, 214.00 88.00, 215.00 85.00 C 216.00 82.00, 217.20 76.60, 217.00 72.00 C 216.80 67.40, 216.60 65.40, 214.00 62.00 C 211.40 58.60, 206.00 57.40, 204.00 55.00 C 202.00 52.60, 202.80 52.80, 204.00 50.00 C 205.20 47.20, 208.80 45.00, 210.00 41.00 C 211.20 37.00, 210.40 33.20, 210.00 30.00 C 209.60 26.80, 210.20 27.60, 208.00 25.00 C 205.80 22.40, 203.00 18.80, 199.00 17.00 C 195.00 15.20, 197.80 15.00, 188.00 16.00 Z M 193.00 69.00 C 193.60 71.40, 193.40 76.20, 193.00 78.00 C 192.60 79.80, 192.00 77.40, 191.00 78.00 C 190.00 78.60, 188.60 80.20, 188.00 81.00 C 187.40 81.80, 190.00 81.80, 188.00 82.00 C 186.00 82.20, 180.00 83.00, 178.00 82.00 C 176.00 81.00, 178.20 78.20, 178.00 77.00 C 177.80 75.80, 177.20 78.20, 177.00 76.00 C 176.80 73.80, 176.00 68.00, 177.00 66.00 C 178.00 64.00, 180.80 66.20, 182.00 66.00 C 183.20 65.80, 181.80 65.20, 183.00 65.00 C 184.20 64.80, 186.80 64.80, 188.00 65.00 C 189.20 65.20, 188.60 65.80, 189.00 66.00 C 189.40 66.20, 189.20 65.40, 190.00 66.00 C 190.80 66.60, 192.40 66.60, 193.00 69.00 Z M 183.00 37.00 C 185.20 37.20, 183.60 37.80, 184.00 38.00 C 184.40 38.20, 184.80 37.80, 185.00 38.00 C 185.20 38.20, 184.60 38.40, 185.00 39.00 C 185.40 39.60, 186.60 39.40, 187.00 41.00 C 187.40 42.60, 187.60 45.20, 187.00 47.00 C 186.40 48.80, 185.40 49.40, 184.00 50.00 C 182.60 50.60, 181.00 49.80, 180.00 50.00 C 179.00 50.20, 180.20 50.80, 179.00 51.00 C 177.80 51.20, 175.00 52.80, 174.00 51.00 C 173.00 49.20, 174.20 44.00, 174.00 42.00 C 173.80 40.00, 173.20 42.00, 173.00 41.00 C 172.80 40.00, 171.00 37.80, 173.00 37.00 C 175.00 36.20, 180.80 36.80, 183.00 37.00 Z M 444.00 15.00 C 437.00 21.20, 439.20 39.00, 437.00 45.00 C 434.80 51.00, 435.80 50.60, 433.00 45.00 C 430.20 39.40, 429.20 22.20, 423.00 17.00 C 416.80 11.80, 407.40 12.40, 402.00 19.00 C 396.60 25.60, 398.00 43.80, 396.00 50.00 C 394.00 56.20, 395.00 56.00, 392.00 50.00 C 389.00 44.00, 388.40 25.60, 381.00 20.00 C 373.60 14.40, 355.60 6.00, 355.00 22.00 C 354.40 38.00, 367.40 84.60, 378.00 100.00 C 388.60 115.40, 400.80 105.00, 408.00 99.00 C 415.20 93.00, 411.60 75.40, 414.00 70.00 C 416.40 64.60, 416.80 66.60, 420.00 72.00 C 423.20 77.40, 422.40 92.40, 430.00 97.00 C 437.60 101.60, 449.60 111.60, 458.00 95.00 C 466.40 78.40, 474.80 30.00, 472.00 14.00 C 469.20 -2.00, 451.00 8.80, 444.00 15.00 Z M 218.00 33.00 C 217.80 38.00, 222.40 26.20, 223.00 38.00 C 223.60 49.80, 217.20 80.80, 221.00 92.00 C 224.80 103.20, 237.40 94.00, 242.00 94.00 C 246.60 94.00, 243.60 95.20, 244.00 92.00 C 244.40 88.80, 243.00 81.00, 244.00 78.00 C 245.00 75.00, 246.40 73.80, 249.00 77.00 C 251.60 80.20, 250.80 90.40, 257.00 94.00 C 263.20 97.60, 275.40 95.80, 280.00 95.00 C 284.60 94.20, 281.60 94.00, 280.00 90.00 C 278.40 86.00, 273.60 79.60, 272.00 75.00 C 270.40 70.40, 270.00 70.60, 272.00 67.00 C 274.00 63.40, 279.40 61.80, 282.00 57.00 C 284.60 52.20, 284.60 47.40, 285.00 43.00 C 285.40 38.60, 285.60 39.40, 284.00 35.00 C 282.40 30.60, 281.60 25.20, 277.00 21.00 C 272.40 16.80, 271.60 15.60, 261.00 14.00 C 250.40 12.40, 232.60 9.20, 224.00 13.00 C 215.40 16.80, 218.20 28.00, 218.00 33.00 Z M 257.00 35.00 C 259.20 35.20, 256.20 35.00, 257.00 36.00 C 257.80 37.00, 260.00 39.20, 261.00 40.00 C 262.00 40.80, 261.80 38.60, 262.00 40.00 C 262.20 41.40, 262.20 45.40, 262.00 47.00 C 261.80 48.60, 261.20 47.60, 261.00 48.00 C 260.80 48.40, 261.40 48.40, 261.00 49.00 C 260.60 49.60, 259.80 50.60, 259.00 51.00 C 258.20 51.40, 257.60 50.80, 257.00 51.00 C 256.40 51.20, 258.20 51.80, 256.00 52.00 C 253.80 52.20, 248.20 52.20, 246.00 52.00 C 243.80 51.80, 245.20 54.20, 245.00 51.00 C 244.80 47.80, 244.80 39.20, 245.00 36.00 C 245.20 32.80, 243.60 35.20, 246.00 35.00 C 248.40 34.80, 254.80 34.80, 257.00 35.00 Z M 296.00 14.00 C 286.80 14.80, 295.00 11.80, 294.00 16.00 C 293.00 20.20, 290.20 31.20, 291.00 35.00 C 291.80 38.80, 296.60 33.60, 298.00 35.00 C 299.40 36.40, 300.20 30.40, 298.00 42.00 C 295.80 53.60, 289.00 82.00, 287.00 93.00 C 285.00 104.00, 283.20 96.60, 288.00 97.00 C 292.80 97.40, 305.80 97.80, 311.00 95.00 C 316.20 92.20, 308.60 85.60, 314.00 83.00 C 319.40 80.40, 332.40 80.00, 338.00 82.00 C 343.60 84.00, 336.40 91.20, 342.00 93.00 C 347.60 94.80, 361.80 92.80, 366.00 91.00 C 370.20 89.20, 363.40 86.60, 363.00 84.00 C 362.60 81.40, 364.40 79.40, 364.00 78.00 C 363.60 76.60, 365.80 90.20, 361.00 77.00 C 356.20 63.80, 353.00 24.60, 340.00 12.00 C 327.00 -0.60, 305.20 13.20, 296.00 14.00 Z M 322.00 45.00 C 322.60 44.80, 322.00 44.20, 323.00 44.00 C 324.00 43.80, 326.20 43.00, 327.00 44.00 C 327.80 45.00, 326.80 47.80, 327.00 49.00 C 327.20 50.20, 327.60 49.80, 328.00 50.00 C 328.40 50.20, 328.80 49.60, 329.00 50.00 C 329.20 50.40, 328.80 51.40, 329.00 52.00 C 329.20 52.60, 329.80 52.40, 330.00 53.00 C 330.20 53.60, 329.80 54.40, 330.00 55.00 C 330.20 55.60, 330.80 54.60, 331.00 56.00 C 331.20 57.40, 331.20 60.60, 331.00 62.00 C 330.80 63.40, 332.60 62.80, 330.00 63.00 C 327.40 63.20, 320.40 64.40, 318.00 63.00 C 315.60 61.60, 317.80 57.60, 318.00 56.00 C 318.20 54.40, 318.80 56.20, 319.00 55.00 C 319.20 53.80, 318.80 51.20, 319.00 50.00 C 319.20 48.80, 319.80 50.00, 320.00 49.00 C 320.20 48.00, 319.60 45.80, 320.00 45.00 C 320.40 44.20, 321.40 45.20, 322.00 45.00 Z" fill="#000000" stroke="none" fill-rule="evenodd" />
  <path d="M 300.00 433.00 C 289.00 433.80, 289.00 436.20, 300.00 437.00 C 311.00 437.80, 344.00 437.80, 355.00 437.00 C 366.00 436.20, 366.00 433.80, 355.00 433.00 C 344.00 432.20, 311.00 432.20, 300.00 433.00 Z" fill="#EDBC43" stroke="none" fill-rule="evenodd" />
  <path d="M 427.00 439.00 C 420.80 434.20, 403.80 424.00, 396.00 420.00 C 388.20 416.00, 391.20 416.80, 388.00 419.00 C 384.80 421.20, 385.20 425.60, 380.00 431.00 C 374.80 436.40, 368.80 441.60, 362.00 446.00 C 355.20 450.40, 353.20 451.00, 346.00 453.00 C 338.80 455.00, 330.00 446.80, 326.00 456.00 C 322.00 465.20, 325.00 490.40, 326.00 499.00 C 327.00 507.60, 321.80 507.40, 331.00 499.00 C 340.20 490.60, 352.80 468.00, 372.00 457.00 C 391.20 446.00, 416.00 447.60, 427.00 444.00 C 438.00 440.40, 433.20 443.80, 427.00 439.00 Z" fill="#C55F3E" stroke="none" fill-rule="evenodd" />
  <path d="M 227.00 439.00 C 222.80 442.40, 215.60 439.60, 227.00 443.00 C 238.40 446.40, 268.00 448.80, 284.00 456.00 C 300.00 463.20, 301.40 472.80, 307.00 479.00 C 312.60 485.20, 309.20 484.20, 312.00 487.00 C 314.80 489.80, 318.80 491.00, 321.00 493.00 C 323.20 495.00, 321.40 496.20, 323.00 497.00 C 324.60 497.80, 327.80 503.80, 329.00 497.00 C 330.20 490.20, 329.40 471.20, 329.00 463.00 C 328.60 454.80, 332.00 458.20, 327.00 456.00 C 322.00 453.80, 310.60 454.00, 304.00 452.00 C 297.40 450.00, 296.80 447.20, 294.00 446.00 C 291.20 444.80, 293.60 448.60, 290.00 446.00 C 286.40 443.40, 280.80 438.40, 276.00 433.00 C 271.20 427.60, 269.60 421.60, 266.00 419.00 C 262.40 416.40, 260.20 419.00, 258.00 420.00 C 255.80 421.00, 257.00 422.80, 255.00 424.00 C 253.00 425.20, 253.60 423.00, 248.00 426.00 C 242.40 429.00, 231.20 435.60, 227.00 439.00 Z" fill="#FCBB20" stroke="none" fill-rule="evenodd" />
  <path d="M 422.00 327.00 C 414.80 330.80, 396.40 340.80, 390.00 346.00 C 383.60 351.20, 389.40 351.00, 390.00 353.00 C 390.60 355.00, 391.20 351.20, 393.00 356.00 C 394.80 360.80, 398.40 368.20, 399.00 377.00 C 399.60 385.80, 397.80 392.60, 396.00 400.00 C 394.20 407.40, 391.20 409.80, 390.00 414.00 C 388.80 418.20, 389.20 418.80, 390.00 421.00 C 390.80 423.20, 389.40 422.60, 394.00 425.00 C 398.60 427.40, 407.80 430.00, 413.00 433.00 C 418.20 436.00, 417.20 438.40, 420.00 440.00 C 422.80 441.60, 425.80 443.20, 427.00 441.00 C 428.20 438.80, 426.60 431.60, 426.00 429.00 C 425.40 426.40, 424.40 429.40, 424.00 428.00 C 423.60 426.60, 426.40 430.40, 424.00 422.00 C 421.60 413.60, 411.40 403.60, 412.00 386.00 C 412.60 368.40, 424.20 345.80, 427.00 334.00 C 429.80 322.20, 427.00 328.40, 426.00 327.00 C 425.00 325.60, 429.20 323.20, 422.00 327.00 Z" fill="#FCBB20" stroke="none" fill-rule="evenodd" />
  <path d="M 298.00 330.00 C 293.00 333.00, 288.40 338.20, 291.00 339.00 C 293.60 339.80, 305.60 334.20, 311.00 334.00 C 316.40 333.80, 316.00 335.60, 318.00 338.00 C 320.00 340.40, 322.40 341.60, 321.00 346.00 C 319.60 350.40, 315.60 356.00, 311.00 360.00 C 306.40 364.00, 303.20 365.60, 298.00 366.00 C 292.80 366.40, 287.60 366.20, 285.00 362.00 C 282.40 357.80, 286.20 348.20, 285.00 345.00 C 283.80 341.80, 282.40 340.80, 279.00 346.00 C 275.60 351.20, 269.60 360.00, 268.00 371.00 C 266.40 382.00, 268.40 392.40, 271.00 401.00 C 273.60 409.60, 275.80 409.20, 281.00 414.00 C 286.20 418.80, 293.40 420.60, 297.00 425.00 C 300.60 429.40, 287.40 433.80, 299.00 436.00 C 310.60 438.20, 343.00 438.60, 355.00 436.00 C 367.00 433.40, 354.60 428.20, 359.00 423.00 C 363.40 417.80, 371.60 416.20, 377.00 410.00 C 382.40 403.80, 384.40 401.20, 386.00 392.00 C 387.60 382.80, 386.60 372.40, 385.00 364.00 C 383.40 355.60, 383.40 356.60, 378.00 350.00 C 372.60 343.40, 364.80 336.00, 358.00 331.00 C 351.20 326.00, 352.40 326.40, 344.00 325.00 C 335.60 323.60, 325.20 323.00, 316.00 324.00 C 306.80 325.00, 303.00 327.00, 298.00 330.00 Z M 326.00 402.00 C 325.80 402.60, 326.40 403.20, 326.00 404.00 C 325.60 404.80, 324.40 405.40, 324.00 406.00 C 323.60 406.60, 324.40 406.40, 324.00 407.00 C 323.60 407.60, 322.40 408.40, 322.00 409.00 C 321.60 409.60, 322.20 409.60, 322.00 410.00 C 321.80 410.40, 321.20 410.60, 321.00 411.00 C 320.80 411.40, 320.80 411.60, 321.00 412.00 C 321.20 412.40, 319.80 412.80, 322.00 413.00 C 324.20 413.20, 329.80 413.20, 332.00 413.00 C 334.20 412.80, 332.80 412.60, 333.00 412.00 C 333.20 411.40, 333.20 410.60, 333.00 410.00 C 332.80 409.40, 332.20 409.40, 332.00 409.00 C 331.80 408.60, 332.40 408.60, 332.00 408.00 C 331.60 407.40, 330.40 406.60, 330.00 406.00 C 329.60 405.40, 330.20 405.40, 330.00 405.00 C 329.80 404.60, 329.20 404.40, 329.00 404.00 C 328.80 403.60, 329.40 403.60, 329.00 403.00 C 328.60 402.40, 327.60 401.20, 327.00 401.00 C 326.40 400.80, 326.20 401.40, 326.00 402.00 Z M 341.00 380.00 C 340.80 381.00, 341.40 382.80, 341.00 384.00 C 340.60 385.20, 339.40 385.00, 339.00 386.00 C 338.60 387.00, 339.20 388.20, 339.00 389.00 C 338.80 389.80, 338.20 388.40, 338.00 390.00 C 337.80 391.60, 337.60 394.60, 338.00 397.00 C 338.40 399.40, 338.40 400.00, 340.00 402.00 C 341.60 404.00, 344.60 405.60, 346.00 407.00 C 347.40 408.40, 346.20 408.60, 347.00 409.00 C 347.80 409.40, 349.20 408.80, 350.00 409.00 C 350.80 409.20, 349.00 409.80, 351.00 410.00 C 353.00 410.20, 356.80 411.20, 360.00 410.00 C 363.20 408.80, 365.00 406.20, 367.00 404.00 C 369.00 401.80, 369.40 400.40, 370.00 399.00 C 370.60 397.60, 369.80 397.60, 370.00 397.00 C 370.20 396.40, 370.80 397.40, 371.00 396.00 C 371.20 394.60, 371.20 391.40, 371.00 390.00 C 370.80 388.60, 370.20 389.80, 370.00 389.00 C 369.80 388.20, 370.60 387.00, 370.00 386.00 C 369.40 385.00, 367.60 384.80, 367.00 384.00 C 366.40 383.20, 367.80 383.40, 367.00 382.00 C 366.20 380.60, 364.40 378.00, 363.00 377.00 C 361.60 376.00, 360.80 377.20, 360.00 377.00 C 359.20 376.80, 360.80 376.20, 359.00 376.00 C 357.20 375.80, 352.80 375.80, 351.00 376.00 C 349.20 376.20, 350.60 376.80, 350.00 377.00 C 349.40 377.20, 348.80 376.60, 348.00 377.00 C 347.20 377.40, 347.20 378.60, 346.00 379.00 C 344.80 379.40, 343.00 378.80, 342.00 379.00 C 341.00 379.20, 341.20 379.00, 341.00 380.00 Z M 343.00 367.00 C 342.60 366.80, 342.40 366.20, 342.00 366.00 C 341.60 365.80, 341.80 365.40, 341.00 366.00 C 340.20 366.60, 338.60 368.20, 338.00 369.00 C 337.40 369.80, 338.60 369.20, 338.00 370.00 C 337.40 370.80, 335.80 372.40, 335.00 373.00 C 334.20 373.60, 334.80 372.40, 334.00 373.00 C 333.20 373.60, 331.60 375.00, 331.00 376.00 C 330.40 377.00, 330.40 377.00, 331.00 378.00 C 331.60 379.00, 333.20 380.40, 334.00 381.00 C 334.80 381.60, 334.60 381.20, 335.00 381.00 C 335.40 380.80, 335.80 380.40, 336.00 380.00 C 336.20 379.60, 335.20 379.20, 336.00 379.00 C 336.80 378.80, 339.00 379.20, 340.00 379.00 C 341.00 378.80, 340.80 379.00, 341.00 378.00 C 341.20 377.00, 340.80 374.80, 341.00 374.00 C 341.20 373.20, 341.20 374.60, 342.00 374.00 C 342.80 373.40, 344.40 371.80, 345.00 371.00 C 345.60 370.20, 344.80 370.40, 345.00 370.00 C 345.20 369.60, 346.20 369.60, 346.00 369.00 C 345.80 368.40, 344.60 367.40, 344.00 367.00 C 343.40 366.60, 343.40 367.20, 343.00 367.00 Z M 309.00 370.00 C 309.20 371.80, 313.00 373.20, 314.00 375.00 C 315.00 376.80, 315.00 378.20, 314.00 379.00 C 313.00 379.80, 310.80 379.60, 309.00 379.00 C 307.20 378.40, 306.60 376.80, 305.00 376.00 C 303.40 375.20, 302.80 375.00, 301.00 375.00 C 299.20 375.00, 298.60 374.60, 296.00 376.00 C 293.40 377.40, 289.60 380.40, 288.00 382.00 C 286.40 383.60, 288.40 383.40, 288.00 384.00 C 287.60 384.60, 286.80 383.80, 286.00 385.00 C 285.20 386.20, 284.20 387.20, 284.00 390.00 C 283.80 392.80, 283.40 395.60, 285.00 399.00 C 286.60 402.40, 289.60 404.80, 292.00 407.00 C 294.40 409.20, 294.60 409.40, 297.00 410.00 C 299.40 410.60, 300.40 411.60, 304.00 410.00 C 307.60 408.40, 312.20 405.40, 315.00 402.00 C 317.80 398.60, 317.80 395.80, 318.00 393.00 C 318.20 390.20, 316.40 390.40, 316.00 388.00 C 315.60 385.60, 315.40 382.40, 316.00 381.00 C 316.60 379.60, 317.40 381.60, 319.00 381.00 C 320.60 380.40, 324.40 380.40, 324.00 378.00 C 323.60 375.60, 319.20 371.40, 317.00 369.00 C 314.80 366.60, 314.60 365.80, 313.00 366.00 C 311.40 366.20, 308.80 368.20, 309.00 370.00 Z" fill="#FCBB20" stroke="none" fill-rule="evenodd" />
  <path d="M 280.00 115.00 C 263.60 115.80, 263.60 118.20, 280.00 119.00 C 296.40 119.80, 345.60 119.80, 362.00 119.00 C 378.40 118.20, 378.40 115.80, 362.00 115.00 C 345.60 114.20, 296.40 114.20, 280.00 115.00 Z" fill="#1B0100" stroke="none" fill-rule="evenodd" />
  <path d="M 227.00 327.00 C 222.40 335.60, 241.20 367.00, 241.00 390.00 C 240.80 413.00, 221.60 435.40, 226.00 442.00 C 230.40 448.60, 250.40 421.60, 263.00 423.00 C 275.60 424.40, 279.80 442.20, 289.00 449.00 C 298.20 455.80, 300.60 455.20, 309.00 457.00 C 317.40 458.80, 320.60 459.20, 331.00 458.00 C 341.40 456.80, 350.80 455.60, 361.00 451.00 C 371.20 446.40, 377.80 439.00, 382.00 435.00 C 386.20 431.00, 383.20 432.00, 382.00 431.00 C 380.80 430.00, 379.40 428.20, 376.00 430.00 C 372.60 431.80, 372.80 435.80, 365.00 440.00 C 357.20 444.20, 347.60 449.00, 337.00 451.00 C 326.40 453.00, 322.80 453.00, 312.00 450.00 C 301.20 447.00, 292.20 442.80, 283.00 436.00 C 273.80 429.20, 271.40 425.60, 266.00 416.00 C 260.60 406.40, 256.40 401.80, 256.00 388.00 C 255.60 374.20, 269.80 359.20, 264.00 347.00 C 258.20 334.80, 231.60 318.40, 227.00 327.00 Z" fill="#FCE15B" stroke="none" fill-rule="evenodd" />
  <path d="M 327.00 271.00 C 326.00 279.00, 321.80 301.80, 327.00 311.00 C 332.20 320.20, 344.80 314.20, 353.00 317.00 C 361.20 319.80, 362.80 321.40, 368.00 325.00 C 373.20 328.60, 375.00 330.20, 379.00 335.00 C 383.00 339.80, 385.40 346.20, 388.00 349.00 C 390.60 351.80, 383.80 353.20, 392.00 349.00 C 400.20 344.80, 421.60 333.00, 429.00 328.00 C 436.40 323.00, 441.00 327.60, 429.00 324.00 C 417.00 320.40, 388.40 320.60, 369.00 310.00 C 349.60 299.40, 340.40 278.80, 332.00 271.00 C 323.60 263.20, 328.00 263.00, 327.00 271.00 Z" fill="#FCE15B" stroke="none" fill-rule="evenodd" />
  <path d="M 352.00 273.00 C 339.80 273.80, 339.80 276.20, 352.00 277.00 C 364.20 277.80, 400.80 277.80, 413.00 277.00 C 425.20 276.20, 425.20 273.80, 413.00 273.00 C 400.80 272.20, 364.20 272.20, 352.00 273.00 Z" fill="#C7262A" stroke="none" fill-rule="evenodd" />
  <path d="M 248.00 270.00 C 247.20 271.40, 237.40 275.60, 248.00 277.00 C 258.60 278.40, 290.20 277.20, 301.00 277.00 C 311.80 276.80, 301.80 277.40, 302.00 276.00 C 302.20 274.60, 302.80 271.20, 302.00 270.00 C 301.20 268.80, 299.20 269.40, 298.00 270.00 C 296.80 270.60, 305.00 272.40, 296.00 273.00 C 287.00 273.60, 261.80 273.20, 253.00 273.00 C 244.20 272.80, 252.20 272.60, 252.00 272.00 C 251.80 271.40, 252.80 270.40, 252.00 270.00 C 251.20 269.60, 248.80 268.60, 248.00 270.00 Z" fill="#C7262A" stroke="none" fill-rule="evenodd" />
  <path d="M 274.00 118.00 C 256.00 119.20, 273.20 122.00, 274.00 123.00 C 274.80 124.00, 276.80 123.40, 278.00 123.00 C 279.20 122.60, 264.00 121.40, 280.00 121.00 C 296.00 120.60, 341.60 120.20, 358.00 121.00 C 374.40 121.80, 360.40 124.20, 362.00 125.00 C 363.60 125.80, 365.20 126.20, 366.00 125.00 C 366.80 123.80, 366.40 120.60, 366.00 119.00 C 365.60 117.40, 382.40 117.20, 364.00 117.00 C 345.60 116.80, 292.00 116.80, 274.00 118.00 Z" fill="#C7262A" stroke="none" fill-rule="evenodd" />
  <path d="M 300.00 434.00 C 289.20 434.80, 289.20 437.20, 300.00 438.00 C 310.80 438.80, 343.20 438.80, 354.00 438.00 C 364.80 437.20, 364.80 434.80, 354.00 434.00 C 343.20 433.20, 310.80 433.20, 300.00 434.00 Z" fill="#705311" stroke="none" fill-rule="evenodd" />
  <path d="M 287.00 342.00 C 286.20 343.60, 286.00 345.20, 287.00 346.00 C 288.00 346.80, 290.60 346.40, 292.00 346.00 C 293.40 345.60, 293.20 344.40, 294.00 344.00 C 294.80 343.60, 295.60 344.20, 296.00 344.00 C 296.40 343.80, 295.60 343.60, 296.00 343.00 C 296.40 342.40, 297.00 341.40, 298.00 341.00 C 299.00 340.60, 300.20 341.20, 301.00 341.00 C 301.80 340.80, 301.40 340.20, 302.00 340.00 C 302.60 339.80, 303.40 340.40, 304.00 340.00 C 304.60 339.60, 303.40 338.40, 305.00 338.00 C 306.60 337.60, 310.20 337.60, 312.00 338.00 C 313.80 338.40, 313.60 339.40, 314.00 340.00 C 314.40 340.60, 313.40 340.40, 314.00 341.00 C 314.60 341.60, 316.20 342.20, 317.00 343.00 C 317.80 343.80, 317.00 344.60, 318.00 345.00 C 319.00 345.40, 321.20 346.20, 322.00 345.00 C 322.80 343.80, 322.20 340.60, 322.00 339.00 C 321.80 337.40, 321.60 337.80, 321.00 337.00 C 320.40 336.20, 320.20 335.80, 319.00 335.00 C 317.80 334.20, 318.40 333.40, 315.00 333.00 C 311.60 332.60, 304.80 332.80, 302.00 333.00 C 299.20 333.20, 301.60 333.80, 301.00 334.00 C 300.40 334.20, 301.00 333.20, 299.00 334.00 C 297.00 334.80, 293.40 336.40, 291.00 338.00 C 288.60 339.60, 287.80 340.40, 287.00 342.00 Z" fill="#F5F5F2" stroke="none" fill-rule="evenodd" />
  <path d="M 236.00 330.00 C 234.20 330.80, 235.80 333.20, 236.00 334.00 C 236.20 334.80, 236.40 333.60, 237.00 334.00 C 237.60 334.40, 237.60 335.20, 239.00 336.00 C 240.40 336.80, 242.60 337.20, 244.00 338.00 C 245.40 338.80, 245.00 339.40, 246.00 340.00 C 247.00 340.60, 248.00 340.40, 249.00 341.00 C 250.00 341.60, 250.20 342.60, 251.00 343.00 C 251.80 343.40, 252.20 342.60, 253.00 343.00 C 253.80 343.40, 254.00 344.40, 255.00 345.00 C 256.00 345.60, 256.60 345.20, 258.00 346.00 C 259.40 346.80, 260.20 348.40, 262.00 349.00 C 263.80 349.60, 266.00 349.20, 267.00 349.00 C 268.00 348.80, 266.80 348.40, 267.00 348.00 C 267.20 347.60, 267.80 348.00, 268.00 347.00 C 268.20 346.00, 268.60 343.80, 268.00 343.00 C 267.40 342.20, 266.00 343.40, 265.00 343.00 C 264.00 342.60, 263.80 341.40, 263.00 341.00 C 262.20 340.60, 262.00 341.40, 261.00 341.00 C 260.00 340.60, 259.00 339.40, 258.00 339.00 C 257.00 338.60, 256.80 339.40, 256.00 339.00 C 255.20 338.60, 255.00 337.60, 254.00 337.00 C 253.00 336.40, 252.80 337.40, 251.00 336.00 C 249.20 334.60, 248.00 331.20, 245.00 330.00 C 242.00 328.80, 237.80 329.20, 236.00 330.00 Z" fill="#F5F5F2" stroke="none" fill-rule="evenodd" />
  <path d="M 324.00 267.00 C 322.20 268.00, 320.00 270.20, 319.00 272.00 C 318.00 273.80, 318.60 275.20, 319.00 276.00 C 319.40 276.80, 320.20 275.60, 321.00 276.00 C 321.80 276.40, 322.60 276.60, 323.00 278.00 C 323.40 279.40, 323.20 281.80, 323.00 283.00 C 322.80 284.20, 322.20 283.00, 322.00 284.00 C 321.80 285.00, 321.60 286.60, 322.00 288.00 C 322.40 289.40, 323.60 287.80, 324.00 291.00 C 324.40 294.20, 324.20 301.20, 324.00 304.00 C 323.80 306.80, 323.20 303.40, 323.00 305.00 C 322.80 306.60, 322.80 310.40, 323.00 312.00 C 323.20 313.60, 323.00 312.80, 324.00 313.00 C 325.00 313.20, 327.20 322.20, 328.00 313.00 C 328.80 303.80, 328.80 276.20, 328.00 267.00 C 327.20 257.80, 325.80 266.00, 324.00 267.00 Z" fill="#F5F5F2" stroke="none" fill-rule="evenodd" />
  <path d="M 237.00 332.00 C 236.00 332.80, 236.80 335.00, 237.00 336.00 C 237.20 337.00, 237.60 336.80, 238.00 337.00 C 238.40 337.20, 238.00 336.40, 239.00 337.00 C 240.00 337.60, 241.60 339.20, 243.00 340.00 C 244.40 340.80, 244.80 340.20, 246.00 341.00 C 247.20 341.80, 247.80 343.40, 249.00 344.00 C 250.20 344.60, 250.80 343.40, 252.00 344.00 C 253.20 344.60, 253.80 346.20, 255.00 347.00 C 256.20 347.80, 257.00 347.40, 258.00 348.00 C 259.00 348.60, 259.60 348.60, 260.00 350.00 C 260.40 351.40, 259.20 354.00, 260.00 355.00 C 260.80 356.00, 263.20 355.20, 264.00 355.00 C 264.80 354.80, 263.60 354.80, 264.00 354.00 C 264.40 353.20, 265.60 352.60, 266.00 351.00 C 266.40 349.40, 266.20 347.20, 266.00 346.00 C 265.80 344.80, 265.40 345.20, 265.00 345.00 C 264.60 344.80, 264.60 345.40, 264.00 345.00 C 263.40 344.60, 263.00 343.60, 262.00 343.00 C 261.00 342.40, 260.00 342.60, 259.00 342.00 C 258.00 341.40, 257.80 340.40, 257.00 340.00 C 256.20 339.60, 255.80 340.40, 255.00 340.00 C 254.20 339.60, 254.40 338.80, 253.00 338.00 C 251.60 337.20, 249.40 336.80, 248.00 336.00 C 246.60 335.20, 246.60 334.40, 246.00 334.00 C 245.40 333.60, 245.80 334.40, 245.00 334.00 C 244.20 333.60, 243.60 332.40, 242.00 332.00 C 240.40 331.60, 238.00 331.20, 237.00 332.00 Z" fill="#F3DE80" stroke="none" fill-rule="evenodd" />
  <path d="M 327.00 268.00 C 325.80 268.20, 325.40 266.40, 325.00 269.00 C 324.60 271.60, 324.80 278.40, 325.00 281.00 C 325.20 283.60, 326.00 281.60, 326.00 282.00 C 326.00 282.40, 325.20 277.20, 325.00 283.00 C 324.80 288.80, 324.80 305.00, 325.00 311.00 C 325.20 317.00, 323.00 312.40, 326.00 313.00 C 329.00 313.60, 337.20 314.60, 340.00 314.00 C 342.80 313.40, 341.60 311.00, 340.00 310.00 C 338.40 309.00, 334.00 309.60, 332.00 309.00 C 330.00 308.40, 330.40 308.60, 330.00 307.00 C 329.60 305.40, 330.20 302.40, 330.00 301.00 C 329.80 299.60, 329.00 304.40, 329.00 300.00 C 329.00 295.60, 329.60 283.40, 330.00 279.00 C 330.40 274.60, 329.80 278.20, 331.00 278.00 C 332.20 277.80, 335.00 278.80, 336.00 278.00 C 337.00 277.20, 337.00 276.00, 336.00 274.00 C 335.00 272.00, 332.80 269.20, 331.00 268.00 C 329.20 266.80, 328.20 267.80, 327.00 268.00 Z" fill="#F3DE80" stroke="none" fill-rule="evenodd" />
  <path d="M 351.00 274.00 C 338.60 274.80, 338.60 277.20, 351.00 278.00 C 363.40 278.80, 400.60 278.80, 413.00 278.00 C 425.40 277.20, 425.40 274.80, 413.00 274.00 C 400.60 273.20, 363.40 273.20, 351.00 274.00 Z" fill="#3E0400" stroke="none" fill-rule="evenodd" />
  <path d="M 248.00 274.00 C 237.20 274.80, 237.20 277.20, 248.00 278.00 C 258.80 278.80, 291.20 278.80, 302.00 278.00 C 312.80 277.20, 312.80 274.80, 302.00 274.00 C 291.20 273.20, 258.80 273.20, 248.00 274.00 Z" fill="#3E0400" stroke="none" fill-rule="evenodd" />
  <path d="M 274.00 116.00 C 255.60 116.80, 255.60 119.20, 274.00 120.00 C 292.40 120.80, 347.60 120.80, 366.00 120.00 C 384.40 119.20, 384.40 116.80, 366.00 116.00 C 347.60 115.20, 292.40 115.20, 274.00 116.00 Z" fill="#3E0400" stroke="none" fill-rule="evenodd" />
  <path d="M 459.00 274.00 C 458.60 274.80, 458.40 277.20, 459.00 278.00 C 459.60 278.80, 461.20 277.80, 462.00 278.00 C 462.80 278.20, 459.80 278.80, 463.00 279.00 C 466.20 279.20, 474.80 278.80, 478.00 279.00 C 481.20 279.20, 473.80 279.80, 479.00 280.00 C 484.20 280.20, 499.00 280.80, 504.00 280.00 C 509.00 279.20, 504.80 276.80, 504.00 276.00 C 503.20 275.20, 501.00 276.20, 500.00 276.00 C 499.00 275.80, 500.00 275.20, 499.00 275.00 C 498.00 274.80, 496.00 274.80, 495.00 275.00 C 494.00 275.20, 495.20 275.80, 494.00 276.00 C 492.80 276.20, 490.20 276.20, 489.00 276.00 C 487.80 275.80, 491.00 275.20, 488.00 275.00 C 485.00 274.80, 477.20 275.60, 474.00 275.00 C 470.80 274.40, 474.20 272.60, 472.00 272.00 C 469.80 271.40, 465.20 271.60, 463.00 272.00 C 460.80 272.40, 461.80 273.60, 461.00 274.00 C 460.20 274.40, 459.40 273.20, 459.00 274.00 Z" fill="#E41C1D" stroke="none" fill-rule="evenodd" />
  <path d="M 349.00 218.00 C 348.80 216.60, 348.40 218.20, 348.00 218.00 C 347.60 217.80, 347.20 217.40, 347.00 217.00 C 346.80 216.60, 349.00 216.20, 347.00 216.00 C 345.00 215.80, 339.20 215.80, 337.00 216.00 C 334.80 216.20, 336.60 216.80, 336.00 217.00 C 335.40 217.20, 334.60 216.80, 334.00 217.00 C 333.40 217.20, 336.00 217.80, 333.00 218.00 C 330.00 218.20, 321.80 217.00, 319.00 218.00 C 316.20 219.00, 316.20 222.00, 319.00 223.00 C 321.80 224.00, 330.00 222.80, 333.00 223.00 C 336.00 223.20, 333.00 223.80, 334.00 224.00 C 335.00 224.20, 336.80 224.40, 338.00 224.00 C 339.20 223.60, 339.20 222.40, 340.00 222.00 C 340.80 221.60, 341.20 221.60, 342.00 222.00 C 342.80 222.40, 343.60 223.40, 344.00 224.00 C 344.40 224.60, 343.00 224.80, 344.00 225.00 C 345.00 225.20, 348.00 226.40, 349.00 225.00 C 350.00 223.60, 349.20 219.40, 349.00 218.00 Z" fill="#E41C1D" stroke="none" fill-rule="evenodd" />
  <path d="M 146.00 134.00 C 145.20 134.80, 146.20 137.00, 146.00 138.00 C 145.80 139.00, 145.20 138.00, 145.00 139.00 C 144.80 140.00, 143.60 142.20, 145.00 143.00 C 146.40 143.80, 150.40 142.80, 152.00 143.00 C 153.60 143.20, 152.00 143.80, 153.00 144.00 C 154.00 144.20, 156.00 144.20, 157.00 144.00 C 158.00 143.80, 155.20 143.20, 158.00 143.00 C 160.80 142.80, 168.40 144.00, 171.00 143.00 C 173.60 142.00, 172.60 139.00, 171.00 138.00 C 169.40 137.00, 164.80 138.20, 163.00 138.00 C 161.20 137.80, 163.20 137.20, 162.00 137.00 C 160.80 136.80, 158.40 137.40, 157.00 137.00 C 155.60 136.60, 156.20 135.40, 155.00 135.00 C 153.80 134.60, 152.00 135.20, 151.00 135.00 C 150.00 134.80, 151.00 134.20, 150.00 134.00 C 149.00 133.80, 146.80 133.20, 146.00 134.00 Z" fill="#E41C1D" stroke="none" fill-rule="evenodd" />
  <path d="M 276.00 118.00 C 258.80 118.80, 274.80 121.20, 276.00 122.00 C 277.20 122.80, 280.00 121.60, 282.00 122.00 C 284.00 122.40, 285.00 123.20, 286.00 124.00 C 287.00 124.80, 273.80 125.60, 287.00 126.00 C 300.20 126.40, 338.20 126.20, 352.00 126.00 C 365.80 125.80, 354.80 125.80, 356.00 125.00 C 357.20 124.20, 356.80 122.60, 358.00 122.00 C 359.20 121.40, 361.20 122.80, 362.00 122.00 C 362.80 121.20, 379.20 118.80, 362.00 118.00 C 344.80 117.20, 293.20 117.20, 276.00 118.00 Z" fill="#E41C1D" stroke="none" fill-rule="evenodd" />
  <path d="M 338.00 386.00 C 337.00 386.20, 337.20 384.20, 337.00 387.00 C 336.80 389.80, 336.40 396.80, 337.00 400.00 C 337.60 403.20, 339.40 402.20, 340.00 403.00 C 340.60 403.80, 339.20 403.00, 340.00 404.00 C 340.80 405.00, 343.00 407.20, 344.00 408.00 C 345.00 408.80, 344.60 407.80, 345.00 408.00 C 345.40 408.20, 344.60 408.80, 346.00 409.00 C 347.40 409.20, 350.80 410.00, 352.00 409.00 C 353.20 408.00, 352.20 405.00, 352.00 404.00 C 351.80 403.00, 351.80 404.60, 351.00 404.00 C 350.20 403.40, 348.60 401.80, 348.00 401.00 C 347.40 400.20, 348.40 400.20, 348.00 400.00 C 347.60 399.80, 346.80 400.40, 346.00 400.00 C 345.20 399.60, 344.40 399.00, 344.00 398.00 C 343.60 397.00, 344.40 396.20, 344.00 395.00 C 343.60 393.80, 342.40 393.80, 342.00 392.00 C 341.60 390.20, 342.80 387.20, 342.00 386.00 C 341.20 384.80, 339.00 385.80, 338.00 386.00 Z" fill="#080305" stroke="none" fill-rule="evenodd" />
  <path d="M 386.00 372.00 C 385.00 372.20, 385.20 369.80, 385.00 373.00 C 384.80 376.20, 385.20 384.80, 385.00 388.00 C 384.80 391.20, 384.20 387.40, 384.00 389.00 C 383.80 390.60, 383.80 394.60, 384.00 396.00 C 384.20 397.40, 384.60 395.80, 385.00 396.00 C 385.40 396.20, 385.80 396.40, 386.00 397.00 C 386.20 397.60, 385.80 398.40, 386.00 399.00 C 386.20 399.60, 386.80 399.60, 387.00 400.00 C 387.20 400.40, 386.20 400.80, 387.00 401.00 C 387.80 401.20, 390.20 403.80, 391.00 401.00 C 391.80 398.20, 390.80 390.00, 391.00 387.00 C 391.20 384.00, 391.80 387.00, 392.00 386.00 C 392.20 385.00, 392.40 383.40, 392.00 382.00 C 391.60 380.60, 390.40 381.00, 390.00 379.00 C 389.60 377.00, 390.80 373.40, 390.00 372.00 C 389.20 370.60, 387.00 371.80, 386.00 372.00 Z" fill="#080305" stroke="none" fill-rule="evenodd" />
  <path d="M 353.00 275.00 C 340.40 276.20, 351.40 279.80, 353.00 281.00 C 354.60 282.20, 359.20 281.20, 361.00 281.00 C 362.80 280.80, 360.40 280.20, 362.00 280.00 C 363.60 279.80, 367.40 280.20, 369.00 280.00 C 370.60 279.80, 362.80 279.20, 370.00 279.00 C 377.20 278.80, 396.80 278.60, 405.00 279.00 C 413.20 279.40, 408.80 280.60, 411.00 281.00 C 413.20 281.40, 415.00 282.20, 416.00 281.00 C 417.00 279.80, 428.60 276.20, 416.00 275.00 C 403.40 273.80, 365.60 273.80, 353.00 275.00 Z" fill="#080305" stroke="none" fill-rule="evenodd" />
  <path d="M 286.00 113.00 C 272.20 113.80, 272.20 116.20, 286.00 117.00 C 299.80 117.80, 341.20 117.80, 355.00 117.00 C 368.80 116.20, 368.80 113.80, 355.00 113.00 C 341.20 112.20, 299.80 112.20, 286.00 113.00 Z" fill="#080305" stroke="none" fill-rule="evenodd" />
</svg>