<svg xmlns="http://www.w3.org/2000/svg" width="662" height="532" viewBox="0 0 662 532">
<!-- Generated by apx-clsct -->
  <rect width="662" height="532" fill="none" />
  <path d="M 266.00 121.00 C 258.20 112.00, 226.60 120.60, 216.00 122.00 C 205.40 123.40, 226.60 125.80, 213.00 128.00 C 199.40 130.20, 162.40 124.20, 148.00 133.00 C 133.60 141.80, 135.40 164.00, 141.00 172.00 C 146.60 180.00, 167.60 152.40, 176.00 173.00 C 184.40 193.60, 173.60 255.20, 183.00 275.00 C 192.40 294.80, 216.00 292.40, 223.00 272.00 C 230.00 251.60, 218.40 193.80, 218.00 173.00 C 217.60 152.20, 213.60 169.20, 221.00 168.00 C 228.40 166.80, 246.00 176.40, 255.00 167.00 C 264.00 157.60, 273.80 130.00, 266.00 121.00 Z" fill="#EE1717" stroke="none" fill-rule="evenodd" />
  <path d="M 641.00 109.00 C 636.60 96.00, 618.80 97.80, 601.00 96.00 C 583.20 94.20, 568.00 95.20, 552.00 100.00 C 536.00 104.80, 529.20 110.00, 521.00 120.00 C 512.80 130.00, 519.00 148.40, 511.00 150.00 C 503.00 151.60, 503.20 133.20, 481.00 128.00 C 458.80 122.80, 417.60 101.80, 400.00 124.00 C 382.40 146.20, 400.20 239.20, 393.00 239.00 C 385.80 238.80, 387.20 146.80, 364.00 123.00 C 340.80 99.20, 296.40 112.40, 277.00 120.00 C 257.60 127.60, 266.00 150.20, 267.00 161.00 C 268.00 171.80, 285.20 151.20, 282.00 174.00 C 278.80 196.80, 247.60 255.00, 251.00 275.00 C 254.40 295.00, 287.40 279.00, 299.00 274.00 C 310.60 269.00, 299.60 254.80, 309.00 250.00 C 318.40 245.20, 336.40 245.00, 346.00 250.00 C 355.60 255.00, 338.40 270.00, 357.00 275.00 C 375.60 280.00, 421.80 283.40, 439.00 275.00 C 456.20 266.60, 438.80 232.80, 443.00 233.00 C 447.20 233.20, 428.80 266.00, 460.00 276.00 C 491.20 286.00, 564.40 288.40, 599.00 283.00 C 633.60 277.60, 625.80 264.00, 633.00 249.00 C 640.20 234.00, 647.60 228.00, 635.00 208.00 C 622.40 188.00, 572.40 158.40, 570.00 149.00 C 567.60 139.60, 608.80 169.00, 623.00 161.00 C 637.20 153.00, 645.40 122.00, 641.00 109.00 Z M 571.00 213.00 C 568.20 211.40, 566.60 213.60, 565.00 213.00 C 563.40 212.40, 564.80 210.80, 563.00 210.00 C 561.20 209.20, 561.60 211.20, 556.00 209.00 C 550.40 206.80, 540.00 202.20, 535.00 199.00 C 530.00 195.80, 532.80 194.40, 531.00 193.00 C 529.20 191.60, 528.80 194.20, 526.00 192.00 C 523.20 189.80, 519.20 183.60, 517.00 182.00 C 514.80 180.40, 515.80 179.60, 515.00 184.00 C 514.20 188.40, 514.40 199.00, 513.00 204.00 C 511.60 209.00, 509.60 206.40, 508.00 209.00 C 506.40 211.60, 508.60 213.00, 505.00 217.00 C 501.40 221.00, 492.60 224.80, 490.00 229.00 C 487.40 233.20, 491.00 236.00, 492.00 238.00 C 493.00 240.00, 494.40 238.00, 495.00 239.00 C 495.60 240.00, 494.00 240.80, 495.00 243.00 C 496.00 245.20, 499.00 247.40, 500.00 250.00 C 501.00 252.60, 498.60 254.00, 500.00 256.00 C 501.40 258.00, 503.00 267.80, 507.00 260.00 C 511.00 252.20, 515.80 225.20, 520.00 217.00 C 524.20 208.80, 520.80 215.60, 528.00 219.00 C 535.20 222.40, 546.60 231.00, 556.00 234.00 C 565.40 237.00, 570.20 235.00, 575.00 234.00 C 579.80 233.00, 579.20 231.60, 580.00 229.00 C 580.80 226.40, 580.80 224.20, 579.00 221.00 C 577.20 217.80, 573.80 214.60, 571.00 213.00 Z M 327.00 169.00 C 326.40 169.60, 325.40 167.80, 325.00 170.00 C 324.60 172.20, 325.40 177.40, 325.00 180.00 C 324.60 182.60, 323.40 181.80, 323.00 183.00 C 322.60 184.20, 323.40 184.60, 323.00 186.00 C 322.60 187.40, 321.40 188.40, 321.00 190.00 C 320.60 191.60, 321.40 192.60, 321.00 194.00 C 320.60 195.40, 319.40 195.60, 319.00 197.00 C 318.60 198.40, 319.60 199.80, 319.00 201.00 C 318.40 202.20, 316.60 200.80, 316.00 203.00 C 315.40 205.20, 315.60 209.80, 316.00 212.00 C 316.40 214.20, 313.80 213.60, 318.00 214.00 C 322.20 214.40, 333.00 213.80, 337.00 214.00 C 341.00 214.20, 337.40 215.20, 338.00 215.00 C 338.60 214.80, 339.20 213.40, 340.00 213.00 C 340.80 212.60, 341.40 212.80, 342.00 213.00 C 342.60 213.20, 342.60 214.20, 343.00 214.00 C 343.40 213.80, 344.60 212.80, 344.00 212.00 C 343.40 211.20, 341.00 212.80, 340.00 210.00 C 339.00 207.20, 339.40 201.00, 339.00 198.00 C 338.60 195.00, 338.60 195.80, 338.00 195.00 C 337.40 194.20, 336.40 195.80, 336.00 194.00 C 335.60 192.20, 336.20 187.80, 336.00 186.00 C 335.80 184.20, 335.20 186.00, 335.00 185.00 C 334.80 184.00, 335.40 182.40, 335.00 181.00 C 334.60 179.60, 333.40 179.60, 333.00 178.00 C 332.60 176.40, 333.60 175.00, 333.00 173.00 C 332.40 171.00, 331.00 169.20, 330.00 168.00 C 329.00 166.80, 328.60 166.80, 328.00 167.00 C 327.40 167.20, 327.60 168.40, 327.00 169.00 Z M 453.00 164.00 C 451.60 164.20, 448.40 163.80, 447.00 164.00 C 445.60 164.20, 447.00 164.80, 446.00 165.00 C 445.00 165.20, 443.20 165.20, 442.00 165.00 C 440.80 164.80, 441.00 163.40, 440.00 164.00 C 439.00 164.60, 437.60 162.20, 437.00 168.00 C 436.40 173.80, 437.20 187.60, 437.00 193.00 C 436.80 198.40, 435.60 194.00, 436.00 195.00 C 436.40 196.00, 435.20 197.40, 439.00 198.00 C 442.80 198.60, 451.60 198.20, 455.00 198.00 C 458.40 197.80, 455.20 197.20, 456.00 197.00 C 456.80 196.80, 457.40 197.80, 459.00 197.00 C 460.60 196.20, 462.60 194.60, 464.00 193.00 C 465.40 191.40, 465.20 190.00, 466.00 189.00 C 466.80 188.00, 467.60 189.60, 468.00 188.00 C 468.40 186.40, 467.80 182.60, 468.00 181.00 C 468.20 179.40, 468.80 180.80, 469.00 180.00 C 469.20 179.20, 469.40 178.00, 469.00 177.00 C 468.60 176.00, 467.40 175.80, 467.00 175.00 C 466.60 174.20, 468.40 174.60, 467.00 173.00 C 465.60 171.40, 462.20 168.40, 460.00 167.00 C 457.80 165.60, 457.20 166.80, 456.00 166.00 C 454.80 165.20, 454.60 163.40, 454.00 163.00 C 453.40 162.60, 454.40 163.80, 453.00 164.00 Z" fill="#EE1717" stroke="none" fill-rule="evenodd" />
  <path d="M 148.00 92.00 C 140.40 79.40, 107.00 84.20, 96.00 84.00 C 85.00 83.80, 102.60 88.60, 93.00 91.00 C 83.40 93.40, 61.80 91.00, 48.00 96.00 C 34.20 101.00, 30.40 108.20, 24.00 116.00 C 17.60 123.80, 17.60 125.80, 16.00 135.00 C 14.40 144.20, 14.20 152.40, 16.00 162.00 C 17.80 171.60, 20.60 176.40, 25.00 183.00 C 29.40 189.60, 23.20 187.40, 38.00 195.00 C 52.80 202.60, 90.20 213.20, 99.00 221.00 C 107.80 228.80, 94.80 233.60, 82.00 234.00 C 69.20 234.40, 46.40 214.80, 35.00 223.00 C 23.60 231.20, 20.00 262.20, 25.00 275.00 C 30.00 287.80, 45.00 284.60, 60.00 287.00 C 75.00 289.40, 87.20 288.60, 100.00 287.00 C 112.80 285.40, 115.00 284.00, 124.00 279.00 C 133.00 274.00, 138.40 272.00, 145.00 262.00 C 151.60 252.00, 156.60 243.60, 157.00 229.00 C 157.40 214.40, 153.00 200.40, 147.00 189.00 C 141.00 177.60, 140.40 178.40, 127.00 172.00 C 113.60 165.60, 90.00 162.40, 80.00 157.00 C 70.00 151.60, 76.00 148.60, 77.00 145.00 C 78.00 141.40, 77.60 140.20, 85.00 139.00 C 92.40 137.80, 104.20 137.40, 114.00 139.00 C 123.80 140.60, 127.20 156.40, 134.00 147.00 C 140.80 137.60, 155.60 104.60, 148.00 92.00 Z" fill="#EE1717" stroke="none" fill-rule="evenodd" />
  <path d="M 319.00 340.00 C 318.40 339.40, 318.60 340.60, 318.00 340.00 C 317.40 339.40, 317.00 338.00, 316.00 337.00 C 315.00 336.00, 315.80 335.20, 313.00 335.00 C 310.20 334.80, 304.40 335.60, 302.00 336.00 C 299.60 336.40, 301.60 336.80, 301.00 337.00 C 300.40 337.20, 299.60 336.60, 299.00 337.00 C 298.40 337.40, 298.80 338.60, 298.00 339.00 C 297.20 339.40, 296.80 338.00, 295.00 339.00 C 293.20 340.00, 290.40 343.00, 289.00 344.00 C 287.60 345.00, 289.20 342.00, 288.00 344.00 C 286.80 346.00, 284.00 351.00, 283.00 354.00 C 282.00 357.00, 282.40 357.60, 283.00 359.00 C 283.60 360.40, 284.80 359.80, 286.00 361.00 C 287.20 362.20, 285.80 364.20, 289.00 365.00 C 292.20 365.80, 299.20 365.40, 302.00 365.00 C 304.80 364.60, 302.00 363.40, 303.00 363.00 C 304.00 362.60, 305.80 363.20, 307.00 363.00 C 308.20 362.80, 307.80 363.00, 309.00 362.00 C 310.20 361.00, 312.00 358.80, 313.00 358.00 C 314.00 357.20, 313.40 358.40, 314.00 358.00 C 314.60 357.60, 315.60 356.80, 316.00 356.00 C 316.40 355.20, 315.40 354.80, 316.00 354.00 C 316.60 353.20, 318.40 353.40, 319.00 352.00 C 319.60 350.60, 318.60 348.40, 319.00 347.00 C 319.40 345.60, 320.60 345.80, 321.00 345.00 C 321.40 344.20, 321.40 344.00, 321.00 343.00 C 320.60 342.00, 319.60 340.60, 319.00 340.00 Z" fill="#FEFEFE" stroke="none" fill-rule="evenodd" />
  <path d="M 462.00 312.00 C 456.40 310.80, 447.20 306.80, 439.00 321.00 C 430.80 335.20, 421.20 359.20, 421.00 383.00 C 420.80 406.80, 433.00 429.40, 438.00 440.00 C 443.00 450.60, 442.60 438.80, 446.00 436.00 C 449.40 433.20, 451.20 433.20, 455.00 426.00 C 458.80 418.80, 462.80 409.00, 465.00 400.00 C 467.20 391.00, 468.80 385.00, 466.00 381.00 C 463.20 377.00, 451.80 383.20, 451.00 380.00 C 450.20 376.80, 458.80 371.00, 462.00 365.00 C 465.20 359.00, 466.00 357.60, 467.00 350.00 C 468.00 342.40, 468.00 334.60, 467.00 327.00 C 466.00 319.40, 467.60 313.20, 462.00 312.00 Z" fill="#FEFEFE" stroke="none" fill-rule="evenodd" />
  <path d="M 191.00 312.00 C 185.60 313.40, 187.80 319.40, 187.00 327.00 C 186.20 334.60, 185.60 341.60, 187.00 350.00 C 188.40 358.40, 192.00 365.00, 194.00 369.00 C 196.00 373.00, 195.20 367.80, 197.00 370.00 C 198.80 372.20, 204.60 378.00, 203.00 380.00 C 201.40 382.00, 191.60 375.20, 189.00 380.00 C 186.40 384.80, 188.20 395.20, 190.00 404.00 C 191.80 412.80, 193.60 417.00, 198.00 424.00 C 202.40 431.00, 208.20 435.80, 212.00 439.00 C 215.80 442.20, 212.80 451.40, 217.00 440.00 C 221.20 428.60, 233.60 406.00, 233.00 382.00 C 232.40 358.00, 222.40 334.00, 214.00 320.00 C 205.60 306.00, 196.40 310.60, 191.00 312.00 Z" fill="#FEFEFE" stroke="none" fill-rule="evenodd" />
  <path d="M 325.00 273.00 C 323.80 265.40, 322.20 272.60, 320.00 274.00 C 317.80 275.40, 315.20 278.20, 314.00 280.00 C 312.80 281.80, 315.20 281.80, 314.00 283.00 C 312.80 284.20, 309.40 284.40, 308.00 286.00 C 306.60 287.60, 308.40 289.60, 307.00 291.00 C 305.60 292.40, 302.20 292.00, 301.00 293.00 C 299.80 294.00, 302.60 294.20, 301.00 296.00 C 299.40 297.80, 295.00 299.80, 293.00 302.00 C 291.00 304.20, 293.00 305.00, 291.00 307.00 C 289.00 309.00, 292.80 309.20, 283.00 312.00 C 273.20 314.80, 251.00 318.60, 242.00 321.00 C 233.00 323.40, 240.40 323.40, 238.00 324.00 C 235.60 324.60, 231.60 323.40, 230.00 324.00 C 228.40 324.60, 223.00 322.60, 230.00 327.00 C 237.00 331.40, 255.40 345.20, 265.00 346.00 C 274.60 346.80, 273.20 335.60, 278.00 331.00 C 282.80 326.40, 282.80 326.40, 289.00 323.00 C 295.20 319.60, 301.60 316.20, 309.00 314.00 C 316.40 311.80, 322.80 320.20, 326.00 312.00 C 329.20 303.80, 326.20 280.60, 325.00 273.00 Z" fill="#FEFEFE" stroke="none" fill-rule="evenodd" />
  <path d="M 661.00 100.00 C 655.40 28.80, 635.20 146.40, 633.00 175.00 C 630.80 203.60, 653.80 217.00, 650.00 243.00 C 646.20 269.00, 631.00 286.60, 614.00 305.00 C 597.00 323.40, 592.60 330.20, 565.00 335.00 C 537.40 339.80, 496.00 310.80, 476.00 329.00 C 456.00 347.20, 494.80 385.80, 465.00 426.00 C 435.20 466.20, 381.00 528.40, 327.00 530.00 C 273.00 531.60, 224.60 480.20, 195.00 434.00 C 165.40 387.80, 194.80 318.60, 179.00 299.00 C 163.20 279.40, 144.80 332.20, 116.00 336.00 C 87.20 339.80, 56.60 328.80, 35.00 318.00 C 13.40 307.20, 10.60 304.60, 8.00 282.00 C 5.40 259.40, 23.60 230.00, 22.00 205.00 C 20.40 180.00, 4.40 91.80, 0.00 157.00 C -4.40 222.20, -132.20 456.20, 0.00 531.00 C 132.20 605.80, 528.80 617.20, 661.00 531.00 C 793.20 444.80, 666.60 171.20, 661.00 100.00 Z" fill="#FEFEFE" stroke="none" fill-rule="evenodd" />
  <path d="M 478.00 16.00 C 472.00 20.60, 473.80 34.80, 474.00 40.00 C 474.20 45.20, 478.80 30.60, 479.00 42.00 C 479.20 53.40, 466.80 85.20, 475.00 97.00 C 483.20 108.80, 509.60 105.20, 520.00 101.00 C 530.40 96.80, 530.60 81.60, 527.00 76.00 C 523.40 70.40, 506.20 84.40, 502.00 73.00 C 497.80 61.60, 505.60 30.20, 506.00 19.00 C 506.40 7.80, 509.60 17.60, 504.00 17.00 C 498.40 16.40, 484.00 11.40, 478.00 16.00 Z" fill="#FEFEFE" stroke="none" fill-rule="evenodd" />
  <path d="M 200.00 16.00 C 195.60 14.60, 196.20 14.00, 186.00 15.00 C 175.80 16.00, 156.80 15.20, 149.00 21.00 C 141.20 26.80, 146.40 39.20, 147.00 44.00 C 147.60 48.80, 149.60 33.40, 152.00 45.00 C 154.40 56.60, 149.20 91.60, 159.00 102.00 C 168.80 112.40, 190.80 98.80, 201.00 97.00 C 211.20 95.20, 206.80 95.60, 210.00 93.00 C 213.20 90.40, 215.40 88.80, 217.00 84.00 C 218.60 79.20, 218.20 73.20, 218.00 69.00 C 217.80 64.80, 218.60 66.40, 216.00 63.00 C 213.40 59.60, 206.00 55.80, 205.00 52.00 C 204.00 48.20, 209.80 48.80, 211.00 44.00 C 212.20 39.20, 211.60 32.40, 211.00 28.00 C 210.40 23.60, 210.20 24.40, 208.00 22.00 C 205.80 19.60, 204.40 17.40, 200.00 16.00 Z M 178.00 68.00 C 177.80 69.20, 177.80 71.80, 178.00 73.00 C 178.20 74.20, 178.80 72.60, 179.00 74.00 C 179.20 75.40, 178.80 78.60, 179.00 80.00 C 179.20 81.40, 178.60 80.80, 180.00 81.00 C 181.40 81.20, 184.60 81.20, 186.00 81.00 C 187.40 80.80, 186.60 80.20, 187.00 80.00 C 187.40 79.80, 187.00 80.80, 188.00 80.00 C 189.00 79.20, 191.20 77.80, 192.00 76.00 C 192.80 74.20, 192.80 72.80, 192.00 71.00 C 191.20 69.20, 189.20 67.80, 188.00 67.00 C 186.80 66.20, 186.60 67.20, 186.00 67.00 C 185.40 66.80, 185.60 66.20, 185.00 66.00 C 184.40 65.80, 183.60 65.80, 183.00 66.00 C 182.40 66.20, 182.80 66.80, 182.00 67.00 C 181.20 67.20, 179.80 66.80, 179.00 67.00 C 178.20 67.20, 178.20 66.80, 178.00 68.00 Z M 175.00 48.00 C 175.40 50.20, 176.40 49.80, 177.00 50.00 C 177.60 50.20, 176.80 49.20, 178.00 49.00 C 179.20 48.80, 181.60 49.40, 183.00 49.00 C 184.40 48.60, 184.60 47.60, 185.00 47.00 C 185.40 46.40, 184.80 46.40, 185.00 46.00 C 185.20 45.60, 185.80 45.60, 186.00 45.00 C 186.20 44.40, 186.20 43.60, 186.00 43.00 C 185.80 42.40, 185.20 42.60, 185.00 42.00 C 184.80 41.40, 185.20 40.60, 185.00 40.00 C 184.80 39.40, 184.60 39.20, 184.00 39.00 C 183.40 38.80, 182.60 39.20, 182.00 39.00 C 181.40 38.80, 182.20 38.20, 181.00 38.00 C 179.80 37.80, 177.20 37.80, 176.00 38.00 C 174.80 38.20, 175.20 37.00, 175.00 39.00 C 174.80 41.00, 174.60 45.80, 175.00 48.00 Z" fill="#FEFEFE" stroke="none" fill-rule="evenodd" />
  <path d="M 473.00 12.00 C 469.60 -4.40, 450.40 7.40, 443.00 14.00 C 435.60 20.60, 439.80 44.60, 436.00 45.00 C 432.20 45.40, 431.20 21.40, 424.00 16.00 C 416.80 10.60, 406.00 11.60, 400.00 18.00 C 394.00 24.40, 397.40 47.80, 394.00 48.00 C 390.60 48.20, 391.40 24.40, 383.00 19.00 C 374.60 13.60, 353.00 4.40, 352.00 21.00 C 351.00 37.60, 366.40 86.20, 378.00 102.00 C 389.60 117.80, 402.20 106.40, 410.00 100.00 C 417.80 93.60, 413.60 70.40, 417.00 70.00 C 420.40 69.60, 418.40 92.80, 427.00 98.00 C 435.60 103.20, 450.80 113.20, 460.00 96.00 C 469.20 78.80, 476.40 28.40, 473.00 12.00 Z" fill="#FEFEFE" stroke="none" fill-rule="evenodd" />
  <path d="M 223.00 11.00 C 213.60 15.60, 217.20 30.80, 217.00 36.00 C 216.80 41.20, 221.40 25.40, 222.00 37.00 C 222.60 48.60, 215.60 82.40, 220.00 94.00 C 224.40 105.60, 238.80 99.00, 244.00 95.00 C 249.20 91.00, 244.00 74.20, 246.00 74.00 C 248.00 73.80, 246.60 89.60, 254.00 94.00 C 261.40 98.40, 279.40 100.80, 283.00 96.00 C 286.60 91.20, 273.00 76.20, 272.00 70.00 C 271.00 63.80, 275.40 68.60, 278.00 65.00 C 280.60 61.40, 283.60 58.40, 285.00 52.00 C 286.40 45.60, 286.00 38.80, 285.00 33.00 C 284.00 27.20, 284.20 27.00, 280.00 23.00 C 275.80 19.00, 275.40 15.40, 264.00 13.00 C 252.60 10.60, 232.40 6.40, 223.00 11.00 Z M 247.00 37.00 C 246.80 37.60, 247.20 38.40, 247.00 39.00 C 246.80 39.60, 246.20 37.80, 246.00 40.00 C 245.80 42.20, 245.80 47.80, 246.00 50.00 C 246.20 52.20, 244.80 50.80, 247.00 51.00 C 249.20 51.20, 254.80 51.20, 257.00 51.00 C 259.20 50.80, 257.80 50.40, 258.00 50.00 C 258.20 49.60, 257.80 49.20, 258.00 49.00 C 258.20 48.80, 258.60 49.20, 259.00 49.00 C 259.40 48.80, 259.80 48.60, 260.00 48.00 C 260.20 47.40, 259.80 46.60, 260.00 46.00 C 260.20 45.40, 260.80 45.80, 261.00 45.00 C 261.20 44.20, 261.40 43.00, 261.00 42.00 C 260.60 41.00, 259.40 40.60, 259.00 40.00 C 258.60 39.40, 259.20 39.40, 259.00 39.00 C 258.80 38.60, 258.40 38.20, 258.00 38.00 C 257.60 37.80, 257.40 38.20, 257.00 38.00 C 256.60 37.80, 256.40 37.20, 256.00 37.00 C 255.60 36.80, 255.40 37.20, 255.00 37.00 C 254.60 36.80, 255.40 36.20, 254.00 36.00 C 252.60 35.80, 249.40 35.80, 248.00 36.00 C 246.60 36.20, 247.20 36.40, 247.00 37.00 Z" fill="#FEFEFE" stroke="none" fill-rule="evenodd" />
  <path d="M 340.00 10.00 C 325.20 -5.80, 303.00 8.80, 293.00 14.00 C 283.00 19.20, 289.40 31.40, 290.00 36.00 C 290.60 40.60, 294.60 36.20, 296.00 37.00 C 297.40 37.80, 299.20 27.80, 297.00 40.00 C 294.80 52.20, 282.20 86.60, 285.00 98.00 C 287.80 109.40, 304.60 99.80, 311.00 97.00 C 317.40 94.20, 313.00 86.80, 317.00 84.00 C 321.00 81.20, 326.80 83.00, 331.00 83.00 C 335.20 83.00, 336.20 81.80, 338.00 84.00 C 339.80 86.20, 334.20 92.20, 340.00 94.00 C 345.80 95.80, 367.00 109.80, 367.00 93.00 C 367.00 76.20, 354.80 25.80, 340.00 10.00 Z M 322.00 42.00 C 321.80 43.00, 322.20 45.00, 322.00 46.00 C 321.80 47.00, 321.20 46.00, 321.00 47.00 C 320.80 48.00, 321.20 50.00, 321.00 51.00 C 320.80 52.00, 320.20 50.80, 320.00 52.00 C 319.80 53.20, 320.20 55.80, 320.00 57.00 C 319.80 58.20, 319.20 57.20, 319.00 58.00 C 318.80 58.80, 318.80 60.20, 319.00 61.00 C 319.20 61.80, 318.00 61.80, 320.00 62.00 C 322.00 62.20, 327.00 62.20, 329.00 62.00 C 331.00 61.80, 329.80 61.60, 330.00 61.00 C 330.20 60.40, 330.20 59.60, 330.00 59.00 C 329.80 58.40, 329.20 58.60, 329.00 58.00 C 328.80 57.40, 329.20 56.60, 329.00 56.00 C 328.80 55.40, 328.20 55.60, 328.00 55.00 C 327.80 54.40, 328.20 53.60, 328.00 53.00 C 327.80 52.40, 327.20 52.60, 327.00 52.00 C 326.80 51.40, 327.20 50.60, 327.00 50.00 C 326.80 49.40, 326.20 49.80, 326.00 49.00 C 325.80 48.20, 326.20 46.80, 326.00 46.00 C 325.80 45.20, 325.20 45.60, 325.00 45.00 C 324.80 44.40, 325.40 43.80, 325.00 43.00 C 324.60 42.20, 323.60 41.20, 323.00 41.00 C 322.40 40.80, 322.20 41.00, 322.00 42.00 Z" fill="#FEFEFE" stroke="none" fill-rule="evenodd" />
  <path d="M 0.00 0.00 C -132.20 27.80, -2.00 117.00, 0.00 139.00 C 2.00 161.00, 0.60 121.60, 10.00 110.00 C 19.40 98.40, 31.80 89.40, 47.00 81.00 C 62.20 72.60, 66.40 68.80, 86.00 68.00 C 105.60 67.20, 133.80 88.40, 145.00 77.00 C 156.20 65.60, 128.20 24.00, 142.00 11.00 C 155.80 -2.00, 199.00 13.80, 214.00 12.00 C 229.00 10.20, 203.00 1.80, 217.00 2.00 C 231.00 2.20, 258.00 13.20, 284.00 13.00 C 310.00 12.80, 333.60 1.20, 347.00 1.00 C 360.40 0.80, 323.80 11.80, 351.00 12.00 C 378.20 12.20, 450.00 2.40, 483.00 2.00 C 516.00 1.60, 510.20 -2.40, 516.00 10.00 C 521.80 22.40, 507.20 52.40, 512.00 64.00 C 516.80 75.60, 535.80 62.60, 540.00 68.00 C 544.20 73.40, 522.80 89.00, 533.00 91.00 C 543.20 93.00, 565.40 76.80, 591.00 78.00 C 616.60 79.20, 647.00 112.60, 661.00 97.00 C 675.00 81.40, 793.20 19.40, 661.00 0.00 C 528.80 -19.40, 132.20 -27.80, 0.00 0.00 Z" fill="#FEFEFE" stroke="none" fill-rule="evenodd" />
  <path d="M 191.00 420.00 C 189.80 420.60, 190.80 422.20, 191.00 423.00 C 191.20 423.80, 191.80 423.60, 192.00 424.00 C 192.20 424.40, 192.20 424.60, 192.00 425.00 C 191.80 425.40, 191.20 425.20, 191.00 426.00 C 190.80 426.80, 190.80 428.40, 191.00 429.00 C 191.20 429.60, 191.60 428.80, 192.00 429.00 C 192.40 429.20, 192.80 429.60, 193.00 430.00 C 193.20 430.40, 192.80 430.60, 193.00 431.00 C 193.20 431.40, 193.80 431.60, 194.00 432.00 C 194.20 432.40, 193.40 432.80, 194.00 433.00 C 194.60 433.20, 196.00 433.40, 197.00 433.00 C 198.00 432.60, 198.60 432.00, 199.00 431.00 C 199.40 430.00, 198.80 428.80, 199.00 428.00 C 199.20 427.20, 199.80 427.60, 200.00 427.00 C 200.20 426.40, 200.20 425.60, 200.00 425.00 C 199.80 424.40, 199.20 424.40, 199.00 424.00 C 198.80 423.60, 199.40 423.60, 199.00 423.00 C 198.60 422.40, 197.40 421.60, 197.00 421.00 C 196.60 420.40, 198.20 420.20, 197.00 420.00 C 195.80 419.80, 192.20 419.40, 191.00 420.00 Z" fill="#000000" stroke="none" fill-rule="evenodd" />
  <path d="M 515.00 9.00 C 440.60 -1.60, 214.00 -2.60, 140.00 11.00 C 66.00 24.60, 156.00 65.60, 145.00 77.00 C 134.00 88.40, 112.60 60.40, 85.00 68.00 C 57.40 75.60, 19.60 87.40, 7.00 115.00 C -5.60 142.60, 21.60 172.00, 22.00 206.00 C 22.40 240.00, 6.00 262.20, 9.00 285.00 C 12.00 307.80, 21.40 309.80, 37.00 320.00 C 52.60 330.20, 65.60 334.20, 87.00 336.00 C 108.40 337.80, 125.80 336.60, 144.00 329.00 C 162.20 321.40, 169.20 280.40, 178.00 298.00 C 186.80 315.60, 185.80 400.40, 188.00 417.00 C 190.20 433.60, 185.60 388.40, 189.00 381.00 C 192.40 373.60, 205.40 390.80, 205.00 380.00 C 204.60 369.20, 185.60 339.40, 187.00 327.00 C 188.40 314.60, 202.80 306.40, 212.00 318.00 C 221.20 329.60, 234.80 360.20, 233.00 385.00 C 231.20 409.80, 185.20 413.80, 203.00 442.00 C 220.80 470.20, 277.60 519.40, 322.00 526.00 C 366.40 532.60, 405.40 488.60, 425.00 475.00 C 444.60 461.40, 410.80 470.60, 420.00 458.00 C 429.20 445.40, 459.80 437.60, 471.00 412.00 C 482.20 386.40, 454.00 346.20, 476.00 330.00 C 498.00 313.80, 546.20 348.00, 581.00 331.00 C 615.80 314.00, 639.80 275.40, 650.00 245.00 C 660.20 214.60, 630.00 208.60, 632.00 179.00 C 634.00 149.40, 668.40 117.20, 660.00 97.00 C 651.60 76.80, 615.20 79.20, 590.00 78.00 C 564.80 76.80, 544.20 93.20, 534.00 91.00 C 523.80 88.80, 543.40 72.40, 539.00 67.00 C 534.60 61.60, 516.80 75.60, 512.00 64.00 C 507.20 52.40, 589.40 19.60, 515.00 9.00 Z M 448.00 315.00 C 443.20 317.40, 443.40 309.20, 438.00 323.00 C 432.60 336.80, 422.00 364.40, 421.00 384.00 C 420.00 403.60, 430.60 411.80, 433.00 421.00 C 435.40 430.20, 432.40 427.80, 433.00 430.00 C 433.60 432.20, 434.80 429.40, 436.00 432.00 C 437.20 434.60, 437.80 442.00, 439.00 443.00 C 440.20 444.00, 438.80 440.60, 442.00 437.00 C 445.20 433.40, 450.40 432.00, 455.00 425.00 C 459.60 418.00, 463.00 410.80, 465.00 402.00 C 467.00 393.20, 467.60 385.40, 465.00 381.00 C 462.40 376.60, 454.60 380.80, 452.00 380.00 C 449.40 379.20, 450.40 379.00, 452.00 377.00 C 453.60 375.00, 457.20 374.20, 460.00 370.00 C 462.80 365.80, 464.60 364.20, 466.00 356.00 C 467.40 347.80, 467.80 338.00, 467.00 329.00 C 466.20 320.00, 465.80 313.80, 462.00 311.00 C 458.20 308.20, 452.80 312.60, 448.00 315.00 Z M 285.00 312.00 C 266.00 323.60, 243.80 323.20, 232.00 325.00 C 220.20 326.80, 224.20 308.60, 226.00 321.00 C 227.80 333.40, 241.20 362.80, 241.00 387.00 C 240.80 411.20, 215.60 427.60, 225.00 442.00 C 234.40 456.40, 267.00 446.80, 288.00 459.00 C 309.00 471.20, 314.00 503.40, 330.00 503.00 C 346.00 502.60, 348.40 468.80, 368.00 457.00 C 387.60 445.20, 419.00 459.20, 428.00 444.00 C 437.00 428.80, 412.40 405.00, 413.00 381.00 C 413.60 357.00, 440.00 338.20, 431.00 324.00 C 422.00 309.80, 388.80 321.40, 368.00 310.00 C 347.20 298.60, 343.60 266.60, 327.00 267.00 C 310.40 267.40, 304.00 300.40, 285.00 312.00 Z M 361.00 380.00 C 361.80 381.20, 362.60 382.40, 364.00 383.00 C 365.40 383.60, 367.20 382.60, 368.00 383.00 C 368.80 383.40, 367.60 384.00, 368.00 385.00 C 368.40 386.00, 369.60 385.20, 370.00 388.00 C 370.40 390.80, 370.60 395.60, 370.00 399.00 C 369.40 402.40, 368.00 403.80, 367.00 405.00 C 366.00 406.20, 365.80 404.60, 365.00 405.00 C 364.20 405.40, 364.00 406.60, 363.00 407.00 C 362.00 407.40, 361.00 407.20, 360.00 407.00 C 359.00 406.80, 359.20 405.60, 358.00 406.00 C 356.80 406.40, 355.20 408.40, 354.00 409.00 C 352.80 409.60, 353.60 410.00, 352.00 409.00 C 350.40 408.00, 347.40 405.40, 346.00 404.00 C 344.60 402.60, 345.60 402.40, 345.00 402.00 C 344.40 401.60, 343.60 402.20, 343.00 402.00 C 342.40 401.80, 342.20 401.60, 342.00 401.00 C 341.80 400.40, 342.20 399.60, 342.00 399.00 C 341.80 398.40, 341.60 398.20, 341.00 398.00 C 340.40 397.80, 339.40 399.00, 339.00 398.00 C 338.60 397.00, 338.80 394.20, 339.00 393.00 C 339.20 391.80, 340.00 392.40, 340.00 392.00 C 340.00 391.60, 339.20 392.20, 339.00 391.00 C 338.80 389.80, 338.80 387.40, 339.00 386.00 C 339.20 384.60, 339.40 384.40, 340.00 384.00 C 340.60 383.60, 341.40 384.20, 342.00 384.00 C 342.60 383.80, 342.80 383.60, 343.00 383.00 C 343.20 382.40, 342.60 381.80, 343.00 381.00 C 343.40 380.20, 343.20 379.40, 345.00 379.00 C 346.80 378.60, 350.40 379.40, 352.00 379.00 C 353.60 378.60, 351.40 377.40, 353.00 377.00 C 354.60 376.60, 358.40 376.40, 360.00 377.00 C 361.60 377.60, 360.20 378.80, 361.00 380.00 Z M 305.00 376.00 C 307.00 376.40, 305.80 378.40, 307.00 379.00 C 308.20 379.60, 310.00 378.80, 311.00 379.00 C 312.00 379.20, 311.80 379.20, 312.00 380.00 C 312.20 380.80, 311.80 382.20, 312.00 383.00 C 312.20 383.80, 312.20 383.80, 313.00 384.00 C 313.80 384.20, 315.40 383.40, 316.00 384.00 C 316.60 384.60, 315.80 386.20, 316.00 387.00 C 316.20 387.80, 316.80 385.60, 317.00 388.00 C 317.20 390.40, 317.40 396.80, 317.00 399.00 C 316.60 401.20, 315.80 398.40, 315.00 399.00 C 314.20 399.60, 314.60 400.60, 313.00 402.00 C 311.40 403.40, 308.20 404.80, 307.00 406.00 C 305.80 407.20, 309.00 407.60, 307.00 408.00 C 305.00 408.40, 299.40 408.40, 297.00 408.00 C 294.60 407.60, 296.40 406.40, 295.00 406.00 C 293.60 405.60, 291.20 406.20, 290.00 406.00 C 288.80 405.80, 289.20 405.80, 289.00 405.00 C 288.80 404.20, 289.40 403.00, 289.00 402.00 C 288.60 401.00, 287.40 401.20, 287.00 400.00 C 286.60 398.80, 287.40 397.00, 287.00 396.00 C 286.60 395.00, 285.40 396.40, 285.00 395.00 C 284.60 393.60, 284.60 390.80, 285.00 389.00 C 285.40 387.20, 286.60 387.00, 287.00 386.00 C 287.40 385.00, 286.80 384.60, 287.00 384.00 C 287.20 383.40, 287.20 383.20, 288.00 383.00 C 288.80 382.80, 289.60 384.00, 291.00 383.00 C 292.40 382.00, 293.80 379.20, 295.00 378.00 C 296.20 376.80, 295.00 377.40, 297.00 377.00 C 299.00 376.60, 303.00 375.60, 305.00 376.00 Z M 281.00 334.00 C 283.40 334.60, 285.20 337.60, 284.00 340.00 C 282.80 342.40, 278.20 340.60, 275.00 346.00 C 271.80 351.40, 269.40 357.40, 268.00 367.00 C 266.60 376.60, 266.20 385.80, 268.00 394.00 C 269.80 402.20, 276.20 404.60, 277.00 408.00 C 277.80 411.40, 268.80 408.20, 272.00 411.00 C 275.20 413.80, 287.20 416.40, 293.00 422.00 C 298.80 427.60, 288.80 435.60, 301.00 439.00 C 313.20 442.40, 342.40 442.00, 354.00 439.00 C 365.60 436.00, 354.80 428.60, 359.00 424.00 C 363.20 419.40, 369.00 422.80, 375.00 416.00 C 381.00 409.20, 387.00 402.40, 389.00 390.00 C 391.00 377.60, 387.20 362.20, 385.00 354.00 C 382.80 345.80, 378.40 351.60, 378.00 349.00 C 377.60 346.40, 379.20 336.60, 383.00 341.00 C 386.80 345.40, 395.00 357.80, 397.00 371.00 C 399.00 384.20, 395.80 396.40, 393.00 407.00 C 390.20 417.60, 388.20 417.60, 383.00 424.00 C 377.80 430.40, 375.00 433.80, 367.00 439.00 C 359.00 444.20, 352.60 447.60, 343.00 450.00 C 333.40 452.40, 330.00 453.00, 319.00 451.00 C 308.00 449.00, 297.60 445.20, 288.00 440.00 C 278.40 434.80, 277.20 434.20, 271.00 425.00 C 264.80 415.80, 259.60 406.00, 257.00 394.00 C 254.40 382.00, 255.00 376.40, 258.00 365.00 C 261.00 353.60, 267.40 343.20, 272.00 337.00 C 276.60 330.80, 278.60 333.40, 281.00 334.00 Z M 285.00 325.00 C 287.20 323.40, 292.40 325.00, 294.00 324.00 C 295.60 323.00, 290.80 321.80, 293.00 320.00 C 295.20 318.20, 299.80 316.60, 305.00 315.00 C 310.20 313.40, 314.40 312.60, 319.00 312.00 C 323.60 311.40, 325.80 311.60, 328.00 312.00 C 330.20 312.40, 328.00 313.40, 330.00 314.00 C 332.00 314.60, 335.60 315.00, 338.00 315.00 C 340.40 315.00, 340.60 313.60, 342.00 314.00 C 343.40 314.40, 343.40 316.60, 345.00 317.00 C 346.60 317.40, 345.40 314.40, 350.00 316.00 C 354.60 317.60, 364.00 322.60, 368.00 325.00 C 372.00 327.40, 369.80 326.80, 370.00 328.00 C 370.20 329.20, 370.00 330.40, 369.00 331.00 C 368.00 331.60, 365.80 330.60, 365.00 331.00 C 364.20 331.40, 366.20 332.60, 365.00 333.00 C 363.80 333.40, 361.40 334.00, 359.00 333.00 C 356.60 332.00, 355.60 329.20, 353.00 328.00 C 350.40 326.80, 347.60 328.20, 346.00 327.00 C 344.40 325.80, 346.20 322.60, 345.00 322.00 C 343.80 321.40, 346.00 323.80, 340.00 324.00 C 334.00 324.20, 321.00 323.00, 315.00 323.00 C 309.00 323.00, 312.20 323.00, 310.00 324.00 C 307.80 325.00, 306.40 327.40, 304.00 328.00 C 301.60 328.60, 299.80 326.00, 298.00 327.00 C 296.20 328.00, 296.20 331.80, 295.00 333.00 C 293.80 334.20, 292.80 332.40, 292.00 333.00 C 291.20 333.60, 292.80 336.20, 291.00 336.00 C 289.20 335.80, 284.20 334.20, 283.00 332.00 C 281.80 329.80, 282.80 326.60, 285.00 325.00 Z M 39.00 203.00 C 55.60 219.40, 96.00 218.00, 95.00 221.00 C 94.00 224.00, 48.60 207.40, 34.00 218.00 C 19.40 228.60, 9.80 259.00, 22.00 274.00 C 34.20 289.00, 70.20 295.20, 95.00 293.00 C 119.80 290.80, 134.20 286.80, 146.00 263.00 C 157.80 239.20, 148.60 191.80, 154.00 174.00 C 159.40 156.20, 168.20 153.20, 173.00 174.00 C 177.80 194.80, 167.60 257.60, 178.00 278.00 C 188.40 298.40, 216.60 297.00, 225.00 276.00 C 233.40 255.00, 212.60 196.40, 220.00 173.00 C 227.40 149.60, 250.60 159.80, 262.00 159.00 C 273.40 158.20, 279.40 145.40, 277.00 169.00 C 274.60 192.60, 236.40 260.00, 250.00 277.00 C 263.60 294.00, 323.80 253.60, 345.00 254.00 C 366.20 254.40, 337.40 274.20, 356.00 279.00 C 374.60 283.80, 420.20 285.00, 438.00 278.00 C 455.80 271.00, 440.40 243.60, 445.00 244.00 C 449.60 244.40, 434.60 270.40, 461.00 280.00 C 487.40 289.60, 541.40 300.40, 577.00 292.00 C 612.60 283.60, 627.00 256.80, 639.00 238.00 C 651.00 219.20, 650.40 214.00, 637.00 198.00 C 623.60 182.00, 574.00 165.20, 572.00 158.00 C 570.00 150.80, 612.80 172.20, 627.00 162.00 C 641.20 151.80, 648.60 121.00, 643.00 107.00 C 637.40 93.00, 621.00 92.40, 599.00 92.00 C 577.00 91.60, 550.80 94.40, 533.00 105.00 C 515.20 115.60, 536.80 141.80, 510.00 145.00 C 483.20 148.20, 422.20 108.40, 399.00 121.00 C 375.80 133.60, 401.20 208.80, 394.00 208.00 C 386.80 207.20, 412.20 133.00, 363.00 117.00 C 313.80 101.00, 194.00 116.60, 148.00 128.00 C 102.00 139.40, 147.00 170.00, 133.00 174.00 C 119.00 178.00, 77.80 152.40, 78.00 148.00 C 78.20 143.60, 119.40 163.00, 134.00 152.00 C 148.60 141.00, 168.00 105.40, 151.00 93.00 C 134.00 80.60, 76.80 80.80, 49.00 90.00 C 21.20 99.20, 14.00 116.40, 12.00 139.00 C 10.00 161.60, 22.40 186.60, 39.00 203.00 Z M 499.00 227.00 C 501.00 225.20, 501.40 221.80, 503.00 221.00 C 504.60 220.20, 505.80 223.40, 507.00 223.00 C 508.20 222.60, 507.80 219.80, 509.00 219.00 C 510.20 218.20, 512.80 219.60, 513.00 219.00 C 513.20 218.40, 510.60 217.40, 510.00 216.00 C 509.40 214.60, 509.20 214.00, 510.00 212.00 C 510.80 210.00, 513.20 208.00, 514.00 206.00 C 514.80 204.00, 511.80 204.20, 514.00 202.00 C 516.20 199.80, 520.20 195.20, 525.00 195.00 C 529.80 194.80, 534.80 198.60, 538.00 201.00 C 541.20 203.40, 539.40 206.00, 541.00 207.00 C 542.60 208.00, 543.40 205.20, 546.00 206.00 C 548.60 206.80, 549.60 209.20, 554.00 211.00 C 558.40 212.80, 563.40 212.60, 568.00 215.00 C 572.60 217.40, 575.60 219.60, 577.00 223.00 C 578.40 226.40, 577.00 230.60, 575.00 232.00 C 573.00 233.40, 570.00 230.00, 567.00 230.00 C 564.00 230.00, 563.20 232.00, 560.00 232.00 C 556.80 232.00, 553.20 231.20, 551.00 230.00 C 548.80 228.80, 550.40 226.60, 549.00 226.00 C 547.60 225.40, 549.60 229.40, 544.00 227.00 C 538.40 224.60, 526.80 214.40, 521.00 214.00 C 515.20 213.60, 517.80 217.40, 515.00 225.00 C 512.20 232.60, 509.00 246.60, 507.00 252.00 C 505.00 257.40, 505.80 253.60, 505.00 252.00 C 504.20 250.40, 504.40 245.60, 503.00 244.00 C 501.60 242.40, 500.00 246.80, 498.00 244.00 C 496.00 241.20, 492.80 233.40, 493.00 230.00 C 493.20 226.60, 497.00 228.80, 499.00 227.00 Z M 330.00 174.00 C 330.40 174.60, 329.80 176.20, 330.00 177.00 C 330.20 177.80, 330.80 176.60, 331.00 178.00 C 331.20 179.40, 331.20 182.60, 331.00 184.00 C 330.80 185.40, 330.00 184.60, 330.00 185.00 C 330.00 185.40, 330.40 185.80, 331.00 186.00 C 331.60 186.20, 332.60 184.80, 333.00 186.00 C 333.40 187.20, 332.60 190.60, 333.00 192.00 C 333.40 193.40, 334.60 192.00, 335.00 193.00 C 335.40 194.00, 334.80 196.00, 335.00 197.00 C 335.20 198.00, 335.80 197.20, 336.00 198.00 C 336.20 198.80, 335.80 200.20, 336.00 201.00 C 336.20 201.80, 336.80 201.00, 337.00 202.00 C 337.20 203.00, 336.80 205.00, 337.00 206.00 C 337.20 207.00, 337.80 206.00, 338.00 207.00 C 338.20 208.00, 341.80 210.20, 338.00 211.00 C 334.20 211.80, 323.00 211.20, 319.00 211.00 C 315.00 210.80, 318.20 210.60, 318.00 210.00 C 317.80 209.40, 317.60 208.80, 318.00 208.00 C 318.40 207.20, 319.60 207.20, 320.00 206.00 C 320.40 204.80, 319.60 203.60, 320.00 202.00 C 320.40 200.40, 321.60 199.40, 322.00 198.00 C 322.40 196.60, 321.80 195.80, 322.00 195.00 C 322.20 194.20, 322.60 195.40, 323.00 194.00 C 323.40 192.60, 323.40 189.40, 324.00 188.00 C 324.60 186.60, 325.60 188.80, 326.00 187.00 C 326.40 185.20, 325.80 180.80, 326.00 179.00 C 326.20 177.20, 326.80 178.80, 327.00 178.00 C 327.20 177.20, 326.80 175.80, 327.00 175.00 C 327.20 174.20, 327.40 174.20, 328.00 174.00 C 328.60 173.80, 329.60 173.40, 330.00 174.00 Z M 457.00 168.00 C 460.00 168.20, 458.60 168.40, 459.00 169.00 C 459.40 169.60, 458.80 170.40, 459.00 171.00 C 459.20 171.60, 459.20 171.80, 460.00 172.00 C 460.80 172.20, 462.00 171.20, 463.00 172.00 C 464.00 172.80, 464.60 174.80, 465.00 176.00 C 465.40 177.20, 464.80 177.40, 465.00 178.00 C 465.20 178.60, 465.80 177.80, 466.00 179.00 C 466.20 180.20, 466.60 182.20, 466.00 184.00 C 465.40 185.80, 463.60 186.60, 463.00 188.00 C 462.40 189.40, 463.60 190.20, 463.00 191.00 C 462.40 191.80, 461.00 191.20, 460.00 192.00 C 459.00 192.80, 462.00 194.40, 458.00 195.00 C 454.00 195.60, 443.60 199.60, 440.00 195.00 C 436.40 190.40, 439.20 176.40, 440.00 172.00 C 440.80 167.60, 443.00 173.00, 444.00 173.00 C 445.00 173.00, 445.00 173.00, 445.00 172.00 C 445.00 171.00, 441.60 168.80, 444.00 168.00 C 446.40 167.20, 454.00 167.80, 457.00 168.00 Z M 476.00 19.00 C 475.60 20.40, 477.40 19.20, 477.00 23.00 C 476.60 26.80, 474.40 34.60, 474.00 38.00 C 473.60 41.40, 474.00 39.60, 475.00 40.00 C 476.00 40.40, 479.00 28.60, 479.00 40.00 C 479.00 51.40, 474.80 85.20, 475.00 97.00 C 475.20 108.80, 471.20 98.20, 480.00 99.00 C 488.80 99.80, 509.60 105.40, 519.00 101.00 C 528.40 96.60, 526.20 82.20, 527.00 77.00 C 527.80 71.80, 527.60 75.60, 523.00 75.00 C 518.40 74.40, 508.20 74.60, 504.00 74.00 C 499.80 73.40, 501.60 83.00, 502.00 72.00 C 502.40 61.00, 510.60 30.20, 506.00 19.00 C 501.40 7.80, 485.00 16.00, 479.00 16.00 C 473.00 16.00, 476.40 17.60, 476.00 19.00 Z M 187.00 15.00 C 176.80 16.00, 157.00 15.40, 149.00 21.00 C 141.00 26.60, 146.40 38.40, 147.00 43.00 C 147.60 47.60, 150.20 37.60, 152.00 44.00 C 153.80 50.40, 155.40 67.40, 156.00 75.00 C 156.60 82.60, 154.80 80.40, 155.00 82.00 C 155.20 83.60, 156.80 80.40, 157.00 83.00 C 157.20 85.60, 155.60 91.20, 156.00 95.00 C 156.40 98.80, 150.20 101.60, 159.00 102.00 C 167.80 102.40, 188.80 99.00, 200.00 97.00 C 211.20 95.00, 212.40 93.80, 215.00 92.00 C 217.60 90.20, 212.40 90.40, 213.00 88.00 C 213.60 85.60, 217.60 85.40, 218.00 80.00 C 218.40 74.60, 217.60 66.20, 215.00 61.00 C 212.40 55.80, 205.80 57.80, 205.00 54.00 C 204.20 50.20, 209.80 47.00, 211.00 42.00 C 212.20 37.00, 211.40 32.60, 211.00 29.00 C 210.60 25.40, 211.20 26.60, 209.00 24.00 C 206.80 21.40, 204.40 17.80, 200.00 16.00 C 195.60 14.20, 197.20 14.00, 187.00 15.00 Z M 192.00 70.00 C 192.60 72.00, 192.40 75.60, 192.00 77.00 C 191.60 78.40, 191.00 76.40, 190.00 77.00 C 189.00 77.60, 187.60 79.20, 187.00 80.00 C 186.40 80.80, 188.60 80.80, 187.00 81.00 C 185.40 81.20, 180.60 82.00, 179.00 81.00 C 177.40 80.00, 179.20 77.20, 179.00 76.00 C 178.80 74.80, 178.20 76.80, 178.00 75.00 C 177.80 73.20, 177.00 68.60, 178.00 67.00 C 179.00 65.40, 181.80 67.20, 183.00 67.00 C 184.20 66.80, 183.20 66.20, 184.00 66.00 C 184.80 65.80, 186.20 65.80, 187.00 66.00 C 187.80 66.20, 187.60 66.80, 188.00 67.00 C 188.40 67.20, 188.20 66.40, 189.00 67.00 C 189.80 67.60, 191.40 68.00, 192.00 70.00 Z M 182.00 38.00 C 183.80 38.20, 182.60 38.80, 183.00 39.00 C 183.40 39.20, 183.80 38.80, 184.00 39.00 C 184.20 39.20, 183.60 39.40, 184.00 40.00 C 184.40 40.60, 185.60 40.80, 186.00 42.00 C 186.40 43.20, 186.60 44.60, 186.00 46.00 C 185.40 47.40, 184.40 48.40, 183.00 49.00 C 181.60 49.60, 180.00 48.80, 179.00 49.00 C 178.00 49.20, 178.80 49.80, 178.00 50.00 C 177.20 50.20, 175.60 51.80, 175.00 50.00 C 174.40 48.20, 175.20 43.00, 175.00 41.00 C 174.80 39.00, 174.20 40.60, 174.00 40.00 C 173.80 39.40, 172.40 38.40, 174.00 38.00 C 175.60 37.60, 180.20 37.80, 182.00 38.00 Z M 443.00 14.00 C 435.60 20.20, 439.80 43.60, 436.00 44.00 C 432.20 44.40, 431.00 21.20, 424.00 16.00 C 417.00 10.80, 406.80 11.40, 401.00 18.00 C 395.20 24.60, 398.80 48.80, 395.00 49.00 C 391.20 49.20, 390.20 24.60, 382.00 19.00 C 373.80 13.40, 358.80 15.80, 354.00 21.00 C 349.20 26.20, 353.40 29.00, 358.00 45.00 C 362.60 61.00, 366.80 90.00, 377.00 101.00 C 387.20 112.00, 401.80 101.40, 409.00 100.00 C 416.20 98.60, 411.80 99.80, 413.00 94.00 C 414.20 88.20, 411.80 70.20, 415.00 71.00 C 418.20 71.80, 420.20 93.00, 429.00 98.00 C 437.80 103.00, 450.20 113.00, 459.00 96.00 C 467.80 79.00, 476.20 29.40, 473.00 13.00 C 469.80 -3.40, 450.40 7.80, 443.00 14.00 Z M 217.00 32.00 C 216.00 37.20, 217.00 36.60, 218.00 38.00 C 219.00 39.40, 221.60 28.00, 222.00 39.00 C 222.40 50.00, 215.80 81.80, 220.00 93.00 C 224.20 104.20, 237.80 95.20, 243.00 95.00 C 248.20 94.80, 245.60 95.20, 246.00 92.00 C 246.40 88.80, 244.60 81.80, 245.00 79.00 C 245.40 76.20, 245.80 74.80, 248.00 78.00 C 250.20 81.20, 249.20 91.40, 256.00 95.00 C 262.80 98.60, 277.00 97.20, 282.00 96.00 C 287.00 94.80, 282.80 93.40, 281.00 89.00 C 279.20 84.60, 274.60 78.20, 273.00 74.00 C 271.40 69.80, 271.00 71.20, 273.00 68.00 C 275.00 64.80, 280.40 62.80, 283.00 58.00 C 285.60 53.20, 285.60 48.80, 286.00 44.00 C 286.40 39.20, 286.60 39.00, 285.00 34.00 C 283.40 29.00, 282.80 23.40, 278.00 19.00 C 273.20 14.60, 272.00 13.40, 261.00 12.00 C 250.00 10.60, 231.80 8.00, 223.00 12.00 C 214.20 16.00, 218.00 26.80, 217.00 32.00 Z M 256.00 36.00 C 257.80 36.20, 255.20 36.00, 256.00 37.00 C 256.80 38.00, 259.00 40.20, 260.00 41.00 C 261.00 41.80, 260.80 40.00, 261.00 41.00 C 261.20 42.00, 261.20 44.80, 261.00 46.00 C 260.80 47.20, 260.20 46.60, 260.00 47.00 C 259.80 47.40, 260.40 47.40, 260.00 48.00 C 259.60 48.60, 258.80 49.60, 258.00 50.00 C 257.20 50.40, 256.60 49.80, 256.00 50.00 C 255.40 50.20, 256.80 50.80, 255.00 51.00 C 253.20 51.20, 248.80 51.20, 247.00 51.00 C 245.20 50.80, 246.20 52.80, 246.00 50.00 C 245.80 47.20, 245.80 39.80, 246.00 37.00 C 246.20 34.20, 245.00 36.20, 247.00 36.00 C 249.00 35.80, 254.20 35.80, 256.00 36.00 Z M 295.00 13.00 C 285.60 14.00, 294.00 10.40, 293.00 15.00 C 292.00 19.60, 289.20 31.80, 290.00 36.00 C 290.80 40.20, 297.80 23.60, 297.00 36.00 C 296.20 48.40, 283.00 86.00, 286.00 98.00 C 289.00 110.00, 306.20 98.80, 312.00 96.00 C 317.80 93.20, 310.00 86.60, 315.00 84.00 C 320.00 81.40, 331.80 81.00, 337.00 83.00 C 342.20 85.00, 335.00 92.20, 341.00 94.00 C 347.00 95.80, 362.40 94.20, 367.00 92.00 C 371.60 89.80, 364.40 86.00, 364.00 83.00 C 363.60 80.00, 365.40 78.40, 365.00 77.00 C 364.60 75.60, 364.20 81.00, 362.00 76.00 C 359.80 71.00, 355.40 57.60, 354.00 52.00 C 352.60 46.40, 355.40 49.20, 355.00 48.00 C 354.60 46.80, 355.00 53.60, 352.00 46.00 C 349.00 38.40, 351.40 16.60, 340.00 10.00 C 328.60 3.40, 304.40 12.00, 295.00 13.00 Z M 326.00 50.00 C 326.20 51.20, 326.60 50.80, 327.00 51.00 C 327.40 51.20, 327.80 50.60, 328.00 51.00 C 328.20 51.40, 327.80 52.40, 328.00 53.00 C 328.20 53.60, 328.80 53.40, 329.00 54.00 C 329.20 54.60, 328.80 55.40, 329.00 56.00 C 329.20 56.60, 329.80 56.00, 330.00 57.00 C 330.20 58.00, 330.20 60.00, 330.00 61.00 C 329.80 62.00, 331.20 61.80, 329.00 62.00 C 326.80 62.20, 321.00 63.00, 319.00 62.00 C 317.00 61.00, 318.80 58.20, 319.00 57.00 C 319.20 55.80, 319.80 57.20, 320.00 56.00 C 320.20 54.80, 319.80 52.20, 320.00 51.00 C 320.20 49.80, 320.80 51.00, 321.00 50.00 C 321.20 49.00, 320.60 46.80, 321.00 46.00 C 321.40 45.20, 322.40 46.20, 323.00 46.00 C 323.60 45.80, 323.40 45.20, 324.00 45.00 C 324.60 44.80, 325.60 44.00, 326.00 45.00 C 326.40 46.00, 325.80 48.80, 326.00 50.00 Z" fill="#000000" stroke="none" fill-rule="evenodd" />
  <path d="M 301.00 434.00 C 290.40 434.40, 290.40 435.60, 301.00 436.00 C 311.60 436.40, 343.40 436.40, 354.00 436.00 C 364.60 435.60, 364.60 434.40, 354.00 434.00 C 343.40 433.60, 311.60 433.60, 301.00 434.00 Z" fill="#EDBC43" stroke="none" fill-rule="evenodd" />
  <path d="M 426.00 440.00 C 419.80 435.60, 402.40 425.00, 395.00 421.00 C 387.60 417.00, 391.80 417.80, 389.00 420.00 C 386.20 422.20, 386.20 426.60, 381.00 432.00 C 375.80 437.40, 369.80 442.60, 363.00 447.00 C 356.20 451.40, 354.20 452.00, 347.00 454.00 C 339.80 456.00, 331.00 448.20, 327.00 457.00 C 323.00 465.80, 326.40 489.80, 327.00 498.00 C 327.60 506.20, 321.20 506.40, 330.00 498.00 C 338.80 489.60, 351.80 467.00, 371.00 456.00 C 390.20 445.00, 415.00 446.20, 426.00 443.00 C 437.00 439.80, 432.20 444.40, 426.00 440.00 Z" fill="#C55F3E" stroke="none" fill-rule="evenodd" />
  <path d="M 228.00 440.00 C 223.80 443.00, 226.20 441.00, 228.00 442.00 C 229.80 443.00, 234.40 444.60, 237.00 445.00 C 239.60 445.40, 231.40 442.00, 241.00 444.00 C 250.60 446.00, 271.60 448.20, 285.00 455.00 C 298.40 461.80, 302.40 471.80, 308.00 478.00 C 313.60 484.20, 310.20 483.20, 313.00 486.00 C 315.80 488.80, 319.80 490.00, 322.00 492.00 C 324.20 494.00, 322.80 495.20, 324.00 496.00 C 325.20 496.80, 327.20 502.40, 328.00 496.00 C 328.80 489.60, 328.40 471.80, 328.00 464.00 C 327.60 456.20, 331.00 459.20, 326.00 457.00 C 321.00 454.80, 309.60 455.00, 303.00 453.00 C 296.40 451.00, 295.80 448.20, 293.00 447.00 C 290.20 445.80, 292.60 449.60, 289.00 447.00 C 285.40 444.40, 279.80 439.40, 275.00 434.00 C 270.20 428.60, 268.20 422.60, 265.00 420.00 C 261.80 417.40, 260.80 420.00, 259.00 421.00 C 257.20 422.00, 258.00 423.80, 256.00 425.00 C 254.00 426.20, 254.60 424.00, 249.00 427.00 C 243.40 430.00, 232.20 437.00, 228.00 440.00 Z" fill="#FCBB20" stroke="none" fill-rule="evenodd" />
  <path d="M 391.00 347.00 C 384.20 351.80, 390.40 350.40, 391.00 352.00 C 391.60 353.60, 392.20 350.20, 394.00 355.00 C 395.80 359.80, 399.40 366.80, 400.00 376.00 C 400.60 385.20, 398.80 393.20, 397.00 401.00 C 395.20 408.80, 392.20 411.20, 391.00 415.00 C 389.80 418.80, 390.20 418.20, 391.00 420.00 C 391.80 421.80, 390.40 421.60, 395.00 424.00 C 399.60 426.40, 408.80 429.00, 414.00 432.00 C 419.20 435.00, 418.60 437.40, 421.00 439.00 C 423.40 440.60, 425.20 441.80, 426.00 440.00 C 426.80 438.20, 425.60 432.20, 425.00 430.00 C 424.40 427.80, 423.40 430.40, 423.00 429.00 C 422.60 427.60, 425.40 431.40, 423.00 423.00 C 420.60 414.60, 413.40 395.60, 411.00 387.00 C 408.60 378.40, 408.00 390.80, 411.00 380.00 C 414.00 369.20, 423.20 343.40, 426.00 333.00 C 428.80 322.60, 432.00 325.20, 425.00 328.00 C 418.00 330.80, 397.80 342.20, 391.00 347.00 Z" fill="#FCBB20" stroke="none" fill-rule="evenodd" />
  <path d="M 299.00 331.00 C 294.00 333.60, 289.40 337.60, 292.00 338.00 C 294.60 338.40, 306.60 333.20, 312.00 333.00 C 317.40 332.80, 317.00 334.20, 319.00 337.00 C 321.00 339.80, 323.40 342.20, 322.00 347.00 C 320.60 351.80, 317.00 356.80, 312.00 361.00 C 307.00 365.20, 302.60 367.60, 297.00 368.00 C 291.40 368.40, 286.60 367.40, 284.00 363.00 C 281.40 358.60, 284.80 349.20, 284.00 346.00 C 283.20 342.80, 283.00 341.80, 280.00 347.00 C 277.00 352.20, 270.60 361.40, 269.00 372.00 C 267.40 382.60, 269.40 391.80, 272.00 400.00 C 274.60 408.20, 276.80 408.20, 282.00 413.00 C 287.20 417.80, 294.40 419.60, 298.00 424.00 C 301.60 428.40, 288.80 432.80, 300.00 435.00 C 311.20 437.20, 342.40 437.60, 354.00 435.00 C 365.60 432.40, 353.60 427.20, 358.00 422.00 C 362.40 416.80, 370.60 415.20, 376.00 409.00 C 381.40 402.80, 383.40 399.80, 385.00 391.00 C 386.60 382.20, 385.60 373.00, 384.00 365.00 C 382.40 357.00, 382.40 357.60, 377.00 351.00 C 371.60 344.40, 363.80 337.00, 357.00 332.00 C 350.20 327.00, 351.00 327.40, 343.00 326.00 C 335.00 324.60, 325.80 324.00, 317.00 325.00 C 308.20 326.00, 304.00 328.40, 299.00 331.00 Z M 319.00 412.00 C 319.40 412.60, 318.20 413.60, 321.00 414.00 C 323.80 414.40, 330.40 414.20, 333.00 414.00 C 335.60 413.80, 333.60 413.20, 334.00 413.00 C 334.40 412.80, 334.60 413.20, 335.00 413.00 C 335.40 412.80, 336.20 412.60, 336.00 412.00 C 335.80 411.40, 334.40 410.60, 334.00 410.00 C 333.60 409.40, 334.20 409.40, 334.00 409.00 C 333.80 408.60, 333.20 408.40, 333.00 408.00 C 332.80 407.60, 333.40 407.60, 333.00 407.00 C 332.60 406.40, 331.40 405.60, 331.00 405.00 C 330.60 404.40, 331.20 404.40, 331.00 404.00 C 330.80 403.60, 330.20 403.40, 330.00 403.00 C 329.80 402.60, 330.40 402.60, 330.00 402.00 C 329.60 401.40, 328.80 400.40, 328.00 400.00 C 327.20 399.60, 326.60 399.80, 326.00 400.00 C 325.40 400.20, 325.20 400.40, 325.00 401.00 C 324.80 401.60, 325.40 402.20, 325.00 403.00 C 324.60 403.80, 323.40 404.40, 323.00 405.00 C 322.60 405.60, 323.40 405.40, 323.00 406.00 C 322.60 406.60, 321.40 407.40, 321.00 408.00 C 320.60 408.60, 321.40 408.40, 321.00 409.00 C 320.60 409.60, 319.40 410.40, 319.00 411.00 C 318.60 411.60, 318.60 411.40, 319.00 412.00 Z M 330.00 375.00 C 328.00 377.80, 329.40 377.60, 330.00 379.00 C 330.60 380.40, 331.00 381.80, 333.00 382.00 C 335.00 382.20, 338.60 379.80, 340.00 380.00 C 341.40 380.20, 340.40 382.00, 340.00 383.00 C 339.60 384.00, 338.60 383.80, 338.00 385.00 C 337.40 386.20, 337.00 385.80, 337.00 389.00 C 337.00 392.20, 336.20 396.80, 338.00 401.00 C 339.80 405.20, 341.40 408.00, 346.00 410.00 C 350.60 412.00, 356.60 412.00, 361.00 411.00 C 365.40 410.00, 366.00 407.20, 368.00 405.00 C 370.00 402.80, 370.20 403.20, 371.00 400.00 C 371.80 396.80, 372.00 392.00, 372.00 389.00 C 372.00 386.00, 371.80 386.20, 371.00 385.00 C 370.20 383.80, 368.60 383.80, 368.00 383.00 C 367.40 382.20, 368.80 382.40, 368.00 381.00 C 367.20 379.60, 366.20 377.40, 364.00 376.00 C 361.80 374.60, 361.40 373.60, 357.00 374.00 C 352.60 374.40, 345.00 377.80, 342.00 378.00 C 339.00 378.20, 341.20 376.20, 342.00 375.00 C 342.80 373.80, 345.00 373.40, 346.00 372.00 C 347.00 370.60, 347.60 369.40, 347.00 368.00 C 346.40 366.60, 344.40 365.60, 343.00 365.00 C 341.60 364.40, 342.60 363.00, 340.00 365.00 C 337.40 367.00, 332.00 372.20, 330.00 375.00 Z M 312.00 365.00 C 310.80 365.80, 308.80 367.80, 308.00 369.00 C 307.20 370.20, 307.00 369.60, 308.00 371.00 C 309.00 372.40, 312.00 374.60, 313.00 376.00 C 314.00 377.40, 313.60 377.60, 313.00 378.00 C 312.40 378.40, 311.40 378.60, 310.00 378.00 C 308.60 377.40, 307.60 375.80, 306.00 375.00 C 304.40 374.20, 304.20 374.00, 302.00 374.00 C 299.80 374.00, 298.00 373.60, 295.00 375.00 C 292.00 376.40, 288.60 379.40, 287.00 381.00 C 285.40 382.60, 287.40 382.40, 287.00 383.00 C 286.60 383.60, 285.80 382.80, 285.00 384.00 C 284.20 385.20, 283.20 385.80, 283.00 389.00 C 282.80 392.20, 282.40 396.20, 284.00 400.00 C 285.60 403.80, 288.60 405.80, 291.00 408.00 C 293.40 410.20, 293.20 410.40, 296.00 411.00 C 298.80 411.60, 301.60 412.00, 305.00 411.00 C 308.40 410.00, 310.60 408.00, 313.00 406.00 C 315.40 404.00, 315.80 404.00, 317.00 401.00 C 318.20 398.00, 319.00 393.80, 319.00 391.00 C 319.00 388.20, 317.40 388.80, 317.00 387.00 C 316.60 385.20, 316.40 383.00, 317.00 382.00 C 317.60 381.00, 318.60 382.40, 320.00 382.00 C 321.40 381.60, 323.00 381.20, 324.00 380.00 C 325.00 378.80, 327.00 379.00, 325.00 376.00 C 323.00 373.00, 316.60 367.20, 314.00 365.00 C 311.40 362.80, 313.20 364.20, 312.00 365.00 Z" fill="#FCBB20" stroke="none" fill-rule="evenodd" />
  <path d="M 281.00 116.00 C 265.00 116.40, 265.00 117.60, 281.00 118.00 C 297.00 118.40, 345.00 118.40, 361.00 118.00 C 377.00 117.60, 377.00 116.40, 361.00 116.00 C 345.00 115.60, 297.00 115.60, 281.00 116.00 Z" fill="#1B0100" stroke="none" fill-rule="evenodd" />
  <path d="M 228.00 328.00 C 224.00 335.80, 243.20 364.40, 243.00 387.00 C 242.80 409.60, 223.00 434.20, 227.00 441.00 C 231.00 447.80, 250.40 419.60, 263.00 421.00 C 275.60 422.40, 280.60 441.00, 290.00 448.00 C 299.40 455.00, 302.00 454.20, 310.00 456.00 C 318.00 457.80, 320.00 458.20, 330.00 457.00 C 340.00 455.80, 349.80 454.60, 360.00 450.00 C 370.20 445.40, 377.60 437.80, 381.00 434.00 C 384.40 430.20, 380.00 429.60, 377.00 431.00 C 374.00 432.40, 373.80 436.80, 366.00 441.00 C 358.20 445.20, 349.00 450.00, 338.00 452.00 C 327.00 454.00, 322.20 454.00, 311.00 451.00 C 299.80 448.00, 291.20 443.80, 282.00 437.00 C 272.80 430.20, 270.40 426.60, 265.00 417.00 C 259.60 407.40, 255.40 402.80, 255.00 389.00 C 254.60 375.20, 268.40 360.20, 263.00 348.00 C 257.60 335.80, 232.00 320.20, 228.00 328.00 Z" fill="#FCE15B" stroke="none" fill-rule="evenodd" />
  <path d="M 328.00 272.00 C 327.40 279.60, 322.80 301.20, 328.00 310.00 C 333.20 318.80, 345.80 313.20, 354.00 316.00 C 362.20 318.80, 363.80 320.40, 369.00 324.00 C 374.20 327.60, 376.00 329.20, 380.00 334.00 C 384.00 338.80, 379.40 349.40, 389.00 348.00 C 398.60 346.60, 420.20 331.60, 428.00 327.00 C 435.80 322.40, 440.00 328.20, 428.00 325.00 C 416.00 321.80, 387.40 321.60, 368.00 311.00 C 348.60 300.40, 339.00 279.80, 331.00 272.00 C 323.00 264.20, 328.60 264.40, 328.00 272.00 Z" fill="#FCE15B" stroke="none" fill-rule="evenodd" />
  <path d="M 353.00 274.00 C 341.20 274.40, 341.20 275.60, 353.00 276.00 C 364.80 276.40, 400.20 276.40, 412.00 276.00 C 423.80 275.60, 423.80 274.40, 412.00 274.00 C 400.20 273.60, 364.80 273.60, 353.00 274.00 Z" fill="#C7262A" stroke="none" fill-rule="evenodd" />
  <path d="M 249.00 271.00 C 248.60 272.00, 238.80 275.00, 249.00 276.00 C 259.20 277.00, 289.60 276.20, 300.00 276.00 C 310.40 275.80, 300.80 276.00, 301.00 275.00 C 301.20 274.00, 301.40 271.80, 301.00 271.00 C 300.60 270.20, 299.80 270.40, 299.00 271.00 C 298.20 271.60, 306.40 273.40, 297.00 274.00 C 287.60 274.60, 261.20 274.20, 252.00 274.00 C 242.80 273.80, 251.20 273.60, 251.00 273.00 C 250.80 272.40, 251.40 271.40, 251.00 271.00 C 250.60 270.60, 249.40 270.00, 249.00 271.00 Z" fill="#C7262A" stroke="none" fill-rule="evenodd" />
  <path d="M 275.00 119.00 C 274.80 119.80, 274.20 121.80, 275.00 122.00 C 275.80 122.20, 277.00 120.20, 279.00 120.00 C 281.00 119.80, 269.00 121.00, 285.00 121.00 C 301.00 121.00, 343.40 119.40, 359.00 120.00 C 374.60 120.60, 361.80 123.20, 363.00 124.00 C 364.20 124.80, 364.60 124.80, 365.00 124.00 C 365.40 123.20, 365.40 121.20, 365.00 120.00 C 364.60 118.80, 380.80 118.40, 363.00 118.00 C 345.20 117.60, 293.60 117.80, 276.00 118.00 C 258.40 118.20, 275.20 118.20, 275.00 119.00 Z" fill="#C7262A" stroke="none" fill-rule="evenodd" />
  <path d="M 301.00 435.00 C 290.60 435.40, 290.60 436.60, 301.00 437.00 C 311.40 437.40, 342.60 437.40, 353.00 437.00 C 363.40 436.60, 363.40 435.40, 353.00 435.00 C 342.60 434.60, 311.40 434.60, 301.00 435.00 Z" fill="#705311" stroke="none" fill-rule="evenodd" />
  <path d="M 288.00 343.00 C 287.20 344.20, 287.40 344.60, 288.00 345.00 C 288.60 345.40, 290.00 345.40, 291.00 345.00 C 292.00 344.60, 292.20 343.40, 293.00 343.00 C 293.80 342.60, 294.60 343.20, 295.00 343.00 C 295.40 342.80, 294.60 342.60, 295.00 342.00 C 295.40 341.40, 296.00 340.40, 297.00 340.00 C 298.00 339.60, 299.20 340.20, 300.00 340.00 C 300.80 339.80, 300.40 339.20, 301.00 339.00 C 301.60 338.80, 302.60 339.20, 303.00 339.00 C 303.40 338.80, 302.80 338.40, 303.00 338.00 C 303.20 337.60, 302.60 337.20, 304.00 337.00 C 305.40 336.80, 308.60 337.20, 310.00 337.00 C 311.40 336.80, 310.60 336.00, 311.00 336.00 C 311.40 336.00, 311.60 336.80, 312.00 337.00 C 312.40 337.20, 312.40 336.60, 313.00 337.00 C 313.60 337.40, 314.60 338.40, 315.00 339.00 C 315.40 339.60, 314.40 339.40, 315.00 340.00 C 315.60 340.60, 317.40 341.40, 318.00 342.00 C 318.60 342.60, 317.80 342.60, 318.00 343.00 C 318.20 343.40, 318.40 343.80, 319.00 344.00 C 319.60 344.20, 320.60 344.80, 321.00 344.00 C 321.40 343.20, 321.60 341.60, 321.00 340.00 C 320.40 338.40, 318.80 336.80, 318.00 336.00 C 317.20 335.20, 317.80 336.40, 317.00 336.00 C 316.20 335.60, 316.80 334.40, 314.00 334.00 C 311.20 333.60, 305.40 333.80, 303.00 334.00 C 300.60 334.20, 302.60 334.80, 302.00 335.00 C 301.40 335.20, 300.60 334.80, 300.00 335.00 C 299.40 335.20, 300.60 335.20, 299.00 336.00 C 297.40 336.80, 294.20 337.60, 292.00 339.00 C 289.80 340.40, 288.80 341.80, 288.00 343.00 Z" fill="#F5F5F2" stroke="none" fill-rule="evenodd" />
  <path d="M 237.00 331.00 C 235.60 331.40, 236.80 332.60, 237.00 333.00 C 237.20 333.40, 237.40 332.60, 238.00 333.00 C 238.60 333.40, 238.60 334.20, 240.00 335.00 C 241.40 335.80, 243.60 336.20, 245.00 337.00 C 246.40 337.80, 246.00 338.40, 247.00 339.00 C 248.00 339.60, 249.00 339.40, 250.00 340.00 C 251.00 340.60, 251.20 341.60, 252.00 342.00 C 252.80 342.40, 253.20 341.60, 254.00 342.00 C 254.80 342.40, 255.00 343.40, 256.00 344.00 C 257.00 344.60, 258.00 344.40, 259.00 345.00 C 260.00 345.60, 260.40 346.60, 261.00 347.00 C 261.60 347.40, 261.60 346.80, 262.00 347.00 C 262.40 347.20, 262.20 347.80, 263.00 348.00 C 263.80 348.20, 265.40 348.20, 266.00 348.00 C 266.60 347.80, 265.80 347.40, 266.00 347.00 C 266.20 346.60, 266.80 346.60, 267.00 346.00 C 267.20 345.40, 267.60 344.40, 267.00 344.00 C 266.40 343.60, 265.00 344.40, 264.00 344.00 C 263.00 343.60, 262.80 342.40, 262.00 342.00 C 261.20 341.60, 261.00 342.40, 260.00 342.00 C 259.00 341.60, 258.00 340.40, 257.00 340.00 C 256.00 339.60, 255.80 340.40, 255.00 340.00 C 254.20 339.60, 254.00 338.60, 253.00 338.00 C 252.00 337.40, 251.80 338.40, 250.00 337.00 C 248.20 335.60, 246.60 332.20, 244.00 331.00 C 241.40 329.80, 238.40 330.60, 237.00 331.00 Z" fill="#F5F5F2" stroke="none" fill-rule="evenodd" />
  <path d="M 325.00 268.00 C 323.60 269.00, 321.00 271.60, 320.00 273.00 C 319.00 274.40, 319.60 274.60, 320.00 275.00 C 320.40 275.40, 321.20 274.60, 322.00 275.00 C 322.80 275.40, 323.60 276.20, 324.00 277.00 C 324.40 277.80, 323.80 278.40, 324.00 279.00 C 324.20 279.60, 325.00 279.00, 325.00 280.00 C 325.00 281.00, 324.40 283.00, 324.00 284.00 C 323.60 285.00, 323.20 284.40, 323.00 285.00 C 322.80 285.60, 322.60 286.00, 323.00 287.00 C 323.40 288.00, 324.60 286.40, 325.00 290.00 C 325.40 293.60, 325.20 301.80, 325.00 305.00 C 324.80 308.20, 324.20 304.80, 324.00 306.00 C 323.80 307.20, 323.80 309.80, 324.00 311.00 C 324.20 312.20, 324.40 311.80, 325.00 312.00 C 325.60 312.20, 326.60 320.80, 327.00 312.00 C 327.40 303.20, 327.40 276.80, 327.00 268.00 C 326.60 259.20, 326.40 267.00, 325.00 268.00 Z" fill="#F5F5F2" stroke="none" fill-rule="evenodd" />
  <path d="M 238.00 333.00 C 237.40 333.40, 237.80 334.40, 238.00 335.00 C 238.20 335.60, 238.60 335.80, 239.00 336.00 C 239.40 336.20, 239.60 335.80, 240.00 336.00 C 240.40 336.20, 240.60 336.80, 241.00 337.00 C 241.40 337.20, 241.40 336.60, 242.00 337.00 C 242.60 337.40, 243.00 338.40, 244.00 339.00 C 245.00 339.60, 245.80 339.20, 247.00 340.00 C 248.20 340.80, 248.80 342.40, 250.00 343.00 C 251.20 343.60, 251.80 342.40, 253.00 343.00 C 254.20 343.60, 254.80 345.20, 256.00 346.00 C 257.20 346.80, 258.00 346.40, 259.00 347.00 C 260.00 347.60, 260.60 347.60, 261.00 349.00 C 261.40 350.40, 260.60 353.00, 261.00 354.00 C 261.40 355.00, 262.60 354.20, 263.00 354.00 C 263.40 353.80, 262.60 353.80, 263.00 353.00 C 263.40 352.20, 264.60 351.20, 265.00 350.00 C 265.40 348.80, 265.20 347.80, 265.00 347.00 C 264.80 346.20, 264.40 346.20, 264.00 346.00 C 263.60 345.80, 263.60 346.40, 263.00 346.00 C 262.40 345.60, 262.00 344.60, 261.00 344.00 C 260.00 343.40, 259.00 343.60, 258.00 343.00 C 257.00 342.40, 256.80 341.40, 256.00 341.00 C 255.20 340.60, 254.80 341.40, 254.00 341.00 C 253.20 340.60, 253.40 339.80, 252.00 339.00 C 250.60 338.20, 248.40 337.80, 247.00 337.00 C 245.60 336.20, 245.60 335.40, 245.00 335.00 C 244.40 334.60, 244.80 335.40, 244.00 335.00 C 243.20 334.60, 242.20 333.40, 241.00 333.00 C 239.80 332.60, 238.60 332.60, 238.00 333.00 Z" fill="#F3DE80" stroke="none" fill-rule="evenodd" />
  <path d="M 328.00 269.00 C 327.20 269.20, 326.40 267.80, 326.00 270.00 C 325.60 272.20, 325.80 277.80, 326.00 280.00 C 326.20 282.20, 326.80 280.40, 327.00 281.00 C 327.20 281.60, 327.20 282.40, 327.00 283.00 C 326.80 283.60, 326.20 278.60, 326.00 284.00 C 325.80 289.40, 325.80 304.40, 326.00 310.00 C 326.20 315.60, 324.40 311.40, 327.00 312.00 C 329.60 312.60, 336.60 313.20, 339.00 313.00 C 341.40 312.80, 340.60 311.60, 339.00 311.00 C 337.40 310.40, 333.00 310.60, 331.00 310.00 C 329.00 309.40, 329.40 309.60, 329.00 308.00 C 328.60 306.40, 329.20 303.40, 329.00 302.00 C 328.80 300.60, 328.00 306.20, 328.00 301.00 C 328.00 295.80, 328.60 281.20, 329.00 276.00 C 329.40 270.80, 329.40 274.80, 330.00 275.00 C 330.60 275.20, 331.00 276.60, 332.00 277.00 C 333.00 277.40, 334.40 277.40, 335.00 277.00 C 335.60 276.60, 336.00 276.60, 335.00 275.00 C 334.00 273.40, 331.40 270.20, 330.00 269.00 C 328.60 267.80, 328.80 268.80, 328.00 269.00 Z" fill="#F3DE80" stroke="none" fill-rule="evenodd" />
  <path d="M 352.00 275.00 C 340.00 275.40, 340.00 276.60, 352.00 277.00 C 364.00 277.40, 400.00 277.40, 412.00 277.00 C 424.00 276.60, 424.00 275.40, 412.00 275.00 C 400.00 274.60, 364.00 274.60, 352.00 275.00 Z" fill="#3E0400" stroke="none" fill-rule="evenodd" />
  <path d="M 249.00 275.00 C 238.60 275.40, 238.60 276.60, 249.00 277.00 C 259.40 277.40, 290.60 277.40, 301.00 277.00 C 311.40 276.60, 311.40 275.40, 301.00 275.00 C 290.60 274.60, 259.40 274.60, 249.00 275.00 Z" fill="#3E0400" stroke="none" fill-rule="evenodd" />
  <path d="M 275.00 117.00 C 257.00 117.40, 257.00 118.60, 275.00 119.00 C 293.00 119.40, 347.00 119.40, 365.00 119.00 C 383.00 118.60, 383.00 117.40, 365.00 117.00 C 347.00 116.60, 293.00 116.60, 275.00 117.00 Z" fill="#3E0400" stroke="none" fill-rule="evenodd" />
  <path d="M 460.00 275.00 C 459.60 275.40, 459.40 276.60, 460.00 277.00 C 460.60 277.40, 462.20 276.80, 463.00 277.00 C 463.80 277.20, 460.80 277.80, 464.00 278.00 C 467.20 278.20, 475.80 277.80, 479.00 278.00 C 482.20 278.20, 475.20 278.80, 480.00 279.00 C 484.80 279.20, 498.40 279.40, 503.00 279.00 C 507.60 278.60, 503.80 277.40, 503.00 277.00 C 502.20 276.60, 500.00 277.20, 499.00 277.00 C 498.00 276.80, 498.60 276.20, 498.00 276.00 C 497.40 275.80, 496.60 275.80, 496.00 276.00 C 495.40 276.20, 496.60 276.80, 495.00 277.00 C 493.40 277.20, 489.60 277.20, 488.00 277.00 C 486.40 276.80, 490.00 276.20, 487.00 276.00 C 484.00 275.80, 476.20 276.60, 473.00 276.00 C 469.80 275.40, 472.80 273.60, 471.00 273.00 C 469.20 272.40, 465.80 272.60, 464.00 273.00 C 462.20 273.40, 462.80 274.60, 462.00 275.00 C 461.20 275.40, 460.40 274.60, 460.00 275.00 Z" fill="#E41C1D" stroke="none" fill-rule="evenodd" />
  <path d="M 348.00 219.00 C 347.80 218.00, 347.40 219.20, 347.00 219.00 C 346.60 218.80, 346.20 218.40, 346.00 218.00 C 345.80 217.60, 347.60 217.20, 346.00 217.00 C 344.40 216.80, 339.80 216.80, 338.00 217.00 C 336.20 217.20, 337.60 217.80, 337.00 218.00 C 336.40 218.20, 335.60 217.80, 335.00 218.00 C 334.40 218.20, 337.00 218.80, 334.00 219.00 C 331.00 219.20, 322.80 218.40, 320.00 219.00 C 317.20 219.60, 317.20 221.40, 320.00 222.00 C 322.80 222.60, 331.00 221.80, 334.00 222.00 C 337.00 222.20, 334.40 222.80, 335.00 223.00 C 335.60 223.20, 336.20 223.40, 337.00 223.00 C 337.80 222.60, 338.00 221.60, 339.00 221.00 C 340.00 220.40, 340.80 219.60, 342.00 220.00 C 343.20 220.40, 344.40 222.20, 345.00 223.00 C 345.60 223.80, 344.40 223.80, 345.00 224.00 C 345.60 224.20, 347.40 225.00, 348.00 224.00 C 348.60 223.00, 348.20 220.00, 348.00 219.00 Z" fill="#E41C1D" stroke="none" fill-rule="evenodd" />
  <path d="M 146.00 140.00 C 145.80 140.60, 145.20 141.60, 146.00 142.00 C 146.80 142.40, 149.00 142.20, 150.00 142.00 C 151.00 141.80, 150.60 141.20, 151.00 141.00 C 151.40 140.80, 151.40 140.60, 152.00 141.00 C 152.60 141.40, 153.20 142.60, 154.00 143.00 C 154.80 143.40, 155.40 143.20, 156.00 143.00 C 156.60 142.80, 154.20 142.20, 157.00 142.00 C 159.80 141.80, 167.40 142.60, 170.00 142.00 C 172.60 141.40, 171.60 139.60, 170.00 139.00 C 168.40 138.40, 163.80 139.20, 162.00 139.00 C 160.20 138.80, 162.20 138.20, 161.00 138.00 C 159.80 137.80, 157.40 138.40, 156.00 138.00 C 154.60 137.60, 154.80 136.40, 154.00 136.00 C 153.20 135.60, 152.80 135.60, 152.00 136.00 C 151.20 136.40, 150.60 137.80, 150.00 138.00 C 149.40 138.20, 149.20 137.60, 149.00 137.00 C 148.80 136.40, 149.40 135.40, 149.00 135.00 C 148.60 134.60, 147.40 134.20, 147.00 135.00 C 146.60 135.80, 147.20 138.00, 147.00 139.00 C 146.80 140.00, 146.20 139.40, 146.00 140.00 Z" fill="#E41C1D" stroke="none" fill-rule="evenodd" />
  <path d="M 277.00 119.00 C 260.20 119.40, 275.80 120.60, 277.00 121.00 C 278.20 121.40, 281.40 120.60, 283.00 121.00 C 284.60 121.40, 284.20 122.60, 285.00 123.00 C 285.80 123.40, 286.40 122.60, 287.00 123.00 C 287.60 123.40, 275.20 124.60, 288.00 125.00 C 300.80 125.40, 338.20 125.40, 351.00 125.00 C 363.80 124.60, 351.20 123.20, 352.00 123.00 C 352.80 122.80, 354.00 124.40, 355.00 124.00 C 356.00 123.60, 355.80 121.60, 357.00 121.00 C 358.20 120.40, 360.20 121.40, 361.00 121.00 C 361.80 120.60, 377.80 119.40, 361.00 119.00 C 344.20 118.60, 293.80 118.60, 277.00 119.00 Z M 289.00 123.00 C 301.60 123.20, 338.40 123.20, 351.00 123.00 C 363.60 122.80, 352.00 122.40, 352.00 122.00 C 352.00 121.60, 363.60 121.20, 351.00 121.00 C 338.40 120.80, 301.60 120.80, 289.00 121.00 C 276.40 121.20, 288.00 121.60, 288.00 122.00 C 288.00 122.40, 276.40 122.80, 289.00 123.00 Z" fill="#E41C1D" stroke="none" fill-rule="evenodd" />
  <path d="M 339.00 387.00 C 338.40 387.20, 338.20 385.60, 338.00 388.00 C 337.80 390.40, 337.40 396.20, 338.00 399.00 C 338.60 401.80, 340.40 401.20, 341.00 402.00 C 341.60 402.80, 340.20 402.00, 341.00 403.00 C 341.80 404.00, 344.00 406.20, 345.00 407.00 C 346.00 407.80, 345.60 406.80, 346.00 407.00 C 346.40 407.20, 346.00 407.80, 347.00 408.00 C 348.00 408.20, 350.20 408.60, 351.00 408.00 C 351.80 407.40, 351.20 405.60, 351.00 405.00 C 350.80 404.40, 350.80 405.60, 350.00 405.00 C 349.20 404.40, 347.60 402.80, 347.00 402.00 C 346.40 401.20, 347.40 401.20, 347.00 401.00 C 346.60 400.80, 345.80 401.40, 345.00 401.00 C 344.20 400.60, 343.40 400.00, 343.00 399.00 C 342.60 398.00, 343.40 397.20, 343.00 396.00 C 342.60 394.80, 341.40 394.80, 341.00 393.00 C 340.60 391.20, 341.40 388.20, 341.00 387.00 C 340.60 385.80, 339.60 386.80, 339.00 387.00 Z" fill="#080305" stroke="none" fill-rule="evenodd" />
  <path d="M 387.00 373.00 C 386.40 373.20, 386.20 370.80, 386.00 374.00 C 385.80 377.20, 386.20 385.80, 386.00 389.00 C 385.80 392.20, 385.20 388.80, 385.00 390.00 C 384.80 391.20, 384.80 394.00, 385.00 395.00 C 385.20 396.00, 385.60 394.80, 386.00 395.00 C 386.40 395.20, 386.80 395.40, 387.00 396.00 C 387.20 396.60, 386.80 397.40, 387.00 398.00 C 387.20 398.60, 387.80 398.60, 388.00 399.00 C 388.20 399.40, 387.60 399.80, 388.00 400.00 C 388.40 400.20, 389.60 402.80, 390.00 400.00 C 390.40 397.20, 389.80 389.00, 390.00 386.00 C 390.20 383.00, 390.80 385.60, 391.00 385.00 C 391.20 384.40, 391.40 384.00, 391.00 383.00 C 390.60 382.00, 389.40 382.00, 389.00 380.00 C 388.60 378.00, 389.40 374.40, 389.00 373.00 C 388.60 371.60, 387.60 372.80, 387.00 373.00 Z" fill="#080305" stroke="none" fill-rule="evenodd" />
  <path d="M 354.00 276.00 C 341.80 276.80, 352.80 279.20, 354.00 280.00 C 355.20 280.80, 358.20 280.40, 360.00 280.00 C 361.80 279.60, 362.20 278.20, 363.00 278.00 C 363.80 277.80, 363.00 278.80, 364.00 279.00 C 365.00 279.20, 367.00 279.20, 368.00 279.00 C 369.00 278.80, 361.40 278.20, 369.00 278.00 C 376.60 277.80, 398.40 277.80, 406.00 278.00 C 413.60 278.20, 405.20 278.60, 407.00 279.00 C 408.80 279.40, 413.40 280.60, 415.00 280.00 C 416.60 279.40, 427.20 276.80, 415.00 276.00 C 402.80 275.20, 366.20 275.20, 354.00 276.00 Z" fill="#080305" stroke="none" fill-rule="evenodd" />
  <path d="M 287.00 114.00 C 273.60 114.40, 273.60 115.60, 287.00 116.00 C 300.40 116.40, 340.60 116.40, 354.00 116.00 C 367.40 115.60, 367.40 114.40, 354.00 114.00 C 340.60 113.60, 300.40 113.60, 287.00 114.00 Z" fill="#080305" stroke="none" fill-rule="evenodd" />
</svg>